G04 #@! TF.GenerationSoftware,KiCad,Pcbnew,9.0.2*
G04 #@! TF.CreationDate,2025-07-01T19:52:47+02:00*
G04 #@! TF.ProjectId,CPU_X-3,4350555f-582d-4332-9e6b-696361645f70,3*
G04 #@! TF.SameCoordinates,Original*
G04 #@! TF.FileFunction,Copper,L2,Bot*
G04 #@! TF.FilePolarity,Positive*
%FSLAX46Y46*%
G04 Gerber Fmt 4.6, Leading zero omitted, Abs format (unit mm)*
G04 Created by KiCad (PCBNEW 9.0.2) date 2025-07-01 19:52:47*
%MOMM*%
%LPD*%
G01*
G04 APERTURE LIST*
G04 Aperture macros list*
%AMRoundRect*
0 Rectangle with rounded corners*
0 $1 Rounding radius*
0 $2 $3 $4 $5 $6 $7 $8 $9 X,Y pos of 4 corners*
0 Add a 4 corners polygon primitive as box body*
4,1,4,$2,$3,$4,$5,$6,$7,$8,$9,$2,$3,0*
0 Add four circle primitives for the rounded corners*
1,1,$1+$1,$2,$3*
1,1,$1+$1,$4,$5*
1,1,$1+$1,$6,$7*
1,1,$1+$1,$8,$9*
0 Add four rect primitives between the rounded corners*
20,1,$1+$1,$2,$3,$4,$5,0*
20,1,$1+$1,$4,$5,$6,$7,0*
20,1,$1+$1,$6,$7,$8,$9,0*
20,1,$1+$1,$8,$9,$2,$3,0*%
%AMFreePoly0*
4,1,23,0.500000,-0.750000,0.000000,-0.750000,0.000000,-0.745722,-0.065263,-0.745722,-0.191342,-0.711940,-0.304381,-0.646677,-0.396677,-0.554381,-0.461940,-0.441342,-0.495722,-0.315263,-0.495722,-0.250000,-0.500000,-0.250000,-0.500000,0.250000,-0.495722,0.250000,-0.495722,0.315263,-0.461940,0.441342,-0.396677,0.554381,-0.304381,0.646677,-0.191342,0.711940,-0.065263,0.745722,0.000000,0.745722,
0.000000,0.750000,0.500000,0.750000,0.500000,-0.750000,0.500000,-0.750000,$1*%
%AMFreePoly1*
4,1,23,0.000000,0.745722,0.065263,0.745722,0.191342,0.711940,0.304381,0.646677,0.396677,0.554381,0.461940,0.441342,0.495722,0.315263,0.495722,0.250000,0.500000,0.250000,0.500000,-0.250000,0.495722,-0.250000,0.495722,-0.315263,0.461940,-0.441342,0.396677,-0.554381,0.304381,-0.646677,0.191342,-0.711940,0.065263,-0.745722,0.000000,-0.745722,0.000000,-0.750000,-0.500000,-0.750000,
-0.500000,0.750000,0.000000,0.750000,0.000000,0.745722,0.000000,0.745722,$1*%
G04 Aperture macros list end*
G04 #@! TA.AperFunction,EtchedComponent*
%ADD10C,0.000000*%
G04 #@! TD*
G04 #@! TA.AperFunction,ComponentPad*
%ADD11C,1.800000*%
G04 #@! TD*
G04 #@! TA.AperFunction,ComponentPad*
%ADD12R,1.800000X1.800000*%
G04 #@! TD*
G04 #@! TA.AperFunction,ComponentPad*
%ADD13C,1.600000*%
G04 #@! TD*
G04 #@! TA.AperFunction,ComponentPad*
%ADD14R,1.700000X1.700000*%
G04 #@! TD*
G04 #@! TA.AperFunction,ComponentPad*
%ADD15C,1.700000*%
G04 #@! TD*
G04 #@! TA.AperFunction,ComponentPad*
%ADD16RoundRect,0.142858X-1.057142X-0.657142X1.057142X-0.657142X1.057142X0.657142X-1.057142X0.657142X0*%
G04 #@! TD*
G04 #@! TA.AperFunction,ComponentPad*
%ADD17R,2.400000X1.600000*%
G04 #@! TD*
G04 #@! TA.AperFunction,ComponentPad*
%ADD18C,2.000000*%
G04 #@! TD*
G04 #@! TA.AperFunction,ComponentPad*
%ADD19RoundRect,0.250000X-0.950000X-0.550000X0.950000X-0.550000X0.950000X0.550000X-0.950000X0.550000X0*%
G04 #@! TD*
G04 #@! TA.AperFunction,ComponentPad*
%ADD20O,2.400000X1.600000*%
G04 #@! TD*
G04 #@! TA.AperFunction,ComponentPad*
%ADD21C,2.400000*%
G04 #@! TD*
G04 #@! TA.AperFunction,ComponentPad*
%ADD22C,1.500000*%
G04 #@! TD*
G04 #@! TA.AperFunction,ComponentPad*
%ADD23RoundRect,0.142858X1.057142X0.657142X-1.057142X0.657142X-1.057142X-0.657142X1.057142X-0.657142X0*%
G04 #@! TD*
G04 #@! TA.AperFunction,ComponentPad*
%ADD24RoundRect,0.250000X0.950000X0.550000X-0.950000X0.550000X-0.950000X-0.550000X0.950000X-0.550000X0*%
G04 #@! TD*
G04 #@! TA.AperFunction,ComponentPad*
%ADD25R,2.000000X1.440000*%
G04 #@! TD*
G04 #@! TA.AperFunction,ComponentPad*
%ADD26O,2.000000X1.440000*%
G04 #@! TD*
G04 #@! TA.AperFunction,ComponentPad*
%ADD27R,1.600000X1.600000*%
G04 #@! TD*
G04 #@! TA.AperFunction,ComponentPad*
%ADD28RoundRect,0.250000X-1.000000X1.000000X-1.000000X-1.000000X1.000000X-1.000000X1.000000X1.000000X0*%
G04 #@! TD*
G04 #@! TA.AperFunction,ComponentPad*
%ADD29C,2.500000*%
G04 #@! TD*
G04 #@! TA.AperFunction,ComponentPad*
%ADD30RoundRect,0.250000X-0.550000X-0.550000X0.550000X-0.550000X0.550000X0.550000X-0.550000X0.550000X0*%
G04 #@! TD*
G04 #@! TA.AperFunction,ComponentPad*
%ADD31RoundRect,0.250001X0.949999X-0.949999X0.949999X0.949999X-0.949999X0.949999X-0.949999X-0.949999X0*%
G04 #@! TD*
G04 #@! TA.AperFunction,ComponentPad*
%ADD32R,2.250000X2.250000*%
G04 #@! TD*
G04 #@! TA.AperFunction,ComponentPad*
%ADD33C,2.250000*%
G04 #@! TD*
G04 #@! TA.AperFunction,ComponentPad*
%ADD34O,1.600000X1.600000*%
G04 #@! TD*
G04 #@! TA.AperFunction,SMDPad,CuDef*
%ADD35FreePoly0,0.000000*%
G04 #@! TD*
G04 #@! TA.AperFunction,SMDPad,CuDef*
%ADD36FreePoly1,0.000000*%
G04 #@! TD*
G04 #@! TA.AperFunction,SMDPad,CuDef*
%ADD37C,1.000000*%
G04 #@! TD*
G04 #@! TA.AperFunction,SMDPad,CuDef*
%ADD38R,1.500000X1.000000*%
G04 #@! TD*
G04 #@! TA.AperFunction,SMDPad,CuDef*
%ADD39R,1.500000X1.500000*%
G04 #@! TD*
G04 #@! TA.AperFunction,SMDPad,CuDef*
%ADD40R,1.000000X1.500000*%
G04 #@! TD*
G04 #@! TA.AperFunction,ViaPad*
%ADD41C,0.800000*%
G04 #@! TD*
G04 #@! TA.AperFunction,Conductor*
%ADD42C,2.000000*%
G04 #@! TD*
G04 #@! TA.AperFunction,Conductor*
%ADD43C,1.000000*%
G04 #@! TD*
G04 #@! TA.AperFunction,Conductor*
%ADD44C,3.000000*%
G04 #@! TD*
G04 #@! TA.AperFunction,Conductor*
%ADD45C,5.000000*%
G04 #@! TD*
G04 #@! TA.AperFunction,Conductor*
%ADD46C,0.500000*%
G04 #@! TD*
G04 #@! TA.AperFunction,Conductor*
%ADD47C,1.500000*%
G04 #@! TD*
G04 #@! TA.AperFunction,Conductor*
%ADD48C,0.250000*%
G04 #@! TD*
G04 APERTURE END LIST*
D10*
G04 #@! TA.AperFunction,EtchedComponent*
G36*
X76196000Y-120823000D02*
G01*
X75696000Y-120823000D01*
X75696000Y-120223000D01*
X76196000Y-120223000D01*
X76196000Y-120823000D01*
G37*
G04 #@! TD.AperFunction*
G04 #@! TA.AperFunction,EtchedComponent*
G36*
X55164000Y-188860000D02*
G01*
X54564000Y-188860000D01*
X54564000Y-188360000D01*
X55164000Y-188360000D01*
X55164000Y-188860000D01*
G37*
G04 #@! TD.AperFunction*
G04 #@! TA.AperFunction,EtchedComponent*
G36*
X159523000Y-132507000D02*
G01*
X159023000Y-132507000D01*
X159023000Y-131907000D01*
X159523000Y-131907000D01*
X159523000Y-132507000D01*
G37*
G04 #@! TD.AperFunction*
G04 #@! TA.AperFunction,EtchedComponent*
G36*
X49449000Y-188860000D02*
G01*
X48849000Y-188860000D01*
X48849000Y-188360000D01*
X49449000Y-188360000D01*
X49449000Y-188860000D01*
G37*
G04 #@! TD.AperFunction*
G04 #@! TA.AperFunction,EtchedComponent*
G36*
X159523000Y-124887000D02*
G01*
X159023000Y-124887000D01*
X159023000Y-124287000D01*
X159523000Y-124287000D01*
X159523000Y-124887000D01*
G37*
G04 #@! TD.AperFunction*
G04 #@! TA.AperFunction,EtchedComponent*
G36*
X159493000Y-137587000D02*
G01*
X158993000Y-137587000D01*
X158993000Y-136987000D01*
X159493000Y-136987000D01*
X159493000Y-137587000D01*
G37*
G04 #@! TD.AperFunction*
G04 #@! TA.AperFunction,EtchedComponent*
G36*
X135236000Y-134920000D02*
G01*
X134736000Y-134920000D01*
X134736000Y-134320000D01*
X135236000Y-134320000D01*
X135236000Y-134920000D01*
G37*
G04 #@! TD.AperFunction*
G04 #@! TA.AperFunction,EtchedComponent*
G36*
X135251000Y-140000000D02*
G01*
X134751000Y-140000000D01*
X134751000Y-139400000D01*
X135251000Y-139400000D01*
X135251000Y-140000000D01*
G37*
G04 #@! TD.AperFunction*
G04 #@! TA.AperFunction,EtchedComponent*
G36*
X132203000Y-145080000D02*
G01*
X131703000Y-145080000D01*
X131703000Y-144480000D01*
X132203000Y-144480000D01*
X132203000Y-145080000D01*
G37*
G04 #@! TD.AperFunction*
G04 #@! TA.AperFunction,EtchedComponent*
G36*
X52370000Y-188860000D02*
G01*
X51770000Y-188860000D01*
X51770000Y-188360000D01*
X52370000Y-188360000D01*
X52370000Y-188860000D01*
G37*
G04 #@! TD.AperFunction*
G04 #@! TA.AperFunction,EtchedComponent*
G36*
X159523000Y-129967000D02*
G01*
X159023000Y-129967000D01*
X159023000Y-129367000D01*
X159523000Y-129367000D01*
X159523000Y-129967000D01*
G37*
G04 #@! TD.AperFunction*
G04 #@! TA.AperFunction,EtchedComponent*
G36*
X132203000Y-147620000D02*
G01*
X131703000Y-147620000D01*
X131703000Y-147020000D01*
X132203000Y-147020000D01*
X132203000Y-147620000D01*
G37*
G04 #@! TD.AperFunction*
D11*
X235331000Y-148396000D03*
D12*
X235331000Y-145856000D03*
D13*
X100076000Y-105410000D03*
X100076000Y-115570000D03*
D14*
X226187000Y-109280000D03*
D15*
X226187000Y-111820000D03*
X226187000Y-114360000D03*
X226187000Y-116900000D03*
D13*
X230759000Y-176530000D03*
X230759000Y-166370000D03*
D16*
X252476000Y-87122000D03*
D17*
X252476000Y-54122000D03*
D16*
X134239000Y-87102000D03*
D17*
X134239000Y-54102000D03*
D14*
X91440000Y-158750000D03*
D15*
X91440000Y-161290000D03*
X91440000Y-163830000D03*
X91440000Y-166370000D03*
X91440000Y-168910000D03*
X91440000Y-171450000D03*
X91440000Y-173990000D03*
X91440000Y-176530000D03*
X91440000Y-179070000D03*
X91440000Y-181610000D03*
X91440000Y-184150000D03*
X91440000Y-186690000D03*
D18*
X50800000Y-60960000D03*
X50800000Y-55960000D03*
D13*
X33020000Y-74930000D03*
X43180000Y-74930000D03*
D14*
X254000000Y-175260000D03*
D15*
X254000000Y-172720000D03*
X254000000Y-170180000D03*
X254000000Y-167640000D03*
D13*
X82550000Y-164572000D03*
X82550000Y-162072000D03*
D12*
X230886000Y-145856000D03*
D11*
X230886000Y-148396000D03*
D14*
X115316000Y-97790000D03*
D15*
X115316000Y-100330000D03*
X115316000Y-102870000D03*
X115316000Y-105410000D03*
X115316000Y-107950000D03*
X115316000Y-110490000D03*
X115316000Y-113030000D03*
X115316000Y-115570000D03*
D16*
X175514000Y-87102000D03*
D17*
X175514000Y-54102000D03*
D14*
X254127000Y-142300000D03*
D15*
X254127000Y-139760000D03*
X254127000Y-137220000D03*
X254127000Y-134680000D03*
D19*
X103632000Y-97790000D03*
D20*
X103632000Y-100330000D03*
X103632000Y-102870000D03*
X103632000Y-105410000D03*
X103632000Y-107950000D03*
X103632000Y-110490000D03*
X103632000Y-113030000D03*
X103632000Y-115570000D03*
X111252000Y-115570000D03*
X111252000Y-113030000D03*
X111252000Y-110490000D03*
X111252000Y-107950000D03*
X111252000Y-105410000D03*
X111252000Y-102870000D03*
X111252000Y-100330000D03*
X111252000Y-97790000D03*
D13*
X235204000Y-176530000D03*
X235204000Y-166370000D03*
D14*
X226060000Y-165100000D03*
D15*
X226060000Y-167640000D03*
X226060000Y-170180000D03*
X226060000Y-172720000D03*
D13*
X91948000Y-42164000D03*
X81788000Y-42164000D03*
X54610000Y-38100000D03*
X54610000Y-40600000D03*
D21*
X41910000Y-215900000D03*
D14*
X177800000Y-179070000D03*
D15*
X177800000Y-181610000D03*
X177800000Y-184150000D03*
X177800000Y-186690000D03*
X177800000Y-189230000D03*
X177800000Y-191770000D03*
X177800000Y-194310000D03*
X177800000Y-196850000D03*
X177800000Y-199390000D03*
X177800000Y-201930000D03*
X177800000Y-204470000D03*
X177800000Y-207010000D03*
D14*
X118999000Y-119380000D03*
D15*
X121539000Y-119380000D03*
X118999000Y-121920000D03*
X121539000Y-121920000D03*
X118999000Y-124460000D03*
X121539000Y-124460000D03*
X118999000Y-127000000D03*
X121539000Y-127000000D03*
X118999000Y-129540000D03*
X121539000Y-129540000D03*
X118999000Y-132080000D03*
X121539000Y-132080000D03*
X118999000Y-134620000D03*
X121539000Y-134620000D03*
X118999000Y-137160000D03*
X121539000Y-137160000D03*
X118999000Y-139700000D03*
X121539000Y-139700000D03*
X118999000Y-142240000D03*
X121539000Y-142240000D03*
X118999000Y-144780000D03*
X121539000Y-144780000D03*
X118999000Y-147320000D03*
X121539000Y-147320000D03*
D17*
X191897000Y-158750000D03*
D20*
X191897000Y-161290000D03*
X191897000Y-163830000D03*
X191897000Y-166370000D03*
X191897000Y-168910000D03*
X191897000Y-171450000D03*
X191897000Y-173990000D03*
X191897000Y-176530000D03*
X191897000Y-179070000D03*
X191897000Y-181610000D03*
X191897000Y-184150000D03*
X191897000Y-186690000D03*
X191897000Y-189230000D03*
X191897000Y-191770000D03*
X191897000Y-194310000D03*
X191897000Y-196850000D03*
X191897000Y-199390000D03*
X191897000Y-201930000D03*
X191897000Y-204470000D03*
X191897000Y-207010000D03*
X207137000Y-207010000D03*
X207137000Y-204470000D03*
X207137000Y-201930000D03*
X207137000Y-199390000D03*
X207137000Y-196850000D03*
X207137000Y-194310000D03*
X207137000Y-191770000D03*
X207137000Y-189230000D03*
X207137000Y-186690000D03*
X207137000Y-184150000D03*
X207137000Y-181610000D03*
X207137000Y-179070000D03*
X207137000Y-176530000D03*
X207137000Y-173990000D03*
X207137000Y-171450000D03*
X207137000Y-168910000D03*
X207137000Y-166370000D03*
X207137000Y-163830000D03*
X207137000Y-161290000D03*
X207137000Y-158750000D03*
D12*
X239776000Y-122996000D03*
D11*
X239776000Y-125536000D03*
D16*
X92750000Y-87102000D03*
D17*
X92750000Y-54102000D03*
D12*
X230759000Y-178816000D03*
D11*
X230759000Y-181356000D03*
D14*
X217805000Y-129540000D03*
D15*
X217805000Y-132080000D03*
X217805000Y-134620000D03*
X217805000Y-137160000D03*
X217805000Y-139700000D03*
X217805000Y-142240000D03*
X217805000Y-144780000D03*
X217805000Y-147320000D03*
D22*
X62312500Y-38100000D03*
X67312500Y-38100000D03*
D13*
X62230000Y-162072000D03*
X62230000Y-164572000D03*
D22*
X69850000Y-161798000D03*
X74850000Y-161798000D03*
D19*
X44450000Y-128143000D03*
D20*
X44450000Y-130683000D03*
X44450000Y-133223000D03*
X44450000Y-135763000D03*
X44450000Y-138303000D03*
X44450000Y-140843000D03*
X44450000Y-143383000D03*
X52070000Y-143383000D03*
X52070000Y-140843000D03*
X52070000Y-138303000D03*
X52070000Y-135763000D03*
X52070000Y-133223000D03*
X52070000Y-130683000D03*
X52070000Y-128143000D03*
D13*
X230886000Y-120710000D03*
X230886000Y-110550000D03*
D17*
X257810000Y-87122000D03*
D20*
X257810000Y-84582000D03*
X257810000Y-82042000D03*
X257810000Y-79502000D03*
X257810000Y-76962000D03*
X257810000Y-74422000D03*
X257810000Y-71882000D03*
X257810000Y-69342000D03*
X257810000Y-66802000D03*
X257810000Y-64262000D03*
X257810000Y-61722000D03*
X257810000Y-59182000D03*
X257810000Y-56642000D03*
X257810000Y-54102000D03*
X242570000Y-54102000D03*
X242570000Y-56642000D03*
X242570000Y-59182000D03*
X242570000Y-61722000D03*
X242570000Y-64262000D03*
X242570000Y-66802000D03*
X242570000Y-69342000D03*
X242570000Y-71882000D03*
X242570000Y-74422000D03*
X242570000Y-76962000D03*
X242570000Y-79502000D03*
X242570000Y-82042000D03*
X242570000Y-84582000D03*
X242570000Y-87122000D03*
D18*
X101426000Y-122428000D03*
X106426000Y-122428000D03*
X197057000Y-212090000D03*
X202057000Y-212090000D03*
D23*
X185801000Y-106680000D03*
D17*
X185801000Y-139680000D03*
D19*
X64008000Y-110363000D03*
D20*
X64008000Y-112903000D03*
X64008000Y-115443000D03*
X64008000Y-117983000D03*
X64008000Y-120523000D03*
X64008000Y-123063000D03*
X64008000Y-125603000D03*
X64008000Y-128143000D03*
X71628000Y-128143000D03*
X71628000Y-125603000D03*
X71628000Y-123063000D03*
X71628000Y-120523000D03*
X71628000Y-117983000D03*
X71628000Y-115443000D03*
X71628000Y-112903000D03*
X71628000Y-110363000D03*
D17*
X180848000Y-87122000D03*
D20*
X180848000Y-84582000D03*
X180848000Y-82042000D03*
X180848000Y-79502000D03*
X180848000Y-76962000D03*
X180848000Y-74422000D03*
X180848000Y-71882000D03*
X180848000Y-69342000D03*
X180848000Y-66802000D03*
X180848000Y-64262000D03*
X180848000Y-61722000D03*
X180848000Y-59182000D03*
X180848000Y-56642000D03*
X180848000Y-54102000D03*
X165608000Y-54102000D03*
X165608000Y-56642000D03*
X165608000Y-59182000D03*
X165608000Y-61722000D03*
X165608000Y-64262000D03*
X165608000Y-66802000D03*
X165608000Y-69342000D03*
X165608000Y-71882000D03*
X165608000Y-74422000D03*
X165608000Y-76962000D03*
X165608000Y-79502000D03*
X165608000Y-82042000D03*
X165608000Y-84582000D03*
X165608000Y-87122000D03*
D18*
X113428175Y-212090000D03*
X118428175Y-212090000D03*
X154258000Y-212090000D03*
X159258000Y-212090000D03*
D17*
X207264000Y-137160000D03*
D20*
X207264000Y-134620000D03*
X207264000Y-132080000D03*
X207264000Y-129540000D03*
X207264000Y-127000000D03*
X207264000Y-124460000D03*
X207264000Y-121920000D03*
X207264000Y-119380000D03*
X207264000Y-116840000D03*
X207264000Y-114300000D03*
X207264000Y-111760000D03*
X207264000Y-109220000D03*
X192024000Y-109220000D03*
X192024000Y-111760000D03*
X192024000Y-114300000D03*
X192024000Y-116840000D03*
X192024000Y-119380000D03*
X192024000Y-121920000D03*
X192024000Y-124460000D03*
X192024000Y-127000000D03*
X192024000Y-129540000D03*
X192024000Y-132080000D03*
X192024000Y-134620000D03*
X192024000Y-137160000D03*
D13*
X239776000Y-110550000D03*
X239776000Y-120710000D03*
D12*
X230886000Y-122996000D03*
D11*
X230886000Y-125536000D03*
D13*
X239395000Y-97409000D03*
X239395000Y-87249000D03*
D12*
X239776000Y-145856000D03*
D11*
X239776000Y-148396000D03*
D19*
X88011000Y-110363000D03*
D20*
X88011000Y-112903000D03*
X88011000Y-115443000D03*
X88011000Y-117983000D03*
X88011000Y-120523000D03*
X88011000Y-123063000D03*
X88011000Y-125603000D03*
X88011000Y-128143000D03*
X95631000Y-128143000D03*
X95631000Y-125603000D03*
X95631000Y-123063000D03*
X95631000Y-120523000D03*
X95631000Y-117983000D03*
X95631000Y-115443000D03*
X95631000Y-112903000D03*
X95631000Y-110363000D03*
D23*
X158924000Y-106680000D03*
D17*
X158924000Y-139680000D03*
D14*
X125984000Y-119380000D03*
D15*
X128524000Y-119380000D03*
X125984000Y-121920000D03*
X128524000Y-121920000D03*
X125984000Y-124460000D03*
X128524000Y-124460000D03*
X125984000Y-127000000D03*
X128524000Y-127000000D03*
X125984000Y-129540000D03*
X128524000Y-129540000D03*
X125984000Y-132080000D03*
X128524000Y-132080000D03*
X125984000Y-134620000D03*
X128524000Y-134620000D03*
X125984000Y-137160000D03*
X128524000Y-137160000D03*
X125984000Y-139700000D03*
X128524000Y-139700000D03*
X125984000Y-142240000D03*
X128524000Y-142240000D03*
X125984000Y-144780000D03*
X128524000Y-144780000D03*
X125984000Y-147320000D03*
X128524000Y-147320000D03*
D24*
X114173000Y-147320000D03*
D20*
X114173000Y-144780000D03*
X114173000Y-142240000D03*
X114173000Y-139700000D03*
X114173000Y-137160000D03*
X114173000Y-134620000D03*
X114173000Y-132080000D03*
X114173000Y-129540000D03*
X106553000Y-129540000D03*
X106553000Y-132080000D03*
X106553000Y-134620000D03*
X106553000Y-137160000D03*
X106553000Y-139700000D03*
X106553000Y-142240000D03*
X106553000Y-144780000D03*
X106553000Y-147320000D03*
D19*
X44450000Y-105283000D03*
D20*
X44450000Y-107823000D03*
X44450000Y-110363000D03*
X44450000Y-112903000D03*
X44450000Y-115443000D03*
X44450000Y-117983000D03*
X44450000Y-120523000D03*
X44450000Y-123063000D03*
X52070000Y-123063000D03*
X52070000Y-120523000D03*
X52070000Y-117983000D03*
X52070000Y-115443000D03*
X52070000Y-112903000D03*
X52070000Y-110363000D03*
X52070000Y-107823000D03*
X52070000Y-105283000D03*
D24*
X154559000Y-139700000D03*
D20*
X154559000Y-137160000D03*
X154559000Y-134620000D03*
X154559000Y-132080000D03*
X154559000Y-129540000D03*
X154559000Y-127000000D03*
X154559000Y-124460000D03*
X154559000Y-121920000D03*
X154559000Y-119380000D03*
X154559000Y-116840000D03*
X154559000Y-114300000D03*
X154559000Y-111760000D03*
X154559000Y-109220000D03*
X154559000Y-106680000D03*
X139319000Y-106680000D03*
X139319000Y-109220000D03*
X139319000Y-111760000D03*
X139319000Y-114300000D03*
X139319000Y-116840000D03*
X139319000Y-119380000D03*
X139319000Y-121920000D03*
X139319000Y-124460000D03*
X139319000Y-127000000D03*
X139319000Y-129540000D03*
X139319000Y-132080000D03*
X139319000Y-134620000D03*
X139319000Y-137160000D03*
X139319000Y-139700000D03*
D13*
X247777000Y-118043000D03*
X247777000Y-125543000D03*
X84582000Y-117983000D03*
X84582000Y-128143000D03*
D14*
X92075000Y-103124000D03*
D17*
X118745000Y-87122000D03*
D20*
X118745000Y-84582000D03*
X118745000Y-82042000D03*
X118745000Y-79502000D03*
X118745000Y-76962000D03*
X118745000Y-74422000D03*
X118745000Y-71882000D03*
X118745000Y-69342000D03*
X118745000Y-66802000D03*
X118745000Y-64262000D03*
X118745000Y-61722000D03*
X118745000Y-59182000D03*
X118745000Y-56642000D03*
X118745000Y-54102000D03*
X103505000Y-54102000D03*
X103505000Y-56642000D03*
X103505000Y-59182000D03*
X103505000Y-61722000D03*
X103505000Y-64262000D03*
X103505000Y-66802000D03*
X103505000Y-69342000D03*
X103505000Y-71882000D03*
X103505000Y-74422000D03*
X103505000Y-76962000D03*
X103505000Y-79502000D03*
X103505000Y-82042000D03*
X103505000Y-84582000D03*
X103505000Y-87122000D03*
D25*
X227330000Y-87122000D03*
D26*
X227330000Y-84582000D03*
X227330000Y-82042000D03*
X227330000Y-79502000D03*
X227330000Y-76962000D03*
X227330000Y-74422000D03*
X227330000Y-71882000D03*
X227330000Y-69342000D03*
X227330000Y-66802000D03*
X227330000Y-64262000D03*
X227330000Y-61722000D03*
X227330000Y-59182000D03*
X227330000Y-56642000D03*
X227330000Y-54102000D03*
X212090000Y-54102000D03*
X212090000Y-56642000D03*
X212090000Y-59182000D03*
X212090000Y-61722000D03*
X212090000Y-64262000D03*
X212090000Y-66802000D03*
X212090000Y-69342000D03*
X212090000Y-71882000D03*
X212090000Y-74422000D03*
X212090000Y-76962000D03*
X212090000Y-79502000D03*
X212090000Y-82042000D03*
X212090000Y-84582000D03*
X212090000Y-87122000D03*
D27*
X82296000Y-145923000D03*
D13*
X97536000Y-145923000D03*
X97536000Y-138303000D03*
X82296000Y-138303000D03*
D16*
X155067000Y-87122000D03*
D17*
X155067000Y-54122000D03*
X182245000Y-137160000D03*
D20*
X182245000Y-134620000D03*
X182245000Y-132080000D03*
X182245000Y-129540000D03*
X182245000Y-127000000D03*
X182245000Y-124460000D03*
X182245000Y-121920000D03*
X182245000Y-119380000D03*
X182245000Y-116840000D03*
X182245000Y-114300000D03*
X182245000Y-111760000D03*
X182245000Y-109220000D03*
X167005000Y-109220000D03*
X167005000Y-111760000D03*
X167005000Y-114300000D03*
X167005000Y-116840000D03*
X167005000Y-119380000D03*
X167005000Y-121920000D03*
X167005000Y-124460000D03*
X167005000Y-127000000D03*
X167005000Y-129540000D03*
X167005000Y-132080000D03*
X167005000Y-134620000D03*
X167005000Y-137160000D03*
D17*
X108458000Y-158750000D03*
D20*
X108458000Y-161290000D03*
X108458000Y-163830000D03*
X108458000Y-166370000D03*
X108458000Y-168910000D03*
X108458000Y-171450000D03*
X108458000Y-173990000D03*
X108458000Y-176530000D03*
X108458000Y-179070000D03*
X108458000Y-181610000D03*
X108458000Y-184150000D03*
X108458000Y-186690000D03*
X108458000Y-189230000D03*
X108458000Y-191770000D03*
X108458000Y-194310000D03*
X108458000Y-196850000D03*
X108458000Y-199390000D03*
X108458000Y-201930000D03*
X108458000Y-204470000D03*
X108458000Y-207010000D03*
X123698000Y-207010000D03*
X123698000Y-204470000D03*
X123698000Y-201930000D03*
X123698000Y-199390000D03*
X123698000Y-196850000D03*
X123698000Y-194310000D03*
X123698000Y-191770000D03*
X123698000Y-189230000D03*
X123698000Y-186690000D03*
X123698000Y-184150000D03*
X123698000Y-181610000D03*
X123698000Y-179070000D03*
X123698000Y-176530000D03*
X123698000Y-173990000D03*
X123698000Y-171450000D03*
X123698000Y-168910000D03*
X123698000Y-166370000D03*
X123698000Y-163830000D03*
X123698000Y-161290000D03*
X123698000Y-158750000D03*
D28*
X248920000Y-40640000D03*
D29*
X248920000Y-45720000D03*
D13*
X235331000Y-120710000D03*
X235331000Y-110550000D03*
X239776000Y-133410000D03*
X239776000Y-143570000D03*
D14*
X134874000Y-147320000D03*
D15*
X134874000Y-144780000D03*
D13*
X247777000Y-140903000D03*
X247777000Y-148403000D03*
X33020000Y-57040000D03*
X43180000Y-57040000D03*
D23*
X210820000Y-106700000D03*
D17*
X210820000Y-139700000D03*
D14*
X131064000Y-158750000D03*
D15*
X131064000Y-161290000D03*
X131064000Y-163830000D03*
X131064000Y-166370000D03*
X131064000Y-168910000D03*
X131064000Y-171450000D03*
X131064000Y-173990000D03*
X131064000Y-176530000D03*
X131064000Y-179070000D03*
X131064000Y-181610000D03*
X131064000Y-184150000D03*
X131064000Y-186690000D03*
D13*
X247650000Y-173856000D03*
X247650000Y-181356000D03*
X244602000Y-140903000D03*
X244602000Y-148403000D03*
D17*
X139573000Y-87122000D03*
D20*
X139573000Y-84582000D03*
X139573000Y-82042000D03*
X139573000Y-79502000D03*
X139573000Y-76962000D03*
X139573000Y-74422000D03*
X139573000Y-71882000D03*
X139573000Y-69342000D03*
X139573000Y-66802000D03*
X139573000Y-64262000D03*
X139573000Y-61722000D03*
X139573000Y-59182000D03*
X139573000Y-56642000D03*
X139573000Y-54102000D03*
X124333000Y-54102000D03*
X124333000Y-56642000D03*
X124333000Y-59182000D03*
X124333000Y-61722000D03*
X124333000Y-64262000D03*
X124333000Y-66802000D03*
X124333000Y-69342000D03*
X124333000Y-71882000D03*
X124333000Y-74422000D03*
X124333000Y-76962000D03*
X124333000Y-79502000D03*
X124333000Y-82042000D03*
X124333000Y-84582000D03*
X124333000Y-87122000D03*
D18*
X58420000Y-130603000D03*
X58420000Y-125603000D03*
D17*
X160274000Y-87122000D03*
D20*
X160274000Y-84582000D03*
X160274000Y-82042000D03*
X160274000Y-79502000D03*
X160274000Y-76962000D03*
X160274000Y-74422000D03*
X160274000Y-71882000D03*
X160274000Y-69342000D03*
X160274000Y-66802000D03*
X160274000Y-64262000D03*
X160274000Y-61722000D03*
X160274000Y-59182000D03*
X160274000Y-56642000D03*
X160274000Y-54102000D03*
X145034000Y-54102000D03*
X145034000Y-56642000D03*
X145034000Y-59182000D03*
X145034000Y-61722000D03*
X145034000Y-64262000D03*
X145034000Y-66802000D03*
X145034000Y-69342000D03*
X145034000Y-71882000D03*
X145034000Y-74422000D03*
X145034000Y-76962000D03*
X145034000Y-79502000D03*
X145034000Y-82042000D03*
X145034000Y-84582000D03*
X145034000Y-87122000D03*
D17*
X97663000Y-87122000D03*
D20*
X97663000Y-84582000D03*
X97663000Y-82042000D03*
X97663000Y-79502000D03*
X97663000Y-76962000D03*
X97663000Y-74422000D03*
X97663000Y-71882000D03*
X97663000Y-69342000D03*
X97663000Y-66802000D03*
X97663000Y-64262000D03*
X97663000Y-61722000D03*
X97663000Y-59182000D03*
X97663000Y-56642000D03*
X97663000Y-54102000D03*
X82423000Y-54102000D03*
X82423000Y-56642000D03*
X82423000Y-59182000D03*
X82423000Y-61722000D03*
X82423000Y-64262000D03*
X82423000Y-66802000D03*
X82423000Y-69342000D03*
X82423000Y-71882000D03*
X82423000Y-74422000D03*
X82423000Y-76962000D03*
X82423000Y-79502000D03*
X82423000Y-82042000D03*
X82423000Y-84582000D03*
X82423000Y-87122000D03*
D16*
X233299000Y-87102000D03*
D17*
X233299000Y-54102000D03*
D14*
X171323000Y-158750000D03*
D15*
X171323000Y-161290000D03*
X171323000Y-163830000D03*
X171323000Y-166370000D03*
X171323000Y-168910000D03*
X171323000Y-171450000D03*
X171323000Y-173990000D03*
X171323000Y-176530000D03*
X171323000Y-179070000D03*
X171323000Y-181610000D03*
X171323000Y-184150000D03*
X171323000Y-186690000D03*
D16*
X113538000Y-87102000D03*
D17*
X113538000Y-54102000D03*
D12*
X235331000Y-122996000D03*
D11*
X235331000Y-125536000D03*
D14*
X217805000Y-166370000D03*
D15*
X217805000Y-168910000D03*
X217805000Y-171450000D03*
X217805000Y-173990000D03*
X217805000Y-176530000D03*
X217805000Y-179070000D03*
X217805000Y-181610000D03*
X217805000Y-184150000D03*
X217805000Y-186690000D03*
X217805000Y-189230000D03*
X217805000Y-191770000D03*
X217805000Y-194310000D03*
X217805000Y-196850000D03*
X217805000Y-199390000D03*
X217805000Y-201930000D03*
X217805000Y-204470000D03*
X217805000Y-207010000D03*
D30*
X64643000Y-168910000D03*
D13*
X64643000Y-171450000D03*
X64643000Y-173990000D03*
X64643000Y-176530000D03*
X64643000Y-179070000D03*
X64643000Y-181610000D03*
X64643000Y-184150000D03*
X64643000Y-186690000D03*
X64643000Y-189230000D03*
X64643000Y-191770000D03*
X64643000Y-194310000D03*
X64643000Y-196850000D03*
X64643000Y-199390000D03*
X64643000Y-201930000D03*
X79883000Y-201930000D03*
X79883000Y-199390000D03*
X79883000Y-196850000D03*
X79883000Y-194310000D03*
X79883000Y-191770000D03*
X79883000Y-189230000D03*
X79883000Y-186690000D03*
X79883000Y-184150000D03*
X79883000Y-181610000D03*
X79883000Y-179070000D03*
X79883000Y-176530000D03*
X79883000Y-173990000D03*
X79883000Y-171450000D03*
X79883000Y-168910000D03*
D17*
X202565000Y-87122000D03*
D20*
X202565000Y-84582000D03*
X202565000Y-82042000D03*
X202565000Y-79502000D03*
X202565000Y-76962000D03*
X202565000Y-74422000D03*
X202565000Y-71882000D03*
X202565000Y-69342000D03*
X202565000Y-66802000D03*
X202565000Y-64262000D03*
X202565000Y-61722000D03*
X202565000Y-59182000D03*
X202565000Y-56642000D03*
X202565000Y-54102000D03*
X187325000Y-54102000D03*
X187325000Y-56642000D03*
X187325000Y-59182000D03*
X187325000Y-61722000D03*
X187325000Y-64262000D03*
X187325000Y-66802000D03*
X187325000Y-69342000D03*
X187325000Y-71882000D03*
X187325000Y-74422000D03*
X187325000Y-76962000D03*
X187325000Y-79502000D03*
X187325000Y-82042000D03*
X187325000Y-84582000D03*
X187325000Y-87122000D03*
D21*
X30734000Y-219710000D03*
D14*
X226187000Y-132140000D03*
D15*
X226187000Y-134680000D03*
X226187000Y-137220000D03*
X226187000Y-139760000D03*
D13*
X33020000Y-69850000D03*
X43180000Y-69850000D03*
D27*
X58420000Y-146050000D03*
D13*
X73660000Y-146050000D03*
X73660000Y-138430000D03*
X58420000Y-138430000D03*
D31*
X43180000Y-50800000D03*
D21*
X43180000Y-32800000D03*
D13*
X244602000Y-118043000D03*
X244602000Y-125543000D03*
D14*
X217805000Y-106680000D03*
D15*
X217805000Y-109220000D03*
X217805000Y-111760000D03*
X217805000Y-114300000D03*
X217805000Y-116840000D03*
X217805000Y-119380000D03*
X217805000Y-121920000D03*
X217805000Y-124460000D03*
D12*
X235204000Y-178816000D03*
D11*
X235204000Y-181356000D03*
D13*
X33020000Y-64660000D03*
X43180000Y-64660000D03*
D14*
X254127000Y-119440000D03*
D15*
X254127000Y-116900000D03*
X254127000Y-114360000D03*
X254127000Y-111820000D03*
D13*
X239649000Y-166370000D03*
X239649000Y-176530000D03*
D12*
X239649000Y-178816000D03*
D11*
X239649000Y-181356000D03*
D14*
X97536000Y-179070000D03*
D15*
X97536000Y-181610000D03*
X97536000Y-184150000D03*
X97536000Y-186690000D03*
X97536000Y-189230000D03*
X97536000Y-191770000D03*
X97536000Y-194310000D03*
X97536000Y-196850000D03*
X97536000Y-199390000D03*
X97536000Y-201930000D03*
X97536000Y-204470000D03*
X97536000Y-207010000D03*
D13*
X74930000Y-40600000D03*
X74930000Y-38100000D03*
D32*
X35565000Y-32905000D03*
D33*
X35565000Y-39405000D03*
D17*
X149098000Y-158750000D03*
D20*
X149098000Y-161290000D03*
X149098000Y-163830000D03*
X149098000Y-166370000D03*
X149098000Y-168910000D03*
X149098000Y-171450000D03*
X149098000Y-173990000D03*
X149098000Y-176530000D03*
X149098000Y-179070000D03*
X149098000Y-181610000D03*
X149098000Y-184150000D03*
X149098000Y-186690000D03*
X149098000Y-189230000D03*
X149098000Y-191770000D03*
X149098000Y-194310000D03*
X149098000Y-196850000D03*
X149098000Y-199390000D03*
X149098000Y-201930000D03*
X149098000Y-204470000D03*
X149098000Y-207010000D03*
X164338000Y-207010000D03*
X164338000Y-204470000D03*
X164338000Y-201930000D03*
X164338000Y-199390000D03*
X164338000Y-196850000D03*
X164338000Y-194310000D03*
X164338000Y-191770000D03*
X164338000Y-189230000D03*
X164338000Y-186690000D03*
X164338000Y-184150000D03*
X164338000Y-181610000D03*
X164338000Y-179070000D03*
X164338000Y-176530000D03*
X164338000Y-173990000D03*
X164338000Y-171450000D03*
X164338000Y-168910000D03*
X164338000Y-166370000D03*
X164338000Y-163830000D03*
X164338000Y-161290000D03*
X164338000Y-158750000D03*
D14*
X137414000Y-179070000D03*
D15*
X137414000Y-181610000D03*
X137414000Y-184150000D03*
X137414000Y-186690000D03*
X137414000Y-189230000D03*
X137414000Y-191770000D03*
X137414000Y-194310000D03*
X137414000Y-196850000D03*
X137414000Y-199390000D03*
X137414000Y-201930000D03*
X137414000Y-204470000D03*
X137414000Y-207010000D03*
D14*
X58420000Y-184150000D03*
D15*
X58420000Y-186690000D03*
X58420000Y-189230000D03*
X58420000Y-191770000D03*
X58420000Y-194310000D03*
X58420000Y-196850000D03*
X58420000Y-199390000D03*
X58420000Y-201930000D03*
X58420000Y-204470000D03*
X58420000Y-207010000D03*
D16*
X197144000Y-87112000D03*
D17*
X197144000Y-54112000D03*
D13*
X235331000Y-143570000D03*
X235331000Y-133410000D03*
X230886000Y-143570000D03*
X230886000Y-133410000D03*
D18*
X74890000Y-209550000D03*
X69890000Y-209550000D03*
D19*
X57155000Y-45720000D03*
D20*
X57155000Y-48260000D03*
X57155000Y-50800000D03*
X57155000Y-53340000D03*
X57155000Y-55880000D03*
X57155000Y-58420000D03*
X57155000Y-60960000D03*
X57155000Y-63500000D03*
X57155000Y-66040000D03*
X57155000Y-68580000D03*
X57155000Y-71120000D03*
X57155000Y-73660000D03*
X57155000Y-76200000D03*
X57155000Y-78740000D03*
X57155000Y-81280000D03*
X57155000Y-83820000D03*
X57155000Y-86360000D03*
X57155000Y-88900000D03*
X57155000Y-91440000D03*
X57155000Y-93980000D03*
X72395000Y-93980000D03*
X72395000Y-91440000D03*
X72395000Y-88900000D03*
X72395000Y-86360000D03*
X72395000Y-83820000D03*
X72395000Y-81280000D03*
X72395000Y-78740000D03*
X72395000Y-76200000D03*
X72395000Y-73660000D03*
X72395000Y-71120000D03*
X72395000Y-68580000D03*
X72395000Y-66040000D03*
X72395000Y-63500000D03*
X72395000Y-60960000D03*
X72395000Y-58420000D03*
X72395000Y-55880000D03*
X72395000Y-53340000D03*
X72395000Y-50800000D03*
X72395000Y-48260000D03*
X72395000Y-45720000D03*
D13*
X244475000Y-173856000D03*
X244475000Y-181356000D03*
D14*
X134874000Y-129413000D03*
D15*
X132334000Y-129413000D03*
X134874000Y-126873000D03*
X132334000Y-126873000D03*
X134874000Y-124333000D03*
X132334000Y-124333000D03*
D13*
X236347000Y-97392000D03*
D34*
X236347000Y-87232000D03*
D35*
X75296000Y-120523000D03*
D36*
X76596000Y-120523000D03*
D37*
X226949000Y-214630000D03*
X263017000Y-40640000D03*
D35*
X75296000Y-115443000D03*
D36*
X76596000Y-115443000D03*
D38*
X54864000Y-189260000D03*
X54864000Y-187960000D03*
D37*
X229616000Y-218313000D03*
D39*
X67310000Y-58420000D03*
D40*
X158623000Y-132207000D03*
X159923000Y-132207000D03*
D37*
X69469000Y-182118000D03*
D39*
X62230000Y-60960000D03*
D38*
X49149000Y-189260000D03*
X49149000Y-187960000D03*
D35*
X75296000Y-128143000D03*
D36*
X76596000Y-128143000D03*
D40*
X158623000Y-124587000D03*
X159923000Y-124587000D03*
X158593000Y-137287000D03*
X159893000Y-137287000D03*
X135636000Y-134620000D03*
X134336000Y-134620000D03*
D35*
X75296000Y-125603000D03*
D36*
X76596000Y-125603000D03*
D39*
X62230000Y-53340000D03*
D35*
X75296000Y-110363000D03*
D36*
X76596000Y-110363000D03*
D40*
X135651000Y-139700000D03*
X134351000Y-139700000D03*
D37*
X217805000Y-153670000D03*
D35*
X131303000Y-144780000D03*
D36*
X132603000Y-144780000D03*
D37*
X66929000Y-48768000D03*
D38*
X52070000Y-189260000D03*
X52070000Y-187960000D03*
D35*
X75296000Y-112903000D03*
D36*
X76596000Y-112903000D03*
D40*
X158623000Y-129667000D03*
X159923000Y-129667000D03*
D35*
X131303000Y-147320000D03*
D36*
X132603000Y-147320000D03*
D35*
X75296000Y-123063000D03*
D36*
X76596000Y-123063000D03*
D35*
X75296000Y-117983000D03*
D36*
X76596000Y-117983000D03*
D41*
X132334000Y-134620000D03*
X137414000Y-153670000D03*
X149098000Y-153670000D03*
X132334000Y-153670000D03*
X161036000Y-137287000D03*
X171323000Y-153670000D03*
X161036000Y-124587000D03*
X73660000Y-156464000D03*
X132334000Y-139700000D03*
X69850000Y-219710000D03*
X108522175Y-153670000D03*
X161036000Y-132207000D03*
X202057000Y-219710000D03*
X91440000Y-153670000D03*
X101727000Y-130937000D03*
X195834000Y-153543000D03*
X185801000Y-153670000D03*
X167005000Y-153670000D03*
X118428175Y-219710000D03*
X210820000Y-153670000D03*
X159258000Y-219710000D03*
X170434000Y-153670000D03*
X158924000Y-153670000D03*
X177800000Y-153670000D03*
X131064000Y-153670000D03*
X217043000Y-219710000D03*
X100584000Y-130937000D03*
X218694000Y-219710000D03*
X217805000Y-219710000D03*
X191897000Y-153670000D03*
X97536000Y-153670000D03*
X161036000Y-129667000D03*
X50800000Y-50800000D03*
X151892000Y-175260000D03*
X81661000Y-175260000D03*
X30734000Y-100203000D03*
X210820000Y-215900000D03*
X210820000Y-90551000D03*
X91440000Y-215900000D03*
X111379000Y-90551000D03*
X154559000Y-90551000D03*
X185801000Y-90551000D03*
X239776000Y-135823000D03*
X30734000Y-101600000D03*
X212344000Y-215900000D03*
X97536000Y-215900000D03*
X31750000Y-101600000D03*
X137414000Y-215900000D03*
X239649000Y-168783000D03*
X211582000Y-215900000D03*
X171323000Y-215900000D03*
X131064000Y-215900000D03*
X30734000Y-102870000D03*
X239776000Y-112963000D03*
X177800000Y-215900000D03*
X95631000Y-90551000D03*
X71628000Y-101600000D03*
X30734000Y-125857000D03*
X80010000Y-215900000D03*
X139700000Y-151892000D03*
X142621000Y-119380000D03*
X139700000Y-165100000D03*
X139700000Y-167640000D03*
X36576000Y-153162000D03*
X38100000Y-152019000D03*
X163957000Y-122174000D03*
X163957000Y-151003000D03*
X173863000Y-61722000D03*
X112078175Y-195580000D03*
X196850000Y-176530000D03*
X196850000Y-181610000D03*
X117158175Y-190500000D03*
X173863000Y-56642000D03*
X76327000Y-55880000D03*
X119698175Y-187960000D03*
X196850000Y-184150000D03*
X169291000Y-62992000D03*
X113348175Y-177800000D03*
X196850000Y-194310000D03*
X114618175Y-193040000D03*
X173863000Y-59182000D03*
X75303329Y-56563716D03*
X196850000Y-179070000D03*
X169291000Y-57912000D03*
X118428175Y-182880000D03*
X196850000Y-189230000D03*
X196850000Y-186690000D03*
X169291000Y-55372000D03*
X169291000Y-60452000D03*
X196850000Y-191770000D03*
X115888175Y-180340000D03*
X146812000Y-170180000D03*
X159893000Y-116840000D03*
X159893000Y-111760000D03*
X150622000Y-64262000D03*
X85090000Y-172720000D03*
X146812000Y-116840000D03*
X146685000Y-205740000D03*
X152400000Y-69342000D03*
X158496000Y-114300000D03*
X146812000Y-111760000D03*
X158496000Y-111760000D03*
X144272000Y-200660000D03*
X149606000Y-71882000D03*
X146812000Y-172720000D03*
X86360000Y-172720000D03*
X157099000Y-119507000D03*
X151528000Y-66802000D03*
X146812000Y-114300000D03*
X157099000Y-114300000D03*
X105695750Y-82962750D03*
X63055500Y-97980500D03*
X82550000Y-92964000D03*
X57150000Y-96393000D03*
X106616500Y-78295500D03*
X82550000Y-90678000D03*
X59436000Y-93980000D03*
X107442000Y-75692000D03*
X82550000Y-91860913D03*
X62007900Y-97155000D03*
X82550000Y-94107000D03*
X64008000Y-98806000D03*
X193040000Y-80772000D03*
X236347000Y-82042000D03*
X184658000Y-82042000D03*
X82804000Y-196596000D03*
X74549000Y-88773000D03*
X55753000Y-149733000D03*
X78613000Y-103124000D03*
X142240000Y-92075000D03*
X100330000Y-92075000D03*
X223901000Y-92075000D03*
X223901000Y-65532000D03*
X121285000Y-92075000D03*
X162814000Y-92075000D03*
X207137000Y-92075000D03*
X183261000Y-92075000D03*
X79502000Y-98425000D03*
X48277000Y-99695000D03*
X101092000Y-156591000D03*
X101871000Y-160020000D03*
X100203000Y-179070000D03*
X141732000Y-156591000D03*
X140462000Y-179070000D03*
X142748000Y-160061000D03*
X183261000Y-160020000D03*
X183261000Y-156718000D03*
X180784500Y-179133500D03*
X204470000Y-129540000D03*
X204470000Y-149733000D03*
X204470000Y-132080000D03*
X179451000Y-129540000D03*
X179451000Y-148844000D03*
X179451000Y-132080000D03*
X195834000Y-142621000D03*
X192024000Y-142494000D03*
X170815000Y-142621000D03*
X175514000Y-127000000D03*
X175514000Y-142621000D03*
X167005000Y-142621000D03*
X39243000Y-151130000D03*
X88900000Y-151147000D03*
X88900000Y-198161000D03*
X162560000Y-110490000D03*
X177292000Y-142621000D03*
X177292000Y-124460000D03*
X239395000Y-84582000D03*
X56134000Y-97282000D03*
X45212000Y-97282000D03*
X60960000Y-189230000D03*
X62738000Y-198118307D03*
X61849000Y-194310000D03*
X47244000Y-115443000D03*
X46355000Y-95604500D03*
X50673000Y-92710000D03*
X47498000Y-92710000D03*
X189865000Y-96520000D03*
X90551000Y-132334000D03*
X53848000Y-149733000D03*
X92202000Y-132334000D03*
X103632000Y-151130000D03*
X103632000Y-209664697D03*
X168783000Y-209804000D03*
X168783000Y-203200000D03*
X178562000Y-97536000D03*
X178562000Y-116840000D03*
X97917000Y-132334000D03*
X110998000Y-151130000D03*
X110998000Y-203200000D03*
X204470000Y-97536000D03*
X204470000Y-116840000D03*
X126619000Y-149733000D03*
X99314000Y-132334000D03*
X55880000Y-120523000D03*
D42*
X218694000Y-219710000D02*
X228219000Y-219710000D01*
X228219000Y-219710000D02*
X229616000Y-218313000D01*
X223901000Y-215900000D02*
X212344000Y-215900000D01*
X226695000Y-214630000D02*
X225171000Y-214630000D01*
X225171000Y-214630000D02*
X223901000Y-215900000D01*
D43*
X54610000Y-38100000D02*
X62312500Y-38100000D01*
X62312500Y-47580500D02*
X65532000Y-50800000D01*
X65532000Y-50800000D02*
X72395000Y-50800000D01*
X62312500Y-38100000D02*
X62312500Y-47580500D01*
X97663000Y-54102000D02*
X92750000Y-54102000D01*
D42*
X58420000Y-163322000D02*
X58420000Y-156972000D01*
X61214000Y-164592000D02*
X61234000Y-164572000D01*
D43*
X101727000Y-130937000D02*
X89281000Y-130937000D01*
D44*
X27178000Y-38354000D02*
X32512000Y-33020000D01*
D45*
X246380000Y-40640000D02*
X227330000Y-40640000D01*
D46*
X46863000Y-138303000D02*
X49403000Y-140843000D01*
X223139000Y-162560000D02*
X217805000Y-157226000D01*
X256286000Y-168783000D02*
X255714500Y-168211500D01*
D44*
X49530000Y-40640000D02*
X49530000Y-33020000D01*
D46*
X240665000Y-122996000D02*
X243205000Y-125536000D01*
X44704000Y-133223000D02*
X41148000Y-133223000D01*
D45*
X32512000Y-33020000D02*
X48768000Y-33020000D01*
D42*
X30734000Y-219710000D02*
X217043000Y-219710000D01*
D47*
X114273719Y-153670000D02*
X59182000Y-153670000D01*
D46*
X239649000Y-178816000D02*
X240538000Y-178816000D01*
X42164000Y-115443000D02*
X44450000Y-115443000D01*
D47*
X177800000Y-153670000D02*
X170434000Y-153670000D01*
D46*
X41148000Y-129286000D02*
X41148000Y-133223000D01*
X254127000Y-134680000D02*
X254127000Y-133537000D01*
D42*
X58420000Y-163322000D02*
X59690000Y-164592000D01*
D46*
X40640000Y-123063000D02*
X40640000Y-116967000D01*
D47*
X115456631Y-153684000D02*
X114287719Y-153684000D01*
D43*
X118745000Y-54102000D02*
X113538000Y-54102000D01*
D42*
X49530000Y-43180000D02*
X52070000Y-45720000D01*
D46*
X243205000Y-125536000D02*
X247777000Y-125536000D01*
X50800000Y-55960000D02*
X53340000Y-53420000D01*
X256413000Y-112963000D02*
X255841500Y-112391500D01*
D45*
X64770000Y-33020000D02*
X49530000Y-33020000D01*
D46*
X246380000Y-40640000D02*
X248920000Y-40640000D01*
X112776000Y-129540000D02*
X114173000Y-129540000D01*
D42*
X54610000Y-40600000D02*
X49570000Y-40600000D01*
D43*
X48641000Y-125603000D02*
X59563000Y-125603000D01*
X97663000Y-54102000D02*
X97663000Y-44577000D01*
D47*
X210820000Y-153670000D02*
X217805000Y-153670000D01*
D43*
X89281000Y-130937000D02*
X88011000Y-129667000D01*
D46*
X217805000Y-157226000D02*
X217805000Y-153670000D01*
X54864000Y-187960000D02*
X54864000Y-184150000D01*
D45*
X176530000Y-40640000D02*
X141097000Y-40640000D01*
D43*
X139573000Y-54102000D02*
X134239000Y-54102000D01*
D47*
X170434000Y-153670000D02*
X158924000Y-153670000D01*
D46*
X100584000Y-131064000D02*
X104140000Y-134620000D01*
D43*
X180901500Y-54102000D02*
X175514000Y-54102000D01*
D46*
X64770000Y-167112000D02*
X62230000Y-164572000D01*
X42291000Y-128143000D02*
X41148000Y-129286000D01*
X255841500Y-112391500D02*
X255270000Y-111820000D01*
X58420000Y-163322000D02*
X58420000Y-184150000D01*
D43*
X62103000Y-128143000D02*
X62992000Y-128143000D01*
D46*
X253873000Y-148396000D02*
X256413000Y-145856000D01*
X243078000Y-181356000D02*
X247650000Y-181356000D01*
D43*
X59563000Y-125603000D02*
X62103000Y-128143000D01*
X257810000Y-54102000D02*
X252496000Y-54102000D01*
D44*
X262890000Y-40640000D02*
X248920000Y-40640000D01*
D42*
X86320000Y-156972000D02*
X86320000Y-163322000D01*
X74930000Y-40600000D02*
X77470000Y-40600000D01*
X85090000Y-164552000D02*
X82550000Y-164552000D01*
D43*
X97663000Y-44577000D02*
X100330000Y-41910000D01*
D46*
X254127000Y-111820000D02*
X254127000Y-110677000D01*
D44*
X27178000Y-123063000D02*
X27178000Y-38354000D01*
D46*
X104140000Y-134620000D02*
X106553000Y-134620000D01*
D48*
X134336000Y-134620000D02*
X132334000Y-134620000D01*
D46*
X54864000Y-184150000D02*
X52070000Y-184150000D01*
D42*
X64770000Y-33020000D02*
X64770000Y-46609000D01*
D45*
X59436000Y-155956000D02*
X58420000Y-156972000D01*
D46*
X44450000Y-112903000D02*
X42164000Y-112903000D01*
D48*
X159923000Y-124587000D02*
X161036000Y-124587000D01*
D47*
X191897000Y-153670000D02*
X210820000Y-153670000D01*
D46*
X240665000Y-145856000D02*
X243205000Y-148396000D01*
D44*
X27178000Y-38354000D02*
X27178000Y-33782000D01*
D45*
X99060000Y-40513000D02*
X99060000Y-40640000D01*
D42*
X61234000Y-164572000D02*
X62230000Y-164572000D01*
D45*
X58420000Y-156972000D02*
X28178000Y-156972000D01*
D42*
X259207000Y-52550000D02*
X257810000Y-53947000D01*
D46*
X256413000Y-122996000D02*
X256413000Y-112963000D01*
D44*
X49530000Y-43180000D02*
X49530000Y-40640000D01*
D43*
X72390000Y-179197000D02*
X69469000Y-182118000D01*
D45*
X91567000Y-33020000D02*
X99060000Y-40513000D01*
D46*
X49403000Y-140843000D02*
X52070000Y-140843000D01*
D47*
X202565000Y-54102000D02*
X202565000Y-40767000D01*
D44*
X27178000Y-142875000D02*
X27178000Y-123063000D01*
D47*
X191897000Y-153670000D02*
X185801000Y-153670000D01*
D46*
X247650000Y-181356000D02*
X253746000Y-181356000D01*
X43400000Y-33020000D02*
X43180000Y-32800000D01*
D48*
X134351000Y-139700000D02*
X132334000Y-139700000D01*
D46*
X52070000Y-184150000D02*
X49149000Y-184150000D01*
D47*
X160274000Y-54102000D02*
X160274000Y-40640000D01*
D43*
X46101000Y-123063000D02*
X48641000Y-125603000D01*
D47*
X114287719Y-153684000D02*
X114273719Y-153670000D01*
X88011000Y-129667000D02*
X88011000Y-128143000D01*
D45*
X227330000Y-40640000D02*
X201930000Y-40640000D01*
D46*
X41148000Y-138303000D02*
X41148000Y-143383000D01*
X49149000Y-184150000D02*
X49149000Y-187960000D01*
D47*
X158924000Y-153670000D02*
X115470631Y-153670000D01*
D42*
X259207000Y-40640000D02*
X259207000Y-52550000D01*
D45*
X71882000Y-155956000D02*
X59436000Y-155956000D01*
D47*
X115470631Y-153670000D02*
X115456631Y-153684000D01*
D46*
X254127000Y-133537000D02*
X250130000Y-129540000D01*
D43*
X64008000Y-130048000D02*
X62103000Y-128143000D01*
D46*
X197154000Y-54102000D02*
X197144000Y-54112000D01*
X107696000Y-134620000D02*
X112776000Y-129540000D01*
D45*
X71882000Y-155956000D02*
X85304000Y-155956000D01*
D46*
X255270000Y-111820000D02*
X254127000Y-111820000D01*
D42*
X77470000Y-40600000D02*
X78700000Y-39370000D01*
D46*
X27178000Y-142875000D02*
X27686000Y-143383000D01*
D43*
X139700000Y-53975000D02*
X139573000Y-54102000D01*
D46*
X73660000Y-146304000D02*
X73787000Y-146431000D01*
D45*
X141097000Y-40640000D02*
X99060000Y-40640000D01*
D43*
X160274000Y-54102000D02*
X155087000Y-54102000D01*
X64008000Y-130048000D02*
X65278000Y-131318000D01*
D46*
X255143000Y-167640000D02*
X254000000Y-167640000D01*
X250130000Y-106680000D02*
X217805000Y-106680000D01*
X42164000Y-112903000D02*
X40640000Y-114427000D01*
X53340000Y-53420000D02*
X53340000Y-45720000D01*
X247777000Y-125536000D02*
X253873000Y-125536000D01*
X154559000Y-139827000D02*
X158924000Y-139827000D01*
D42*
X52070000Y-45720000D02*
X53340000Y-45720000D01*
D44*
X27178000Y-216154000D02*
X27178000Y-156972000D01*
D46*
X58420000Y-184150000D02*
X54864000Y-184150000D01*
D42*
X72390000Y-179197000D02*
X72390000Y-156464000D01*
D47*
X185801000Y-153670000D02*
X177927000Y-153670000D01*
X139700000Y-40767000D02*
X139700000Y-53975000D01*
D46*
X253873000Y-125536000D02*
X256413000Y-122996000D01*
D43*
X65278000Y-131318000D02*
X86360000Y-131318000D01*
D46*
X40640000Y-114427000D02*
X40640000Y-116967000D01*
D44*
X27178000Y-142875000D02*
X27178000Y-156972000D01*
D43*
X202565000Y-54102000D02*
X197154000Y-54102000D01*
D46*
X256413000Y-135823000D02*
X255841500Y-135251500D01*
X255270000Y-134680000D02*
X254127000Y-134680000D01*
X106553000Y-134620000D02*
X107696000Y-134620000D01*
D48*
X159923000Y-132207000D02*
X161036000Y-132207000D01*
D46*
X240538000Y-178816000D02*
X243078000Y-181356000D01*
X255841500Y-135251500D02*
X255270000Y-134680000D01*
X41148000Y-133223000D02*
X41148000Y-138303000D01*
X254000000Y-166497000D02*
X250063000Y-162560000D01*
X256286000Y-178816000D02*
X256286000Y-168783000D01*
D45*
X85304000Y-155956000D02*
X86320000Y-156972000D01*
D46*
X247777000Y-148396000D02*
X253873000Y-148396000D01*
X64770000Y-168910000D02*
X64770000Y-167112000D01*
D43*
X44450000Y-123063000D02*
X40640000Y-123063000D01*
D42*
X86320000Y-163322000D02*
X85090000Y-164552000D01*
D47*
X118745000Y-54102000D02*
X118745000Y-40640000D01*
D46*
X256413000Y-145856000D02*
X256413000Y-135823000D01*
D43*
X227330000Y-54102000D02*
X233299000Y-54102000D01*
X44450000Y-123063000D02*
X46101000Y-123063000D01*
D46*
X27686000Y-143383000D02*
X44450000Y-143383000D01*
X49570000Y-40600000D02*
X49530000Y-40640000D01*
D47*
X227330000Y-54102000D02*
X227330000Y-40640000D01*
D48*
X159893000Y-137287000D02*
X161036000Y-137287000D01*
D46*
X44704000Y-138303000D02*
X41148000Y-138303000D01*
X44704000Y-128143000D02*
X42291000Y-128143000D01*
D45*
X27940000Y-33020000D02*
X32512000Y-33020000D01*
D43*
X86360000Y-131318000D02*
X88011000Y-129667000D01*
D46*
X239776000Y-145856000D02*
X240665000Y-145856000D01*
D42*
X53340000Y-45720000D02*
X57155000Y-45720000D01*
D45*
X201930000Y-40640000D02*
X176530000Y-40640000D01*
D46*
X252496000Y-54102000D02*
X252476000Y-54122000D01*
D42*
X72390000Y-156464000D02*
X71882000Y-155956000D01*
D43*
X155087000Y-54102000D02*
X155067000Y-54122000D01*
D46*
X250063000Y-162560000D02*
X223139000Y-162560000D01*
X254127000Y-110677000D02*
X250130000Y-106680000D01*
X243205000Y-148396000D02*
X247777000Y-148396000D01*
X254000000Y-167640000D02*
X254000000Y-166497000D01*
X253746000Y-181356000D02*
X256286000Y-178816000D01*
D47*
X180848000Y-54102000D02*
X180848000Y-40640000D01*
D42*
X64770000Y-46609000D02*
X66802000Y-48641000D01*
D43*
X64008000Y-128143000D02*
X64008000Y-130048000D01*
X40640000Y-123063000D02*
X27178000Y-123063000D01*
D46*
X100330000Y-41910000D02*
X99060000Y-40640000D01*
D42*
X78700000Y-39370000D02*
X78700000Y-33020000D01*
D48*
X159923000Y-129667000D02*
X161036000Y-129667000D01*
D46*
X255714500Y-168211500D02*
X255143000Y-167640000D01*
D42*
X59690000Y-164592000D02*
X61214000Y-164592000D01*
D46*
X250130000Y-129540000D02*
X217805000Y-129540000D01*
D44*
X30734000Y-219710000D02*
X27178000Y-216154000D01*
D46*
X44450000Y-138303000D02*
X46863000Y-138303000D01*
X100584000Y-130937000D02*
X100584000Y-131064000D01*
X52070000Y-187960000D02*
X52070000Y-184150000D01*
X40640000Y-116967000D02*
X42164000Y-115443000D01*
D43*
X62103000Y-128143000D02*
X64008000Y-128143000D01*
D46*
X239776000Y-122996000D02*
X240665000Y-122996000D01*
D45*
X64770000Y-33020000D02*
X91567000Y-33020000D01*
D43*
X69850000Y-48260000D02*
X72395000Y-48260000D01*
X67312500Y-45722500D02*
X69850000Y-48260000D01*
X67312500Y-38100000D02*
X67312500Y-45722500D01*
X74930000Y-38100000D02*
X67312500Y-38100000D01*
D48*
X203327000Y-173990000D02*
X202057338Y-175259662D01*
D46*
X43180000Y-50800000D02*
X43180000Y-57040000D01*
D48*
X119888000Y-173990000D02*
X123698000Y-173990000D01*
X169418000Y-175259662D02*
X168148338Y-173990000D01*
X151892000Y-175260000D02*
X159258000Y-175260000D01*
X202057338Y-175259662D02*
X169418338Y-175259662D01*
X168148338Y-173990000D02*
X164338000Y-173990000D01*
D46*
X38100000Y-50800000D02*
X43180000Y-50800000D01*
D48*
X129413000Y-175260000D02*
X128143000Y-173990000D01*
X169418338Y-175259662D02*
X169418000Y-175260000D01*
X169418000Y-175260000D02*
X169418000Y-175259662D01*
X118618000Y-175260000D02*
X119888000Y-173990000D01*
X134239000Y-175260000D02*
X129413000Y-175260000D01*
X81661000Y-175260000D02*
X118618000Y-175260000D01*
D46*
X35565000Y-48265000D02*
X38100000Y-50800000D01*
D48*
X207137000Y-173990000D02*
X217805000Y-173990000D01*
X128143000Y-173990000D02*
X123698000Y-173990000D01*
X159258000Y-175260000D02*
X160528000Y-173990000D01*
X134239000Y-175260000D02*
X151892000Y-175260000D01*
X160528000Y-173990000D02*
X164338000Y-173990000D01*
X43180000Y-50800000D02*
X50800000Y-50800000D01*
X207137000Y-173990000D02*
X203327000Y-173990000D01*
D46*
X35565000Y-39405000D02*
X35565000Y-48265000D01*
D43*
X165608000Y-87162000D02*
X165608000Y-90551000D01*
X145034000Y-90551000D02*
X145034000Y-87122000D01*
D48*
X100795000Y-104056000D02*
X104986000Y-104056000D01*
D43*
X33020000Y-74930000D02*
X33020000Y-69850000D01*
D48*
X84582000Y-117983000D02*
X84582000Y-117221000D01*
D47*
X237871000Y-97409000D02*
X237871000Y-90551000D01*
D48*
X106299000Y-102743000D02*
X106299000Y-99314000D01*
D46*
X232918000Y-180594000D02*
X232918000Y-174625000D01*
D42*
X31750000Y-101092000D02*
X31242000Y-100584000D01*
D48*
X239649000Y-168783000D02*
X239649000Y-173856000D01*
D46*
X233814000Y-140896000D02*
X239776000Y-140896000D01*
D48*
X106299000Y-99314000D02*
X107823000Y-97790000D01*
D43*
X33020000Y-64660000D02*
X33020000Y-69850000D01*
D48*
X239776000Y-112963000D02*
X239776000Y-118036000D01*
D46*
X235331000Y-125536000D02*
X233807000Y-125536000D01*
D48*
X84582000Y-117221000D02*
X85090000Y-116713000D01*
D46*
X233045000Y-147634000D02*
X233045000Y-141665000D01*
X239649000Y-173856000D02*
X244475000Y-173856000D01*
D42*
X211582000Y-215900000D02*
X212344000Y-215900000D01*
D43*
X103505000Y-90551000D02*
X103505000Y-87122000D01*
D46*
X239776000Y-140896000D02*
X244602000Y-140896000D01*
X84582000Y-117983000D02*
X84582000Y-117856000D01*
X155099749Y-87122000D02*
X145128251Y-87122000D01*
D47*
X236220000Y-97409000D02*
X237871000Y-97409000D01*
D46*
X233807000Y-148396000D02*
X233045000Y-147634000D01*
D47*
X242570000Y-88773000D02*
X242570000Y-87122000D01*
D46*
X92750000Y-87102000D02*
X92374498Y-87102000D01*
D47*
X240792000Y-90551000D02*
X242570000Y-88773000D01*
D48*
X90678000Y-115570000D02*
X90678000Y-111760000D01*
D43*
X92837000Y-90551000D02*
X92837000Y-87189000D01*
D46*
X58420000Y-130603000D02*
X58420000Y-138430000D01*
X52070000Y-101727000D02*
X52197000Y-101600000D01*
X52070000Y-127127000D02*
X51562000Y-126619000D01*
D43*
X57155000Y-60960000D02*
X50800000Y-60960000D01*
D42*
X40640000Y-101600000D02*
X32893000Y-101600000D01*
D46*
X31623000Y-126619000D02*
X30861000Y-125857000D01*
D47*
X71628000Y-101600000D02*
X78867000Y-101600000D01*
X242570000Y-87122000D02*
X252476000Y-87122000D01*
D43*
X50800000Y-60960000D02*
X33020000Y-60960000D01*
D46*
X239776000Y-118036000D02*
X244602000Y-118036000D01*
D43*
X187325000Y-87205500D02*
X187325000Y-90551000D01*
D48*
X239776000Y-135823000D02*
X239776000Y-140896000D01*
X104986000Y-104056000D02*
X106299000Y-102743000D01*
D43*
X124333000Y-90551000D02*
X124333000Y-87122000D01*
D48*
X100076000Y-104775000D02*
X100795000Y-104056000D01*
D42*
X101600000Y-215900000D02*
X41910000Y-215900000D01*
D46*
X134271749Y-87122000D02*
X124300251Y-87122000D01*
D42*
X31750000Y-101600000D02*
X30734000Y-101600000D01*
D46*
X175546749Y-87122000D02*
X165575251Y-87122000D01*
D42*
X31750000Y-101219000D02*
X31750000Y-101600000D01*
D46*
X187325000Y-87122000D02*
X197134000Y-87122000D01*
X233045000Y-141665000D02*
X233814000Y-140896000D01*
D47*
X89916000Y-90551000D02*
X237871000Y-90551000D01*
D42*
X210820000Y-215900000D02*
X211582000Y-215900000D01*
D47*
X71628000Y-101600000D02*
X52197000Y-101600000D01*
D48*
X85090000Y-116713000D02*
X89535000Y-116713000D01*
D46*
X55960000Y-128143000D02*
X58420000Y-130603000D01*
D43*
X197057000Y-212090000D02*
X197057000Y-215820000D01*
X113428175Y-212090000D02*
X113428175Y-215820000D01*
D48*
X90678000Y-111760000D02*
X92075000Y-110363000D01*
X107823000Y-97790000D02*
X111252000Y-97790000D01*
D46*
X232918000Y-174625000D02*
X233687000Y-173856000D01*
X233045000Y-118805000D02*
X233814000Y-118036000D01*
X51562000Y-126619000D02*
X31623000Y-126619000D01*
X197134000Y-87122000D02*
X197144000Y-87112000D01*
X52070000Y-105283000D02*
X52070000Y-101727000D01*
X92374498Y-87102000D02*
X92354498Y-87122000D01*
D43*
X92837000Y-87189000D02*
X92750000Y-87102000D01*
D42*
X30734000Y-102870000D02*
X30734000Y-102616000D01*
D43*
X33020000Y-64660000D02*
X33020000Y-60960000D01*
D46*
X52070000Y-128143000D02*
X52070000Y-127127000D01*
D47*
X78867000Y-101600000D02*
X89916000Y-90551000D01*
X52197000Y-101600000D02*
X40640000Y-101600000D01*
D46*
X233807000Y-125536000D02*
X233045000Y-124774000D01*
X235331000Y-148396000D02*
X233807000Y-148396000D01*
D42*
X101600000Y-215900000D02*
X210820000Y-215900000D01*
X30734000Y-100203000D02*
X31750000Y-101219000D01*
D46*
X154559000Y-106680000D02*
X158777000Y-106680000D01*
D42*
X30734000Y-102616000D02*
X31750000Y-101600000D01*
D43*
X33020000Y-60960000D02*
X33020000Y-57040000D01*
D46*
X52070000Y-128143000D02*
X55960000Y-128143000D01*
D47*
X237871000Y-97409000D02*
X239395000Y-97409000D01*
D46*
X92354498Y-87122000D02*
X82383000Y-87122000D01*
D47*
X239395000Y-97409000D02*
X239522000Y-97409000D01*
D42*
X31750000Y-101600000D02*
X31750000Y-101092000D01*
D46*
X235204000Y-181356000D02*
X233680000Y-181356000D01*
X113570749Y-87249000D02*
X103599251Y-87249000D01*
D43*
X154258000Y-212090000D02*
X154258000Y-215820000D01*
D42*
X32893000Y-101600000D02*
X32385000Y-101600000D01*
D46*
X233814000Y-118036000D02*
X239776000Y-118036000D01*
X233045000Y-124774000D02*
X233045000Y-118805000D01*
X233687000Y-173856000D02*
X239649000Y-173856000D01*
D48*
X89535000Y-116713000D02*
X90678000Y-115570000D01*
X92075000Y-110363000D02*
X95631000Y-110363000D01*
D47*
X237871000Y-90551000D02*
X240792000Y-90551000D01*
D43*
X212090000Y-87162000D02*
X212090000Y-90551000D01*
D42*
X32385000Y-101600000D02*
X31750000Y-101600000D01*
D46*
X233680000Y-181356000D02*
X232918000Y-180594000D01*
D48*
X100076000Y-105410000D02*
X100076000Y-104775000D01*
D43*
X233299000Y-86985000D02*
X233299000Y-90551000D01*
D46*
X158777000Y-106680000D02*
X158924000Y-106827000D01*
D48*
X74930000Y-55880000D02*
X76200000Y-54610000D01*
X72395000Y-55880000D02*
X74930000Y-55880000D01*
X80264000Y-42164000D02*
X81788000Y-42164000D01*
X76200000Y-45720000D02*
X76708000Y-45720000D01*
X76708000Y-45720000D02*
X80264000Y-42164000D01*
X76200000Y-54610000D02*
X76200000Y-45720000D01*
X76200000Y-45720000D02*
X72395000Y-45720000D01*
X126238000Y-166370000D02*
X123698000Y-166370000D01*
X168148000Y-163830000D02*
X169418000Y-165100000D01*
X164338000Y-163830000D02*
X168148000Y-163830000D01*
X160782000Y-163830000D02*
X164338000Y-163830000D01*
X202057000Y-165100000D02*
X203327000Y-163830000D01*
X127515355Y-167647355D02*
X126238000Y-166370000D01*
X169461140Y-167628948D02*
X202068052Y-167628948D01*
X126238000Y-163830000D02*
X127508000Y-165100000D01*
X139700000Y-165100000D02*
X159512000Y-165100000D01*
X135128000Y-167647355D02*
X127515355Y-167647355D01*
X114999175Y-151892000D02*
X114357175Y-152534000D01*
X127508000Y-165100000D02*
X139700000Y-165100000D01*
X139700000Y-151892000D02*
X114999175Y-151892000D01*
X203327000Y-166370000D02*
X207137000Y-166370000D01*
X123698000Y-163830000D02*
X126238000Y-163830000D01*
X159512000Y-165100000D02*
X160782000Y-163830000D01*
X114357175Y-152534000D02*
X56381000Y-152534000D01*
X135128000Y-167647355D02*
X135135355Y-167640000D01*
X203327000Y-163830000D02*
X207137000Y-163830000D01*
X154559000Y-119380000D02*
X142621000Y-119380000D01*
X56381000Y-152534000D02*
X55753000Y-153162000D01*
X139700000Y-167640000D02*
X159258000Y-167640000D01*
X169450088Y-167640000D02*
X169461140Y-167628948D01*
X202068052Y-167628948D02*
X203327000Y-166370000D01*
X164338000Y-166370000D02*
X168180088Y-166370000D01*
X55753000Y-153162000D02*
X36576000Y-153162000D01*
X159258000Y-167640000D02*
X160528000Y-166370000D01*
X135135355Y-167640000D02*
X139700000Y-167640000D01*
X169418000Y-165100000D02*
X202057000Y-165100000D01*
X168180088Y-166370000D02*
X169450088Y-167640000D01*
X160528000Y-166370000D02*
X164338000Y-166370000D01*
X169167184Y-123186816D02*
X170434000Y-121920000D01*
X204216000Y-123190000D02*
X205486000Y-121920000D01*
X164969816Y-123186816D02*
X169167184Y-123186816D01*
X114808000Y-151003000D02*
X113791412Y-152019588D01*
X163957000Y-122174000D02*
X164969816Y-123186816D01*
X163957000Y-151003000D02*
X114808000Y-151003000D01*
X190119000Y-123190000D02*
X204216000Y-123190000D01*
X205486000Y-121920000D02*
X207264000Y-121920000D01*
X188849000Y-121920000D02*
X190119000Y-123190000D01*
X113791412Y-152019588D02*
X38100588Y-152019588D01*
X182245000Y-121920000D02*
X188849000Y-121920000D01*
X170434000Y-121920000D02*
X182245000Y-121920000D01*
X38100588Y-152019588D02*
X38100000Y-152019000D01*
D43*
X62230000Y-162052000D02*
X69932500Y-162052000D01*
X69932500Y-162052000D02*
X69932500Y-178987500D01*
X69932500Y-178987500D02*
X67310000Y-181610000D01*
X67310000Y-181610000D02*
X64770000Y-181610000D01*
X82550000Y-162052000D02*
X74932500Y-162052000D01*
X74932500Y-179829500D02*
X70612000Y-184150000D01*
X74932500Y-162052000D02*
X74932500Y-179829500D01*
X70612000Y-184150000D02*
X64770000Y-184150000D01*
D48*
X163994000Y-130847000D02*
X165227000Y-132080000D01*
X193802000Y-177800000D02*
X169418000Y-177800000D01*
X128085175Y-176530000D02*
X123698000Y-176530000D01*
X86741002Y-62992000D02*
X88011002Y-61722000D01*
X146055000Y-177795000D02*
X129350175Y-177795000D01*
X74422000Y-68580000D02*
X80010000Y-62992000D01*
X106680000Y-61722000D02*
X121031000Y-61722000D01*
X169418000Y-177800000D02*
X168148000Y-176530000D01*
X72395000Y-68580000D02*
X74422000Y-68580000D01*
X170434000Y-130810000D02*
X188722000Y-130810000D01*
X245110000Y-62992000D02*
X231140000Y-62992000D01*
X88900000Y-195580000D02*
X112078175Y-195580000D01*
X184150000Y-62992000D02*
X190500000Y-62992000D01*
X105410000Y-62992000D02*
X106680000Y-61722000D01*
X195072000Y-176530000D02*
X193802000Y-177800000D01*
X80010000Y-62992000D02*
X86741002Y-62992000D01*
X127930958Y-61722000D02*
X141859000Y-61722000D01*
X121031000Y-61722000D02*
X122301000Y-62992000D01*
X80010000Y-194310000D02*
X87630000Y-194310000D01*
X214693500Y-62992000D02*
X215963500Y-61722000D01*
X163703000Y-62992000D02*
X167639998Y-62992000D01*
X191770000Y-61722000D02*
X208915000Y-61722000D01*
X147320000Y-62992000D02*
X148590000Y-61722000D01*
X87630000Y-194310000D02*
X88900000Y-195580000D01*
X196850000Y-176530000D02*
X195072000Y-176530000D01*
X167005000Y-132080000D02*
X169164000Y-132080000D01*
X229870000Y-61722000D02*
X227330000Y-61722000D01*
X168148000Y-176530000D02*
X164338000Y-176530000D01*
X99949000Y-61722000D02*
X101219000Y-62992000D01*
X188722000Y-130810000D02*
X189992000Y-132080000D01*
X257810000Y-61722000D02*
X246380000Y-61722000D01*
X167639998Y-62992000D02*
X168909998Y-61722000D01*
X208915000Y-61722000D02*
X210185000Y-62992000D01*
X165227000Y-132080000D02*
X167005000Y-132080000D01*
X168909998Y-61722000D02*
X182880000Y-61722000D01*
X160528000Y-176530000D02*
X159258000Y-177800000D01*
X196850000Y-176530000D02*
X207137000Y-176530000D01*
X246380000Y-61722000D02*
X245110000Y-62992000D01*
X122301000Y-62992000D02*
X126660958Y-62992000D01*
X162433000Y-61722000D02*
X163703000Y-62992000D01*
X182880000Y-61722000D02*
X184150000Y-62992000D01*
X189992000Y-132080000D02*
X192024000Y-132080000D01*
X101219000Y-62992000D02*
X105410000Y-62992000D01*
X169164000Y-132080000D02*
X170434000Y-130810000D01*
X210185000Y-62992000D02*
X214693500Y-62992000D01*
X88011002Y-61722000D02*
X99949000Y-61722000D01*
X129350175Y-177795000D02*
X128085175Y-176530000D01*
X142076000Y-130847000D02*
X163994000Y-130847000D01*
X215963500Y-61722000D02*
X227330000Y-61722000D01*
X164338000Y-176530000D02*
X160528000Y-176530000D01*
X140843000Y-132080000D02*
X142076000Y-130847000D01*
X148590000Y-61722000D02*
X162433000Y-61722000D01*
X143129000Y-62992000D02*
X147320000Y-62992000D01*
X159258000Y-177800000D02*
X146060000Y-177800000D01*
X139319000Y-132080000D02*
X140843000Y-132080000D01*
X190500000Y-62992000D02*
X191770000Y-61722000D01*
X207137000Y-176530000D02*
X217805000Y-176530000D01*
X126660958Y-62992000D02*
X127930958Y-61722000D01*
X231140000Y-62992000D02*
X229870000Y-61722000D01*
X141859000Y-61722000D02*
X143129000Y-62992000D01*
X128778000Y-182880000D02*
X127508000Y-181610000D01*
X148590000Y-56642000D02*
X147320000Y-57912000D01*
X121030998Y-56642000D02*
X106712572Y-56642000D01*
X195072000Y-181610000D02*
X193802000Y-182880000D01*
X86741002Y-57912000D02*
X78486000Y-57912000D01*
X159258000Y-182880000D02*
X128778000Y-182880000D01*
X170344000Y-125820000D02*
X189066000Y-125820000D01*
X162433000Y-56642000D02*
X148590000Y-56642000D01*
X169164000Y-127000000D02*
X170344000Y-125820000D01*
X141859000Y-56642000D02*
X127889000Y-56642000D01*
X105442572Y-57912000D02*
X101218998Y-57912000D01*
X122300998Y-57912000D02*
X121030998Y-56642000D01*
X190246000Y-127000000D02*
X192024000Y-127000000D01*
X257810000Y-56642000D02*
X246380000Y-56642000D01*
X88011002Y-56642000D02*
X86741002Y-57912000D01*
X127889000Y-56642000D02*
X126619000Y-57912000D01*
X245110000Y-57912000D02*
X231140000Y-57912000D01*
X229870000Y-56642000D02*
X227330000Y-56642000D01*
X190532057Y-57912000D02*
X191802057Y-56642000D01*
X78486000Y-57912000D02*
X76454000Y-55880000D01*
X182880000Y-56642000D02*
X184150000Y-57912000D01*
X167830500Y-181610000D02*
X164338000Y-181610000D01*
X257810000Y-56622000D02*
X257800000Y-56632000D01*
X173863000Y-56642000D02*
X168910000Y-56642000D01*
X80010000Y-189230000D02*
X87630000Y-189230000D01*
X184150000Y-57912000D02*
X190532057Y-57912000D01*
X210248500Y-57912000D02*
X214630000Y-57912000D01*
X99948998Y-56642000D02*
X88011002Y-56642000D01*
X160528000Y-181610000D02*
X159258000Y-182880000D01*
X207137000Y-181610000D02*
X196850000Y-181610000D01*
X101218998Y-57912000D02*
X99948998Y-56642000D01*
X88900000Y-190500000D02*
X117158175Y-190500000D01*
X167640000Y-57912000D02*
X163703000Y-57912000D01*
X215900000Y-56642000D02*
X227330000Y-56642000D01*
X214630000Y-57912000D02*
X215900000Y-56642000D01*
X140843000Y-127000000D02*
X142113000Y-125730000D01*
X147320000Y-57912000D02*
X143129000Y-57912000D01*
X246380000Y-56642000D02*
X245110000Y-57912000D01*
X173863000Y-56642000D02*
X182880000Y-56642000D01*
X168910000Y-56642000D02*
X167640000Y-57912000D01*
X143129000Y-57912000D02*
X141859000Y-56642000D01*
X127508000Y-181610000D02*
X123698000Y-181610000D01*
X139319000Y-127000000D02*
X140843000Y-127000000D01*
X231140000Y-57912000D02*
X229870000Y-56642000D01*
X208978500Y-56642000D02*
X210248500Y-57912000D01*
X126619000Y-57912000D02*
X122300998Y-57912000D01*
X196850000Y-181610000D02*
X195072000Y-181610000D01*
X207137000Y-181610000D02*
X217805000Y-181610000D01*
X165227000Y-127000000D02*
X167005000Y-127000000D01*
X76454000Y-55880000D02*
X76327000Y-55880000D01*
X142113000Y-125730000D02*
X163957000Y-125730000D01*
X169100500Y-182880000D02*
X167830500Y-181610000D01*
X163703000Y-57912000D02*
X162433000Y-56642000D01*
X164338000Y-181610000D02*
X160528000Y-181610000D01*
X191802057Y-56642000D02*
X208978500Y-56642000D01*
X167005000Y-127000000D02*
X169164000Y-127000000D01*
X193802000Y-182880000D02*
X169100500Y-182880000D01*
X87630000Y-189230000D02*
X88900000Y-190500000D01*
X189066000Y-125820000D02*
X190246000Y-127000000D01*
X106712572Y-56642000D02*
X105442572Y-57912000D01*
X163957000Y-125730000D02*
X165227000Y-127000000D01*
X196850000Y-184150000D02*
X207137000Y-184150000D01*
X207137000Y-184150000D02*
X217805000Y-184150000D01*
X169164000Y-124460000D02*
X170434000Y-123190000D01*
X167005000Y-124460000D02*
X169164000Y-124460000D01*
X170434000Y-123190000D02*
X188849000Y-123190000D01*
X165227000Y-124460000D02*
X167005000Y-124460000D01*
X139319000Y-124460000D02*
X140970000Y-124460000D01*
X163957000Y-123190000D02*
X165227000Y-124460000D01*
X164338000Y-184150000D02*
X160528000Y-184150000D01*
X128600737Y-185420000D02*
X127330737Y-184150000D01*
X168148000Y-184150000D02*
X164338000Y-184150000D01*
X87630000Y-186690000D02*
X88900000Y-187960000D01*
X88900000Y-187960000D02*
X119698175Y-187960000D01*
X169418000Y-185420000D02*
X168148000Y-184150000D01*
X196850000Y-184150000D02*
X195072000Y-184150000D01*
X160528000Y-184150000D02*
X159258000Y-185420000D01*
X190119000Y-124460000D02*
X192024000Y-124460000D01*
X127330737Y-184150000D02*
X123698000Y-184150000D01*
X188849000Y-123190000D02*
X190119000Y-124460000D01*
X159258000Y-185420000D02*
X128600737Y-185420000D01*
X80010000Y-186690000D02*
X87630000Y-186690000D01*
X193802000Y-185420000D02*
X169418000Y-185420000D01*
X140970000Y-124460000D02*
X142240000Y-123190000D01*
X142240000Y-123190000D02*
X163957000Y-123190000D01*
X195072000Y-184150000D02*
X193802000Y-185420000D01*
X182880000Y-62992000D02*
X168910000Y-62992000D01*
X191770000Y-62992000D02*
X190500000Y-64262000D01*
X215963500Y-62992000D02*
X214693500Y-64262000D01*
X122301000Y-64262000D02*
X121031000Y-62992000D01*
X140843000Y-114300000D02*
X142076000Y-113067000D01*
X88900000Y-177800000D02*
X113348175Y-177800000D01*
X196850000Y-194310000D02*
X195072000Y-194310000D01*
X210185000Y-64262000D02*
X208915000Y-62992000D01*
X169418000Y-195580000D02*
X168148000Y-194310000D01*
X141859000Y-62992000D02*
X127889000Y-62992000D01*
X163867000Y-113067000D02*
X165100000Y-114300000D01*
X101218998Y-64262000D02*
X99948998Y-62992000D01*
X165100000Y-114300000D02*
X167005000Y-114300000D01*
X169037000Y-114300000D02*
X170307000Y-113030000D01*
X163702998Y-64262000D02*
X162432998Y-62992000D01*
X80010000Y-176530000D02*
X87630000Y-176530000D01*
X168148000Y-194310000D02*
X164338000Y-194310000D01*
X242570000Y-64262000D02*
X231140000Y-64262000D01*
X188849000Y-113030000D02*
X190119000Y-114300000D01*
X195072000Y-194310000D02*
X193802000Y-195580000D01*
X123618500Y-194230500D02*
X127428500Y-194230500D01*
X190500000Y-64262000D02*
X184150000Y-64262000D01*
X139319000Y-114300000D02*
X140843000Y-114300000D01*
X229870000Y-62992000D02*
X215963500Y-62992000D01*
X184150000Y-64262000D02*
X182880000Y-62992000D01*
X207137000Y-194310000D02*
X217805000Y-194310000D01*
X168910000Y-62992000D02*
X167640000Y-64262000D01*
X193802000Y-195580000D02*
X169418000Y-195580000D01*
X121031000Y-62992000D02*
X106680000Y-62992000D01*
X159281750Y-195580000D02*
X160631250Y-194230500D01*
X167640000Y-64262000D02*
X163702998Y-64262000D01*
X148653500Y-62992000D02*
X147383500Y-64262000D01*
X143129000Y-64262000D02*
X141859000Y-62992000D01*
X142076000Y-113067000D02*
X163867000Y-113067000D01*
X214693500Y-64262000D02*
X212090000Y-64262000D01*
X160631250Y-194230500D02*
X164258500Y-194230500D01*
X99948998Y-62992000D02*
X88011002Y-62992000D01*
X231140000Y-64262000D02*
X229870000Y-62992000D01*
X127428500Y-194230500D02*
X128778000Y-195580000D01*
X106680000Y-62992000D02*
X105410000Y-64262000D01*
X162432998Y-62992000D02*
X148653500Y-62992000D01*
X128778000Y-195580000D02*
X159281750Y-195580000D01*
X88011002Y-62992000D02*
X86741002Y-64262000D01*
X190119000Y-114300000D02*
X192024000Y-114300000D01*
X86741002Y-64262000D02*
X82423000Y-64262000D01*
X127889000Y-62992000D02*
X126619000Y-64262000D01*
X105410000Y-64262000D02*
X101218998Y-64262000D01*
X170307000Y-113030000D02*
X188849000Y-113030000D01*
X196850000Y-194310000D02*
X207137000Y-194310000D01*
X208915000Y-62992000D02*
X191770000Y-62992000D01*
X212090000Y-64262000D02*
X210185000Y-64262000D01*
X126619000Y-64262000D02*
X122301000Y-64262000D01*
X147383500Y-64262000D02*
X143129000Y-64262000D01*
X167005000Y-114300000D02*
X169037000Y-114300000D01*
X87630000Y-176530000D02*
X88900000Y-177800000D01*
X127508000Y-179070000D02*
X123698000Y-179070000D01*
X147320000Y-60452000D02*
X143129000Y-60452000D01*
X229870000Y-59182000D02*
X227330000Y-59182000D01*
X80010000Y-191770000D02*
X87630000Y-191770000D01*
X195072000Y-179070000D02*
X207137000Y-179070000D01*
X76073000Y-60452000D02*
X75057000Y-59436000D01*
X167005000Y-129540000D02*
X169164000Y-129540000D01*
X168148338Y-179070000D02*
X169418338Y-180340000D01*
X168910000Y-59182000D02*
X167640000Y-60452000D01*
X87630000Y-191770000D02*
X88900000Y-193040000D01*
X214630000Y-60452000D02*
X215900000Y-59182000D01*
X146055000Y-180345000D02*
X128783000Y-180345000D01*
X257810000Y-59182000D02*
X246380000Y-59182000D01*
X148590000Y-59182000D02*
X147320000Y-60452000D01*
X210185000Y-60452000D02*
X214630000Y-60452000D01*
X173863000Y-59182000D02*
X168910000Y-59182000D01*
X170434000Y-128270000D02*
X188722000Y-128270000D01*
X128783000Y-180345000D02*
X127508000Y-179070000D01*
X75057000Y-56810045D02*
X75303329Y-56563716D01*
X141859000Y-59182000D02*
X127889000Y-59182000D01*
X245110000Y-60452000D02*
X231140000Y-60452000D01*
X127889000Y-59182000D02*
X126619000Y-60452000D01*
X122301000Y-60452000D02*
X121031000Y-59182000D01*
X106680000Y-59182000D02*
X105410000Y-60452000D01*
X163703000Y-60452000D02*
X162433000Y-59182000D01*
X159258000Y-180340000D02*
X146060000Y-180340000D01*
X189992000Y-129540000D02*
X192024000Y-129540000D01*
X164338000Y-179070000D02*
X168148338Y-179070000D01*
X188722000Y-128270000D02*
X189992000Y-129540000D01*
X231140000Y-60452000D02*
X229870000Y-59182000D01*
X142203000Y-128307000D02*
X163867000Y-128307000D01*
X193802000Y-180340000D02*
X195072000Y-179070000D01*
X167640000Y-60452000D02*
X163703000Y-60452000D01*
X207137000Y-179070000D02*
X217805000Y-179070000D01*
X88900000Y-193040000D02*
X114618175Y-193040000D01*
X163867000Y-128307000D02*
X165100000Y-129540000D01*
X121031000Y-59182000D02*
X106680000Y-59182000D01*
X184150000Y-60452000D02*
X190563500Y-60452000D01*
X139319000Y-129540000D02*
X140970000Y-129540000D01*
X182880000Y-59182000D02*
X184150000Y-60452000D01*
X99949000Y-59182000D02*
X88011006Y-59182000D01*
X190563500Y-60452000D02*
X191833500Y-59182000D01*
X105410000Y-60452000D02*
X101219000Y-60452000D01*
X101219000Y-60452000D02*
X99949000Y-59182000D01*
X169164000Y-129540000D02*
X170434000Y-128270000D01*
X169418338Y-180340000D02*
X193802000Y-180340000D01*
X160528000Y-179070000D02*
X159258000Y-180340000D01*
X86741006Y-60452000D02*
X76073000Y-60452000D01*
X126619000Y-60452000D02*
X122301000Y-60452000D01*
X246380000Y-59182000D02*
X245110000Y-60452000D01*
X165100000Y-129540000D02*
X167005000Y-129540000D01*
X162433000Y-59182000D02*
X148590000Y-59182000D01*
X164338000Y-179070000D02*
X160528000Y-179070000D01*
X88011006Y-59182000D02*
X86741006Y-60452000D01*
X215900000Y-59182000D02*
X227330000Y-59182000D01*
X140970000Y-129540000D02*
X142203000Y-128307000D01*
X143129000Y-60452000D02*
X141859000Y-59182000D01*
X191833500Y-59182000D02*
X208915000Y-59182000D01*
X208915000Y-59182000D02*
X210185000Y-60452000D01*
X173863000Y-59182000D02*
X182880000Y-59182000D01*
X75057000Y-59436000D02*
X75057000Y-56810045D01*
X99949000Y-57912000D02*
X88011004Y-57912000D01*
X105410000Y-59182000D02*
X101219000Y-59182000D01*
X168021000Y-189230000D02*
X164338000Y-189230000D01*
X86741004Y-59182000D02*
X82423000Y-59182000D01*
X188849000Y-118110000D02*
X190119000Y-119380000D01*
X184149998Y-59182000D02*
X182879998Y-57912000D01*
X87630000Y-181610000D02*
X88900000Y-182880000D01*
X168910000Y-57912000D02*
X167640000Y-59182000D01*
X196850000Y-189230000D02*
X195072000Y-189230000D01*
X139319000Y-119380000D02*
X141097000Y-119380000D01*
X167005000Y-119380000D02*
X169037000Y-119380000D01*
X127508000Y-189230000D02*
X128778000Y-190500000D01*
X191801443Y-57912000D02*
X190531443Y-59182000D01*
X207137000Y-189230000D02*
X217805000Y-189230000D01*
X126619000Y-59182000D02*
X122301000Y-59182000D01*
X122301000Y-59182000D02*
X121031000Y-57912000D01*
X208915000Y-57912000D02*
X191801443Y-57912000D01*
X163867000Y-118147000D02*
X165100000Y-119380000D01*
X231140000Y-59182000D02*
X229870000Y-57912000D01*
X142330000Y-118147000D02*
X163867000Y-118147000D01*
X195072000Y-189230000D02*
X193802000Y-190500000D01*
X141859000Y-57912000D02*
X127889000Y-57912000D01*
X88011004Y-57912000D02*
X86741004Y-59182000D01*
X163703000Y-59182000D02*
X162433000Y-57912000D01*
X159258000Y-190500000D02*
X160528000Y-189230000D01*
X162433000Y-57912000D02*
X148590000Y-57912000D01*
X167640000Y-59182000D02*
X163703000Y-59182000D01*
X242570000Y-59182000D02*
X231140000Y-59182000D01*
X229870000Y-57912000D02*
X215900000Y-57912000D01*
X190531443Y-59182000D02*
X184149998Y-59182000D01*
X123698000Y-189230000D02*
X127508000Y-189230000D01*
X141097000Y-119380000D02*
X142330000Y-118147000D01*
X121031000Y-57912000D02*
X106680000Y-57912000D01*
X160528000Y-189230000D02*
X164338000Y-189230000D01*
X165100000Y-119380000D02*
X167005000Y-119380000D01*
X80010000Y-181610000D02*
X87630000Y-181610000D01*
X127889000Y-57912000D02*
X126619000Y-59182000D01*
X214630000Y-59182000D02*
X212090000Y-59182000D01*
X196850000Y-189230000D02*
X207137000Y-189230000D01*
X128778000Y-190500000D02*
X159258000Y-190500000D01*
X101219000Y-59182000D02*
X99949000Y-57912000D01*
X169037000Y-119380000D02*
X170307000Y-118110000D01*
X148590000Y-57912000D02*
X147320000Y-59182000D01*
X88900000Y-182880000D02*
X118428175Y-182880000D01*
X169291000Y-190500000D02*
X168021000Y-189230000D01*
X215900000Y-57912000D02*
X214630000Y-59182000D01*
X210185000Y-59182000D02*
X208915000Y-57912000D01*
X170307000Y-118110000D02*
X188849000Y-118110000D01*
X182879998Y-57912000D02*
X168910000Y-57912000D01*
X190119000Y-119380000D02*
X192024000Y-119380000D01*
X147320000Y-59182000D02*
X143129000Y-59182000D01*
X212090000Y-59182000D02*
X210185000Y-59182000D01*
X193802000Y-190500000D02*
X169291000Y-190500000D01*
X143129000Y-59182000D02*
X141859000Y-57912000D01*
X106680000Y-57912000D02*
X105410000Y-59182000D01*
X140970000Y-121920000D02*
X142203000Y-120687000D01*
X165100000Y-121920000D02*
X167005000Y-121920000D01*
X121031000Y-55372000D02*
X106680000Y-55372000D01*
X160528000Y-186690000D02*
X159258000Y-187960000D01*
X231140000Y-56642000D02*
X229870000Y-55372000D01*
X210185000Y-56642000D02*
X208915000Y-55372000D01*
X128783000Y-187965000D02*
X127508000Y-186690000D01*
X207137000Y-186690000D02*
X196850000Y-186690000D01*
X167005000Y-121920000D02*
X169037000Y-121920000D01*
X208915000Y-55372000D02*
X191737943Y-55372000D01*
X214630000Y-56642000D02*
X212090000Y-56642000D01*
X86741002Y-56642000D02*
X82423000Y-56642000D01*
X105410000Y-56642000D02*
X103505000Y-56642000D01*
X88011002Y-55372000D02*
X86741002Y-56642000D01*
X182880000Y-55372000D02*
X168973502Y-55372000D01*
X190119000Y-121920000D02*
X192024000Y-121920000D01*
X80010000Y-184150000D02*
X87630000Y-184150000D01*
X87630000Y-184150000D02*
X88900000Y-185420000D01*
X168148000Y-186690000D02*
X164338000Y-186690000D01*
X190467943Y-56642000D02*
X184150000Y-56642000D01*
X141859000Y-55372000D02*
X127889000Y-55372000D01*
X147320000Y-56642000D02*
X143129000Y-56642000D01*
X207137000Y-186690000D02*
X217805000Y-186690000D01*
X162432998Y-55372000D02*
X148590000Y-55372000D01*
X143129000Y-56642000D02*
X141859000Y-55372000D01*
X120968175Y-186690000D02*
X123698000Y-186690000D01*
X126619000Y-56642000D02*
X122301000Y-56642000D01*
X212090000Y-56642000D02*
X210185000Y-56642000D01*
X196850000Y-186690000D02*
X195072000Y-186690000D01*
X88900000Y-185420000D02*
X119698175Y-185420000D01*
X99949000Y-55372000D02*
X88011002Y-55372000D01*
X159258000Y-187960000D02*
X128788000Y-187960000D01*
X127889000Y-55372000D02*
X126619000Y-56642000D01*
X142203000Y-120687000D02*
X163867000Y-120687000D01*
X106680000Y-55372000D02*
X105410000Y-56642000D01*
X148590000Y-55372000D02*
X147320000Y-56642000D01*
X103505000Y-56642000D02*
X101219000Y-56642000D01*
X170307000Y-120650000D02*
X188849000Y-120650000D01*
X168973502Y-55372000D02*
X167703502Y-56642000D01*
X164338000Y-186690000D02*
X160528000Y-186690000D01*
X195072000Y-186690000D02*
X193797000Y-187965000D01*
X169037000Y-121920000D02*
X170307000Y-120650000D01*
X229870000Y-55372000D02*
X215900000Y-55372000D01*
X163702998Y-56642000D02*
X162432998Y-55372000D01*
X119698175Y-185420000D02*
X120968175Y-186690000D01*
X169423000Y-187965000D02*
X168148000Y-186690000D01*
X191737943Y-55372000D02*
X190467943Y-56642000D01*
X127508000Y-186690000D02*
X123698000Y-186690000D01*
X163867000Y-120687000D02*
X165100000Y-121920000D01*
X167703502Y-56642000D02*
X163702998Y-56642000D01*
X101219000Y-56642000D02*
X99949000Y-55372000D01*
X188849000Y-120650000D02*
X190119000Y-121920000D01*
X215900000Y-55372000D02*
X214630000Y-56642000D01*
X122301000Y-56642000D02*
X121031000Y-55372000D01*
X128788000Y-187960000D02*
X128783000Y-187965000D01*
X139319000Y-121920000D02*
X140970000Y-121920000D01*
X242570000Y-56642000D02*
X231140000Y-56642000D01*
X193797000Y-187965000D02*
X169423000Y-187965000D01*
X184150000Y-56642000D02*
X182880000Y-55372000D01*
X88900000Y-180340000D02*
X115888175Y-180340000D01*
X122300999Y-61722000D02*
X121030999Y-60452000D01*
X87630000Y-179070000D02*
X88900000Y-180340000D01*
X126619000Y-61722000D02*
X122300999Y-61722000D01*
X196850000Y-191770000D02*
X207137000Y-191770000D01*
X163703000Y-61722000D02*
X162433000Y-60452000D01*
X162433000Y-60452000D02*
X148590000Y-60452000D01*
X139319000Y-116840000D02*
X140843000Y-116840000D01*
X212090000Y-61722000D02*
X210185000Y-61722000D01*
X207137000Y-191770000D02*
X217805000Y-191770000D01*
X191770000Y-60452000D02*
X190500000Y-61722000D01*
X214629998Y-61722000D02*
X212090000Y-61722000D01*
X170307000Y-115570000D02*
X188849000Y-115570000D01*
X210185000Y-61722000D02*
X208915000Y-60452000D01*
X195072000Y-191770000D02*
X193802000Y-193040000D01*
X196850000Y-191770000D02*
X195072000Y-191770000D01*
X208915000Y-60452000D02*
X191770000Y-60452000D01*
X160528000Y-191770000D02*
X164084000Y-191770000D01*
X190119000Y-116840000D02*
X192024000Y-116840000D01*
X101219000Y-61722000D02*
X99949000Y-60452000D01*
X167703498Y-61722000D02*
X163703000Y-61722000D01*
X184150000Y-61722000D02*
X182880000Y-60452000D01*
X106680000Y-60452000D02*
X105410000Y-61722000D01*
X123444000Y-191770000D02*
X127254000Y-191770000D01*
X168148000Y-191770000D02*
X164338000Y-191770000D01*
X86741002Y-61722000D02*
X82423000Y-61722000D01*
X229870000Y-60452000D02*
X215899998Y-60452000D01*
X190500000Y-61722000D02*
X184150000Y-61722000D01*
X193802000Y-193040000D02*
X169418000Y-193040000D01*
X165100000Y-116840000D02*
X167005000Y-116840000D01*
X128524000Y-193040000D02*
X159258000Y-193040000D01*
X141859000Y-60452000D02*
X127889000Y-60452000D01*
X121030999Y-60452000D02*
X106680000Y-60452000D01*
X88011002Y-60452000D02*
X86741002Y-61722000D01*
X140843000Y-116840000D02*
X142113000Y-115570000D01*
X147320000Y-61722000D02*
X143129000Y-61722000D01*
X80010000Y-179070000D02*
X87630000Y-179070000D01*
X182880000Y-60452000D02*
X168973498Y-60452000D01*
X169418000Y-193040000D02*
X168148000Y-191770000D01*
X105410000Y-61722000D02*
X101219000Y-61722000D01*
X127889000Y-60452000D02*
X126619000Y-61722000D01*
X242570000Y-61722000D02*
X231140000Y-61722000D01*
X188849000Y-115570000D02*
X190119000Y-116840000D01*
X142113000Y-115570000D02*
X163830000Y-115570000D01*
X231140000Y-61722000D02*
X229870000Y-60452000D01*
X167005000Y-116840000D02*
X169037000Y-116840000D01*
X159258000Y-193040000D02*
X160528000Y-191770000D01*
X127254000Y-191770000D02*
X128524000Y-193040000D01*
X168973498Y-60452000D02*
X167703498Y-61722000D01*
X169037000Y-116840000D02*
X170307000Y-115570000D01*
X215899998Y-60452000D02*
X214629998Y-61722000D01*
X143129000Y-61722000D02*
X141859000Y-60452000D01*
X148590000Y-60452000D02*
X147320000Y-61722000D01*
X163830000Y-115570000D02*
X165100000Y-116840000D01*
X99949000Y-60452000D02*
X88011002Y-60452000D01*
X121031000Y-64262000D02*
X106680000Y-64262000D01*
X101219000Y-65532000D02*
X99949000Y-64262000D01*
X105410000Y-65532000D02*
X101219000Y-65532000D01*
X150622000Y-64262000D02*
X148590000Y-64262000D01*
X159893000Y-111760000D02*
X163830000Y-111760000D01*
X182245000Y-111760000D02*
X188722000Y-111760000D01*
X147320000Y-65532000D02*
X143129000Y-65532000D01*
X127889000Y-64262000D02*
X126619000Y-65532000D01*
X190499996Y-65622000D02*
X191859996Y-64262000D01*
X85090000Y-171450000D02*
X86360000Y-170180000D01*
X119952175Y-168910000D02*
X123698000Y-168910000D01*
X168909998Y-64262000D02*
X182880000Y-64262000D01*
X229870000Y-64262000D02*
X227330000Y-64262000D01*
X127508000Y-168910000D02*
X128778000Y-170180000D01*
X189992000Y-113030000D02*
X204216000Y-113030000D01*
X159258000Y-170180000D02*
X160528000Y-168910000D01*
X202057000Y-170180000D02*
X203327000Y-168910000D01*
X214603500Y-65622000D02*
X215963500Y-64262000D01*
X204216000Y-113030000D02*
X205486000Y-111760000D01*
X188722000Y-111760000D02*
X189992000Y-113030000D01*
X205486000Y-111760000D02*
X207264000Y-111760000D01*
X106680000Y-64262000D02*
X105410000Y-65532000D01*
X191859996Y-64262000D02*
X208825000Y-64262000D01*
X165100000Y-113030000D02*
X168910000Y-113030000D01*
X169418000Y-170180000D02*
X202057000Y-170180000D01*
X246380000Y-64262000D02*
X245110000Y-65532000D01*
X74422000Y-69850000D02*
X65535850Y-69850000D01*
X207137000Y-168910000D02*
X217805000Y-168910000D01*
X99949000Y-64262000D02*
X88011004Y-64262000D01*
X203327000Y-168910000D02*
X207137000Y-168910000D01*
X210185000Y-65622000D02*
X214603500Y-65622000D01*
X86360000Y-170180000D02*
X118682175Y-170180000D01*
X184240000Y-65622000D02*
X190499996Y-65622000D01*
X163703000Y-65532000D02*
X167639998Y-65532000D01*
X141859000Y-64262000D02*
X127889000Y-64262000D01*
X164338000Y-168910000D02*
X168148000Y-168910000D01*
X245110000Y-65532000D02*
X231140000Y-65532000D01*
X126619000Y-65532000D02*
X122301000Y-65532000D01*
X78740000Y-65532000D02*
X74422000Y-69850000D01*
X159893000Y-116840000D02*
X154559000Y-116840000D01*
X160528000Y-168910000D02*
X164338000Y-168910000D01*
X150622000Y-64262000D02*
X162433000Y-64262000D01*
X123698000Y-168910000D02*
X127508000Y-168910000D01*
X182880000Y-64262000D02*
X184240000Y-65622000D01*
X168910000Y-113030000D02*
X170180000Y-111760000D01*
X170180000Y-111760000D02*
X182245000Y-111760000D01*
X88011004Y-64262000D02*
X86741004Y-65532000D01*
X162433000Y-64262000D02*
X163703000Y-65532000D01*
X85090000Y-172720000D02*
X85090000Y-171450000D01*
X86741004Y-65532000D02*
X78740000Y-65532000D01*
X168148000Y-168910000D02*
X169418000Y-170180000D01*
X215963500Y-64262000D02*
X227330000Y-64262000D01*
X208825000Y-64262000D02*
X210185000Y-65622000D01*
X143129000Y-65532000D02*
X141859000Y-64262000D01*
X122301000Y-65532000D02*
X121031000Y-64262000D01*
X257810000Y-64262000D02*
X246380000Y-64262000D01*
X138684000Y-170180000D02*
X146812000Y-170180000D01*
X231140000Y-65532000D02*
X229870000Y-64262000D01*
X146812000Y-170180000D02*
X159258000Y-170180000D01*
X118682175Y-170180000D02*
X119952175Y-168910000D01*
X59185850Y-63500000D02*
X57155000Y-63500000D01*
X163830000Y-111760000D02*
X165100000Y-113030000D01*
X148590000Y-64262000D02*
X147320000Y-65532000D01*
X128778000Y-170180000D02*
X138684000Y-170180000D01*
X154559000Y-116840000D02*
X146812000Y-116840000D01*
X65535850Y-69850000D02*
X59185850Y-63500000D01*
X167639998Y-65532000D02*
X168909998Y-64262000D01*
X257810000Y-69342000D02*
X246380000Y-69342000D01*
X147320000Y-70612000D02*
X148590000Y-69342000D01*
X245110000Y-70612000D02*
X231140000Y-70612000D01*
X88011002Y-69342000D02*
X99949000Y-69342000D01*
X210185000Y-70612000D02*
X214630000Y-70612000D01*
X215900000Y-69342000D02*
X227330000Y-69342000D01*
X67818000Y-172974000D02*
X67818000Y-179070000D01*
X141859000Y-69342000D02*
X143129000Y-70612000D01*
X163703000Y-114300000D02*
X164973000Y-115570000D01*
X215265000Y-199390000D02*
X210185000Y-204470000D01*
X101219000Y-70612000D02*
X105410000Y-70612000D01*
X168910000Y-69342000D02*
X182880000Y-69342000D01*
X66548000Y-180340000D02*
X63246000Y-180340000D01*
X169418000Y-205740000D02*
X168148000Y-204470000D01*
X188849000Y-114300000D02*
X190119000Y-115570000D01*
X210185000Y-204470000D02*
X207137000Y-204470000D01*
X121031000Y-69342000D02*
X122301000Y-70612000D01*
X164973000Y-115570000D02*
X168973500Y-115570000D01*
X184150000Y-70612000D02*
X190531750Y-70612000D01*
X217805000Y-199390000D02*
X215265000Y-199390000D01*
X118682175Y-205740000D02*
X119952175Y-204470000D01*
X163703000Y-70612000D02*
X167640000Y-70612000D01*
X159258000Y-205740000D02*
X160528000Y-204470000D01*
X67310000Y-185420000D02*
X77470000Y-195580000D01*
X99949000Y-69342000D02*
X101219000Y-70612000D01*
X119952175Y-204470000D02*
X123698000Y-204470000D01*
X100902175Y-205740000D02*
X118682175Y-205740000D01*
X145360244Y-205740000D02*
X128645881Y-205740000D01*
X105410000Y-70612000D02*
X106680000Y-69342000D01*
X152400000Y-69342000D02*
X162433000Y-69342000D01*
X64770000Y-171450000D02*
X66294000Y-171450000D01*
X182245000Y-114300000D02*
X188849000Y-114300000D01*
X106680000Y-69342000D02*
X121031000Y-69342000D01*
X178460123Y-205740000D02*
X169418000Y-205740000D01*
X77470000Y-195580000D02*
X84328000Y-195580000D01*
X214630000Y-70612000D02*
X215900000Y-69342000D01*
X205486000Y-114300000D02*
X207264000Y-114300000D01*
X146685000Y-205740000D02*
X145360244Y-205740000D01*
X190531750Y-70612000D02*
X191801750Y-69342000D01*
X94488000Y-205740000D02*
X107950000Y-205740000D01*
X143129000Y-70612000D02*
X147320000Y-70612000D01*
X191801750Y-69342000D02*
X208915000Y-69342000D01*
X59185850Y-68580000D02*
X65535850Y-74930000D01*
X126619000Y-70612000D02*
X127889000Y-69342000D01*
X146685000Y-205740000D02*
X159258000Y-205740000D01*
X148590000Y-69342000D02*
X152400000Y-69342000D01*
X65535850Y-74930000D02*
X74422000Y-74930000D01*
X67818000Y-179070000D02*
X66548000Y-180340000D01*
X62230000Y-184404000D02*
X63246000Y-185420000D01*
X160528000Y-204470000D02*
X164338000Y-204470000D01*
X154559000Y-111760000D02*
X146812000Y-111760000D01*
X207137000Y-204470000D02*
X203327000Y-204470000D01*
X229870000Y-69342000D02*
X227330000Y-69342000D01*
X63246000Y-185420000D02*
X67310000Y-185420000D01*
X86741002Y-70612000D02*
X88011002Y-69342000D01*
X57155000Y-68580000D02*
X59185850Y-68580000D01*
X170243500Y-114300000D02*
X182245000Y-114300000D01*
X128645881Y-205740000D02*
X127375881Y-204470000D01*
X162433000Y-69342000D02*
X163703000Y-70612000D01*
X231140000Y-70612000D02*
X229870000Y-69342000D01*
X63246000Y-180340000D02*
X62230000Y-181356000D01*
X158496000Y-114300000D02*
X163703000Y-114300000D01*
X246380000Y-69342000D02*
X245110000Y-70612000D01*
X84328000Y-195580000D02*
X94488000Y-205740000D01*
X204216000Y-115570000D02*
X205486000Y-114300000D01*
X66294000Y-171450000D02*
X67818000Y-172974000D01*
X127889000Y-69342000D02*
X141859000Y-69342000D01*
X202057000Y-205740000D02*
X178460123Y-205740000D01*
X182880000Y-69342000D02*
X184150000Y-70612000D01*
X78740000Y-70612000D02*
X86741002Y-70612000D01*
X122301000Y-70612000D02*
X126619000Y-70612000D01*
X190119000Y-115570000D02*
X204216000Y-115570000D01*
X203327000Y-204470000D02*
X202057000Y-205740000D01*
X127375881Y-204470000D02*
X123698000Y-204470000D01*
X62230000Y-181356000D02*
X62230000Y-184404000D01*
X208915000Y-69342000D02*
X210185000Y-70612000D01*
X168148000Y-204470000D02*
X164338000Y-204470000D01*
X167640000Y-70612000D02*
X168910000Y-69342000D01*
X74422000Y-74930000D02*
X78740000Y-70612000D01*
X158496000Y-111760000D02*
X154559000Y-111760000D01*
X168973500Y-115570000D02*
X170243500Y-114300000D01*
X106743500Y-71882000D02*
X105473500Y-73152000D01*
X74422000Y-77470000D02*
X65535850Y-77470000D01*
X220599000Y-198628000D02*
X220599000Y-201422000D01*
X207137000Y-199390000D02*
X203327000Y-199390000D01*
X169386250Y-200660000D02*
X168116250Y-199390000D01*
X122301000Y-73152000D02*
X121031000Y-71882000D01*
X147320000Y-73152000D02*
X143129000Y-73152000D01*
X202057000Y-200660000D02*
X169386250Y-200660000D01*
X168116250Y-199390000D02*
X164338000Y-199390000D01*
X127889000Y-71882000D02*
X126619000Y-73152000D01*
X220091000Y-201930000D02*
X217805000Y-201930000D01*
X191770000Y-71882000D02*
X190500000Y-73152000D01*
X78740000Y-73152000D02*
X74422000Y-77470000D01*
X227330000Y-71882000D02*
X215900000Y-71882000D01*
X126619000Y-73152000D02*
X122301000Y-73152000D01*
X159258000Y-200660000D02*
X160528000Y-199390000D01*
X163703000Y-73152000D02*
X162433000Y-71882000D01*
X207137000Y-199390000D02*
X211455000Y-199390000D01*
X105473500Y-73152000D02*
X101219000Y-73152000D01*
X128651000Y-200660000D02*
X127381000Y-199390000D01*
X257810000Y-71882000D02*
X246380000Y-71882000D01*
X220599000Y-201422000D02*
X220091000Y-201930000D01*
X65535850Y-77470000D02*
X59185850Y-71120000D01*
X190500000Y-73152000D02*
X184150000Y-73152000D01*
X210058000Y-73152000D02*
X208788000Y-71882000D01*
X86741000Y-73152000D02*
X78740000Y-73152000D01*
X141859000Y-71882000D02*
X136652000Y-71882000D01*
X59185850Y-71120000D02*
X57155000Y-71120000D01*
X88011000Y-71882000D02*
X86741000Y-73152000D01*
X214630000Y-73152000D02*
X210058000Y-73152000D01*
X168910000Y-71882000D02*
X167640000Y-73152000D01*
X121031000Y-71882000D02*
X106743500Y-71882000D01*
X245110000Y-73152000D02*
X231140000Y-73152000D01*
X203327000Y-199390000D02*
X202057000Y-200660000D01*
X136652000Y-71882000D02*
X127889000Y-71882000D01*
X229870000Y-71882000D02*
X227330000Y-71882000D01*
X220091000Y-198120000D02*
X220599000Y-198628000D01*
X215900000Y-71882000D02*
X214630000Y-73152000D01*
X143129000Y-73152000D02*
X141859000Y-71882000D01*
X167640000Y-73152000D02*
X163703000Y-73152000D01*
X231140000Y-73152000D02*
X229870000Y-71882000D01*
X212725000Y-198120000D02*
X220091000Y-198120000D01*
X246380000Y-71882000D02*
X245110000Y-73152000D01*
X160528000Y-199390000D02*
X164338000Y-199390000D01*
X211455000Y-199390000D02*
X212725000Y-198120000D01*
X159258000Y-200660000D02*
X128651000Y-200660000D01*
X99949000Y-71882000D02*
X88011000Y-71882000D01*
X208788000Y-71882000D02*
X191770000Y-71882000D01*
X184150000Y-73152000D02*
X182880000Y-71882000D01*
X101219000Y-73152000D02*
X99949000Y-71882000D01*
X148590000Y-71882000D02*
X147320000Y-73152000D01*
X162433000Y-71882000D02*
X148590000Y-71882000D01*
X182880000Y-71882000D02*
X168910000Y-71882000D01*
X127381000Y-199390000D02*
X123698000Y-199390000D01*
X144272000Y-200660000D02*
X159258000Y-200660000D01*
X106743500Y-66802000D02*
X105473500Y-68072000D01*
X74422000Y-72390000D02*
X65535850Y-72390000D01*
X203325650Y-171450000D02*
X202055650Y-172720000D01*
X168148000Y-171450000D02*
X164338000Y-171450000D01*
X122301000Y-68072000D02*
X121031000Y-66802000D01*
X126619000Y-68072000D02*
X122301000Y-68072000D01*
X139700000Y-172720000D02*
X146812000Y-172720000D01*
X160528000Y-171450000D02*
X164338000Y-171450000D01*
X65535850Y-72390000D02*
X59185850Y-66040000D01*
X191674750Y-66929000D02*
X209042000Y-66929000D01*
X182245000Y-119380000D02*
X170307000Y-119380000D01*
X167640000Y-68072000D02*
X168910000Y-66802000D01*
X99949000Y-66802000D02*
X88011000Y-66802000D01*
X148590000Y-66802000D02*
X147320000Y-68072000D01*
X128778000Y-172720000D02*
X139700000Y-172720000D01*
X205486000Y-119380000D02*
X207264000Y-119380000D01*
X86741000Y-68072000D02*
X78740000Y-68072000D01*
X215900000Y-66802000D02*
X227330000Y-66802000D01*
X143129000Y-68072000D02*
X141859000Y-66802000D01*
X207137000Y-171450000D02*
X217805000Y-171450000D01*
X147320000Y-68072000D02*
X143129000Y-68072000D01*
X127889000Y-66802000D02*
X126619000Y-68072000D01*
X182880000Y-66802000D02*
X184150000Y-68072000D01*
X163703000Y-68072000D02*
X167640000Y-68072000D01*
X78740000Y-68072000D02*
X74422000Y-72390000D01*
X119952175Y-171450000D02*
X118682175Y-172720000D01*
X163957000Y-119507000D02*
X157099000Y-119507000D01*
X188849000Y-119380000D02*
X190119000Y-120650000D01*
X101219000Y-68072000D02*
X99949000Y-66802000D01*
X168910000Y-66802000D02*
X182880000Y-66802000D01*
X231140000Y-68072000D02*
X229870000Y-66802000D01*
X162433000Y-66802000D02*
X163703000Y-68072000D01*
X169418000Y-172720000D02*
X168148000Y-171450000D01*
X245110000Y-68072000D02*
X231140000Y-68072000D01*
X154559000Y-114300000D02*
X146812000Y-114300000D01*
X157099000Y-114300000D02*
X154559000Y-114300000D01*
X257810000Y-66802000D02*
X246380000Y-66802000D01*
X146812000Y-172720000D02*
X159258000Y-172720000D01*
X123698000Y-171450000D02*
X127508000Y-171450000D01*
X151528000Y-66802000D02*
X148590000Y-66802000D01*
X184150000Y-68072000D02*
X190531750Y-68072000D01*
X88011000Y-66802000D02*
X86741000Y-68072000D01*
X170307000Y-119380000D02*
X169037000Y-120650000D01*
X169037000Y-120650000D02*
X165100000Y-120650000D01*
X105473500Y-68072000D02*
X101219000Y-68072000D01*
X165100000Y-120650000D02*
X163957000Y-119507000D01*
X210185000Y-68072000D02*
X214630000Y-68072000D01*
X246380000Y-66802000D02*
X245110000Y-68072000D01*
X229870000Y-66802000D02*
X227330000Y-66802000D01*
X121031000Y-66802000D02*
X106743500Y-66802000D01*
X207137000Y-171450000D02*
X203325650Y-171450000D01*
X209042000Y-66929000D02*
X210185000Y-68072000D01*
X159258000Y-172720000D02*
X160528000Y-171450000D01*
X141859000Y-66802000D02*
X127889000Y-66802000D01*
X190531750Y-68072000D02*
X191674750Y-66929000D01*
X214630000Y-68072000D02*
X215900000Y-66802000D01*
X127508000Y-171450000D02*
X128778000Y-172720000D01*
X123698000Y-171450000D02*
X119952175Y-171450000D01*
X182245000Y-119380000D02*
X188849000Y-119380000D01*
X59185850Y-66040000D02*
X57155000Y-66040000D01*
X151528000Y-66802000D02*
X162433000Y-66802000D01*
X118682175Y-172720000D02*
X86360000Y-172720000D01*
X202055650Y-172720000D02*
X169418000Y-172720000D01*
X204216000Y-120650000D02*
X205486000Y-119380000D01*
X190119000Y-120650000D02*
X204216000Y-120650000D01*
X168910000Y-74422000D02*
X167640000Y-75692000D01*
X141859000Y-74422000D02*
X127889000Y-74422000D01*
X229870000Y-74422000D02*
X227330000Y-74422000D01*
X231140000Y-75692000D02*
X229870000Y-74422000D01*
X208788000Y-74422000D02*
X191770000Y-74422000D01*
X105410000Y-75692000D02*
X101219000Y-75692000D01*
X143129000Y-75692000D02*
X141859000Y-74422000D01*
X74422000Y-80010000D02*
X65535850Y-80010000D01*
X127889000Y-74422000D02*
X126619000Y-75692000D01*
X59185850Y-73660000D02*
X57155000Y-73660000D01*
X86741002Y-75692000D02*
X78740000Y-75692000D01*
X88011002Y-74422000D02*
X86741002Y-75692000D01*
X78740000Y-75692000D02*
X74422000Y-80010000D01*
X246380000Y-74422000D02*
X245110000Y-75692000D01*
X162433000Y-74422000D02*
X148590000Y-74422000D01*
X227330000Y-74422000D02*
X215900000Y-74422000D01*
X167640000Y-75692000D02*
X163703000Y-75692000D01*
X106680000Y-74422000D02*
X105410000Y-75692000D01*
X147320000Y-75692000D02*
X143129000Y-75692000D01*
X101219000Y-75692000D02*
X99949000Y-74422000D01*
X191770000Y-74422000D02*
X190500000Y-75692000D01*
X190500000Y-75692000D02*
X184150000Y-75692000D01*
X122301000Y-75692000D02*
X121031000Y-74422000D01*
X215900000Y-74422000D02*
X214630000Y-75692000D01*
X214630000Y-75692000D02*
X210058000Y-75692000D01*
X99949000Y-74422000D02*
X88011002Y-74422000D01*
X182880000Y-74422000D02*
X168910000Y-74422000D01*
X184150000Y-75692000D02*
X182880000Y-74422000D01*
X126619000Y-75692000D02*
X122301000Y-75692000D01*
X245110000Y-75692000D02*
X231140000Y-75692000D01*
X257810000Y-74422000D02*
X246380000Y-74422000D01*
X163703000Y-75692000D02*
X162433000Y-74422000D01*
X148590000Y-74422000D02*
X147320000Y-75692000D01*
X121031000Y-74422000D02*
X106680000Y-74422000D01*
X65535850Y-80010000D02*
X59185850Y-73660000D01*
X210058000Y-75692000D02*
X208788000Y-74422000D01*
X229870000Y-76962000D02*
X227330000Y-76962000D01*
X147320000Y-78232000D02*
X143129000Y-78232000D01*
X208788000Y-76962000D02*
X191833500Y-76962000D01*
X106680000Y-76962000D02*
X105410000Y-78232000D01*
X246399180Y-76962000D02*
X245129180Y-78232000D01*
X167640000Y-78232000D02*
X163703000Y-78232000D01*
X65535850Y-82550000D02*
X59185850Y-76200000D01*
X184086500Y-78232000D02*
X182816500Y-76962000D01*
X190563500Y-78232000D02*
X184086500Y-78232000D01*
X148590000Y-76962000D02*
X147320000Y-78232000D01*
X162433000Y-76962000D02*
X148590000Y-76962000D01*
X88010998Y-76962000D02*
X86740998Y-78232000D01*
X59185850Y-76200000D02*
X57155000Y-76200000D01*
X101219002Y-78232000D02*
X99949002Y-76962000D01*
X210058000Y-78232000D02*
X208788000Y-76962000D01*
X215900000Y-76962000D02*
X214630000Y-78232000D01*
X245129180Y-78232000D02*
X231140000Y-78232000D01*
X168910000Y-76962000D02*
X167640000Y-78232000D01*
X214630000Y-78232000D02*
X210058000Y-78232000D01*
X182816500Y-76962000D02*
X168910000Y-76962000D01*
X86740998Y-78232000D02*
X78740000Y-78232000D01*
X99949002Y-76962000D02*
X88010998Y-76962000D01*
X257810000Y-76962000D02*
X246399180Y-76962000D01*
X127825500Y-76962000D02*
X126555500Y-78232000D01*
X126555500Y-78232000D02*
X122301000Y-78232000D01*
X143129000Y-78232000D02*
X141859000Y-76962000D01*
X122301000Y-78232000D02*
X121031000Y-76962000D01*
X141859000Y-76962000D02*
X127825500Y-76962000D01*
X231140000Y-78232000D02*
X229870000Y-76962000D01*
X74422000Y-82550000D02*
X65535850Y-82550000D01*
X105410000Y-78232000D02*
X101219002Y-78232000D01*
X163703000Y-78232000D02*
X162433000Y-76962000D01*
X78740000Y-78232000D02*
X74422000Y-82550000D01*
X191833500Y-76962000D02*
X190563500Y-78232000D01*
X227330000Y-76962000D02*
X215900000Y-76962000D01*
X121031000Y-76962000D02*
X106680000Y-76962000D01*
X229870000Y-82042000D02*
X227330000Y-82042000D01*
X148590000Y-82042000D02*
X162433000Y-82042000D01*
X147320000Y-83312000D02*
X148590000Y-82042000D01*
X245173500Y-83312000D02*
X231140000Y-83312000D01*
X214630000Y-83312000D02*
X215900000Y-82042000D01*
X215900000Y-82042000D02*
X227330000Y-82042000D01*
X182816500Y-82042000D02*
X184086500Y-83312000D01*
X106616500Y-82042000D02*
X121031000Y-82042000D01*
X210058000Y-83312000D02*
X214630000Y-83312000D01*
X105695750Y-82962750D02*
X106616500Y-82042000D01*
X122301000Y-83312000D02*
X126619000Y-83312000D01*
X88011000Y-82042000D02*
X86741000Y-83312000D01*
X257810000Y-82042000D02*
X246443500Y-82042000D01*
X208788000Y-82042000D02*
X210058000Y-83312000D01*
X65535850Y-87630000D02*
X59185850Y-81280000D01*
X126619000Y-83312000D02*
X127889000Y-82042000D01*
X105346500Y-83312000D02*
X101219000Y-83312000D01*
X74422000Y-87630000D02*
X65535850Y-87630000D01*
X163703000Y-83312000D02*
X167640000Y-83312000D01*
X143129000Y-83312000D02*
X147320000Y-83312000D01*
X190436500Y-83312000D02*
X191706500Y-82042000D01*
X101219000Y-83312000D02*
X99949000Y-82042000D01*
X121031000Y-82042000D02*
X122301000Y-83312000D01*
X246443500Y-82042000D02*
X245173500Y-83312000D01*
X86741000Y-83312000D02*
X78740000Y-83312000D01*
X141859000Y-82042000D02*
X143129000Y-83312000D01*
X184086500Y-83312000D02*
X190436500Y-83312000D01*
X59185850Y-81280000D02*
X57155000Y-81280000D01*
X231140000Y-83312000D02*
X229870000Y-82042000D01*
X105695750Y-82962750D02*
X105346500Y-83312000D01*
X168910000Y-82042000D02*
X182816500Y-82042000D01*
X162433000Y-82042000D02*
X163703000Y-83312000D01*
X167640000Y-83312000D02*
X168910000Y-82042000D01*
X78740000Y-83312000D02*
X74422000Y-87630000D01*
X127889000Y-82042000D02*
X141859000Y-82042000D01*
X99949000Y-82042000D02*
X88011000Y-82042000D01*
X191706500Y-82042000D02*
X208788000Y-82042000D01*
X42799000Y-97028000D02*
X42799000Y-92837000D01*
X82550000Y-92964000D02*
X77851000Y-97663000D01*
X191833500Y-73152000D02*
X190563500Y-74422000D01*
X101219000Y-74422000D02*
X99949000Y-73152000D01*
X105410000Y-74422000D02*
X101219000Y-74422000D01*
X106680000Y-73152000D02*
X105410000Y-74422000D01*
X210058000Y-74422000D02*
X208788000Y-73152000D01*
X208788000Y-73152000D02*
X191833500Y-73152000D01*
X212090000Y-74422000D02*
X210058000Y-74422000D01*
X182880000Y-73152000D02*
X168973500Y-73152000D01*
X229870000Y-73152000D02*
X215900000Y-73152000D01*
X167703500Y-74422000D02*
X163703000Y-74422000D01*
X63055500Y-97980500D02*
X62738000Y-98298000D01*
X44069000Y-98298000D02*
X42799000Y-97028000D01*
X42799000Y-92837000D02*
X44196000Y-91440000D01*
X63373000Y-97663000D02*
X63055500Y-97980500D01*
X190563500Y-74422000D02*
X184150000Y-74422000D01*
X231140000Y-74422000D02*
X229870000Y-73152000D01*
X44196000Y-91440000D02*
X57155000Y-91440000D01*
X215900000Y-73152000D02*
X214630000Y-74422000D01*
X162433000Y-73152000D02*
X148590000Y-73152000D01*
X121031000Y-73152000D02*
X106680000Y-73152000D01*
X143129000Y-74422000D02*
X141859000Y-73152000D01*
X127889002Y-73152000D02*
X126619002Y-74422000D01*
X148590000Y-73152000D02*
X147320000Y-74422000D01*
X86741000Y-74422000D02*
X82423000Y-74422000D01*
X184150000Y-74422000D02*
X182880000Y-73152000D01*
X77851000Y-97663000D02*
X63373000Y-97663000D01*
X126619002Y-74422000D02*
X122301000Y-74422000D01*
X99949000Y-73152000D02*
X88011000Y-73152000D01*
X62738000Y-98298000D02*
X44069000Y-98298000D01*
X141859000Y-73152000D02*
X127889002Y-73152000D01*
X214630000Y-74422000D02*
X212090000Y-74422000D01*
X168973500Y-73152000D02*
X167703500Y-74422000D01*
X163703000Y-74422000D02*
X162433000Y-73152000D01*
X122301000Y-74422000D02*
X121031000Y-73152000D01*
X242570000Y-74422000D02*
X231140000Y-74422000D01*
X147320000Y-74422000D02*
X143129000Y-74422000D01*
X88011000Y-73152000D02*
X86741000Y-74422000D01*
X163703000Y-79502000D02*
X162433000Y-78232000D01*
X101219000Y-79502000D02*
X99949000Y-78232000D01*
X184086498Y-79502000D02*
X182816498Y-78232000D01*
X141859000Y-78232000D02*
X127864980Y-78232000D01*
X57150000Y-96393000D02*
X59563000Y-96393000D01*
X148653500Y-78232000D02*
X147383500Y-79502000D01*
X147383500Y-79502000D02*
X143129000Y-79502000D01*
X143129000Y-79502000D02*
X141859000Y-78232000D01*
X59563000Y-96393000D02*
X63246000Y-92710000D01*
X122301000Y-79502000D02*
X121031000Y-78232000D01*
X210058000Y-79502000D02*
X208788000Y-78232000D01*
X162433000Y-78232000D02*
X148653500Y-78232000D01*
X212090000Y-79502000D02*
X210058000Y-79502000D01*
X242570000Y-79502000D02*
X231140000Y-79502000D01*
X127864980Y-78232000D02*
X126594980Y-79502000D01*
X99949000Y-78232000D02*
X88011000Y-78232000D01*
X106680000Y-78232000D02*
X106616500Y-78295500D01*
X63246000Y-92710000D02*
X80518000Y-92710000D01*
X80518000Y-92710000D02*
X82550000Y-90678000D01*
X168909998Y-78232000D02*
X167639998Y-79502000D01*
X182816498Y-78232000D02*
X168909998Y-78232000D01*
X214630000Y-79502000D02*
X212090000Y-79502000D01*
X215900000Y-78232000D02*
X214630000Y-79502000D01*
X126594980Y-79502000D02*
X122301000Y-79502000D01*
X106616500Y-78295500D02*
X105410000Y-79502000D01*
X86741000Y-79502000D02*
X82423000Y-79502000D01*
X105410000Y-79502000D02*
X101219000Y-79502000D01*
X88011000Y-78232000D02*
X86741000Y-79502000D01*
X121031000Y-78232000D02*
X106680000Y-78232000D01*
X190500000Y-79502000D02*
X184086498Y-79502000D01*
X167639998Y-79502000D02*
X163703000Y-79502000D01*
X208788000Y-78232000D02*
X191770000Y-78232000D01*
X191770000Y-78232000D02*
X190500000Y-79502000D01*
X229870000Y-78232000D02*
X215900000Y-78232000D01*
X231140000Y-79502000D02*
X229870000Y-78232000D01*
X59436000Y-93980000D02*
X57155000Y-93980000D01*
X122301000Y-85852000D02*
X121031000Y-84582000D01*
X143129000Y-85852000D02*
X141859000Y-84582000D01*
X182816500Y-84582000D02*
X168973500Y-84582000D01*
X245110000Y-85852000D02*
X231140000Y-85852000D01*
X257810000Y-84582000D02*
X246380000Y-84582000D01*
X246380000Y-84582000D02*
X245110000Y-85852000D01*
X163703000Y-85852000D02*
X162433000Y-84582000D01*
X101219000Y-85852000D02*
X99949000Y-84582000D01*
X227330000Y-84582000D02*
X215900000Y-84582000D01*
X141859000Y-84582000D02*
X127825496Y-84582000D01*
X63246000Y-90170000D02*
X59436000Y-93980000D01*
X105410000Y-85852000D02*
X101219000Y-85852000D01*
X214630000Y-85852000D02*
X210058000Y-85852000D01*
X147383500Y-85852000D02*
X143129000Y-85852000D01*
X190436500Y-85852000D02*
X184086500Y-85852000D01*
X88011000Y-84582000D02*
X86741000Y-85852000D01*
X208788000Y-84582000D02*
X191706500Y-84582000D01*
X168973500Y-84582000D02*
X167703500Y-85852000D01*
X121031000Y-84582000D02*
X106680000Y-84582000D01*
X215900000Y-84582000D02*
X214630000Y-85852000D01*
X106680000Y-84582000D02*
X105410000Y-85852000D01*
X74422000Y-90170000D02*
X63246000Y-90170000D01*
X86741000Y-85852000D02*
X78740000Y-85852000D01*
X126555496Y-85852000D02*
X122301000Y-85852000D01*
X229870000Y-84582000D02*
X227330000Y-84582000D01*
X99949000Y-84582000D02*
X88011000Y-84582000D01*
X162433000Y-84582000D02*
X148653500Y-84582000D01*
X78740000Y-85852000D02*
X74422000Y-90170000D01*
X184086500Y-85852000D02*
X182816500Y-84582000D01*
X167703500Y-85852000D02*
X163703000Y-85852000D01*
X127825496Y-84582000D02*
X126555496Y-85852000D01*
X148653500Y-84582000D02*
X147383500Y-85852000D01*
X210058000Y-85852000D02*
X208788000Y-84582000D01*
X191706500Y-84582000D02*
X190436500Y-85852000D01*
X231140000Y-85852000D02*
X229870000Y-84582000D01*
X121031000Y-79502000D02*
X106680000Y-79502000D01*
X141859000Y-79502000D02*
X127864978Y-79502000D01*
X182816500Y-79502000D02*
X168910000Y-79502000D01*
X127864978Y-79502000D02*
X126594978Y-80772000D01*
X126594978Y-80772000D02*
X122301000Y-80772000D01*
X59185850Y-78740000D02*
X57155000Y-78740000D01*
X163703000Y-80772000D02*
X162433000Y-79502000D01*
X148590000Y-79502000D02*
X147320000Y-80772000D01*
X227330000Y-79502000D02*
X215900000Y-79502000D01*
X215900000Y-79502000D02*
X214630000Y-80772000D01*
X143129000Y-80772000D02*
X141859000Y-79502000D01*
X167640000Y-80772000D02*
X163703000Y-80772000D01*
X147320000Y-80772000D02*
X143129000Y-80772000D01*
X99949000Y-79502000D02*
X88011000Y-79502000D01*
X191770000Y-79502000D02*
X190500000Y-80772000D01*
X184086500Y-80772000D02*
X182816500Y-79502000D01*
X106680000Y-79502000D02*
X105410000Y-80772000D01*
X214630000Y-80772000D02*
X210058000Y-80772000D01*
X229870000Y-79502000D02*
X227330000Y-79502000D01*
X65535850Y-85090000D02*
X59185850Y-78740000D01*
X208788000Y-79502000D02*
X191770000Y-79502000D01*
X78740000Y-80772000D02*
X74422000Y-85090000D01*
X245110000Y-80772000D02*
X231140000Y-80772000D01*
X105410000Y-80772000D02*
X101219000Y-80772000D01*
X88011000Y-79502000D02*
X86741000Y-80772000D01*
X162433000Y-79502000D02*
X148590000Y-79502000D01*
X168910000Y-79502000D02*
X167640000Y-80772000D01*
X246380000Y-79502000D02*
X245110000Y-80772000D01*
X86741000Y-80772000D02*
X78740000Y-80772000D01*
X257810000Y-79502000D02*
X246380000Y-79502000D01*
X101219000Y-80772000D02*
X99949000Y-79502000D01*
X210058000Y-80772000D02*
X208788000Y-79502000D01*
X122301000Y-80772000D02*
X121031000Y-79502000D01*
X231140000Y-80772000D02*
X229870000Y-79502000D01*
X190500000Y-80772000D02*
X184086500Y-80772000D01*
X74422000Y-85090000D02*
X65535850Y-85090000D01*
X148590000Y-75692000D02*
X162433000Y-75692000D01*
X107442000Y-75692000D02*
X121031000Y-75692000D01*
X86741002Y-76962000D02*
X82423000Y-76962000D01*
X62007900Y-97155000D02*
X77255913Y-97155000D01*
X168910000Y-75692000D02*
X182816500Y-75692000D01*
X191770000Y-75692000D02*
X208788000Y-75692000D01*
X208788000Y-75692000D02*
X210058000Y-76962000D01*
X210058000Y-76962000D02*
X212090000Y-76962000D01*
X88011002Y-75692000D02*
X86741002Y-76962000D01*
X126555500Y-76962000D02*
X127825500Y-75692000D01*
X101219000Y-76962000D02*
X99949000Y-75692000D01*
X127825500Y-75692000D02*
X141859000Y-75692000D01*
X242570000Y-76962000D02*
X231140000Y-76962000D01*
X215900000Y-75692000D02*
X214630000Y-76962000D01*
X143129000Y-76962000D02*
X147320000Y-76962000D01*
X229870000Y-75692000D02*
X215900000Y-75692000D01*
X122301000Y-76962000D02*
X126555500Y-76962000D01*
X214630000Y-76962000D02*
X212090000Y-76962000D01*
X99949000Y-75692000D02*
X88011002Y-75692000D01*
X162433000Y-75692000D02*
X163703000Y-76962000D01*
X182816500Y-75692000D02*
X184086500Y-76962000D01*
X163703000Y-76962000D02*
X167640000Y-76962000D01*
X141859000Y-75692000D02*
X143129000Y-76962000D01*
X105410000Y-76962000D02*
X101219000Y-76962000D01*
X147320000Y-76962000D02*
X148590000Y-75692000D01*
X107442000Y-75692000D02*
X106680000Y-75692000D01*
X184086500Y-76962000D02*
X190500000Y-76962000D01*
X77255913Y-97155000D02*
X82550000Y-91860913D01*
X231140000Y-76962000D02*
X229870000Y-75692000D01*
X106680000Y-75692000D02*
X105410000Y-76962000D01*
X167640000Y-76962000D02*
X168910000Y-75692000D01*
X190500000Y-76962000D02*
X191770000Y-75692000D01*
X121031000Y-75692000D02*
X122301000Y-76962000D01*
X182879998Y-68072000D02*
X168910000Y-68072000D01*
X88011002Y-68072000D02*
X86741002Y-69342000D01*
X141859000Y-68072000D02*
X127889000Y-68072000D01*
X126619000Y-69342000D02*
X122301000Y-69342000D01*
X106680000Y-68072000D02*
X105410000Y-69342000D01*
X42164000Y-92329000D02*
X45593000Y-88900000D01*
X212090000Y-69342000D02*
X210185000Y-69342000D01*
X191801750Y-68072000D02*
X190531750Y-69342000D01*
X64008000Y-98806000D02*
X43815000Y-98806000D01*
X163703000Y-69342000D02*
X162433000Y-68072000D01*
X143129000Y-69342000D02*
X141859000Y-68072000D01*
X127889000Y-68072000D02*
X126619000Y-69342000D01*
X101219000Y-69342000D02*
X99949000Y-68072000D01*
X45593000Y-88900000D02*
X57155000Y-88900000D01*
X242570000Y-69342000D02*
X231140000Y-69342000D01*
X65405000Y-98171000D02*
X78359000Y-98171000D01*
X231140000Y-69342000D02*
X229870000Y-68072000D01*
X229870000Y-68072000D02*
X215900000Y-68072000D01*
X148590000Y-68072000D02*
X147320000Y-69342000D01*
X82296000Y-94361000D02*
X82550000Y-94107000D01*
X210185000Y-69342000D02*
X208915000Y-68072000D01*
X64135000Y-98679000D02*
X64897000Y-98679000D01*
X168910000Y-68072000D02*
X167640000Y-69342000D01*
X190531750Y-69342000D02*
X184149998Y-69342000D01*
X215900000Y-68072000D02*
X214630000Y-69342000D01*
X43815000Y-98806000D02*
X42164000Y-97155000D01*
X208915000Y-68072000D02*
X191801750Y-68072000D01*
X82169000Y-94361000D02*
X82296000Y-94361000D01*
X214630000Y-69342000D02*
X212090000Y-69342000D01*
X86741002Y-69342000D02*
X82423000Y-69342000D01*
X64897000Y-98679000D02*
X65405000Y-98171000D01*
X99949000Y-68072000D02*
X88011002Y-68072000D01*
X122301000Y-69342000D02*
X121031000Y-68072000D01*
X64008000Y-98806000D02*
X64135000Y-98679000D01*
X42164000Y-97155000D02*
X42164000Y-92329000D01*
X167640000Y-69342000D02*
X163703000Y-69342000D01*
X121031000Y-68072000D02*
X106680000Y-68072000D01*
X162433000Y-68072000D02*
X148590000Y-68072000D01*
X105410000Y-69342000D02*
X101219000Y-69342000D01*
X147320000Y-69342000D02*
X143129000Y-69342000D01*
X78359000Y-98171000D02*
X82169000Y-94361000D01*
X184149998Y-69342000D02*
X182879998Y-68072000D01*
X214630000Y-82042000D02*
X212090000Y-82042000D01*
X184086500Y-82042000D02*
X182816500Y-80772000D01*
X184658000Y-82042000D02*
X184086500Y-82042000D01*
X141859000Y-80772000D02*
X127864980Y-80772000D01*
X88011002Y-80772000D02*
X86741002Y-82042000D01*
X106680000Y-80772000D02*
X105410000Y-82042000D01*
X101219002Y-82042000D02*
X99949002Y-80772000D01*
X105410000Y-82042000D02*
X101219002Y-82042000D01*
X229870000Y-80772000D02*
X215900000Y-80772000D01*
X231140000Y-82042000D02*
X229870000Y-80772000D01*
X147320000Y-82042000D02*
X143129000Y-82042000D01*
X148590000Y-80772000D02*
X147320000Y-82042000D01*
X162433000Y-80772000D02*
X148590000Y-80772000D01*
X99949002Y-80772000D02*
X88011002Y-80772000D01*
X143129000Y-82042000D02*
X141859000Y-80772000D01*
X121031000Y-80772000D02*
X106680000Y-80772000D01*
X127864980Y-80772000D02*
X126594980Y-82042000D01*
X242570000Y-82042000D02*
X236347000Y-82042000D01*
X126594980Y-82042000D02*
X122301000Y-82042000D01*
X208788000Y-80772000D02*
X193040000Y-80772000D01*
X167640000Y-82042000D02*
X163703000Y-82042000D01*
X236347000Y-82042000D02*
X231140000Y-82042000D01*
X122301000Y-82042000D02*
X121031000Y-80772000D01*
X168910000Y-80772000D02*
X167640000Y-82042000D01*
X215900000Y-80772000D02*
X214630000Y-82042000D01*
X163703000Y-82042000D02*
X162433000Y-80772000D01*
X210058000Y-82042000D02*
X208788000Y-80772000D01*
X86741002Y-82042000D02*
X82423000Y-82042000D01*
X212090000Y-82042000D02*
X210058000Y-82042000D01*
X182816500Y-80772000D02*
X168910000Y-80772000D01*
X116840000Y-127889000D02*
X117729000Y-127000000D01*
X116840000Y-134493000D02*
X116840000Y-127889000D01*
X120269000Y-128270000D02*
X124714000Y-128270000D01*
X117729000Y-127000000D02*
X118999000Y-127000000D01*
X114173000Y-137160000D02*
X116840000Y-134493000D01*
X118999000Y-127000000D02*
X120269000Y-128270000D01*
X124714000Y-128270000D02*
X125984000Y-127000000D01*
X57155000Y-58420000D02*
X59690000Y-58420000D01*
X59690000Y-58420000D02*
X62230000Y-60960000D01*
X57155000Y-55880000D02*
X59690000Y-55880000D01*
X59690000Y-55880000D02*
X62230000Y-53340000D01*
X188849000Y-107950000D02*
X190119000Y-109220000D01*
X122301000Y-84582000D02*
X121031000Y-83312000D01*
X74549000Y-88773000D02*
X74676000Y-88900000D01*
X167005000Y-109220000D02*
X169037000Y-109220000D01*
X184086500Y-84582000D02*
X182816500Y-83312000D01*
X52070000Y-130683000D02*
X53467000Y-130683000D01*
X127318175Y-207010000D02*
X128665390Y-208357215D01*
X120269000Y-207010000D02*
X123698000Y-207010000D01*
X147320000Y-84582000D02*
X143129000Y-84582000D01*
X211963000Y-207010000D02*
X207137000Y-207010000D01*
X121031000Y-83312000D02*
X106680000Y-83312000D01*
X208788000Y-83312000D02*
X191706500Y-83312000D01*
X202064025Y-208335800D02*
X169473800Y-208335800D01*
X143129000Y-84582000D02*
X141859000Y-83312000D01*
X212090000Y-84582000D02*
X210058000Y-84582000D01*
X101219002Y-84582000D02*
X99949002Y-83312000D01*
X217805000Y-204470000D02*
X214503000Y-204470000D01*
X106680000Y-83312000D02*
X105410000Y-84582000D01*
X214503000Y-204470000D02*
X211963000Y-207010000D01*
X105410000Y-84582000D02*
X101219002Y-84582000D01*
X191706500Y-83312000D02*
X190436500Y-84582000D01*
X207137000Y-207010000D02*
X203389825Y-207010000D01*
X170307000Y-107950000D02*
X188849000Y-107950000D01*
X210058000Y-84582000D02*
X208788000Y-83312000D01*
X169037000Y-109220000D02*
X170307000Y-107950000D01*
X163703000Y-84582000D02*
X162433000Y-83312000D01*
X190119000Y-109220000D02*
X192024000Y-109220000D01*
X126721978Y-84582000D02*
X122301000Y-84582000D01*
X148590000Y-83312000D02*
X147320000Y-84582000D01*
X160591500Y-207010000D02*
X164338000Y-207010000D01*
X118872000Y-208407000D02*
X120269000Y-207010000D01*
X168148000Y-207010000D02*
X164338000Y-207010000D01*
X128665390Y-208357215D02*
X159244285Y-208357215D01*
X168910000Y-83312000D02*
X167640000Y-84582000D01*
X88010998Y-83312000D02*
X86740998Y-84582000D01*
X159244285Y-208357215D02*
X160591500Y-207010000D01*
X203389825Y-207010000D02*
X202064025Y-208335800D01*
X53467000Y-130683000D02*
X55753000Y-132969000D01*
X190436500Y-84582000D02*
X184086500Y-84582000D01*
X162433000Y-83312000D02*
X148590000Y-83312000D01*
X82804000Y-208407000D02*
X118872000Y-208407000D01*
X167640000Y-84582000D02*
X163703000Y-84582000D01*
X55753000Y-132969000D02*
X55753000Y-149733000D01*
X86740998Y-84582000D02*
X82423000Y-84582000D01*
X123698000Y-207010000D02*
X127318175Y-207010000D01*
X78740000Y-84582000D02*
X82423000Y-84582000D01*
X182816500Y-83312000D02*
X168910000Y-83312000D01*
X74676000Y-88646000D02*
X78740000Y-84582000D01*
X74676000Y-88900000D02*
X74676000Y-88646000D01*
X169473800Y-208335800D02*
X168148000Y-207010000D01*
X82804000Y-196596000D02*
X82804000Y-208407000D01*
X127991978Y-83312000D02*
X126721978Y-84582000D01*
X154559000Y-109220000D02*
X167005000Y-109220000D01*
X141859000Y-83312000D02*
X127991978Y-83312000D01*
X99949002Y-83312000D02*
X88010998Y-83312000D01*
X54102000Y-107188000D02*
X53467000Y-107823000D01*
X54483000Y-103124000D02*
X54102000Y-103505000D01*
X53467000Y-107823000D02*
X52070000Y-107823000D01*
X78613000Y-103124000D02*
X54483000Y-103124000D01*
X54102000Y-103505000D02*
X54102000Y-107188000D01*
X140846000Y-93469000D02*
X142240000Y-92075000D01*
X90966356Y-93469000D02*
X140846000Y-93469000D01*
X52070000Y-115443000D02*
X53594000Y-115443000D01*
X56261000Y-105029000D02*
X79406356Y-105029000D01*
X55617000Y-113420000D02*
X55617000Y-105673000D01*
X55617000Y-105673000D02*
X56261000Y-105029000D01*
X79406356Y-105029000D02*
X90966356Y-93469000D01*
X53594000Y-115443000D02*
X55617000Y-113420000D01*
X55118000Y-104013000D02*
X78994000Y-104013000D01*
X78994000Y-104013000D02*
X90932000Y-92075000D01*
X54607000Y-109350000D02*
X54607000Y-104524000D01*
X90932000Y-92075000D02*
X100330000Y-92075000D01*
X53594000Y-110363000D02*
X54607000Y-109350000D01*
X54607000Y-104524000D02*
X55118000Y-104013000D01*
X52070000Y-110363000D02*
X53594000Y-110363000D01*
X50165000Y-124714000D02*
X45974000Y-120523000D01*
X220487000Y-95489000D02*
X91858356Y-95489000D01*
X231267000Y-66802000D02*
X229997000Y-65532000D01*
X91858356Y-95489000D02*
X80292356Y-107055000D01*
X54229000Y-124120822D02*
X53635822Y-124714000D01*
X53635822Y-124714000D02*
X50165000Y-124714000D01*
X58553000Y-107055000D02*
X57652000Y-107956000D01*
X242570000Y-66802000D02*
X231267000Y-66802000D01*
X57652000Y-107956000D02*
X57652000Y-117179178D01*
X223901000Y-92075000D02*
X220487000Y-95489000D01*
X229997000Y-65532000D02*
X223901000Y-65532000D01*
X54229000Y-120602178D02*
X54229000Y-124120822D01*
X45974000Y-120523000D02*
X44450000Y-120523000D01*
X80292356Y-107055000D02*
X58553000Y-107055000D01*
X57652000Y-117179178D02*
X54229000Y-120602178D01*
X79203178Y-104518000D02*
X55629000Y-104518000D01*
X55629000Y-104518000D02*
X55112000Y-105035000D01*
X90757178Y-92964000D02*
X79203178Y-104518000D01*
X53594000Y-112903000D02*
X52070000Y-112903000D01*
X55112000Y-105035000D02*
X55112000Y-111385000D01*
X120396000Y-92964000D02*
X90757178Y-92964000D01*
X121285000Y-92075000D02*
X120396000Y-92964000D01*
X55112000Y-111385000D02*
X53594000Y-112903000D01*
X162814000Y-92075000D02*
X160915000Y-93974000D01*
X56122000Y-115455000D02*
X53594000Y-117983000D01*
X53594000Y-117983000D02*
X52070000Y-117983000D01*
X91175534Y-93974000D02*
X79615534Y-105534000D01*
X160915000Y-93974000D02*
X91175534Y-93974000D01*
X56122000Y-106184000D02*
X56122000Y-115455000D01*
X56772000Y-105534000D02*
X56122000Y-106184000D01*
X79615534Y-105534000D02*
X56772000Y-105534000D01*
X57147000Y-107191000D02*
X57147000Y-116970000D01*
X53594000Y-120523000D02*
X52070000Y-120523000D01*
X207137000Y-92075000D02*
X204228000Y-94984000D01*
X80083178Y-106550000D02*
X57788000Y-106550000D01*
X57147000Y-116970000D02*
X53594000Y-120523000D01*
X91649178Y-94984000D02*
X80083178Y-106550000D01*
X204228000Y-94984000D02*
X91649178Y-94984000D01*
X57788000Y-106550000D02*
X57147000Y-107191000D01*
X50419000Y-123063000D02*
X52070000Y-123063000D01*
X56642000Y-106553000D02*
X56642000Y-116205000D01*
X49530000Y-122174000D02*
X50419000Y-123063000D01*
X183261000Y-92075000D02*
X180857000Y-94479000D01*
X180857000Y-94479000D02*
X91440000Y-94479000D01*
X56642000Y-116205000D02*
X53594000Y-119253000D01*
X79874000Y-106045000D02*
X57150000Y-106045000D01*
X49530000Y-119888000D02*
X49530000Y-122174000D01*
X57150000Y-106045000D02*
X56642000Y-106553000D01*
X91440000Y-94479000D02*
X79874000Y-106045000D01*
X50165000Y-119253000D02*
X49530000Y-119888000D01*
X53594000Y-119253000D02*
X50165000Y-119253000D01*
X72395000Y-58420000D02*
X67310000Y-58420000D01*
X190531751Y-71882000D02*
X184150000Y-71882000D01*
X106680000Y-70612000D02*
X105410000Y-71882000D01*
X48277000Y-99695000D02*
X78232000Y-99695000D01*
X122301000Y-71882000D02*
X121031000Y-70612000D01*
X208788000Y-70612000D02*
X191801751Y-70612000D01*
X215900000Y-70612000D02*
X214630000Y-71882000D01*
X229870000Y-70612000D02*
X215900000Y-70612000D01*
X182880000Y-70612000D02*
X168910002Y-70612000D01*
X242570000Y-71882000D02*
X231140000Y-71882000D01*
X99949002Y-70612000D02*
X88011002Y-70612000D01*
X167640002Y-71882000D02*
X163703000Y-71882000D01*
X212090000Y-71882000D02*
X210058000Y-71882000D01*
X88011002Y-70612000D02*
X86741002Y-71882000D01*
X191801751Y-70612000D02*
X190531751Y-71882000D01*
X121031000Y-70612000D02*
X106680000Y-70612000D01*
X162433000Y-70612000D02*
X148590000Y-70612000D01*
X141859000Y-70612000D02*
X127889000Y-70612000D01*
X143129000Y-71882000D02*
X141859000Y-70612000D01*
X184150000Y-71882000D02*
X182880000Y-70612000D01*
X78232000Y-99695000D02*
X79502000Y-98425000D01*
X231140000Y-71882000D02*
X229870000Y-70612000D01*
X210058000Y-71882000D02*
X208788000Y-70612000D01*
X168910002Y-70612000D02*
X167640002Y-71882000D01*
X148590000Y-70612000D02*
X147320000Y-71882000D01*
X163703000Y-71882000D02*
X162433000Y-70612000D01*
X86741002Y-71882000D02*
X82423000Y-71882000D01*
X105410000Y-71882000D02*
X101219002Y-71882000D01*
X126619000Y-71882000D02*
X122301000Y-71882000D01*
X214630000Y-71882000D02*
X212090000Y-71882000D01*
X127889000Y-70612000D02*
X126619000Y-71882000D01*
X101219002Y-71882000D02*
X99949002Y-70612000D01*
X147320000Y-71882000D02*
X143129000Y-71882000D01*
X108458000Y-168910000D02*
X91440000Y-168910000D01*
X101124087Y-156623087D02*
X117761087Y-156623087D01*
X101092000Y-156591000D02*
X101124087Y-156623087D01*
X117761087Y-156623087D02*
X119888000Y-158750000D01*
X101092000Y-156591000D02*
X101219000Y-156718000D01*
X119888000Y-158750000D02*
X123698000Y-158750000D01*
X108458000Y-171450000D02*
X91440000Y-171450000D01*
X108458000Y-173990000D02*
X91440000Y-173990000D01*
X108458000Y-163830000D02*
X91440000Y-163830000D01*
X108458000Y-166370000D02*
X91440000Y-166370000D01*
X91440000Y-161290000D02*
X108458000Y-161290000D01*
X118618000Y-160020000D02*
X119888000Y-161290000D01*
X101871000Y-160020000D02*
X118618000Y-160020000D01*
X119888000Y-161290000D02*
X123698000Y-161290000D01*
X108458000Y-176530000D02*
X91440000Y-176530000D01*
X108458000Y-179070000D02*
X100203000Y-179070000D01*
X108458000Y-191770000D02*
X97536000Y-191770000D01*
X108458000Y-199390000D02*
X97536000Y-199390000D01*
X108458000Y-201930000D02*
X97536000Y-201930000D01*
X108458000Y-184150000D02*
X97536000Y-184150000D01*
X108458000Y-194310000D02*
X97536000Y-194310000D01*
X108458000Y-186690000D02*
X97536000Y-186690000D01*
X108458000Y-189230000D02*
X97536000Y-189230000D01*
X108458000Y-181610000D02*
X97536000Y-181610000D01*
X108458000Y-204470000D02*
X97536000Y-204470000D01*
X108458000Y-196850000D02*
X97536000Y-196850000D01*
X149098000Y-176530000D02*
X131064000Y-176530000D01*
X149098000Y-171450000D02*
X131064000Y-171450000D01*
X149098000Y-168910000D02*
X131064000Y-168910000D01*
X160528000Y-158750000D02*
X164338000Y-158750000D01*
X158496000Y-156718000D02*
X160528000Y-158750000D01*
X141859000Y-156718000D02*
X158496000Y-156718000D01*
X141732000Y-156591000D02*
X141859000Y-156718000D01*
X149098000Y-179070000D02*
X140462000Y-179070000D01*
X131064000Y-161290000D02*
X149098000Y-161290000D01*
X149098000Y-166370000D02*
X131064000Y-166370000D01*
X160487000Y-161290000D02*
X164338000Y-161290000D01*
X159258000Y-160061000D02*
X160487000Y-161290000D01*
X142748000Y-160061000D02*
X159258000Y-160061000D01*
X149098000Y-163830000D02*
X131064000Y-163830000D01*
X149098000Y-173990000D02*
X131064000Y-173990000D01*
X149098000Y-181610000D02*
X137414000Y-181610000D01*
X149098000Y-189230000D02*
X137414000Y-189230000D01*
X149098000Y-194310000D02*
X137414000Y-194310000D01*
X149098000Y-196850000D02*
X137414000Y-196850000D01*
X149098000Y-204470000D02*
X137414000Y-204470000D01*
X149098000Y-201930000D02*
X137414000Y-201930000D01*
X149098000Y-191770000D02*
X137414000Y-191770000D01*
X149098000Y-186690000D02*
X137414000Y-186690000D01*
X149098000Y-199390000D02*
X137414000Y-199390000D01*
X149098000Y-184150000D02*
X137414000Y-184150000D01*
X183261000Y-160020000D02*
X202057000Y-160020000D01*
X203327000Y-161290000D02*
X207137000Y-161290000D01*
X202057000Y-160020000D02*
X203327000Y-161290000D01*
X191897000Y-171450000D02*
X171323000Y-171450000D01*
X191897000Y-163830000D02*
X171323000Y-163830000D01*
X201295000Y-156718000D02*
X203327000Y-158750000D01*
X183261000Y-156718000D02*
X201295000Y-156718000D01*
X203327000Y-158750000D02*
X207137000Y-158750000D01*
X191897000Y-173990000D02*
X171323000Y-173990000D01*
X191897000Y-179070000D02*
X180848000Y-179070000D01*
X191897000Y-168910000D02*
X171323000Y-168910000D01*
X191897000Y-161290000D02*
X171323000Y-161290000D01*
X191897000Y-166370000D02*
X171323000Y-166370000D01*
X171323000Y-176530000D02*
X191897000Y-176530000D01*
X191897000Y-204470000D02*
X177927000Y-204470000D01*
X191897000Y-181610000D02*
X177927000Y-181610000D01*
X191897000Y-189230000D02*
X177927000Y-189230000D01*
X191897000Y-186690000D02*
X177927000Y-186690000D01*
X191897000Y-199390000D02*
X177927000Y-199390000D01*
X191897000Y-196850000D02*
X177927000Y-196850000D01*
X191897000Y-194310000D02*
X177927000Y-194310000D01*
X191897000Y-201930000D02*
X177927000Y-201930000D01*
X191897000Y-184150000D02*
X177927000Y-184150000D01*
X191897000Y-191770000D02*
X177927000Y-191770000D01*
X207264000Y-129540000D02*
X204470000Y-129540000D01*
X162179000Y-149733000D02*
X159766000Y-147320000D01*
X204470000Y-149733000D02*
X162179000Y-149733000D01*
X207264000Y-132080000D02*
X204470000Y-132080000D01*
X132603000Y-147320000D02*
X159766000Y-147320000D01*
X158496000Y-144780000D02*
X162560000Y-148844000D01*
X182245000Y-129540000D02*
X179451000Y-129540000D01*
X182245000Y-132080000D02*
X179451000Y-132080000D01*
X132603000Y-144780000D02*
X134874000Y-144780000D01*
X134874000Y-144780000D02*
X158496000Y-144780000D01*
X162560000Y-148844000D02*
X179451000Y-148844000D01*
X154559000Y-134620000D02*
X142240000Y-134620000D01*
X137033000Y-127889000D02*
X136017000Y-126873000D01*
X137033000Y-132588000D02*
X137033000Y-127889000D01*
X137795000Y-133350000D02*
X137033000Y-132588000D01*
X142240000Y-134620000D02*
X140970000Y-133350000D01*
X136017000Y-126873000D02*
X134874000Y-126873000D01*
X140970000Y-133350000D02*
X137795000Y-133350000D01*
X137033000Y-127174822D02*
X137033000Y-125095000D01*
X137033000Y-125095000D02*
X136271000Y-124333000D01*
X154559000Y-127000000D02*
X142240000Y-127000000D01*
X136271000Y-124333000D02*
X134874000Y-124333000D01*
X140970000Y-128270000D02*
X138128178Y-128270000D01*
X138128178Y-128270000D02*
X137033000Y-127174822D01*
X142240000Y-127000000D02*
X140970000Y-128270000D01*
X199644000Y-138811000D02*
X195834000Y-142621000D01*
X215011000Y-125730000D02*
X215011000Y-132461000D01*
X216281000Y-124460000D02*
X215011000Y-125730000D01*
X208661000Y-138811000D02*
X199644000Y-138811000D01*
X215011000Y-132461000D02*
X208661000Y-138811000D01*
X217805000Y-124460000D02*
X216281000Y-124460000D01*
X198628000Y-135890000D02*
X192024000Y-142494000D01*
X216408000Y-121920000D02*
X214376000Y-123952000D01*
X217805000Y-121920000D02*
X216408000Y-121920000D01*
X214376000Y-131445000D02*
X209931000Y-135890000D01*
X214376000Y-123952000D02*
X214376000Y-131445000D01*
X209931000Y-135890000D02*
X198628000Y-135890000D01*
X207264000Y-127000000D02*
X210312000Y-127000000D01*
X217805000Y-119380000D02*
X217805000Y-119507000D01*
X210312000Y-127000000D02*
X217805000Y-119507000D01*
X217805000Y-147320000D02*
X173228000Y-147320000D01*
X170815000Y-144907000D02*
X170815000Y-142621000D01*
X173228000Y-147320000D02*
X170815000Y-144907000D01*
X177546000Y-146304000D02*
X211153178Y-146304000D01*
X211153178Y-146304000D02*
X215217178Y-142240000D01*
X215217178Y-142240000D02*
X217805000Y-142240000D01*
X175514000Y-142621000D02*
X175514000Y-144272000D01*
X182245000Y-127000000D02*
X175514000Y-127000000D01*
X175514000Y-144272000D02*
X177546000Y-146304000D01*
X172339000Y-142621000D02*
X171069000Y-141351000D01*
X213391356Y-144780000D02*
X211359356Y-146812000D01*
X217805000Y-144780000D02*
X213391356Y-144780000D01*
X172339000Y-144907000D02*
X172339000Y-142621000D01*
X168275000Y-141351000D02*
X167005000Y-142621000D01*
X171069000Y-141351000D02*
X168275000Y-141351000D01*
X211359356Y-146812000D02*
X174244000Y-146812000D01*
X174244000Y-146812000D02*
X172339000Y-144907000D01*
X127508000Y-196850000D02*
X128778000Y-198120000D01*
X163957000Y-110490000D02*
X165227000Y-111760000D01*
X170307000Y-110490000D02*
X188849000Y-110490000D01*
X169037000Y-111760000D02*
X170307000Y-110490000D01*
X88900000Y-198161000D02*
X118641175Y-198161000D01*
X88900000Y-151130000D02*
X88900000Y-151147000D01*
X165227000Y-111760000D02*
X167005000Y-111760000D01*
X202057000Y-198120000D02*
X203327000Y-196850000D01*
X142367000Y-110490000D02*
X163957000Y-110490000D01*
X159258000Y-198120000D02*
X160528000Y-196850000D01*
X207137000Y-196850000D02*
X217805000Y-196850000D01*
X141097000Y-111760000D02*
X142367000Y-110490000D01*
X190119000Y-111760000D02*
X192024000Y-111760000D01*
X118641175Y-198161000D02*
X119952175Y-196850000D01*
X203327000Y-196850000D02*
X207137000Y-196850000D01*
X164338000Y-196850000D02*
X168148000Y-196850000D01*
X168148000Y-196850000D02*
X169418000Y-198120000D01*
X188849000Y-110490000D02*
X190119000Y-111760000D01*
X119952175Y-196850000D02*
X123698000Y-196850000D01*
X167005000Y-111760000D02*
X169037000Y-111760000D01*
X169418000Y-198120000D02*
X202057000Y-198120000D01*
X139319000Y-111760000D02*
X141097000Y-111760000D01*
X160528000Y-196850000D02*
X164338000Y-196850000D01*
X39243000Y-151130000D02*
X88900000Y-151130000D01*
X123698000Y-196850000D02*
X127508000Y-196850000D01*
X128778000Y-198120000D02*
X159258000Y-198120000D01*
X208661000Y-125730000D02*
X213487000Y-120904000D01*
X209550000Y-129159000D02*
X208661000Y-128270000D01*
X205867000Y-125730000D02*
X208661000Y-125730000D01*
X205105000Y-126492000D02*
X205867000Y-125730000D01*
X208661000Y-134620000D02*
X209550000Y-133731000D01*
X205867000Y-128270000D02*
X205105000Y-127508000D01*
X215392000Y-111760000D02*
X217805000Y-111760000D01*
X205105000Y-127508000D02*
X205105000Y-126492000D01*
X207264000Y-134620000D02*
X208661000Y-134620000D01*
X213487000Y-113665000D02*
X215392000Y-111760000D01*
X208661000Y-128270000D02*
X205867000Y-128270000D01*
X209550000Y-133731000D02*
X209550000Y-129159000D01*
X213487000Y-120904000D02*
X213487000Y-113665000D01*
X207264000Y-124460000D02*
X208788000Y-124460000D01*
X208788000Y-124460000D02*
X212852000Y-120396000D01*
X214376000Y-109220000D02*
X217805000Y-109220000D01*
X212852000Y-120396000D02*
X212852000Y-110744000D01*
X212852000Y-110744000D02*
X214376000Y-109220000D01*
X216408000Y-134620000D02*
X217805000Y-134620000D01*
X178121825Y-145796000D02*
X210947000Y-145796000D01*
X176403000Y-144077175D02*
X178121825Y-145796000D01*
X215138000Y-135890000D02*
X216408000Y-134620000D01*
X215138000Y-141605000D02*
X215138000Y-135890000D01*
X176403000Y-137922000D02*
X176403000Y-144077175D01*
X210947000Y-145796000D02*
X215138000Y-141605000D01*
X179705000Y-134620000D02*
X176403000Y-137922000D01*
X182245000Y-134620000D02*
X179705000Y-134620000D01*
X182245000Y-124460000D02*
X177292000Y-124460000D01*
X177292000Y-143891000D02*
X178689000Y-145288000D01*
X210693000Y-145288000D02*
X214630000Y-141351000D01*
X177292000Y-142621000D02*
X177292000Y-143891000D01*
X214630000Y-141351000D02*
X214630000Y-133858000D01*
X216408000Y-132080000D02*
X217805000Y-132080000D01*
X214630000Y-133858000D02*
X216408000Y-132080000D01*
X178689000Y-145288000D02*
X210693000Y-145288000D01*
X103632000Y-110490000D02*
X101219000Y-110490000D01*
X101219000Y-110490000D02*
X100076000Y-111633000D01*
X100076000Y-111633000D02*
X100076000Y-115570000D01*
X85979000Y-123063000D02*
X84582000Y-124460000D01*
X88011000Y-123063000D02*
X85979000Y-123063000D01*
X84582000Y-124460000D02*
X84582000Y-128143000D01*
X242570000Y-84582000D02*
X239395000Y-84582000D01*
X62865000Y-93980000D02*
X72395000Y-93980000D01*
X59563000Y-97282000D02*
X62865000Y-93980000D01*
X56134000Y-97282000D02*
X59563000Y-97282000D01*
X45212000Y-97282000D02*
X56134000Y-97282000D01*
X64643000Y-191770000D02*
X65786000Y-191770000D01*
X66675000Y-190881000D02*
X66675000Y-188722000D01*
X66675000Y-188722000D02*
X65913000Y-187960000D01*
X59690000Y-187960000D02*
X58420000Y-186690000D01*
X65913000Y-187960000D02*
X59690000Y-187960000D01*
X65786000Y-191770000D02*
X66675000Y-190881000D01*
X54864000Y-198628000D02*
X54864000Y-189260000D01*
X64770000Y-189230000D02*
X60960000Y-189230000D01*
X58420000Y-199390000D02*
X55626000Y-199390000D01*
X55626000Y-199390000D02*
X54864000Y-198628000D01*
X60833000Y-195580000D02*
X57277000Y-195580000D01*
X57404000Y-189230000D02*
X58420000Y-189230000D01*
X56896000Y-195199000D02*
X56896000Y-189738000D01*
X62103000Y-196850000D02*
X60833000Y-195580000D01*
X56896000Y-189738000D02*
X57404000Y-189230000D01*
X57277000Y-195580000D02*
X56896000Y-195199000D01*
X64770000Y-196850000D02*
X62103000Y-196850000D01*
X49911000Y-207010000D02*
X49149000Y-206248000D01*
X62738000Y-198118307D02*
X68581693Y-198118307D01*
X58420000Y-207010000D02*
X49911000Y-207010000D01*
X68581693Y-198118307D02*
X69850000Y-196850000D01*
X49149000Y-206248000D02*
X49149000Y-189260000D01*
X69850000Y-196850000D02*
X80010000Y-196850000D01*
X52705000Y-201930000D02*
X52070000Y-201295000D01*
X59690000Y-201930000D02*
X58420000Y-201930000D01*
X80010000Y-199390000D02*
X69850000Y-199390000D01*
X52070000Y-201295000D02*
X52070000Y-189260000D01*
X60960000Y-200660000D02*
X59690000Y-201930000D01*
X58420000Y-201930000D02*
X52705000Y-201930000D01*
X68580000Y-200660000D02*
X60960000Y-200660000D01*
X69850000Y-199390000D02*
X68580000Y-200660000D01*
X64770000Y-194310000D02*
X61849000Y-194310000D01*
X60960000Y-186690000D02*
X59690000Y-185420000D01*
X59690000Y-185420000D02*
X57150000Y-185420000D01*
X56388000Y-196020081D02*
X57217919Y-196850000D01*
X56388000Y-186182000D02*
X56388000Y-196020081D01*
X57217919Y-196850000D02*
X58420000Y-196850000D01*
X64770000Y-186690000D02*
X60960000Y-186690000D01*
X57150000Y-185420000D02*
X56388000Y-186182000D01*
X45847000Y-107823000D02*
X44450000Y-107823000D01*
X47244000Y-109220000D02*
X45847000Y-107823000D01*
X59462500Y-95604500D02*
X63627000Y-91440000D01*
X63627000Y-91440000D02*
X72395000Y-91440000D01*
X47244000Y-115443000D02*
X47244000Y-109220000D01*
X46355000Y-95604500D02*
X59462500Y-95604500D01*
X47498000Y-92710000D02*
X50673000Y-92710000D01*
X58820900Y-92710000D02*
X62630900Y-88900000D01*
X62630900Y-88900000D02*
X72395000Y-88900000D01*
X50673000Y-92710000D02*
X58820900Y-92710000D01*
X98552000Y-107950000D02*
X97155000Y-106553000D01*
X189865000Y-96520000D02*
X189339000Y-95994000D01*
X103632000Y-105410000D02*
X103632000Y-107950000D01*
X189339000Y-95994000D02*
X97155000Y-95994000D01*
X92075000Y-95994000D02*
X97155000Y-95994000D01*
X76596000Y-108697000D02*
X77724000Y-107569000D01*
X103632000Y-107950000D02*
X98552000Y-107950000D01*
X76596000Y-128143000D02*
X76596000Y-108697000D01*
X80500000Y-107569000D02*
X92075000Y-95994000D01*
X77724000Y-107569000D02*
X80500000Y-107569000D01*
X97155000Y-106553000D02*
X97155000Y-95994000D01*
X111252000Y-110490000D02*
X112776000Y-110490000D01*
X112776000Y-110490000D02*
X115316000Y-107950000D01*
X111252000Y-102870000D02*
X112776000Y-102870000D01*
X112776000Y-102870000D02*
X115316000Y-100330000D01*
X111252000Y-113030000D02*
X112776000Y-113030000D01*
X112776000Y-113030000D02*
X115316000Y-110490000D01*
X112776000Y-105410000D02*
X115316000Y-102870000D01*
X111252000Y-105410000D02*
X112776000Y-105410000D01*
X115316000Y-115570000D02*
X113538000Y-117348000D01*
X109474000Y-117348000D02*
X105156000Y-113030000D01*
X105156000Y-113030000D02*
X103632000Y-113030000D01*
X113538000Y-117348000D02*
X109474000Y-117348000D01*
X105283000Y-109220000D02*
X100457000Y-109220000D01*
X89662000Y-117983000D02*
X88011000Y-117983000D01*
X98044000Y-111633000D02*
X92710000Y-111633000D01*
X88011000Y-117983000D02*
X88011000Y-120523000D01*
X107442000Y-107061000D02*
X105283000Y-109220000D01*
X91694000Y-112649000D02*
X91694000Y-115951000D01*
X111252000Y-100330000D02*
X112776000Y-100330000D01*
X111252000Y-100330000D02*
X109220000Y-100330000D01*
X92710000Y-111633000D02*
X91694000Y-112649000D01*
X107442000Y-102108000D02*
X107442000Y-107061000D01*
X112776000Y-100330000D02*
X115316000Y-97790000D01*
X100457000Y-109220000D02*
X98044000Y-111633000D01*
X91694000Y-115951000D02*
X89662000Y-117983000D01*
X109220000Y-100330000D02*
X107442000Y-102108000D01*
X112776000Y-107950000D02*
X115316000Y-105410000D01*
X111252000Y-107950000D02*
X112776000Y-107950000D01*
X111252000Y-115570000D02*
X112776000Y-115570000D01*
X112776000Y-115570000D02*
X115316000Y-113030000D01*
X89934000Y-132845000D02*
X90551000Y-132228000D01*
X76968000Y-135979644D02*
X80102644Y-132845000D01*
X90551000Y-132228000D02*
X90551000Y-132334000D01*
X54737000Y-150622000D02*
X74295000Y-150622000D01*
X80102644Y-132845000D02*
X89934000Y-132845000D01*
X76968000Y-136265000D02*
X76968000Y-135979644D01*
X74295000Y-150622000D02*
X76962000Y-147955000D01*
X76962000Y-147955000D02*
X76962000Y-136271000D01*
X76962000Y-136271000D02*
X76968000Y-136265000D01*
X53848000Y-149733000D02*
X54737000Y-150622000D01*
X91313000Y-133350000D02*
X80311822Y-133350000D01*
X77473000Y-147862356D02*
X79972644Y-150362000D01*
X77473000Y-136188822D02*
X77473000Y-147862356D01*
X92202000Y-132334000D02*
X92202000Y-132461000D01*
X80311822Y-133350000D02*
X77473000Y-136188822D01*
X203327000Y-201930000D02*
X202057000Y-203200000D01*
X92202000Y-132461000D02*
X91313000Y-133350000D01*
X102870000Y-150368000D02*
X79990644Y-150368000D01*
X103632000Y-209664697D02*
X103771303Y-209804000D01*
X103771303Y-209804000D02*
X168783000Y-209804000D01*
X207137000Y-201930000D02*
X203327000Y-201930000D01*
X103632000Y-151130000D02*
X102870000Y-150368000D01*
X202057000Y-203200000D02*
X168783000Y-203200000D01*
X117980000Y-98428000D02*
X117980000Y-116541178D01*
X178054000Y-97028000D02*
X119380000Y-97028000D01*
X98977822Y-118361000D02*
X97917000Y-117300178D01*
X96901000Y-115443000D02*
X95631000Y-115443000D01*
X178562000Y-97536000D02*
X178054000Y-97028000D01*
X116160178Y-118361000D02*
X98977822Y-118361000D01*
X182245000Y-116840000D02*
X178562000Y-116840000D01*
X97917000Y-117300178D02*
X97917000Y-116459000D01*
X117980000Y-116541178D02*
X116160178Y-118361000D01*
X97917000Y-116459000D02*
X96901000Y-115443000D01*
X119380000Y-97028000D02*
X117980000Y-98428000D01*
X88011000Y-125603000D02*
X86995000Y-125603000D01*
X83185000Y-129921000D02*
X82296000Y-129032000D01*
X82296000Y-129032000D02*
X82296000Y-108331000D01*
X86360000Y-128905000D02*
X85344000Y-129921000D01*
X86995000Y-125603000D02*
X86360000Y-126238000D01*
X86360000Y-126238000D02*
X86360000Y-128905000D01*
X87503000Y-103124000D02*
X92075000Y-103124000D01*
X82296000Y-108331000D02*
X87503000Y-103124000D01*
X85344000Y-129921000D02*
X83185000Y-129921000D01*
X80521000Y-133855000D02*
X96396000Y-133855000D01*
X159258000Y-203200000D02*
X160528000Y-201930000D01*
X96396000Y-133855000D02*
X97917000Y-132334000D01*
X77978000Y-147653178D02*
X77978000Y-136398000D01*
X77978000Y-136398000D02*
X80521000Y-133855000D01*
X109725000Y-149857000D02*
X80181822Y-149857000D01*
X110998000Y-151130000D02*
X109725000Y-149857000D01*
X160528000Y-201930000D02*
X164338000Y-201930000D01*
X80181822Y-149857000D02*
X77978000Y-147653178D01*
X110998000Y-203200000D02*
X159258000Y-203200000D01*
X97028000Y-112903000D02*
X95631000Y-112903000D01*
X187709000Y-96523000D02*
X119170822Y-96523000D01*
X119170822Y-96523000D02*
X117475000Y-98218822D01*
X117475000Y-98218822D02*
X117475000Y-116332000D01*
X207264000Y-116840000D02*
X204470000Y-116840000D01*
X99187000Y-117856000D02*
X98425000Y-117094000D01*
X98425000Y-114300000D02*
X97028000Y-112903000D01*
X117475000Y-116332000D02*
X115951000Y-117856000D01*
X204470000Y-97536000D02*
X188722000Y-97536000D01*
X98425000Y-117094000D02*
X98425000Y-114300000D01*
X115951000Y-117856000D02*
X99187000Y-117856000D01*
X188722000Y-97536000D02*
X187709000Y-96523000D01*
X118491000Y-107950000D02*
X119761000Y-106680000D01*
X97790000Y-117983000D02*
X98673000Y-118866000D01*
X119761000Y-106680000D02*
X139319000Y-106680000D01*
X116369356Y-118866000D02*
X118491000Y-116744356D01*
X95631000Y-117983000D02*
X97790000Y-117983000D01*
X98673000Y-118866000D02*
X116369356Y-118866000D01*
X118491000Y-116744356D02*
X118491000Y-107950000D01*
X97288000Y-134360000D02*
X99314000Y-132334000D01*
X126619000Y-149733000D02*
X124460000Y-149733000D01*
X78483000Y-147444000D02*
X78483000Y-136655000D01*
X78483000Y-136655000D02*
X80778000Y-134360000D01*
X124079000Y-149352000D02*
X80391000Y-149352000D01*
X80391000Y-149352000D02*
X78483000Y-147444000D01*
X124460000Y-149733000D02*
X124079000Y-149352000D01*
X80778000Y-134360000D02*
X97288000Y-134360000D01*
X55880000Y-120523000D02*
X64897000Y-120523000D01*
X72756000Y-112903000D02*
X71628000Y-112903000D01*
X75296000Y-110363000D02*
X72756000Y-112903000D01*
X72756000Y-115443000D02*
X71628000Y-115443000D01*
X75296000Y-112903000D02*
X72756000Y-115443000D01*
X75296000Y-115443000D02*
X72756000Y-117983000D01*
X72756000Y-117983000D02*
X71628000Y-117983000D01*
X75296000Y-117983000D02*
X72756000Y-120523000D01*
X72756000Y-120523000D02*
X71628000Y-120523000D01*
X72756000Y-123063000D02*
X71628000Y-123063000D01*
X75296000Y-120523000D02*
X72756000Y-123063000D01*
X72756000Y-125603000D02*
X71628000Y-125603000D01*
X75296000Y-123063000D02*
X72756000Y-125603000D01*
X75296000Y-125603000D02*
X72756000Y-128143000D01*
X72756000Y-128143000D02*
X71628000Y-128143000D01*
X73391000Y-130048000D02*
X70231000Y-130048000D01*
X65786000Y-125603000D02*
X64008000Y-125603000D01*
X75296000Y-128143000D02*
X73391000Y-130048000D01*
X70231000Y-130048000D02*
X65786000Y-125603000D01*
X125984000Y-119380000D02*
X124714000Y-120650000D01*
X118999000Y-119380000D02*
X116713000Y-119380000D01*
X116713000Y-119380000D02*
X106553000Y-129540000D01*
X120269000Y-120650000D02*
X118999000Y-119380000D01*
X124714000Y-120650000D02*
X120269000Y-120650000D01*
X118999000Y-129540000D02*
X120269000Y-130810000D01*
X124714000Y-130810000D02*
X125984000Y-129540000D01*
X120269000Y-130810000D02*
X124714000Y-130810000D01*
X120269000Y-133350000D02*
X124714000Y-133350000D01*
X118999000Y-132080000D02*
X120269000Y-133350000D01*
X124714000Y-133350000D02*
X125984000Y-132080000D01*
X120269000Y-123190000D02*
X124714000Y-123190000D01*
X114173000Y-132080000D02*
X115824000Y-130429000D01*
X118999000Y-121920000D02*
X120269000Y-123190000D01*
X124714000Y-123190000D02*
X125984000Y-121920000D01*
X115824000Y-130429000D02*
X115824000Y-123825000D01*
X115824000Y-123825000D02*
X117729000Y-121920000D01*
X117729000Y-121920000D02*
X118999000Y-121920000D01*
X118999000Y-124460000D02*
X120269000Y-125730000D01*
X114173000Y-134620000D02*
X116332000Y-132461000D01*
X116332000Y-132461000D02*
X116332000Y-125603000D01*
X120269000Y-125730000D02*
X124714000Y-125730000D01*
X116332000Y-125603000D02*
X117475000Y-124460000D01*
X117475000Y-124460000D02*
X118999000Y-124460000D01*
X124714000Y-125730000D02*
X125984000Y-124460000D01*
X139319000Y-139700000D02*
X135651000Y-139700000D01*
X154559000Y-132207000D02*
X158623000Y-132207000D01*
X154559000Y-124587000D02*
X158623000Y-124587000D01*
X139319000Y-134620000D02*
X135636000Y-134620000D01*
X154559000Y-137287000D02*
X158593000Y-137287000D01*
X154559000Y-129667000D02*
X158623000Y-129667000D01*
X124714000Y-148590000D02*
X125984000Y-147320000D01*
X120269000Y-148590000D02*
X124714000Y-148590000D01*
X114173000Y-147320000D02*
X118999000Y-147320000D01*
X118999000Y-147320000D02*
X120269000Y-148590000D01*
X120269000Y-140970000D02*
X124714000Y-140970000D01*
X118999000Y-139700000D02*
X120269000Y-140970000D01*
X124714000Y-140970000D02*
X125984000Y-139700000D01*
X108077000Y-139700000D02*
X109347000Y-140970000D01*
X124714000Y-138430000D02*
X125984000Y-137160000D01*
X109347000Y-140970000D02*
X115824000Y-140970000D01*
X117729000Y-137160000D02*
X118999000Y-137160000D01*
X106553000Y-139700000D02*
X108077000Y-139700000D01*
X115824000Y-140970000D02*
X117094000Y-139700000D01*
X118999000Y-137160000D02*
X120269000Y-138430000D01*
X117094000Y-139700000D02*
X117094000Y-137795000D01*
X120269000Y-138430000D02*
X124714000Y-138430000D01*
X117094000Y-137795000D02*
X117729000Y-137160000D01*
X109347000Y-146050000D02*
X115824000Y-146050000D01*
X106553000Y-144780000D02*
X108077000Y-144780000D01*
X123317000Y-146050000D02*
X124587000Y-144780000D01*
X124587000Y-144780000D02*
X125984000Y-144780000D01*
X118999000Y-144780000D02*
X120269000Y-146050000D01*
X115824000Y-146050000D02*
X117094000Y-144780000D01*
X120269000Y-146050000D02*
X123317000Y-146050000D01*
X117094000Y-144780000D02*
X118999000Y-144780000D01*
X108077000Y-144780000D02*
X109347000Y-146050000D01*
X118999000Y-134620000D02*
X120269000Y-135890000D01*
X116332000Y-138811000D02*
X116332000Y-136017000D01*
X114173000Y-139700000D02*
X115443000Y-139700000D01*
X117729000Y-134620000D02*
X118999000Y-134620000D01*
X120269000Y-135890000D02*
X124714000Y-135890000D01*
X116332000Y-136017000D02*
X117729000Y-134620000D01*
X124714000Y-135890000D02*
X125984000Y-134620000D01*
X115443000Y-139700000D02*
X116332000Y-138811000D01*
X118999000Y-142240000D02*
X120269000Y-143510000D01*
X115570000Y-143510000D02*
X116840000Y-142240000D01*
X109347000Y-143510000D02*
X115570000Y-143510000D01*
X106553000Y-142240000D02*
X108077000Y-142240000D01*
X124714000Y-143510000D02*
X125984000Y-142240000D01*
X120269000Y-143510000D02*
X124714000Y-143510000D01*
X108077000Y-142240000D02*
X109347000Y-143510000D01*
X116840000Y-142240000D02*
X118999000Y-142240000D01*
X131303000Y-147320000D02*
X128524000Y-147320000D01*
X130033000Y-146050000D02*
X131303000Y-144780000D01*
X124714000Y-146050000D02*
X123444000Y-147320000D01*
X124714000Y-146050000D02*
X130033000Y-146050000D01*
X123444000Y-147320000D02*
X121539000Y-147320000D01*
X235331000Y-120710000D02*
X235331000Y-122996000D01*
X230886000Y-120710000D02*
X230886000Y-122996000D01*
X238252000Y-120710000D02*
X237490000Y-121472000D01*
X237490000Y-124647000D02*
X238379000Y-125536000D01*
X238379000Y-125536000D02*
X239776000Y-125536000D01*
X237490000Y-121472000D02*
X237490000Y-124647000D01*
X239776000Y-120710000D02*
X238252000Y-120710000D01*
X235331000Y-143570000D02*
X235331000Y-145856000D01*
X230886000Y-143570000D02*
X230886000Y-145856000D01*
X235204000Y-176530000D02*
X235204000Y-178816000D01*
X230759000Y-176530000D02*
X230759000Y-178816000D01*
X238379000Y-148396000D02*
X239776000Y-148396000D01*
X237490000Y-147507000D02*
X238379000Y-148396000D01*
X237490000Y-144332000D02*
X237490000Y-147507000D01*
X238252000Y-143570000D02*
X237490000Y-144332000D01*
X239776000Y-143570000D02*
X238252000Y-143570000D01*
X239649000Y-176530000D02*
X238125000Y-176530000D01*
X237363000Y-180467000D02*
X238252000Y-181356000D01*
X238125000Y-176530000D02*
X237363000Y-177292000D01*
X237363000Y-177292000D02*
X237363000Y-180467000D01*
X238252000Y-181356000D02*
X239649000Y-181356000D01*
X226060000Y-167640000D02*
X233934000Y-167640000D01*
X233934000Y-167640000D02*
X235204000Y-166370000D01*
X229489000Y-165100000D02*
X230759000Y-166370000D01*
X226060000Y-165100000D02*
X229489000Y-165100000D01*
X234061000Y-111820000D02*
X235331000Y-110550000D01*
X226187000Y-111820000D02*
X234061000Y-111820000D01*
X229616000Y-109280000D02*
X230886000Y-110550000D01*
X226187000Y-109280000D02*
X229616000Y-109280000D01*
X234061000Y-134680000D02*
X235331000Y-133410000D01*
X226187000Y-134680000D02*
X234061000Y-134680000D01*
X226187000Y-132140000D02*
X229616000Y-132140000D01*
X229616000Y-132140000D02*
X230886000Y-133410000D01*
M02*
