%TF.GenerationSoftware,KiCad,Pcbnew,9.0.2*%
%TF.CreationDate,2025-07-01T19:53:08+02:00*%
%TF.ProjectId,CPU_X-3,4350555f-582d-4332-9e6b-696361645f70,3*%
%TF.SameCoordinates,Original*%
%TF.FileFunction,Drillmap*%
%TF.FilePolarity,Positive*%
%FSLAX45Y45*%
G04 Gerber Fmt 4.5, Leading zero omitted, Abs format (unit mm)*
G04 Created by KiCad (PCBNEW 9.0.2) date 2025-07-01 19:53:08*
%MOMM*%
%LPD*%
G01*
G04 APERTURE LIST*
%ADD10C,0.100000*%
%ADD11C,0.200000*%
G04 APERTURE END LIST*
D10*
X2540000Y-2540000D02*
X27538680Y-2540000D01*
X27538680Y-22638080D01*
X2540000Y-22638080D01*
X2540000Y-2540000D01*
D11*
X2795777Y-22954564D02*
X2795777Y-22754564D01*
X2795777Y-22754564D02*
X2843396Y-22754564D01*
X2843396Y-22754564D02*
X2871967Y-22764088D01*
X2871967Y-22764088D02*
X2891015Y-22783135D01*
X2891015Y-22783135D02*
X2900539Y-22802183D01*
X2900539Y-22802183D02*
X2910062Y-22840278D01*
X2910062Y-22840278D02*
X2910062Y-22868849D01*
X2910062Y-22868849D02*
X2900539Y-22906945D01*
X2900539Y-22906945D02*
X2891015Y-22925992D01*
X2891015Y-22925992D02*
X2871967Y-22945040D01*
X2871967Y-22945040D02*
X2843396Y-22954564D01*
X2843396Y-22954564D02*
X2795777Y-22954564D01*
X2995777Y-22954564D02*
X2995777Y-22821230D01*
X2995777Y-22859326D02*
X3005301Y-22840278D01*
X3005301Y-22840278D02*
X3014824Y-22830754D01*
X3014824Y-22830754D02*
X3033872Y-22821230D01*
X3033872Y-22821230D02*
X3052920Y-22821230D01*
X3119586Y-22954564D02*
X3119586Y-22821230D01*
X3119586Y-22754564D02*
X3110062Y-22764088D01*
X3110062Y-22764088D02*
X3119586Y-22773611D01*
X3119586Y-22773611D02*
X3129110Y-22764088D01*
X3129110Y-22764088D02*
X3119586Y-22754564D01*
X3119586Y-22754564D02*
X3119586Y-22773611D01*
X3243396Y-22954564D02*
X3224348Y-22945040D01*
X3224348Y-22945040D02*
X3214824Y-22925992D01*
X3214824Y-22925992D02*
X3214824Y-22754564D01*
X3348158Y-22954564D02*
X3329110Y-22945040D01*
X3329110Y-22945040D02*
X3319586Y-22925992D01*
X3319586Y-22925992D02*
X3319586Y-22754564D01*
X3576729Y-22954564D02*
X3576729Y-22754564D01*
X3576729Y-22754564D02*
X3643396Y-22897421D01*
X3643396Y-22897421D02*
X3710062Y-22754564D01*
X3710062Y-22754564D02*
X3710062Y-22954564D01*
X3891015Y-22954564D02*
X3891015Y-22849802D01*
X3891015Y-22849802D02*
X3881491Y-22830754D01*
X3881491Y-22830754D02*
X3862443Y-22821230D01*
X3862443Y-22821230D02*
X3824348Y-22821230D01*
X3824348Y-22821230D02*
X3805301Y-22830754D01*
X3891015Y-22945040D02*
X3871967Y-22954564D01*
X3871967Y-22954564D02*
X3824348Y-22954564D01*
X3824348Y-22954564D02*
X3805301Y-22945040D01*
X3805301Y-22945040D02*
X3795777Y-22925992D01*
X3795777Y-22925992D02*
X3795777Y-22906945D01*
X3795777Y-22906945D02*
X3805301Y-22887897D01*
X3805301Y-22887897D02*
X3824348Y-22878373D01*
X3824348Y-22878373D02*
X3871967Y-22878373D01*
X3871967Y-22878373D02*
X3891015Y-22868849D01*
X3986253Y-22821230D02*
X3986253Y-23021230D01*
X3986253Y-22830754D02*
X4005301Y-22821230D01*
X4005301Y-22821230D02*
X4043396Y-22821230D01*
X4043396Y-22821230D02*
X4062443Y-22830754D01*
X4062443Y-22830754D02*
X4071967Y-22840278D01*
X4071967Y-22840278D02*
X4081491Y-22859326D01*
X4081491Y-22859326D02*
X4081491Y-22916468D01*
X4081491Y-22916468D02*
X4071967Y-22935516D01*
X4071967Y-22935516D02*
X4062443Y-22945040D01*
X4062443Y-22945040D02*
X4043396Y-22954564D01*
X4043396Y-22954564D02*
X4005301Y-22954564D01*
X4005301Y-22954564D02*
X3986253Y-22945040D01*
X4167205Y-22935516D02*
X4176729Y-22945040D01*
X4176729Y-22945040D02*
X4167205Y-22954564D01*
X4167205Y-22954564D02*
X4157682Y-22945040D01*
X4157682Y-22945040D02*
X4167205Y-22935516D01*
X4167205Y-22935516D02*
X4167205Y-22954564D01*
X4167205Y-22830754D02*
X4176729Y-22840278D01*
X4176729Y-22840278D02*
X4167205Y-22849802D01*
X4167205Y-22849802D02*
X4157682Y-22840278D01*
X4157682Y-22840278D02*
X4167205Y-22830754D01*
X4167205Y-22830754D02*
X4167205Y-22849802D01*
M02*
