M48
; DRILL file {KiCad 9.0.2} date 2025-07-01T19:53:08+0200
; FORMAT={-:-/ absolute / metric / decimal}
; #@! TF.CreationDate,2025-07-01T19:53:08+02:00
; #@! TF.GenerationSoftware,Kicad,Pcbnew,9.0.2
; #@! TF.FileFunction,Plated,1,2,PTH
FMAT,2
METRIC
; #@! TA.AperFunction,Plated,PTH,ViaDrill
T1C0.400
; #@! TA.AperFunction,Plated,PTH,ComponentDrill
T2C0.800
; #@! TA.AperFunction,Plated,PTH,ComponentDrill
T3C0.900
; #@! TA.AperFunction,Plated,PTH,ComponentDrill
T4C1.000
; #@! TA.AperFunction,Plated,PTH,ComponentDrill
T5C1.200
; #@! TA.AperFunction,Plated,PTH,ComponentDrill
T6C1.300
%
G90
G05
T1
X30.734Y-100.203
X30.734Y-101.6
X30.734Y-102.87
X30.734Y-125.857
X31.75Y-101.6
X36.576Y-153.162
X38.1Y-152.019
X39.243Y-151.13
X45.212Y-97.282
X46.355Y-95.605
X47.244Y-115.443
X47.498Y-92.71
X48.277Y-99.695
X50.673Y-92.71
X50.8Y-50.8
X53.848Y-149.733
X55.753Y-149.733
X55.88Y-120.523
X56.134Y-97.282
X57.15Y-96.393
X59.436Y-93.98
X60.96Y-189.23
X61.849Y-194.31
X62.008Y-97.155
X62.738Y-198.118
X63.055Y-97.98
X64.008Y-98.806
X69.85Y-219.71
X71.628Y-101.6
X73.66Y-156.464
X74.549Y-88.773
X75.303Y-56.564
X76.327Y-55.88
X78.613Y-103.124
X79.502Y-98.425
X80.01Y-215.9
X81.661Y-175.26
X82.55Y-90.678
X82.55Y-91.861
X82.55Y-92.964
X82.55Y-94.107
X82.804Y-196.596
X85.09Y-172.72
X86.36Y-172.72
X88.9Y-151.147
X88.9Y-198.161
X90.551Y-132.334
X91.44Y-153.67
X91.44Y-215.9
X92.202Y-132.334
X95.631Y-90.551
X97.536Y-153.67
X97.536Y-215.9
X97.917Y-132.334
X99.314Y-132.334
X100.203Y-179.07
X100.33Y-92.075
X100.584Y-130.937
X101.092Y-156.591
X101.727Y-130.937
X101.871Y-160.02
X103.632Y-151.13
X103.632Y-209.665
X105.696Y-82.963
X106.617Y-78.295
X107.442Y-75.692
X108.522Y-153.67
X110.998Y-151.13
X110.998Y-203.2
X111.379Y-90.551
X112.078Y-195.58
X113.348Y-177.8
X114.618Y-193.04
X115.888Y-180.34
X117.158Y-190.5
X118.428Y-182.88
X118.428Y-219.71
X119.698Y-187.96
X121.285Y-92.075
X126.619Y-149.733
X131.064Y-153.67
X131.064Y-215.9
X132.334Y-134.62
X132.334Y-139.7
X132.334Y-153.67
X137.414Y-153.67
X137.414Y-215.9
X139.7Y-151.892
X139.7Y-165.1
X139.7Y-167.64
X140.462Y-179.07
X141.732Y-156.591
X142.24Y-92.075
X142.621Y-119.38
X142.748Y-160.061
X144.272Y-200.66
X146.685Y-205.74
X146.812Y-111.76
X146.812Y-114.3
X146.812Y-116.84
X146.812Y-170.18
X146.812Y-172.72
X149.098Y-153.67
X149.606Y-71.882
X150.622Y-64.262
X151.528Y-66.802
X151.892Y-175.26
X152.4Y-69.342
X154.559Y-90.551
X157.099Y-114.3
X157.099Y-119.507
X158.496Y-111.76
X158.496Y-114.3
X158.924Y-153.67
X159.258Y-219.71
X159.893Y-111.76
X159.893Y-116.84
X161.036Y-124.587
X161.036Y-129.667
X161.036Y-132.207
X161.036Y-137.287
X162.56Y-110.49
X162.814Y-92.075
X163.957Y-122.174
X163.957Y-151.003
X167.005Y-142.621
X167.005Y-153.67
X168.783Y-203.2
X168.783Y-209.804
X169.291Y-55.372
X169.291Y-57.912
X169.291Y-60.452
X169.291Y-62.992
X170.434Y-153.67
X170.815Y-142.621
X171.323Y-153.67
X171.323Y-215.9
X173.863Y-56.642
X173.863Y-59.182
X173.863Y-61.722
X175.514Y-127.0
X175.514Y-142.621
X177.292Y-124.46
X177.292Y-142.621
X177.8Y-153.67
X177.8Y-215.9
X178.562Y-97.536
X178.562Y-116.84
X179.451Y-129.54
X179.451Y-132.08
X179.451Y-148.844
X180.784Y-179.133
X183.261Y-92.075
X183.261Y-156.718
X183.261Y-160.02
X184.658Y-82.042
X185.801Y-90.551
X185.801Y-153.67
X189.865Y-96.52
X191.897Y-153.67
X192.024Y-142.494
X193.04Y-80.772
X195.834Y-142.621
X195.834Y-153.543
X196.85Y-176.53
X196.85Y-179.07
X196.85Y-181.61
X196.85Y-184.15
X196.85Y-186.69
X196.85Y-189.23
X196.85Y-191.77
X196.85Y-194.31
X202.057Y-219.71
X204.47Y-97.536
X204.47Y-116.84
X204.47Y-129.54
X204.47Y-132.08
X204.47Y-149.733
X207.137Y-92.075
X210.82Y-90.551
X210.82Y-153.67
X210.82Y-215.9
X211.582Y-215.9
X212.344Y-215.9
X217.043Y-219.71
X217.805Y-219.71
X218.694Y-219.71
X223.901Y-65.532
X223.901Y-92.075
X236.347Y-82.042
X239.395Y-84.582
X239.649Y-168.783
X239.776Y-112.963
X239.776Y-135.823
T2
X33.02Y-57.04
X33.02Y-64.66
X33.02Y-69.85
X33.02Y-74.93
X43.18Y-57.04
X43.18Y-64.66
X43.18Y-69.85
X43.18Y-74.93
X44.45Y-105.283
X44.45Y-107.823
X44.45Y-110.363
X44.45Y-112.903
X44.45Y-115.443
X44.45Y-117.983
X44.45Y-120.523
X44.45Y-123.063
X44.45Y-128.143
X44.45Y-130.683
X44.45Y-133.223
X44.45Y-135.763
X44.45Y-138.303
X44.45Y-140.843
X44.45Y-143.383
X52.07Y-105.283
X52.07Y-107.823
X52.07Y-110.363
X52.07Y-112.903
X52.07Y-115.443
X52.07Y-117.983
X52.07Y-120.523
X52.07Y-123.063
X52.07Y-128.143
X52.07Y-130.683
X52.07Y-133.223
X52.07Y-135.763
X52.07Y-138.303
X52.07Y-140.843
X52.07Y-143.383
X54.61Y-38.1
X54.61Y-40.6
X57.155Y-45.72
X57.155Y-48.26
X57.155Y-50.8
X57.155Y-53.34
X57.155Y-55.88
X57.155Y-58.42
X57.155Y-60.96
X57.155Y-63.5
X57.155Y-66.04
X57.155Y-68.58
X57.155Y-71.12
X57.155Y-73.66
X57.155Y-76.2
X57.155Y-78.74
X57.155Y-81.28
X57.155Y-83.82
X57.155Y-86.36
X57.155Y-88.9
X57.155Y-91.44
X57.155Y-93.98
X58.42Y-138.43
X58.42Y-146.05
X62.23Y-162.072
X62.23Y-164.572
X62.312Y-38.1
X64.008Y-110.363
X64.008Y-112.903
X64.008Y-115.443
X64.008Y-117.983
X64.008Y-120.523
X64.008Y-123.063
X64.008Y-125.603
X64.008Y-128.143
X64.643Y-168.91
X64.643Y-171.45
X64.643Y-173.99
X64.643Y-176.53
X64.643Y-179.07
X64.643Y-181.61
X64.643Y-184.15
X64.643Y-186.69
X64.643Y-189.23
X64.643Y-191.77
X64.643Y-194.31
X64.643Y-196.85
X64.643Y-199.39
X64.643Y-201.93
X67.312Y-38.1
X69.85Y-161.798
X71.628Y-110.363
X71.628Y-112.903
X71.628Y-115.443
X71.628Y-117.983
X71.628Y-120.523
X71.628Y-123.063
X71.628Y-125.603
X71.628Y-128.143
X72.395Y-45.72
X72.395Y-48.26
X72.395Y-50.8
X72.395Y-53.34
X72.395Y-55.88
X72.395Y-58.42
X72.395Y-60.96
X72.395Y-63.5
X72.395Y-66.04
X72.395Y-68.58
X72.395Y-71.12
X72.395Y-73.66
X72.395Y-76.2
X72.395Y-78.74
X72.395Y-81.28
X72.395Y-83.82
X72.395Y-86.36
X72.395Y-88.9
X72.395Y-91.44
X72.395Y-93.98
X73.66Y-138.43
X73.66Y-146.05
X74.85Y-161.798
X74.93Y-38.1
X74.93Y-40.6
X79.883Y-168.91
X79.883Y-171.45
X79.883Y-173.99
X79.883Y-176.53
X79.883Y-179.07
X79.883Y-181.61
X79.883Y-184.15
X79.883Y-186.69
X79.883Y-189.23
X79.883Y-191.77
X79.883Y-194.31
X79.883Y-196.85
X79.883Y-199.39
X79.883Y-201.93
X81.788Y-42.164
X82.296Y-138.303
X82.296Y-145.923
X82.423Y-54.102
X82.423Y-56.642
X82.423Y-59.182
X82.423Y-61.722
X82.423Y-64.262
X82.423Y-66.802
X82.423Y-69.342
X82.423Y-71.882
X82.423Y-74.422
X82.423Y-76.962
X82.423Y-79.502
X82.423Y-82.042
X82.423Y-84.582
X82.423Y-87.122
X82.55Y-162.072
X82.55Y-164.572
X84.582Y-117.983
X84.582Y-128.143
X88.011Y-110.363
X88.011Y-112.903
X88.011Y-115.443
X88.011Y-117.983
X88.011Y-120.523
X88.011Y-123.063
X88.011Y-125.603
X88.011Y-128.143
X91.948Y-42.164
X92.75Y-54.102
X92.75Y-87.102
X95.631Y-110.363
X95.631Y-112.903
X95.631Y-115.443
X95.631Y-117.983
X95.631Y-120.523
X95.631Y-123.063
X95.631Y-125.603
X95.631Y-128.143
X97.536Y-138.303
X97.536Y-145.923
X97.663Y-54.102
X97.663Y-56.642
X97.663Y-59.182
X97.663Y-61.722
X97.663Y-64.262
X97.663Y-66.802
X97.663Y-69.342
X97.663Y-71.882
X97.663Y-74.422
X97.663Y-76.962
X97.663Y-79.502
X97.663Y-82.042
X97.663Y-84.582
X97.663Y-87.122
X100.076Y-105.41
X100.076Y-115.57
X103.505Y-54.102
X103.505Y-56.642
X103.505Y-59.182
X103.505Y-61.722
X103.505Y-64.262
X103.505Y-66.802
X103.505Y-69.342
X103.505Y-71.882
X103.505Y-74.422
X103.505Y-76.962
X103.505Y-79.502
X103.505Y-82.042
X103.505Y-84.582
X103.505Y-87.122
X103.632Y-97.79
X103.632Y-100.33
X103.632Y-102.87
X103.632Y-105.41
X103.632Y-107.95
X103.632Y-110.49
X103.632Y-113.03
X103.632Y-115.57
X106.553Y-129.54
X106.553Y-132.08
X106.553Y-134.62
X106.553Y-137.16
X106.553Y-139.7
X106.553Y-142.24
X106.553Y-144.78
X106.553Y-147.32
X108.458Y-158.75
X108.458Y-161.29
X108.458Y-163.83
X108.458Y-166.37
X108.458Y-168.91
X108.458Y-171.45
X108.458Y-173.99
X108.458Y-176.53
X108.458Y-179.07
X108.458Y-181.61
X108.458Y-184.15
X108.458Y-186.69
X108.458Y-189.23
X108.458Y-191.77
X108.458Y-194.31
X108.458Y-196.85
X108.458Y-199.39
X108.458Y-201.93
X108.458Y-204.47
X108.458Y-207.01
X111.252Y-97.79
X111.252Y-100.33
X111.252Y-102.87
X111.252Y-105.41
X111.252Y-107.95
X111.252Y-110.49
X111.252Y-113.03
X111.252Y-115.57
X113.538Y-54.102
X113.538Y-87.102
X114.173Y-129.54
X114.173Y-132.08
X114.173Y-134.62
X114.173Y-137.16
X114.173Y-139.7
X114.173Y-142.24
X114.173Y-144.78
X114.173Y-147.32
X118.745Y-54.102
X118.745Y-56.642
X118.745Y-59.182
X118.745Y-61.722
X118.745Y-64.262
X118.745Y-66.802
X118.745Y-69.342
X118.745Y-71.882
X118.745Y-74.422
X118.745Y-76.962
X118.745Y-79.502
X118.745Y-82.042
X118.745Y-84.582
X118.745Y-87.122
X123.698Y-158.75
X123.698Y-161.29
X123.698Y-163.83
X123.698Y-166.37
X123.698Y-168.91
X123.698Y-171.45
X123.698Y-173.99
X123.698Y-176.53
X123.698Y-179.07
X123.698Y-181.61
X123.698Y-184.15
X123.698Y-186.69
X123.698Y-189.23
X123.698Y-191.77
X123.698Y-194.31
X123.698Y-196.85
X123.698Y-199.39
X123.698Y-201.93
X123.698Y-204.47
X123.698Y-207.01
X124.333Y-54.102
X124.333Y-56.642
X124.333Y-59.182
X124.333Y-61.722
X124.333Y-64.262
X124.333Y-66.802
X124.333Y-69.342
X124.333Y-71.882
X124.333Y-74.422
X124.333Y-76.962
X124.333Y-79.502
X124.333Y-82.042
X124.333Y-84.582
X124.333Y-87.122
X134.239Y-54.102
X134.239Y-87.102
X139.319Y-106.68
X139.319Y-109.22
X139.319Y-111.76
X139.319Y-114.3
X139.319Y-116.84
X139.319Y-119.38
X139.319Y-121.92
X139.319Y-124.46
X139.319Y-127.0
X139.319Y-129.54
X139.319Y-132.08
X139.319Y-134.62
X139.319Y-137.16
X139.319Y-139.7
X139.573Y-54.102
X139.573Y-56.642
X139.573Y-59.182
X139.573Y-61.722
X139.573Y-64.262
X139.573Y-66.802
X139.573Y-69.342
X139.573Y-71.882
X139.573Y-74.422
X139.573Y-76.962
X139.573Y-79.502
X139.573Y-82.042
X139.573Y-84.582
X139.573Y-87.122
X145.034Y-54.102
X145.034Y-56.642
X145.034Y-59.182
X145.034Y-61.722
X145.034Y-64.262
X145.034Y-66.802
X145.034Y-69.342
X145.034Y-71.882
X145.034Y-74.422
X145.034Y-76.962
X145.034Y-79.502
X145.034Y-82.042
X145.034Y-84.582
X145.034Y-87.122
X149.098Y-158.75
X149.098Y-161.29
X149.098Y-163.83
X149.098Y-166.37
X149.098Y-168.91
X149.098Y-171.45
X149.098Y-173.99
X149.098Y-176.53
X149.098Y-179.07
X149.098Y-181.61
X149.098Y-184.15
X149.098Y-186.69
X149.098Y-189.23
X149.098Y-191.77
X149.098Y-194.31
X149.098Y-196.85
X149.098Y-199.39
X149.098Y-201.93
X149.098Y-204.47
X149.098Y-207.01
X154.559Y-106.68
X154.559Y-109.22
X154.559Y-111.76
X154.559Y-114.3
X154.559Y-116.84
X154.559Y-119.38
X154.559Y-121.92
X154.559Y-124.46
X154.559Y-127.0
X154.559Y-129.54
X154.559Y-132.08
X154.559Y-134.62
X154.559Y-137.16
X154.559Y-139.7
X155.067Y-54.122
X155.067Y-87.122
X158.924Y-106.68
X158.924Y-139.68
X160.274Y-54.102
X160.274Y-56.642
X160.274Y-59.182
X160.274Y-61.722
X160.274Y-64.262
X160.274Y-66.802
X160.274Y-69.342
X160.274Y-71.882
X160.274Y-74.422
X160.274Y-76.962
X160.274Y-79.502
X160.274Y-82.042
X160.274Y-84.582
X160.274Y-87.122
X164.338Y-158.75
X164.338Y-161.29
X164.338Y-163.83
X164.338Y-166.37
X164.338Y-168.91
X164.338Y-171.45
X164.338Y-173.99
X164.338Y-176.53
X164.338Y-179.07
X164.338Y-181.61
X164.338Y-184.15
X164.338Y-186.69
X164.338Y-189.23
X164.338Y-191.77
X164.338Y-194.31
X164.338Y-196.85
X164.338Y-199.39
X164.338Y-201.93
X164.338Y-204.47
X164.338Y-207.01
X165.608Y-54.102
X165.608Y-56.642
X165.608Y-59.182
X165.608Y-61.722
X165.608Y-64.262
X165.608Y-66.802
X165.608Y-69.342
X165.608Y-71.882
X165.608Y-74.422
X165.608Y-76.962
X165.608Y-79.502
X165.608Y-82.042
X165.608Y-84.582
X165.608Y-87.122
X167.005Y-109.22
X167.005Y-111.76
X167.005Y-114.3
X167.005Y-116.84
X167.005Y-119.38
X167.005Y-121.92
X167.005Y-124.46
X167.005Y-127.0
X167.005Y-129.54
X167.005Y-132.08
X167.005Y-134.62
X167.005Y-137.16
X175.514Y-54.102
X175.514Y-87.102
X180.848Y-54.102
X180.848Y-56.642
X180.848Y-59.182
X180.848Y-61.722
X180.848Y-64.262
X180.848Y-66.802
X180.848Y-69.342
X180.848Y-71.882
X180.848Y-74.422
X180.848Y-76.962
X180.848Y-79.502
X180.848Y-82.042
X180.848Y-84.582
X180.848Y-87.122
X182.245Y-109.22
X182.245Y-111.76
X182.245Y-114.3
X182.245Y-116.84
X182.245Y-119.38
X182.245Y-121.92
X182.245Y-124.46
X182.245Y-127.0
X182.245Y-129.54
X182.245Y-132.08
X182.245Y-134.62
X182.245Y-137.16
X185.801Y-106.68
X185.801Y-139.68
X187.325Y-54.102
X187.325Y-56.642
X187.325Y-59.182
X187.325Y-61.722
X187.325Y-64.262
X187.325Y-66.802
X187.325Y-69.342
X187.325Y-71.882
X187.325Y-74.422
X187.325Y-76.962
X187.325Y-79.502
X187.325Y-82.042
X187.325Y-84.582
X187.325Y-87.122
X191.897Y-158.75
X191.897Y-161.29
X191.897Y-163.83
X191.897Y-166.37
X191.897Y-168.91
X191.897Y-171.45
X191.897Y-173.99
X191.897Y-176.53
X191.897Y-179.07
X191.897Y-181.61
X191.897Y-184.15
X191.897Y-186.69
X191.897Y-189.23
X191.897Y-191.77
X191.897Y-194.31
X191.897Y-196.85
X191.897Y-199.39
X191.897Y-201.93
X191.897Y-204.47
X191.897Y-207.01
X192.024Y-109.22
X192.024Y-111.76
X192.024Y-114.3
X192.024Y-116.84
X192.024Y-119.38
X192.024Y-121.92
X192.024Y-124.46
X192.024Y-127.0
X192.024Y-129.54
X192.024Y-132.08
X192.024Y-134.62
X192.024Y-137.16
X197.144Y-54.112
X197.144Y-87.112
X202.565Y-54.102
X202.565Y-56.642
X202.565Y-59.182
X202.565Y-61.722
X202.565Y-64.262
X202.565Y-66.802
X202.565Y-69.342
X202.565Y-71.882
X202.565Y-74.422
X202.565Y-76.962
X202.565Y-79.502
X202.565Y-82.042
X202.565Y-84.582
X202.565Y-87.122
X207.137Y-158.75
X207.137Y-161.29
X207.137Y-163.83
X207.137Y-166.37
X207.137Y-168.91
X207.137Y-171.45
X207.137Y-173.99
X207.137Y-176.53
X207.137Y-179.07
X207.137Y-181.61
X207.137Y-184.15
X207.137Y-186.69
X207.137Y-189.23
X207.137Y-191.77
X207.137Y-194.31
X207.137Y-196.85
X207.137Y-199.39
X207.137Y-201.93
X207.137Y-204.47
X207.137Y-207.01
X207.264Y-109.22
X207.264Y-111.76
X207.264Y-114.3
X207.264Y-116.84
X207.264Y-119.38
X207.264Y-121.92
X207.264Y-124.46
X207.264Y-127.0
X207.264Y-129.54
X207.264Y-132.08
X207.264Y-134.62
X207.264Y-137.16
X210.82Y-106.7
X210.82Y-139.7
X230.759Y-166.37
X230.759Y-176.53
X230.886Y-110.55
X230.886Y-120.71
X230.886Y-133.41
X230.886Y-143.57
X233.299Y-54.102
X233.299Y-87.102
X235.204Y-166.37
X235.204Y-176.53
X235.331Y-110.55
X235.331Y-120.71
X235.331Y-133.41
X235.331Y-143.57
X236.347Y-87.232
X236.347Y-97.392
X239.395Y-87.249
X239.395Y-97.409
X239.649Y-166.37
X239.649Y-176.53
X239.776Y-110.55
X239.776Y-120.71
X239.776Y-133.41
X239.776Y-143.57
X242.57Y-54.102
X242.57Y-56.642
X242.57Y-59.182
X242.57Y-61.722
X242.57Y-64.262
X242.57Y-66.802
X242.57Y-69.342
X242.57Y-71.882
X242.57Y-74.422
X242.57Y-76.962
X242.57Y-79.502
X242.57Y-82.042
X242.57Y-84.582
X242.57Y-87.122
X244.475Y-173.856
X244.475Y-181.356
X244.602Y-118.043
X244.602Y-125.543
X244.602Y-140.903
X244.602Y-148.403
X247.65Y-173.856
X247.65Y-181.356
X247.777Y-118.043
X247.777Y-125.543
X247.777Y-140.903
X247.777Y-148.403
X252.476Y-54.122
X252.476Y-87.122
X257.81Y-54.102
X257.81Y-56.642
X257.81Y-59.182
X257.81Y-61.722
X257.81Y-64.262
X257.81Y-66.802
X257.81Y-69.342
X257.81Y-71.882
X257.81Y-74.422
X257.81Y-76.962
X257.81Y-79.502
X257.81Y-82.042
X257.81Y-84.582
X257.81Y-87.122
T3
X230.759Y-178.816
X230.759Y-181.356
X230.886Y-122.996
X230.886Y-125.536
X230.886Y-145.856
X230.886Y-148.396
X235.204Y-178.816
X235.204Y-181.356
X235.331Y-122.996
X235.331Y-125.536
X235.331Y-145.856
X235.331Y-148.396
X239.649Y-178.816
X239.649Y-181.356
X239.776Y-122.996
X239.776Y-125.536
X239.776Y-145.856
X239.776Y-148.396
T4
X50.8Y-55.96
X50.8Y-60.96
X58.42Y-125.603
X58.42Y-130.603
X58.42Y-184.15
X58.42Y-186.69
X58.42Y-189.23
X58.42Y-191.77
X58.42Y-194.31
X58.42Y-196.85
X58.42Y-199.39
X58.42Y-201.93
X58.42Y-204.47
X58.42Y-207.01
X69.89Y-209.55
X74.89Y-209.55
X91.44Y-158.75
X91.44Y-161.29
X91.44Y-163.83
X91.44Y-166.37
X91.44Y-168.91
X91.44Y-171.45
X91.44Y-173.99
X91.44Y-176.53
X91.44Y-179.07
X91.44Y-181.61
X91.44Y-184.15
X91.44Y-186.69
X92.075Y-103.124
X97.536Y-179.07
X97.536Y-181.61
X97.536Y-184.15
X97.536Y-186.69
X97.536Y-189.23
X97.536Y-191.77
X97.536Y-194.31
X97.536Y-196.85
X97.536Y-199.39
X97.536Y-201.93
X97.536Y-204.47
X97.536Y-207.01
X101.426Y-122.428
X106.426Y-122.428
X113.428Y-212.09
X115.316Y-97.79
X115.316Y-100.33
X115.316Y-102.87
X115.316Y-105.41
X115.316Y-107.95
X115.316Y-110.49
X115.316Y-113.03
X115.316Y-115.57
X118.428Y-212.09
X118.999Y-119.38
X118.999Y-121.92
X118.999Y-124.46
X118.999Y-127.0
X118.999Y-129.54
X118.999Y-132.08
X118.999Y-134.62
X118.999Y-137.16
X118.999Y-139.7
X118.999Y-142.24
X118.999Y-144.78
X118.999Y-147.32
X121.539Y-119.38
X121.539Y-121.92
X121.539Y-124.46
X121.539Y-127.0
X121.539Y-129.54
X121.539Y-132.08
X121.539Y-134.62
X121.539Y-137.16
X121.539Y-139.7
X121.539Y-142.24
X121.539Y-144.78
X121.539Y-147.32
X125.984Y-119.38
X125.984Y-121.92
X125.984Y-124.46
X125.984Y-127.0
X125.984Y-129.54
X125.984Y-132.08
X125.984Y-134.62
X125.984Y-137.16
X125.984Y-139.7
X125.984Y-142.24
X125.984Y-144.78
X125.984Y-147.32
X128.524Y-119.38
X128.524Y-121.92
X128.524Y-124.46
X128.524Y-127.0
X128.524Y-129.54
X128.524Y-132.08
X128.524Y-134.62
X128.524Y-137.16
X128.524Y-139.7
X128.524Y-142.24
X128.524Y-144.78
X128.524Y-147.32
X131.064Y-158.75
X131.064Y-161.29
X131.064Y-163.83
X131.064Y-166.37
X131.064Y-168.91
X131.064Y-171.45
X131.064Y-173.99
X131.064Y-176.53
X131.064Y-179.07
X131.064Y-181.61
X131.064Y-184.15
X131.064Y-186.69
X132.334Y-124.333
X132.334Y-126.873
X132.334Y-129.413
X134.874Y-124.333
X134.874Y-126.873
X134.874Y-129.413
X134.874Y-144.78
X134.874Y-147.32
X137.414Y-179.07
X137.414Y-181.61
X137.414Y-184.15
X137.414Y-186.69
X137.414Y-189.23
X137.414Y-191.77
X137.414Y-194.31
X137.414Y-196.85
X137.414Y-199.39
X137.414Y-201.93
X137.414Y-204.47
X137.414Y-207.01
X154.258Y-212.09
X159.258Y-212.09
X171.323Y-158.75
X171.323Y-161.29
X171.323Y-163.83
X171.323Y-166.37
X171.323Y-168.91
X171.323Y-171.45
X171.323Y-173.99
X171.323Y-176.53
X171.323Y-179.07
X171.323Y-181.61
X171.323Y-184.15
X171.323Y-186.69
X177.8Y-179.07
X177.8Y-181.61
X177.8Y-184.15
X177.8Y-186.69
X177.8Y-189.23
X177.8Y-191.77
X177.8Y-194.31
X177.8Y-196.85
X177.8Y-199.39
X177.8Y-201.93
X177.8Y-204.47
X177.8Y-207.01
X197.057Y-212.09
X202.057Y-212.09
X212.09Y-54.102
X212.09Y-56.642
X212.09Y-59.182
X212.09Y-61.722
X212.09Y-64.262
X212.09Y-66.802
X212.09Y-69.342
X212.09Y-71.882
X212.09Y-74.422
X212.09Y-76.962
X212.09Y-79.502
X212.09Y-82.042
X212.09Y-84.582
X212.09Y-87.122
X217.805Y-106.68
X217.805Y-109.22
X217.805Y-111.76
X217.805Y-114.3
X217.805Y-116.84
X217.805Y-119.38
X217.805Y-121.92
X217.805Y-124.46
X217.805Y-129.54
X217.805Y-132.08
X217.805Y-134.62
X217.805Y-137.16
X217.805Y-139.7
X217.805Y-142.24
X217.805Y-144.78
X217.805Y-147.32
X217.805Y-166.37
X217.805Y-168.91
X217.805Y-171.45
X217.805Y-173.99
X217.805Y-176.53
X217.805Y-179.07
X217.805Y-181.61
X217.805Y-184.15
X217.805Y-186.69
X217.805Y-189.23
X217.805Y-191.77
X217.805Y-194.31
X217.805Y-196.85
X217.805Y-199.39
X217.805Y-201.93
X217.805Y-204.47
X217.805Y-207.01
X226.06Y-165.1
X226.06Y-167.64
X226.06Y-170.18
X226.06Y-172.72
X226.187Y-109.28
X226.187Y-111.82
X226.187Y-114.36
X226.187Y-116.9
X226.187Y-132.14
X226.187Y-134.68
X226.187Y-137.22
X226.187Y-139.76
X227.33Y-54.102
X227.33Y-56.642
X227.33Y-59.182
X227.33Y-61.722
X227.33Y-64.262
X227.33Y-66.802
X227.33Y-69.342
X227.33Y-71.882
X227.33Y-74.422
X227.33Y-76.962
X227.33Y-79.502
X227.33Y-82.042
X227.33Y-84.582
X227.33Y-87.122
X254.0Y-167.64
X254.0Y-170.18
X254.0Y-172.72
X254.0Y-175.26
X254.127Y-111.82
X254.127Y-114.36
X254.127Y-116.9
X254.127Y-119.44
X254.127Y-134.68
X254.127Y-137.22
X254.127Y-139.76
X254.127Y-142.3
T5
X30.734Y-219.71
X41.91Y-215.9
X43.18Y-32.8
X43.18Y-50.8
T6
X35.565Y-32.905
X35.565Y-39.405
X248.92Y-40.64
X248.92Y-45.72
M30
