G04 #@! TF.GenerationSoftware,KiCad,Pcbnew,9.0.2*
G04 #@! TF.CreationDate,2025-07-01T19:52:47+02:00*
G04 #@! TF.ProjectId,CPU_X-3,4350555f-582d-4332-9e6b-696361645f70,3*
G04 #@! TF.SameCoordinates,Original*
G04 #@! TF.FileFunction,Soldermask,Bot*
G04 #@! TF.FilePolarity,Negative*
%FSLAX46Y46*%
G04 Gerber Fmt 4.6, Leading zero omitted, Abs format (unit mm)*
G04 Created by KiCad (PCBNEW 9.0.2) date 2025-07-01 19:52:47*
%MOMM*%
%LPD*%
G01*
G04 APERTURE LIST*
G04 Aperture macros list*
%AMRoundRect*
0 Rectangle with rounded corners*
0 $1 Rounding radius*
0 $2 $3 $4 $5 $6 $7 $8 $9 X,Y pos of 4 corners*
0 Add a 4 corners polygon primitive as box body*
4,1,4,$2,$3,$4,$5,$6,$7,$8,$9,$2,$3,0*
0 Add four circle primitives for the rounded corners*
1,1,$1+$1,$2,$3*
1,1,$1+$1,$4,$5*
1,1,$1+$1,$6,$7*
1,1,$1+$1,$8,$9*
0 Add four rect primitives between the rounded corners*
20,1,$1+$1,$2,$3,$4,$5,0*
20,1,$1+$1,$4,$5,$6,$7,0*
20,1,$1+$1,$6,$7,$8,$9,0*
20,1,$1+$1,$8,$9,$2,$3,0*%
%AMFreePoly0*
4,1,23,0.500000,-0.750000,0.000000,-0.750000,0.000000,-0.745722,-0.065263,-0.745722,-0.191342,-0.711940,-0.304381,-0.646677,-0.396677,-0.554381,-0.461940,-0.441342,-0.495722,-0.315263,-0.495722,-0.250000,-0.500000,-0.250000,-0.500000,0.250000,-0.495722,0.250000,-0.495722,0.315263,-0.461940,0.441342,-0.396677,0.554381,-0.304381,0.646677,-0.191342,0.711940,-0.065263,0.745722,0.000000,0.745722,
0.000000,0.750000,0.500000,0.750000,0.500000,-0.750000,0.500000,-0.750000,$1*%
%AMFreePoly1*
4,1,23,0.000000,0.745722,0.065263,0.745722,0.191342,0.711940,0.304381,0.646677,0.396677,0.554381,0.461940,0.441342,0.495722,0.315263,0.495722,0.250000,0.500000,0.250000,0.500000,-0.250000,0.495722,-0.250000,0.495722,-0.315263,0.461940,-0.441342,0.396677,-0.554381,0.304381,-0.646677,0.191342,-0.711940,0.065263,-0.745722,0.000000,-0.745722,0.000000,-0.750000,-0.500000,-0.750000,
-0.500000,0.750000,0.000000,0.750000,0.000000,0.745722,0.000000,0.745722,$1*%
G04 Aperture macros list end*
%ADD10C,1.800000*%
%ADD11R,1.800000X1.800000*%
%ADD12C,1.600000*%
%ADD13R,1.700000X1.700000*%
%ADD14C,1.700000*%
%ADD15RoundRect,0.142858X-1.057142X-0.657142X1.057142X-0.657142X1.057142X0.657142X-1.057142X0.657142X0*%
%ADD16R,2.400000X1.600000*%
%ADD17C,2.000000*%
%ADD18RoundRect,0.250000X-0.950000X-0.550000X0.950000X-0.550000X0.950000X0.550000X-0.950000X0.550000X0*%
%ADD19O,2.400000X1.600000*%
%ADD20C,2.400000*%
%ADD21C,1.500000*%
%ADD22RoundRect,0.142858X1.057142X0.657142X-1.057142X0.657142X-1.057142X-0.657142X1.057142X-0.657142X0*%
%ADD23RoundRect,0.250000X0.950000X0.550000X-0.950000X0.550000X-0.950000X-0.550000X0.950000X-0.550000X0*%
%ADD24R,2.000000X1.440000*%
%ADD25O,2.000000X1.440000*%
%ADD26R,1.600000X1.600000*%
%ADD27RoundRect,0.250000X-1.000000X1.000000X-1.000000X-1.000000X1.000000X-1.000000X1.000000X1.000000X0*%
%ADD28C,2.500000*%
%ADD29RoundRect,0.250000X-0.550000X-0.550000X0.550000X-0.550000X0.550000X0.550000X-0.550000X0.550000X0*%
%ADD30RoundRect,0.250001X0.949999X-0.949999X0.949999X0.949999X-0.949999X0.949999X-0.949999X-0.949999X0*%
%ADD31R,2.250000X2.250000*%
%ADD32C,2.250000*%
%ADD33O,1.600000X1.600000*%
%ADD34FreePoly0,0.000000*%
%ADD35FreePoly1,0.000000*%
%ADD36C,1.000000*%
%ADD37R,1.500000X1.000000*%
%ADD38R,1.500000X1.500000*%
%ADD39R,1.000000X1.500000*%
G04 APERTURE END LIST*
G36*
X75796000Y-121273000D02*
G01*
X76096000Y-121273000D01*
X76096000Y-119773000D01*
X75796000Y-119773000D01*
X75796000Y-121273000D01*
G37*
G36*
X75796000Y-116193000D02*
G01*
X76096000Y-116193000D01*
X76096000Y-114693000D01*
X75796000Y-114693000D01*
X75796000Y-116193000D01*
G37*
G36*
X55614000Y-188760000D02*
G01*
X54114000Y-188760000D01*
X54114000Y-188460000D01*
X55614000Y-188460000D01*
X55614000Y-188760000D01*
G37*
G36*
X159123000Y-132957000D02*
G01*
X159423000Y-132957000D01*
X159423000Y-131457000D01*
X159123000Y-131457000D01*
X159123000Y-132957000D01*
G37*
G36*
X49899000Y-188760000D02*
G01*
X48399000Y-188760000D01*
X48399000Y-188460000D01*
X49899000Y-188460000D01*
X49899000Y-188760000D01*
G37*
G36*
X75796000Y-128893000D02*
G01*
X76096000Y-128893000D01*
X76096000Y-127393000D01*
X75796000Y-127393000D01*
X75796000Y-128893000D01*
G37*
G36*
X159123000Y-125337000D02*
G01*
X159423000Y-125337000D01*
X159423000Y-123837000D01*
X159123000Y-123837000D01*
X159123000Y-125337000D01*
G37*
G36*
X159093000Y-138037000D02*
G01*
X159393000Y-138037000D01*
X159393000Y-136537000D01*
X159093000Y-136537000D01*
X159093000Y-138037000D01*
G37*
G36*
X135136000Y-133870000D02*
G01*
X134836000Y-133870000D01*
X134836000Y-135370000D01*
X135136000Y-135370000D01*
X135136000Y-133870000D01*
G37*
G36*
X75796000Y-126353000D02*
G01*
X76096000Y-126353000D01*
X76096000Y-124853000D01*
X75796000Y-124853000D01*
X75796000Y-126353000D01*
G37*
G36*
X75796000Y-111113000D02*
G01*
X76096000Y-111113000D01*
X76096000Y-109613000D01*
X75796000Y-109613000D01*
X75796000Y-111113000D01*
G37*
G36*
X135151000Y-138950000D02*
G01*
X134851000Y-138950000D01*
X134851000Y-140450000D01*
X135151000Y-140450000D01*
X135151000Y-138950000D01*
G37*
G36*
X131803000Y-145530000D02*
G01*
X132103000Y-145530000D01*
X132103000Y-144030000D01*
X131803000Y-144030000D01*
X131803000Y-145530000D01*
G37*
G36*
X52820000Y-188760000D02*
G01*
X51320000Y-188760000D01*
X51320000Y-188460000D01*
X52820000Y-188460000D01*
X52820000Y-188760000D01*
G37*
G36*
X75796000Y-113653000D02*
G01*
X76096000Y-113653000D01*
X76096000Y-112153000D01*
X75796000Y-112153000D01*
X75796000Y-113653000D01*
G37*
G36*
X159123000Y-130417000D02*
G01*
X159423000Y-130417000D01*
X159423000Y-128917000D01*
X159123000Y-128917000D01*
X159123000Y-130417000D01*
G37*
G36*
X131803000Y-148070000D02*
G01*
X132103000Y-148070000D01*
X132103000Y-146570000D01*
X131803000Y-146570000D01*
X131803000Y-148070000D01*
G37*
G36*
X75796000Y-123813000D02*
G01*
X76096000Y-123813000D01*
X76096000Y-122313000D01*
X75796000Y-122313000D01*
X75796000Y-123813000D01*
G37*
G36*
X75796000Y-118733000D02*
G01*
X76096000Y-118733000D01*
X76096000Y-117233000D01*
X75796000Y-117233000D01*
X75796000Y-118733000D01*
G37*
D10*
X235331000Y-148396000D03*
D11*
X235331000Y-145856000D03*
D12*
X100076000Y-105410000D03*
X100076000Y-115570000D03*
D13*
X226187000Y-109280000D03*
D14*
X226187000Y-111820000D03*
X226187000Y-114360000D03*
X226187000Y-116900000D03*
D12*
X230759000Y-176530000D03*
X230759000Y-166370000D03*
D15*
X252476000Y-87122000D03*
D16*
X252476000Y-54122000D03*
D15*
X134239000Y-87102000D03*
D16*
X134239000Y-54102000D03*
D13*
X91440000Y-158750000D03*
D14*
X91440000Y-161290000D03*
X91440000Y-163830000D03*
X91440000Y-166370000D03*
X91440000Y-168910000D03*
X91440000Y-171450000D03*
X91440000Y-173990000D03*
X91440000Y-176530000D03*
X91440000Y-179070000D03*
X91440000Y-181610000D03*
X91440000Y-184150000D03*
X91440000Y-186690000D03*
D17*
X50800000Y-60960000D03*
X50800000Y-55960000D03*
D12*
X33020000Y-74930000D03*
X43180000Y-74930000D03*
D13*
X254000000Y-175260000D03*
D14*
X254000000Y-172720000D03*
X254000000Y-170180000D03*
X254000000Y-167640000D03*
D12*
X82550000Y-164572000D03*
X82550000Y-162072000D03*
D11*
X230886000Y-145856000D03*
D10*
X230886000Y-148396000D03*
D13*
X115316000Y-97790000D03*
D14*
X115316000Y-100330000D03*
X115316000Y-102870000D03*
X115316000Y-105410000D03*
X115316000Y-107950000D03*
X115316000Y-110490000D03*
X115316000Y-113030000D03*
X115316000Y-115570000D03*
D15*
X175514000Y-87102000D03*
D16*
X175514000Y-54102000D03*
D13*
X254127000Y-142300000D03*
D14*
X254127000Y-139760000D03*
X254127000Y-137220000D03*
X254127000Y-134680000D03*
D18*
X103632000Y-97790000D03*
D19*
X103632000Y-100330000D03*
X103632000Y-102870000D03*
X103632000Y-105410000D03*
X103632000Y-107950000D03*
X103632000Y-110490000D03*
X103632000Y-113030000D03*
X103632000Y-115570000D03*
X111252000Y-115570000D03*
X111252000Y-113030000D03*
X111252000Y-110490000D03*
X111252000Y-107950000D03*
X111252000Y-105410000D03*
X111252000Y-102870000D03*
X111252000Y-100330000D03*
X111252000Y-97790000D03*
D12*
X235204000Y-176530000D03*
X235204000Y-166370000D03*
D13*
X226060000Y-165100000D03*
D14*
X226060000Y-167640000D03*
X226060000Y-170180000D03*
X226060000Y-172720000D03*
D12*
X91948000Y-42164000D03*
X81788000Y-42164000D03*
X54610000Y-38100000D03*
X54610000Y-40600000D03*
D20*
X41910000Y-215900000D03*
D13*
X177800000Y-179070000D03*
D14*
X177800000Y-181610000D03*
X177800000Y-184150000D03*
X177800000Y-186690000D03*
X177800000Y-189230000D03*
X177800000Y-191770000D03*
X177800000Y-194310000D03*
X177800000Y-196850000D03*
X177800000Y-199390000D03*
X177800000Y-201930000D03*
X177800000Y-204470000D03*
X177800000Y-207010000D03*
D13*
X118999000Y-119380000D03*
D14*
X121539000Y-119380000D03*
X118999000Y-121920000D03*
X121539000Y-121920000D03*
X118999000Y-124460000D03*
X121539000Y-124460000D03*
X118999000Y-127000000D03*
X121539000Y-127000000D03*
X118999000Y-129540000D03*
X121539000Y-129540000D03*
X118999000Y-132080000D03*
X121539000Y-132080000D03*
X118999000Y-134620000D03*
X121539000Y-134620000D03*
X118999000Y-137160000D03*
X121539000Y-137160000D03*
X118999000Y-139700000D03*
X121539000Y-139700000D03*
X118999000Y-142240000D03*
X121539000Y-142240000D03*
X118999000Y-144780000D03*
X121539000Y-144780000D03*
X118999000Y-147320000D03*
X121539000Y-147320000D03*
D16*
X191897000Y-158750000D03*
D19*
X191897000Y-161290000D03*
X191897000Y-163830000D03*
X191897000Y-166370000D03*
X191897000Y-168910000D03*
X191897000Y-171450000D03*
X191897000Y-173990000D03*
X191897000Y-176530000D03*
X191897000Y-179070000D03*
X191897000Y-181610000D03*
X191897000Y-184150000D03*
X191897000Y-186690000D03*
X191897000Y-189230000D03*
X191897000Y-191770000D03*
X191897000Y-194310000D03*
X191897000Y-196850000D03*
X191897000Y-199390000D03*
X191897000Y-201930000D03*
X191897000Y-204470000D03*
X191897000Y-207010000D03*
X207137000Y-207010000D03*
X207137000Y-204470000D03*
X207137000Y-201930000D03*
X207137000Y-199390000D03*
X207137000Y-196850000D03*
X207137000Y-194310000D03*
X207137000Y-191770000D03*
X207137000Y-189230000D03*
X207137000Y-186690000D03*
X207137000Y-184150000D03*
X207137000Y-181610000D03*
X207137000Y-179070000D03*
X207137000Y-176530000D03*
X207137000Y-173990000D03*
X207137000Y-171450000D03*
X207137000Y-168910000D03*
X207137000Y-166370000D03*
X207137000Y-163830000D03*
X207137000Y-161290000D03*
X207137000Y-158750000D03*
D11*
X239776000Y-122996000D03*
D10*
X239776000Y-125536000D03*
D15*
X92750000Y-87102000D03*
D16*
X92750000Y-54102000D03*
D11*
X230759000Y-178816000D03*
D10*
X230759000Y-181356000D03*
D13*
X217805000Y-129540000D03*
D14*
X217805000Y-132080000D03*
X217805000Y-134620000D03*
X217805000Y-137160000D03*
X217805000Y-139700000D03*
X217805000Y-142240000D03*
X217805000Y-144780000D03*
X217805000Y-147320000D03*
D21*
X62312500Y-38100000D03*
X67312500Y-38100000D03*
D12*
X62230000Y-162072000D03*
X62230000Y-164572000D03*
D21*
X69850000Y-161798000D03*
X74850000Y-161798000D03*
D18*
X44450000Y-128143000D03*
D19*
X44450000Y-130683000D03*
X44450000Y-133223000D03*
X44450000Y-135763000D03*
X44450000Y-138303000D03*
X44450000Y-140843000D03*
X44450000Y-143383000D03*
X52070000Y-143383000D03*
X52070000Y-140843000D03*
X52070000Y-138303000D03*
X52070000Y-135763000D03*
X52070000Y-133223000D03*
X52070000Y-130683000D03*
X52070000Y-128143000D03*
D12*
X230886000Y-120710000D03*
X230886000Y-110550000D03*
D16*
X257810000Y-87122000D03*
D19*
X257810000Y-84582000D03*
X257810000Y-82042000D03*
X257810000Y-79502000D03*
X257810000Y-76962000D03*
X257810000Y-74422000D03*
X257810000Y-71882000D03*
X257810000Y-69342000D03*
X257810000Y-66802000D03*
X257810000Y-64262000D03*
X257810000Y-61722000D03*
X257810000Y-59182000D03*
X257810000Y-56642000D03*
X257810000Y-54102000D03*
X242570000Y-54102000D03*
X242570000Y-56642000D03*
X242570000Y-59182000D03*
X242570000Y-61722000D03*
X242570000Y-64262000D03*
X242570000Y-66802000D03*
X242570000Y-69342000D03*
X242570000Y-71882000D03*
X242570000Y-74422000D03*
X242570000Y-76962000D03*
X242570000Y-79502000D03*
X242570000Y-82042000D03*
X242570000Y-84582000D03*
X242570000Y-87122000D03*
D17*
X101426000Y-122428000D03*
X106426000Y-122428000D03*
X197057000Y-212090000D03*
X202057000Y-212090000D03*
D22*
X185801000Y-106680000D03*
D16*
X185801000Y-139680000D03*
D18*
X64008000Y-110363000D03*
D19*
X64008000Y-112903000D03*
X64008000Y-115443000D03*
X64008000Y-117983000D03*
X64008000Y-120523000D03*
X64008000Y-123063000D03*
X64008000Y-125603000D03*
X64008000Y-128143000D03*
X71628000Y-128143000D03*
X71628000Y-125603000D03*
X71628000Y-123063000D03*
X71628000Y-120523000D03*
X71628000Y-117983000D03*
X71628000Y-115443000D03*
X71628000Y-112903000D03*
X71628000Y-110363000D03*
D16*
X180848000Y-87122000D03*
D19*
X180848000Y-84582000D03*
X180848000Y-82042000D03*
X180848000Y-79502000D03*
X180848000Y-76962000D03*
X180848000Y-74422000D03*
X180848000Y-71882000D03*
X180848000Y-69342000D03*
X180848000Y-66802000D03*
X180848000Y-64262000D03*
X180848000Y-61722000D03*
X180848000Y-59182000D03*
X180848000Y-56642000D03*
X180848000Y-54102000D03*
X165608000Y-54102000D03*
X165608000Y-56642000D03*
X165608000Y-59182000D03*
X165608000Y-61722000D03*
X165608000Y-64262000D03*
X165608000Y-66802000D03*
X165608000Y-69342000D03*
X165608000Y-71882000D03*
X165608000Y-74422000D03*
X165608000Y-76962000D03*
X165608000Y-79502000D03*
X165608000Y-82042000D03*
X165608000Y-84582000D03*
X165608000Y-87122000D03*
D17*
X113428175Y-212090000D03*
X118428175Y-212090000D03*
X154258000Y-212090000D03*
X159258000Y-212090000D03*
D16*
X207264000Y-137160000D03*
D19*
X207264000Y-134620000D03*
X207264000Y-132080000D03*
X207264000Y-129540000D03*
X207264000Y-127000000D03*
X207264000Y-124460000D03*
X207264000Y-121920000D03*
X207264000Y-119380000D03*
X207264000Y-116840000D03*
X207264000Y-114300000D03*
X207264000Y-111760000D03*
X207264000Y-109220000D03*
X192024000Y-109220000D03*
X192024000Y-111760000D03*
X192024000Y-114300000D03*
X192024000Y-116840000D03*
X192024000Y-119380000D03*
X192024000Y-121920000D03*
X192024000Y-124460000D03*
X192024000Y-127000000D03*
X192024000Y-129540000D03*
X192024000Y-132080000D03*
X192024000Y-134620000D03*
X192024000Y-137160000D03*
D12*
X239776000Y-110550000D03*
X239776000Y-120710000D03*
D11*
X230886000Y-122996000D03*
D10*
X230886000Y-125536000D03*
D12*
X239395000Y-97409000D03*
X239395000Y-87249000D03*
D11*
X239776000Y-145856000D03*
D10*
X239776000Y-148396000D03*
D18*
X88011000Y-110363000D03*
D19*
X88011000Y-112903000D03*
X88011000Y-115443000D03*
X88011000Y-117983000D03*
X88011000Y-120523000D03*
X88011000Y-123063000D03*
X88011000Y-125603000D03*
X88011000Y-128143000D03*
X95631000Y-128143000D03*
X95631000Y-125603000D03*
X95631000Y-123063000D03*
X95631000Y-120523000D03*
X95631000Y-117983000D03*
X95631000Y-115443000D03*
X95631000Y-112903000D03*
X95631000Y-110363000D03*
D22*
X158924000Y-106680000D03*
D16*
X158924000Y-139680000D03*
D13*
X125984000Y-119380000D03*
D14*
X128524000Y-119380000D03*
X125984000Y-121920000D03*
X128524000Y-121920000D03*
X125984000Y-124460000D03*
X128524000Y-124460000D03*
X125984000Y-127000000D03*
X128524000Y-127000000D03*
X125984000Y-129540000D03*
X128524000Y-129540000D03*
X125984000Y-132080000D03*
X128524000Y-132080000D03*
X125984000Y-134620000D03*
X128524000Y-134620000D03*
X125984000Y-137160000D03*
X128524000Y-137160000D03*
X125984000Y-139700000D03*
X128524000Y-139700000D03*
X125984000Y-142240000D03*
X128524000Y-142240000D03*
X125984000Y-144780000D03*
X128524000Y-144780000D03*
X125984000Y-147320000D03*
X128524000Y-147320000D03*
D23*
X114173000Y-147320000D03*
D19*
X114173000Y-144780000D03*
X114173000Y-142240000D03*
X114173000Y-139700000D03*
X114173000Y-137160000D03*
X114173000Y-134620000D03*
X114173000Y-132080000D03*
X114173000Y-129540000D03*
X106553000Y-129540000D03*
X106553000Y-132080000D03*
X106553000Y-134620000D03*
X106553000Y-137160000D03*
X106553000Y-139700000D03*
X106553000Y-142240000D03*
X106553000Y-144780000D03*
X106553000Y-147320000D03*
D18*
X44450000Y-105283000D03*
D19*
X44450000Y-107823000D03*
X44450000Y-110363000D03*
X44450000Y-112903000D03*
X44450000Y-115443000D03*
X44450000Y-117983000D03*
X44450000Y-120523000D03*
X44450000Y-123063000D03*
X52070000Y-123063000D03*
X52070000Y-120523000D03*
X52070000Y-117983000D03*
X52070000Y-115443000D03*
X52070000Y-112903000D03*
X52070000Y-110363000D03*
X52070000Y-107823000D03*
X52070000Y-105283000D03*
D23*
X154559000Y-139700000D03*
D19*
X154559000Y-137160000D03*
X154559000Y-134620000D03*
X154559000Y-132080000D03*
X154559000Y-129540000D03*
X154559000Y-127000000D03*
X154559000Y-124460000D03*
X154559000Y-121920000D03*
X154559000Y-119380000D03*
X154559000Y-116840000D03*
X154559000Y-114300000D03*
X154559000Y-111760000D03*
X154559000Y-109220000D03*
X154559000Y-106680000D03*
X139319000Y-106680000D03*
X139319000Y-109220000D03*
X139319000Y-111760000D03*
X139319000Y-114300000D03*
X139319000Y-116840000D03*
X139319000Y-119380000D03*
X139319000Y-121920000D03*
X139319000Y-124460000D03*
X139319000Y-127000000D03*
X139319000Y-129540000D03*
X139319000Y-132080000D03*
X139319000Y-134620000D03*
X139319000Y-137160000D03*
X139319000Y-139700000D03*
D12*
X247777000Y-118043000D03*
X247777000Y-125543000D03*
X84582000Y-117983000D03*
X84582000Y-128143000D03*
D13*
X92075000Y-103124000D03*
D16*
X118745000Y-87122000D03*
D19*
X118745000Y-84582000D03*
X118745000Y-82042000D03*
X118745000Y-79502000D03*
X118745000Y-76962000D03*
X118745000Y-74422000D03*
X118745000Y-71882000D03*
X118745000Y-69342000D03*
X118745000Y-66802000D03*
X118745000Y-64262000D03*
X118745000Y-61722000D03*
X118745000Y-59182000D03*
X118745000Y-56642000D03*
X118745000Y-54102000D03*
X103505000Y-54102000D03*
X103505000Y-56642000D03*
X103505000Y-59182000D03*
X103505000Y-61722000D03*
X103505000Y-64262000D03*
X103505000Y-66802000D03*
X103505000Y-69342000D03*
X103505000Y-71882000D03*
X103505000Y-74422000D03*
X103505000Y-76962000D03*
X103505000Y-79502000D03*
X103505000Y-82042000D03*
X103505000Y-84582000D03*
X103505000Y-87122000D03*
D24*
X227330000Y-87122000D03*
D25*
X227330000Y-84582000D03*
X227330000Y-82042000D03*
X227330000Y-79502000D03*
X227330000Y-76962000D03*
X227330000Y-74422000D03*
X227330000Y-71882000D03*
X227330000Y-69342000D03*
X227330000Y-66802000D03*
X227330000Y-64262000D03*
X227330000Y-61722000D03*
X227330000Y-59182000D03*
X227330000Y-56642000D03*
X227330000Y-54102000D03*
X212090000Y-54102000D03*
X212090000Y-56642000D03*
X212090000Y-59182000D03*
X212090000Y-61722000D03*
X212090000Y-64262000D03*
X212090000Y-66802000D03*
X212090000Y-69342000D03*
X212090000Y-71882000D03*
X212090000Y-74422000D03*
X212090000Y-76962000D03*
X212090000Y-79502000D03*
X212090000Y-82042000D03*
X212090000Y-84582000D03*
X212090000Y-87122000D03*
D26*
X82296000Y-145923000D03*
D12*
X97536000Y-145923000D03*
X97536000Y-138303000D03*
X82296000Y-138303000D03*
D15*
X155067000Y-87122000D03*
D16*
X155067000Y-54122000D03*
X182245000Y-137160000D03*
D19*
X182245000Y-134620000D03*
X182245000Y-132080000D03*
X182245000Y-129540000D03*
X182245000Y-127000000D03*
X182245000Y-124460000D03*
X182245000Y-121920000D03*
X182245000Y-119380000D03*
X182245000Y-116840000D03*
X182245000Y-114300000D03*
X182245000Y-111760000D03*
X182245000Y-109220000D03*
X167005000Y-109220000D03*
X167005000Y-111760000D03*
X167005000Y-114300000D03*
X167005000Y-116840000D03*
X167005000Y-119380000D03*
X167005000Y-121920000D03*
X167005000Y-124460000D03*
X167005000Y-127000000D03*
X167005000Y-129540000D03*
X167005000Y-132080000D03*
X167005000Y-134620000D03*
X167005000Y-137160000D03*
D16*
X108458000Y-158750000D03*
D19*
X108458000Y-161290000D03*
X108458000Y-163830000D03*
X108458000Y-166370000D03*
X108458000Y-168910000D03*
X108458000Y-171450000D03*
X108458000Y-173990000D03*
X108458000Y-176530000D03*
X108458000Y-179070000D03*
X108458000Y-181610000D03*
X108458000Y-184150000D03*
X108458000Y-186690000D03*
X108458000Y-189230000D03*
X108458000Y-191770000D03*
X108458000Y-194310000D03*
X108458000Y-196850000D03*
X108458000Y-199390000D03*
X108458000Y-201930000D03*
X108458000Y-204470000D03*
X108458000Y-207010000D03*
X123698000Y-207010000D03*
X123698000Y-204470000D03*
X123698000Y-201930000D03*
X123698000Y-199390000D03*
X123698000Y-196850000D03*
X123698000Y-194310000D03*
X123698000Y-191770000D03*
X123698000Y-189230000D03*
X123698000Y-186690000D03*
X123698000Y-184150000D03*
X123698000Y-181610000D03*
X123698000Y-179070000D03*
X123698000Y-176530000D03*
X123698000Y-173990000D03*
X123698000Y-171450000D03*
X123698000Y-168910000D03*
X123698000Y-166370000D03*
X123698000Y-163830000D03*
X123698000Y-161290000D03*
X123698000Y-158750000D03*
D27*
X248920000Y-40640000D03*
D28*
X248920000Y-45720000D03*
D12*
X235331000Y-120710000D03*
X235331000Y-110550000D03*
X239776000Y-133410000D03*
X239776000Y-143570000D03*
D13*
X134874000Y-147320000D03*
D14*
X134874000Y-144780000D03*
D12*
X247777000Y-140903000D03*
X247777000Y-148403000D03*
X33020000Y-57040000D03*
X43180000Y-57040000D03*
D22*
X210820000Y-106700000D03*
D16*
X210820000Y-139700000D03*
D13*
X131064000Y-158750000D03*
D14*
X131064000Y-161290000D03*
X131064000Y-163830000D03*
X131064000Y-166370000D03*
X131064000Y-168910000D03*
X131064000Y-171450000D03*
X131064000Y-173990000D03*
X131064000Y-176530000D03*
X131064000Y-179070000D03*
X131064000Y-181610000D03*
X131064000Y-184150000D03*
X131064000Y-186690000D03*
D12*
X247650000Y-173856000D03*
X247650000Y-181356000D03*
X244602000Y-140903000D03*
X244602000Y-148403000D03*
D16*
X139573000Y-87122000D03*
D19*
X139573000Y-84582000D03*
X139573000Y-82042000D03*
X139573000Y-79502000D03*
X139573000Y-76962000D03*
X139573000Y-74422000D03*
X139573000Y-71882000D03*
X139573000Y-69342000D03*
X139573000Y-66802000D03*
X139573000Y-64262000D03*
X139573000Y-61722000D03*
X139573000Y-59182000D03*
X139573000Y-56642000D03*
X139573000Y-54102000D03*
X124333000Y-54102000D03*
X124333000Y-56642000D03*
X124333000Y-59182000D03*
X124333000Y-61722000D03*
X124333000Y-64262000D03*
X124333000Y-66802000D03*
X124333000Y-69342000D03*
X124333000Y-71882000D03*
X124333000Y-74422000D03*
X124333000Y-76962000D03*
X124333000Y-79502000D03*
X124333000Y-82042000D03*
X124333000Y-84582000D03*
X124333000Y-87122000D03*
D17*
X58420000Y-130603000D03*
X58420000Y-125603000D03*
D16*
X160274000Y-87122000D03*
D19*
X160274000Y-84582000D03*
X160274000Y-82042000D03*
X160274000Y-79502000D03*
X160274000Y-76962000D03*
X160274000Y-74422000D03*
X160274000Y-71882000D03*
X160274000Y-69342000D03*
X160274000Y-66802000D03*
X160274000Y-64262000D03*
X160274000Y-61722000D03*
X160274000Y-59182000D03*
X160274000Y-56642000D03*
X160274000Y-54102000D03*
X145034000Y-54102000D03*
X145034000Y-56642000D03*
X145034000Y-59182000D03*
X145034000Y-61722000D03*
X145034000Y-64262000D03*
X145034000Y-66802000D03*
X145034000Y-69342000D03*
X145034000Y-71882000D03*
X145034000Y-74422000D03*
X145034000Y-76962000D03*
X145034000Y-79502000D03*
X145034000Y-82042000D03*
X145034000Y-84582000D03*
X145034000Y-87122000D03*
D16*
X97663000Y-87122000D03*
D19*
X97663000Y-84582000D03*
X97663000Y-82042000D03*
X97663000Y-79502000D03*
X97663000Y-76962000D03*
X97663000Y-74422000D03*
X97663000Y-71882000D03*
X97663000Y-69342000D03*
X97663000Y-66802000D03*
X97663000Y-64262000D03*
X97663000Y-61722000D03*
X97663000Y-59182000D03*
X97663000Y-56642000D03*
X97663000Y-54102000D03*
X82423000Y-54102000D03*
X82423000Y-56642000D03*
X82423000Y-59182000D03*
X82423000Y-61722000D03*
X82423000Y-64262000D03*
X82423000Y-66802000D03*
X82423000Y-69342000D03*
X82423000Y-71882000D03*
X82423000Y-74422000D03*
X82423000Y-76962000D03*
X82423000Y-79502000D03*
X82423000Y-82042000D03*
X82423000Y-84582000D03*
X82423000Y-87122000D03*
D15*
X233299000Y-87102000D03*
D16*
X233299000Y-54102000D03*
D13*
X171323000Y-158750000D03*
D14*
X171323000Y-161290000D03*
X171323000Y-163830000D03*
X171323000Y-166370000D03*
X171323000Y-168910000D03*
X171323000Y-171450000D03*
X171323000Y-173990000D03*
X171323000Y-176530000D03*
X171323000Y-179070000D03*
X171323000Y-181610000D03*
X171323000Y-184150000D03*
X171323000Y-186690000D03*
D15*
X113538000Y-87102000D03*
D16*
X113538000Y-54102000D03*
D11*
X235331000Y-122996000D03*
D10*
X235331000Y-125536000D03*
D13*
X217805000Y-166370000D03*
D14*
X217805000Y-168910000D03*
X217805000Y-171450000D03*
X217805000Y-173990000D03*
X217805000Y-176530000D03*
X217805000Y-179070000D03*
X217805000Y-181610000D03*
X217805000Y-184150000D03*
X217805000Y-186690000D03*
X217805000Y-189230000D03*
X217805000Y-191770000D03*
X217805000Y-194310000D03*
X217805000Y-196850000D03*
X217805000Y-199390000D03*
X217805000Y-201930000D03*
X217805000Y-204470000D03*
X217805000Y-207010000D03*
D29*
X64643000Y-168910000D03*
D12*
X64643000Y-171450000D03*
X64643000Y-173990000D03*
X64643000Y-176530000D03*
X64643000Y-179070000D03*
X64643000Y-181610000D03*
X64643000Y-184150000D03*
X64643000Y-186690000D03*
X64643000Y-189230000D03*
X64643000Y-191770000D03*
X64643000Y-194310000D03*
X64643000Y-196850000D03*
X64643000Y-199390000D03*
X64643000Y-201930000D03*
X79883000Y-201930000D03*
X79883000Y-199390000D03*
X79883000Y-196850000D03*
X79883000Y-194310000D03*
X79883000Y-191770000D03*
X79883000Y-189230000D03*
X79883000Y-186690000D03*
X79883000Y-184150000D03*
X79883000Y-181610000D03*
X79883000Y-179070000D03*
X79883000Y-176530000D03*
X79883000Y-173990000D03*
X79883000Y-171450000D03*
X79883000Y-168910000D03*
D16*
X202565000Y-87122000D03*
D19*
X202565000Y-84582000D03*
X202565000Y-82042000D03*
X202565000Y-79502000D03*
X202565000Y-76962000D03*
X202565000Y-74422000D03*
X202565000Y-71882000D03*
X202565000Y-69342000D03*
X202565000Y-66802000D03*
X202565000Y-64262000D03*
X202565000Y-61722000D03*
X202565000Y-59182000D03*
X202565000Y-56642000D03*
X202565000Y-54102000D03*
X187325000Y-54102000D03*
X187325000Y-56642000D03*
X187325000Y-59182000D03*
X187325000Y-61722000D03*
X187325000Y-64262000D03*
X187325000Y-66802000D03*
X187325000Y-69342000D03*
X187325000Y-71882000D03*
X187325000Y-74422000D03*
X187325000Y-76962000D03*
X187325000Y-79502000D03*
X187325000Y-82042000D03*
X187325000Y-84582000D03*
X187325000Y-87122000D03*
D20*
X30734000Y-219710000D03*
D13*
X226187000Y-132140000D03*
D14*
X226187000Y-134680000D03*
X226187000Y-137220000D03*
X226187000Y-139760000D03*
D12*
X33020000Y-69850000D03*
X43180000Y-69850000D03*
D26*
X58420000Y-146050000D03*
D12*
X73660000Y-146050000D03*
X73660000Y-138430000D03*
X58420000Y-138430000D03*
D30*
X43180000Y-50800000D03*
D20*
X43180000Y-32800000D03*
D12*
X244602000Y-118043000D03*
X244602000Y-125543000D03*
D13*
X217805000Y-106680000D03*
D14*
X217805000Y-109220000D03*
X217805000Y-111760000D03*
X217805000Y-114300000D03*
X217805000Y-116840000D03*
X217805000Y-119380000D03*
X217805000Y-121920000D03*
X217805000Y-124460000D03*
D11*
X235204000Y-178816000D03*
D10*
X235204000Y-181356000D03*
D12*
X33020000Y-64660000D03*
X43180000Y-64660000D03*
D13*
X254127000Y-119440000D03*
D14*
X254127000Y-116900000D03*
X254127000Y-114360000D03*
X254127000Y-111820000D03*
D12*
X239649000Y-166370000D03*
X239649000Y-176530000D03*
D11*
X239649000Y-178816000D03*
D10*
X239649000Y-181356000D03*
D13*
X97536000Y-179070000D03*
D14*
X97536000Y-181610000D03*
X97536000Y-184150000D03*
X97536000Y-186690000D03*
X97536000Y-189230000D03*
X97536000Y-191770000D03*
X97536000Y-194310000D03*
X97536000Y-196850000D03*
X97536000Y-199390000D03*
X97536000Y-201930000D03*
X97536000Y-204470000D03*
X97536000Y-207010000D03*
D12*
X74930000Y-40600000D03*
X74930000Y-38100000D03*
D31*
X35565000Y-32905000D03*
D32*
X35565000Y-39405000D03*
D16*
X149098000Y-158750000D03*
D19*
X149098000Y-161290000D03*
X149098000Y-163830000D03*
X149098000Y-166370000D03*
X149098000Y-168910000D03*
X149098000Y-171450000D03*
X149098000Y-173990000D03*
X149098000Y-176530000D03*
X149098000Y-179070000D03*
X149098000Y-181610000D03*
X149098000Y-184150000D03*
X149098000Y-186690000D03*
X149098000Y-189230000D03*
X149098000Y-191770000D03*
X149098000Y-194310000D03*
X149098000Y-196850000D03*
X149098000Y-199390000D03*
X149098000Y-201930000D03*
X149098000Y-204470000D03*
X149098000Y-207010000D03*
X164338000Y-207010000D03*
X164338000Y-204470000D03*
X164338000Y-201930000D03*
X164338000Y-199390000D03*
X164338000Y-196850000D03*
X164338000Y-194310000D03*
X164338000Y-191770000D03*
X164338000Y-189230000D03*
X164338000Y-186690000D03*
X164338000Y-184150000D03*
X164338000Y-181610000D03*
X164338000Y-179070000D03*
X164338000Y-176530000D03*
X164338000Y-173990000D03*
X164338000Y-171450000D03*
X164338000Y-168910000D03*
X164338000Y-166370000D03*
X164338000Y-163830000D03*
X164338000Y-161290000D03*
X164338000Y-158750000D03*
D13*
X137414000Y-179070000D03*
D14*
X137414000Y-181610000D03*
X137414000Y-184150000D03*
X137414000Y-186690000D03*
X137414000Y-189230000D03*
X137414000Y-191770000D03*
X137414000Y-194310000D03*
X137414000Y-196850000D03*
X137414000Y-199390000D03*
X137414000Y-201930000D03*
X137414000Y-204470000D03*
X137414000Y-207010000D03*
D13*
X58420000Y-184150000D03*
D14*
X58420000Y-186690000D03*
X58420000Y-189230000D03*
X58420000Y-191770000D03*
X58420000Y-194310000D03*
X58420000Y-196850000D03*
X58420000Y-199390000D03*
X58420000Y-201930000D03*
X58420000Y-204470000D03*
X58420000Y-207010000D03*
D15*
X197144000Y-87112000D03*
D16*
X197144000Y-54112000D03*
D12*
X235331000Y-143570000D03*
X235331000Y-133410000D03*
X230886000Y-143570000D03*
X230886000Y-133410000D03*
D17*
X74890000Y-209550000D03*
X69890000Y-209550000D03*
D18*
X57155000Y-45720000D03*
D19*
X57155000Y-48260000D03*
X57155000Y-50800000D03*
X57155000Y-53340000D03*
X57155000Y-55880000D03*
X57155000Y-58420000D03*
X57155000Y-60960000D03*
X57155000Y-63500000D03*
X57155000Y-66040000D03*
X57155000Y-68580000D03*
X57155000Y-71120000D03*
X57155000Y-73660000D03*
X57155000Y-76200000D03*
X57155000Y-78740000D03*
X57155000Y-81280000D03*
X57155000Y-83820000D03*
X57155000Y-86360000D03*
X57155000Y-88900000D03*
X57155000Y-91440000D03*
X57155000Y-93980000D03*
X72395000Y-93980000D03*
X72395000Y-91440000D03*
X72395000Y-88900000D03*
X72395000Y-86360000D03*
X72395000Y-83820000D03*
X72395000Y-81280000D03*
X72395000Y-78740000D03*
X72395000Y-76200000D03*
X72395000Y-73660000D03*
X72395000Y-71120000D03*
X72395000Y-68580000D03*
X72395000Y-66040000D03*
X72395000Y-63500000D03*
X72395000Y-60960000D03*
X72395000Y-58420000D03*
X72395000Y-55880000D03*
X72395000Y-53340000D03*
X72395000Y-50800000D03*
X72395000Y-48260000D03*
X72395000Y-45720000D03*
D12*
X244475000Y-173856000D03*
X244475000Y-181356000D03*
D13*
X134874000Y-129413000D03*
D14*
X132334000Y-129413000D03*
X134874000Y-126873000D03*
X132334000Y-126873000D03*
X134874000Y-124333000D03*
X132334000Y-124333000D03*
D12*
X236347000Y-97392000D03*
D33*
X236347000Y-87232000D03*
D34*
X75296000Y-120523000D03*
D35*
X76596000Y-120523000D03*
D36*
X226949000Y-214630000D03*
X263017000Y-40640000D03*
D34*
X75296000Y-115443000D03*
D35*
X76596000Y-115443000D03*
D37*
X54864000Y-189260000D03*
X54864000Y-187960000D03*
D36*
X229616000Y-218313000D03*
D38*
X67310000Y-58420000D03*
D39*
X158623000Y-132207000D03*
X159923000Y-132207000D03*
D36*
X69469000Y-182118000D03*
D38*
X62230000Y-60960000D03*
D37*
X49149000Y-189260000D03*
X49149000Y-187960000D03*
D34*
X75296000Y-128143000D03*
D35*
X76596000Y-128143000D03*
D39*
X158623000Y-124587000D03*
X159923000Y-124587000D03*
X158593000Y-137287000D03*
X159893000Y-137287000D03*
X135636000Y-134620000D03*
X134336000Y-134620000D03*
D34*
X75296000Y-125603000D03*
D35*
X76596000Y-125603000D03*
D38*
X62230000Y-53340000D03*
D34*
X75296000Y-110363000D03*
D35*
X76596000Y-110363000D03*
D39*
X135651000Y-139700000D03*
X134351000Y-139700000D03*
D36*
X217805000Y-153670000D03*
D34*
X131303000Y-144780000D03*
D35*
X132603000Y-144780000D03*
D36*
X66929000Y-48768000D03*
D37*
X52070000Y-189260000D03*
X52070000Y-187960000D03*
D34*
X75296000Y-112903000D03*
D35*
X76596000Y-112903000D03*
D39*
X158623000Y-129667000D03*
X159923000Y-129667000D03*
D34*
X131303000Y-147320000D03*
D35*
X132603000Y-147320000D03*
D34*
X75296000Y-123063000D03*
D35*
X76596000Y-123063000D03*
D34*
X75296000Y-117983000D03*
D35*
X76596000Y-117983000D03*
M02*
