G04 #@! TF.GenerationSoftware,KiCad,Pcbnew,9.0.2*
G04 #@! TF.CreationDate,2025-07-01T19:52:47+02:00*
G04 #@! TF.ProjectId,CPU_X-3,4350555f-582d-4332-9e6b-696361645f70,3*
G04 #@! TF.SameCoordinates,Original*
G04 #@! TF.FileFunction,Legend,Bot*
G04 #@! TF.FilePolarity,Positive*
%FSLAX46Y46*%
G04 Gerber Fmt 4.6, Leading zero omitted, Abs format (unit mm)*
G04 Created by KiCad (PCBNEW 9.0.2) date 2025-07-01 19:52:47*
%MOMM*%
%LPD*%
G01*
G04 APERTURE LIST*
G04 Aperture macros list*
%AMRoundRect*
0 Rectangle with rounded corners*
0 $1 Rounding radius*
0 $2 $3 $4 $5 $6 $7 $8 $9 X,Y pos of 4 corners*
0 Add a 4 corners polygon primitive as box body*
4,1,4,$2,$3,$4,$5,$6,$7,$8,$9,$2,$3,0*
0 Add four circle primitives for the rounded corners*
1,1,$1+$1,$2,$3*
1,1,$1+$1,$4,$5*
1,1,$1+$1,$6,$7*
1,1,$1+$1,$8,$9*
0 Add four rect primitives between the rounded corners*
20,1,$1+$1,$2,$3,$4,$5,0*
20,1,$1+$1,$4,$5,$6,$7,0*
20,1,$1+$1,$6,$7,$8,$9,0*
20,1,$1+$1,$8,$9,$2,$3,0*%
%AMFreePoly0*
4,1,23,0.500000,-0.750000,0.000000,-0.750000,0.000000,-0.745722,-0.065263,-0.745722,-0.191342,-0.711940,-0.304381,-0.646677,-0.396677,-0.554381,-0.461940,-0.441342,-0.495722,-0.315263,-0.495722,-0.250000,-0.500000,-0.250000,-0.500000,0.250000,-0.495722,0.250000,-0.495722,0.315263,-0.461940,0.441342,-0.396677,0.554381,-0.304381,0.646677,-0.191342,0.711940,-0.065263,0.745722,0.000000,0.745722,
0.000000,0.750000,0.500000,0.750000,0.500000,-0.750000,0.500000,-0.750000,$1*%
%AMFreePoly1*
4,1,23,0.000000,0.745722,0.065263,0.745722,0.191342,0.711940,0.304381,0.646677,0.396677,0.554381,0.461940,0.441342,0.495722,0.315263,0.495722,0.250000,0.500000,0.250000,0.500000,-0.250000,0.495722,-0.250000,0.495722,-0.315263,0.461940,-0.441342,0.396677,-0.554381,0.304381,-0.646677,0.191342,-0.711940,0.065263,-0.745722,0.000000,-0.745722,0.000000,-0.750000,-0.500000,-0.750000,
-0.500000,0.750000,0.000000,0.750000,0.000000,0.745722,0.000000,0.745722,$1*%
G04 Aperture macros list end*
%ADD10C,0.200000*%
%ADD11C,0.150000*%
%ADD12C,0.120000*%
%ADD13C,1.800000*%
%ADD14R,1.800000X1.800000*%
%ADD15C,1.600000*%
%ADD16R,1.700000X1.700000*%
%ADD17C,1.700000*%
%ADD18RoundRect,0.142858X-1.057142X-0.657142X1.057142X-0.657142X1.057142X0.657142X-1.057142X0.657142X0*%
%ADD19R,2.400000X1.600000*%
%ADD20C,2.000000*%
%ADD21RoundRect,0.250000X-0.950000X-0.550000X0.950000X-0.550000X0.950000X0.550000X-0.950000X0.550000X0*%
%ADD22O,2.400000X1.600000*%
%ADD23C,2.400000*%
%ADD24C,1.500000*%
%ADD25RoundRect,0.142858X1.057142X0.657142X-1.057142X0.657142X-1.057142X-0.657142X1.057142X-0.657142X0*%
%ADD26RoundRect,0.250000X0.950000X0.550000X-0.950000X0.550000X-0.950000X-0.550000X0.950000X-0.550000X0*%
%ADD27R,2.000000X1.440000*%
%ADD28O,2.000000X1.440000*%
%ADD29R,1.600000X1.600000*%
%ADD30RoundRect,0.250000X-1.000000X1.000000X-1.000000X-1.000000X1.000000X-1.000000X1.000000X1.000000X0*%
%ADD31C,2.500000*%
%ADD32RoundRect,0.250000X-0.550000X-0.550000X0.550000X-0.550000X0.550000X0.550000X-0.550000X0.550000X0*%
%ADD33RoundRect,0.250001X0.949999X-0.949999X0.949999X0.949999X-0.949999X0.949999X-0.949999X-0.949999X0*%
%ADD34R,2.250000X2.250000*%
%ADD35C,2.250000*%
%ADD36O,1.600000X1.600000*%
%ADD37FreePoly0,0.000000*%
%ADD38FreePoly1,0.000000*%
%ADD39C,1.000000*%
%ADD40R,1.500000X1.000000*%
%ADD41R,1.500000X1.500000*%
%ADD42R,1.000000X1.500000*%
G04 APERTURE END LIST*
D10*
X83375142Y-120927600D02*
X83232285Y-120975219D01*
X83232285Y-120975219D02*
X82994190Y-120975219D01*
X82994190Y-120975219D02*
X82898952Y-120927600D01*
X82898952Y-120927600D02*
X82851333Y-120879980D01*
X82851333Y-120879980D02*
X82803714Y-120784742D01*
X82803714Y-120784742D02*
X82803714Y-120689504D01*
X82803714Y-120689504D02*
X82851333Y-120594266D01*
X82851333Y-120594266D02*
X82898952Y-120546647D01*
X82898952Y-120546647D02*
X82994190Y-120499028D01*
X82994190Y-120499028D02*
X83184666Y-120451409D01*
X83184666Y-120451409D02*
X83279904Y-120403790D01*
X83279904Y-120403790D02*
X83327523Y-120356171D01*
X83327523Y-120356171D02*
X83375142Y-120260933D01*
X83375142Y-120260933D02*
X83375142Y-120165695D01*
X83375142Y-120165695D02*
X83327523Y-120070457D01*
X83327523Y-120070457D02*
X83279904Y-120022838D01*
X83279904Y-120022838D02*
X83184666Y-119975219D01*
X83184666Y-119975219D02*
X82946571Y-119975219D01*
X82946571Y-119975219D02*
X82803714Y-120022838D01*
X83089428Y-119832361D02*
X83089428Y-121118076D01*
X82375142Y-120975219D02*
X82375142Y-119975219D01*
X82375142Y-119975219D02*
X82137047Y-119975219D01*
X82137047Y-119975219D02*
X81994190Y-120022838D01*
X81994190Y-120022838D02*
X81898952Y-120118076D01*
X81898952Y-120118076D02*
X81851333Y-120213314D01*
X81851333Y-120213314D02*
X81803714Y-120403790D01*
X81803714Y-120403790D02*
X81803714Y-120546647D01*
X81803714Y-120546647D02*
X81851333Y-120737123D01*
X81851333Y-120737123D02*
X81898952Y-120832361D01*
X81898952Y-120832361D02*
X81994190Y-120927600D01*
X81994190Y-120927600D02*
X82137047Y-120975219D01*
X82137047Y-120975219D02*
X82375142Y-120975219D01*
X81184666Y-119975219D02*
X81089428Y-119975219D01*
X81089428Y-119975219D02*
X80994190Y-120022838D01*
X80994190Y-120022838D02*
X80946571Y-120070457D01*
X80946571Y-120070457D02*
X80898952Y-120165695D01*
X80898952Y-120165695D02*
X80851333Y-120356171D01*
X80851333Y-120356171D02*
X80851333Y-120594266D01*
X80851333Y-120594266D02*
X80898952Y-120784742D01*
X80898952Y-120784742D02*
X80946571Y-120879980D01*
X80946571Y-120879980D02*
X80994190Y-120927600D01*
X80994190Y-120927600D02*
X81089428Y-120975219D01*
X81089428Y-120975219D02*
X81184666Y-120975219D01*
X81184666Y-120975219D02*
X81279904Y-120927600D01*
X81279904Y-120927600D02*
X81327523Y-120879980D01*
X81327523Y-120879980D02*
X81375142Y-120784742D01*
X81375142Y-120784742D02*
X81422761Y-120594266D01*
X81422761Y-120594266D02*
X81422761Y-120356171D01*
X81422761Y-120356171D02*
X81375142Y-120165695D01*
X81375142Y-120165695D02*
X81327523Y-120070457D01*
X81327523Y-120070457D02*
X81279904Y-120022838D01*
X81279904Y-120022838D02*
X81184666Y-119975219D01*
X80422761Y-120594266D02*
X79660857Y-120594266D01*
X79184666Y-120975219D02*
X79184666Y-119975219D01*
X79184666Y-119975219D02*
X78946571Y-119975219D01*
X78946571Y-119975219D02*
X78803714Y-120022838D01*
X78803714Y-120022838D02*
X78708476Y-120118076D01*
X78708476Y-120118076D02*
X78660857Y-120213314D01*
X78660857Y-120213314D02*
X78613238Y-120403790D01*
X78613238Y-120403790D02*
X78613238Y-120546647D01*
X78613238Y-120546647D02*
X78660857Y-120737123D01*
X78660857Y-120737123D02*
X78708476Y-120832361D01*
X78708476Y-120832361D02*
X78803714Y-120927600D01*
X78803714Y-120927600D02*
X78946571Y-120975219D01*
X78946571Y-120975219D02*
X79184666Y-120975219D01*
X78279904Y-119975219D02*
X77660857Y-119975219D01*
X77660857Y-119975219D02*
X77994190Y-120356171D01*
X77994190Y-120356171D02*
X77851333Y-120356171D01*
X77851333Y-120356171D02*
X77756095Y-120403790D01*
X77756095Y-120403790D02*
X77708476Y-120451409D01*
X77708476Y-120451409D02*
X77660857Y-120546647D01*
X77660857Y-120546647D02*
X77660857Y-120784742D01*
X77660857Y-120784742D02*
X77708476Y-120879980D01*
X77708476Y-120879980D02*
X77756095Y-120927600D01*
X77756095Y-120927600D02*
X77851333Y-120975219D01*
X77851333Y-120975219D02*
X78137047Y-120975219D01*
X78137047Y-120975219D02*
X78232285Y-120927600D01*
X78232285Y-120927600D02*
X78279904Y-120879980D01*
D11*
X228210904Y-215532819D02*
X227639476Y-215532819D01*
X227925190Y-216532819D02*
X227925190Y-215532819D01*
X227306142Y-216532819D02*
X227306142Y-215532819D01*
X227306142Y-215532819D02*
X226925190Y-215532819D01*
X226925190Y-215532819D02*
X226829952Y-215580438D01*
X226829952Y-215580438D02*
X226782333Y-215628057D01*
X226782333Y-215628057D02*
X226734714Y-215723295D01*
X226734714Y-215723295D02*
X226734714Y-215866152D01*
X226734714Y-215866152D02*
X226782333Y-215961390D01*
X226782333Y-215961390D02*
X226829952Y-216009009D01*
X226829952Y-216009009D02*
X226925190Y-216056628D01*
X226925190Y-216056628D02*
X227306142Y-216056628D01*
X226401380Y-215532819D02*
X225734714Y-215532819D01*
X225734714Y-215532819D02*
X226163285Y-216532819D01*
X264278904Y-41542819D02*
X263707476Y-41542819D01*
X263993190Y-42542819D02*
X263993190Y-41542819D01*
X263374142Y-42542819D02*
X263374142Y-41542819D01*
X263374142Y-41542819D02*
X262993190Y-41542819D01*
X262993190Y-41542819D02*
X262897952Y-41590438D01*
X262897952Y-41590438D02*
X262850333Y-41638057D01*
X262850333Y-41638057D02*
X262802714Y-41733295D01*
X262802714Y-41733295D02*
X262802714Y-41876152D01*
X262802714Y-41876152D02*
X262850333Y-41971390D01*
X262850333Y-41971390D02*
X262897952Y-42019009D01*
X262897952Y-42019009D02*
X262993190Y-42066628D01*
X262993190Y-42066628D02*
X263374142Y-42066628D01*
X262469380Y-41542819D02*
X261850333Y-41542819D01*
X261850333Y-41542819D02*
X262183666Y-41923771D01*
X262183666Y-41923771D02*
X262040809Y-41923771D01*
X262040809Y-41923771D02*
X261945571Y-41971390D01*
X261945571Y-41971390D02*
X261897952Y-42019009D01*
X261897952Y-42019009D02*
X261850333Y-42114247D01*
X261850333Y-42114247D02*
X261850333Y-42352342D01*
X261850333Y-42352342D02*
X261897952Y-42447580D01*
X261897952Y-42447580D02*
X261945571Y-42495200D01*
X261945571Y-42495200D02*
X262040809Y-42542819D01*
X262040809Y-42542819D02*
X262326523Y-42542819D01*
X262326523Y-42542819D02*
X262421761Y-42495200D01*
X262421761Y-42495200D02*
X262469380Y-42447580D01*
D10*
X83398951Y-115847600D02*
X83256094Y-115895219D01*
X83256094Y-115895219D02*
X83017999Y-115895219D01*
X83017999Y-115895219D02*
X82922761Y-115847600D01*
X82922761Y-115847600D02*
X82875142Y-115799980D01*
X82875142Y-115799980D02*
X82827523Y-115704742D01*
X82827523Y-115704742D02*
X82827523Y-115609504D01*
X82827523Y-115609504D02*
X82875142Y-115514266D01*
X82875142Y-115514266D02*
X82922761Y-115466647D01*
X82922761Y-115466647D02*
X83017999Y-115419028D01*
X83017999Y-115419028D02*
X83208475Y-115371409D01*
X83208475Y-115371409D02*
X83303713Y-115323790D01*
X83303713Y-115323790D02*
X83351332Y-115276171D01*
X83351332Y-115276171D02*
X83398951Y-115180933D01*
X83398951Y-115180933D02*
X83398951Y-115085695D01*
X83398951Y-115085695D02*
X83351332Y-114990457D01*
X83351332Y-114990457D02*
X83303713Y-114942838D01*
X83303713Y-114942838D02*
X83208475Y-114895219D01*
X83208475Y-114895219D02*
X82970380Y-114895219D01*
X82970380Y-114895219D02*
X82827523Y-114942838D01*
X83113237Y-114752361D02*
X83113237Y-116038076D01*
X81827523Y-115799980D02*
X81875142Y-115847600D01*
X81875142Y-115847600D02*
X82017999Y-115895219D01*
X82017999Y-115895219D02*
X82113237Y-115895219D01*
X82113237Y-115895219D02*
X82256094Y-115847600D01*
X82256094Y-115847600D02*
X82351332Y-115752361D01*
X82351332Y-115752361D02*
X82398951Y-115657123D01*
X82398951Y-115657123D02*
X82446570Y-115466647D01*
X82446570Y-115466647D02*
X82446570Y-115323790D01*
X82446570Y-115323790D02*
X82398951Y-115133314D01*
X82398951Y-115133314D02*
X82351332Y-115038076D01*
X82351332Y-115038076D02*
X82256094Y-114942838D01*
X82256094Y-114942838D02*
X82113237Y-114895219D01*
X82113237Y-114895219D02*
X82017999Y-114895219D01*
X82017999Y-114895219D02*
X81875142Y-114942838D01*
X81875142Y-114942838D02*
X81827523Y-114990457D01*
X81256094Y-115323790D02*
X81351332Y-115276171D01*
X81351332Y-115276171D02*
X81398951Y-115228552D01*
X81398951Y-115228552D02*
X81446570Y-115133314D01*
X81446570Y-115133314D02*
X81446570Y-115085695D01*
X81446570Y-115085695D02*
X81398951Y-114990457D01*
X81398951Y-114990457D02*
X81351332Y-114942838D01*
X81351332Y-114942838D02*
X81256094Y-114895219D01*
X81256094Y-114895219D02*
X81065618Y-114895219D01*
X81065618Y-114895219D02*
X80970380Y-114942838D01*
X80970380Y-114942838D02*
X80922761Y-114990457D01*
X80922761Y-114990457D02*
X80875142Y-115085695D01*
X80875142Y-115085695D02*
X80875142Y-115133314D01*
X80875142Y-115133314D02*
X80922761Y-115228552D01*
X80922761Y-115228552D02*
X80970380Y-115276171D01*
X80970380Y-115276171D02*
X81065618Y-115323790D01*
X81065618Y-115323790D02*
X81256094Y-115323790D01*
X81256094Y-115323790D02*
X81351332Y-115371409D01*
X81351332Y-115371409D02*
X81398951Y-115419028D01*
X81398951Y-115419028D02*
X81446570Y-115514266D01*
X81446570Y-115514266D02*
X81446570Y-115704742D01*
X81446570Y-115704742D02*
X81398951Y-115799980D01*
X81398951Y-115799980D02*
X81351332Y-115847600D01*
X81351332Y-115847600D02*
X81256094Y-115895219D01*
X81256094Y-115895219D02*
X81065618Y-115895219D01*
X81065618Y-115895219D02*
X80970380Y-115847600D01*
X80970380Y-115847600D02*
X80922761Y-115799980D01*
X80922761Y-115799980D02*
X80875142Y-115704742D01*
X80875142Y-115704742D02*
X80875142Y-115514266D01*
X80875142Y-115514266D02*
X80922761Y-115419028D01*
X80922761Y-115419028D02*
X80970380Y-115371409D01*
X80970380Y-115371409D02*
X81065618Y-115323790D01*
X80446570Y-115514266D02*
X79684666Y-115514266D01*
X78637047Y-115799980D02*
X78684666Y-115847600D01*
X78684666Y-115847600D02*
X78827523Y-115895219D01*
X78827523Y-115895219D02*
X78922761Y-115895219D01*
X78922761Y-115895219D02*
X79065618Y-115847600D01*
X79065618Y-115847600D02*
X79160856Y-115752361D01*
X79160856Y-115752361D02*
X79208475Y-115657123D01*
X79208475Y-115657123D02*
X79256094Y-115466647D01*
X79256094Y-115466647D02*
X79256094Y-115323790D01*
X79256094Y-115323790D02*
X79208475Y-115133314D01*
X79208475Y-115133314D02*
X79160856Y-115038076D01*
X79160856Y-115038076D02*
X79065618Y-114942838D01*
X79065618Y-114942838D02*
X78922761Y-114895219D01*
X78922761Y-114895219D02*
X78827523Y-114895219D01*
X78827523Y-114895219D02*
X78684666Y-114942838D01*
X78684666Y-114942838D02*
X78637047Y-114990457D01*
X77875142Y-115371409D02*
X77732285Y-115419028D01*
X77732285Y-115419028D02*
X77684666Y-115466647D01*
X77684666Y-115466647D02*
X77637047Y-115561885D01*
X77637047Y-115561885D02*
X77637047Y-115704742D01*
X77637047Y-115704742D02*
X77684666Y-115799980D01*
X77684666Y-115799980D02*
X77732285Y-115847600D01*
X77732285Y-115847600D02*
X77827523Y-115895219D01*
X77827523Y-115895219D02*
X78208475Y-115895219D01*
X78208475Y-115895219D02*
X78208475Y-114895219D01*
X78208475Y-114895219D02*
X77875142Y-114895219D01*
X77875142Y-114895219D02*
X77779904Y-114942838D01*
X77779904Y-114942838D02*
X77732285Y-114990457D01*
X77732285Y-114990457D02*
X77684666Y-115085695D01*
X77684666Y-115085695D02*
X77684666Y-115180933D01*
X77684666Y-115180933D02*
X77732285Y-115276171D01*
X77732285Y-115276171D02*
X77779904Y-115323790D01*
X77779904Y-115323790D02*
X77875142Y-115371409D01*
X77875142Y-115371409D02*
X78208475Y-115371409D01*
D11*
X55223580Y-191777237D02*
X55271200Y-191729618D01*
X55271200Y-191729618D02*
X55318819Y-191586761D01*
X55318819Y-191586761D02*
X55318819Y-191491523D01*
X55318819Y-191491523D02*
X55271200Y-191348666D01*
X55271200Y-191348666D02*
X55175961Y-191253428D01*
X55175961Y-191253428D02*
X55080723Y-191205809D01*
X55080723Y-191205809D02*
X54890247Y-191158190D01*
X54890247Y-191158190D02*
X54747390Y-191158190D01*
X54747390Y-191158190D02*
X54556914Y-191205809D01*
X54556914Y-191205809D02*
X54461676Y-191253428D01*
X54461676Y-191253428D02*
X54366438Y-191348666D01*
X54366438Y-191348666D02*
X54318819Y-191491523D01*
X54318819Y-191491523D02*
X54318819Y-191586761D01*
X54318819Y-191586761D02*
X54366438Y-191729618D01*
X54366438Y-191729618D02*
X54414057Y-191777237D01*
X54318819Y-192062952D02*
X54318819Y-192634380D01*
X55318819Y-192348666D02*
X54318819Y-192348666D01*
X55271200Y-192920095D02*
X55318819Y-193062952D01*
X55318819Y-193062952D02*
X55318819Y-193301047D01*
X55318819Y-193301047D02*
X55271200Y-193396285D01*
X55271200Y-193396285D02*
X55223580Y-193443904D01*
X55223580Y-193443904D02*
X55128342Y-193491523D01*
X55128342Y-193491523D02*
X55033104Y-193491523D01*
X55033104Y-193491523D02*
X54937866Y-193443904D01*
X54937866Y-193443904D02*
X54890247Y-193396285D01*
X54890247Y-193396285D02*
X54842628Y-193301047D01*
X54842628Y-193301047D02*
X54795009Y-193110571D01*
X54795009Y-193110571D02*
X54747390Y-193015333D01*
X54747390Y-193015333D02*
X54699771Y-192967714D01*
X54699771Y-192967714D02*
X54604533Y-192920095D01*
X54604533Y-192920095D02*
X54509295Y-192920095D01*
X54509295Y-192920095D02*
X54414057Y-192967714D01*
X54414057Y-192967714D02*
X54366438Y-193015333D01*
X54366438Y-193015333D02*
X54318819Y-193110571D01*
X54318819Y-193110571D02*
X54318819Y-193348666D01*
X54318819Y-193348666D02*
X54366438Y-193491523D01*
X54041200Y-191067714D02*
X54041200Y-193582000D01*
X55414057Y-193682000D02*
X55414057Y-194443904D01*
X54318819Y-194586762D02*
X54318819Y-195205809D01*
X54318819Y-195205809D02*
X54699771Y-194872476D01*
X54699771Y-194872476D02*
X54699771Y-195015333D01*
X54699771Y-195015333D02*
X54747390Y-195110571D01*
X54747390Y-195110571D02*
X54795009Y-195158190D01*
X54795009Y-195158190D02*
X54890247Y-195205809D01*
X54890247Y-195205809D02*
X55128342Y-195205809D01*
X55128342Y-195205809D02*
X55223580Y-195158190D01*
X55223580Y-195158190D02*
X55271200Y-195110571D01*
X55271200Y-195110571D02*
X55318819Y-195015333D01*
X55318819Y-195015333D02*
X55318819Y-194729619D01*
X55318819Y-194729619D02*
X55271200Y-194634381D01*
X55271200Y-194634381D02*
X55223580Y-194586762D01*
X230877904Y-219215819D02*
X230306476Y-219215819D01*
X230592190Y-220215819D02*
X230592190Y-219215819D01*
X229973142Y-220215819D02*
X229973142Y-219215819D01*
X229973142Y-219215819D02*
X229592190Y-219215819D01*
X229592190Y-219215819D02*
X229496952Y-219263438D01*
X229496952Y-219263438D02*
X229449333Y-219311057D01*
X229449333Y-219311057D02*
X229401714Y-219406295D01*
X229401714Y-219406295D02*
X229401714Y-219549152D01*
X229401714Y-219549152D02*
X229449333Y-219644390D01*
X229449333Y-219644390D02*
X229496952Y-219692009D01*
X229496952Y-219692009D02*
X229592190Y-219739628D01*
X229592190Y-219739628D02*
X229973142Y-219739628D01*
X228496952Y-219215819D02*
X228973142Y-219215819D01*
X228973142Y-219215819D02*
X229020761Y-219692009D01*
X229020761Y-219692009D02*
X228973142Y-219644390D01*
X228973142Y-219644390D02*
X228877904Y-219596771D01*
X228877904Y-219596771D02*
X228639809Y-219596771D01*
X228639809Y-219596771D02*
X228544571Y-219644390D01*
X228544571Y-219644390D02*
X228496952Y-219692009D01*
X228496952Y-219692009D02*
X228449333Y-219787247D01*
X228449333Y-219787247D02*
X228449333Y-220025342D01*
X228449333Y-220025342D02*
X228496952Y-220120580D01*
X228496952Y-220120580D02*
X228544571Y-220168200D01*
X228544571Y-220168200D02*
X228639809Y-220215819D01*
X228639809Y-220215819D02*
X228877904Y-220215819D01*
X228877904Y-220215819D02*
X228973142Y-220168200D01*
X228973142Y-220168200D02*
X229020761Y-220120580D01*
X67405238Y-56938057D02*
X67500476Y-56890438D01*
X67500476Y-56890438D02*
X67595714Y-56795200D01*
X67595714Y-56795200D02*
X67738571Y-56652342D01*
X67738571Y-56652342D02*
X67833809Y-56604723D01*
X67833809Y-56604723D02*
X67929047Y-56604723D01*
X67881428Y-56842819D02*
X67976666Y-56795200D01*
X67976666Y-56795200D02*
X68071904Y-56699961D01*
X68071904Y-56699961D02*
X68119523Y-56509485D01*
X68119523Y-56509485D02*
X68119523Y-56176152D01*
X68119523Y-56176152D02*
X68071904Y-55985676D01*
X68071904Y-55985676D02*
X67976666Y-55890438D01*
X67976666Y-55890438D02*
X67881428Y-55842819D01*
X67881428Y-55842819D02*
X67690952Y-55842819D01*
X67690952Y-55842819D02*
X67595714Y-55890438D01*
X67595714Y-55890438D02*
X67500476Y-55985676D01*
X67500476Y-55985676D02*
X67452857Y-56176152D01*
X67452857Y-56176152D02*
X67452857Y-56509485D01*
X67452857Y-56509485D02*
X67500476Y-56699961D01*
X67500476Y-56699961D02*
X67595714Y-56795200D01*
X67595714Y-56795200D02*
X67690952Y-56842819D01*
X67690952Y-56842819D02*
X67881428Y-56842819D01*
X66500476Y-56842819D02*
X67071904Y-56842819D01*
X66786190Y-56842819D02*
X66786190Y-55842819D01*
X66786190Y-55842819D02*
X66881428Y-55985676D01*
X66881428Y-55985676D02*
X66976666Y-56080914D01*
X66976666Y-56080914D02*
X67071904Y-56128533D01*
X161844428Y-134461819D02*
X161844428Y-133461819D01*
X161844428Y-133461819D02*
X161463476Y-133461819D01*
X161463476Y-133461819D02*
X161368238Y-133509438D01*
X161368238Y-133509438D02*
X161320619Y-133557057D01*
X161320619Y-133557057D02*
X161273000Y-133652295D01*
X161273000Y-133652295D02*
X161273000Y-133795152D01*
X161273000Y-133795152D02*
X161320619Y-133890390D01*
X161320619Y-133890390D02*
X161368238Y-133938009D01*
X161368238Y-133938009D02*
X161463476Y-133985628D01*
X161463476Y-133985628D02*
X161844428Y-133985628D01*
X160987285Y-133461819D02*
X160415857Y-133461819D01*
X160701571Y-134461819D02*
X160701571Y-133461819D01*
X160082523Y-134461819D02*
X160082523Y-133461819D01*
X160082523Y-133461819D02*
X159749190Y-134176104D01*
X159749190Y-134176104D02*
X159415857Y-133461819D01*
X159415857Y-133461819D02*
X159415857Y-134461819D01*
X159177762Y-134557057D02*
X158415857Y-134557057D01*
X157606333Y-134366580D02*
X157653952Y-134414200D01*
X157653952Y-134414200D02*
X157796809Y-134461819D01*
X157796809Y-134461819D02*
X157892047Y-134461819D01*
X157892047Y-134461819D02*
X158034904Y-134414200D01*
X158034904Y-134414200D02*
X158130142Y-134318961D01*
X158130142Y-134318961D02*
X158177761Y-134223723D01*
X158177761Y-134223723D02*
X158225380Y-134033247D01*
X158225380Y-134033247D02*
X158225380Y-133890390D01*
X158225380Y-133890390D02*
X158177761Y-133699914D01*
X158177761Y-133699914D02*
X158130142Y-133604676D01*
X158130142Y-133604676D02*
X158034904Y-133509438D01*
X158034904Y-133509438D02*
X157892047Y-133461819D01*
X157892047Y-133461819D02*
X157796809Y-133461819D01*
X157796809Y-133461819D02*
X157653952Y-133509438D01*
X157653952Y-133509438D02*
X157606333Y-133557057D01*
X157225380Y-133557057D02*
X157177761Y-133509438D01*
X157177761Y-133509438D02*
X157082523Y-133461819D01*
X157082523Y-133461819D02*
X156844428Y-133461819D01*
X156844428Y-133461819D02*
X156749190Y-133509438D01*
X156749190Y-133509438D02*
X156701571Y-133557057D01*
X156701571Y-133557057D02*
X156653952Y-133652295D01*
X156653952Y-133652295D02*
X156653952Y-133747533D01*
X156653952Y-133747533D02*
X156701571Y-133890390D01*
X156701571Y-133890390D02*
X157272999Y-134461819D01*
X157272999Y-134461819D02*
X156653952Y-134461819D01*
X63063333Y-58859009D02*
X62920476Y-58906628D01*
X62920476Y-58906628D02*
X62872857Y-58954247D01*
X62872857Y-58954247D02*
X62825238Y-59049485D01*
X62825238Y-59049485D02*
X62825238Y-59192342D01*
X62825238Y-59192342D02*
X62872857Y-59287580D01*
X62872857Y-59287580D02*
X62920476Y-59335200D01*
X62920476Y-59335200D02*
X63015714Y-59382819D01*
X63015714Y-59382819D02*
X63396666Y-59382819D01*
X63396666Y-59382819D02*
X63396666Y-58382819D01*
X63396666Y-58382819D02*
X63063333Y-58382819D01*
X63063333Y-58382819D02*
X62968095Y-58430438D01*
X62968095Y-58430438D02*
X62920476Y-58478057D01*
X62920476Y-58478057D02*
X62872857Y-58573295D01*
X62872857Y-58573295D02*
X62872857Y-58668533D01*
X62872857Y-58668533D02*
X62920476Y-58763771D01*
X62920476Y-58763771D02*
X62968095Y-58811390D01*
X62968095Y-58811390D02*
X63063333Y-58859009D01*
X63063333Y-58859009D02*
X63396666Y-58859009D01*
X62444285Y-59097104D02*
X61968095Y-59097104D01*
X62539523Y-59382819D02*
X62206190Y-58382819D01*
X62206190Y-58382819D02*
X61872857Y-59382819D01*
X61015714Y-59382819D02*
X61587142Y-59382819D01*
X61301428Y-59382819D02*
X61301428Y-58382819D01*
X61301428Y-58382819D02*
X61396666Y-58525676D01*
X61396666Y-58525676D02*
X61491904Y-58620914D01*
X61491904Y-58620914D02*
X61587142Y-58668533D01*
X49588819Y-191086762D02*
X48588819Y-191086762D01*
X48588819Y-191086762D02*
X48588819Y-191324857D01*
X48588819Y-191324857D02*
X48636438Y-191467714D01*
X48636438Y-191467714D02*
X48731676Y-191562952D01*
X48731676Y-191562952D02*
X48826914Y-191610571D01*
X48826914Y-191610571D02*
X49017390Y-191658190D01*
X49017390Y-191658190D02*
X49160247Y-191658190D01*
X49160247Y-191658190D02*
X49350723Y-191610571D01*
X49350723Y-191610571D02*
X49445961Y-191562952D01*
X49445961Y-191562952D02*
X49541200Y-191467714D01*
X49541200Y-191467714D02*
X49588819Y-191324857D01*
X49588819Y-191324857D02*
X49588819Y-191086762D01*
X49541200Y-192039143D02*
X49588819Y-192182000D01*
X49588819Y-192182000D02*
X49588819Y-192420095D01*
X49588819Y-192420095D02*
X49541200Y-192515333D01*
X49541200Y-192515333D02*
X49493580Y-192562952D01*
X49493580Y-192562952D02*
X49398342Y-192610571D01*
X49398342Y-192610571D02*
X49303104Y-192610571D01*
X49303104Y-192610571D02*
X49207866Y-192562952D01*
X49207866Y-192562952D02*
X49160247Y-192515333D01*
X49160247Y-192515333D02*
X49112628Y-192420095D01*
X49112628Y-192420095D02*
X49065009Y-192229619D01*
X49065009Y-192229619D02*
X49017390Y-192134381D01*
X49017390Y-192134381D02*
X48969771Y-192086762D01*
X48969771Y-192086762D02*
X48874533Y-192039143D01*
X48874533Y-192039143D02*
X48779295Y-192039143D01*
X48779295Y-192039143D02*
X48684057Y-192086762D01*
X48684057Y-192086762D02*
X48636438Y-192134381D01*
X48636438Y-192134381D02*
X48588819Y-192229619D01*
X48588819Y-192229619D02*
X48588819Y-192467714D01*
X48588819Y-192467714D02*
X48636438Y-192610571D01*
X49588819Y-193610571D02*
X49112628Y-193277238D01*
X49588819Y-193039143D02*
X48588819Y-193039143D01*
X48588819Y-193039143D02*
X48588819Y-193420095D01*
X48588819Y-193420095D02*
X48636438Y-193515333D01*
X48636438Y-193515333D02*
X48684057Y-193562952D01*
X48684057Y-193562952D02*
X48779295Y-193610571D01*
X48779295Y-193610571D02*
X48922152Y-193610571D01*
X48922152Y-193610571D02*
X49017390Y-193562952D01*
X49017390Y-193562952D02*
X49065009Y-193515333D01*
X49065009Y-193515333D02*
X49112628Y-193420095D01*
X49112628Y-193420095D02*
X49112628Y-193039143D01*
X48311200Y-190948667D02*
X48311200Y-193701048D01*
X49684057Y-193801048D02*
X49684057Y-194562952D01*
X48588819Y-194705810D02*
X48588819Y-195324857D01*
X48588819Y-195324857D02*
X48969771Y-194991524D01*
X48969771Y-194991524D02*
X48969771Y-195134381D01*
X48969771Y-195134381D02*
X49017390Y-195229619D01*
X49017390Y-195229619D02*
X49065009Y-195277238D01*
X49065009Y-195277238D02*
X49160247Y-195324857D01*
X49160247Y-195324857D02*
X49398342Y-195324857D01*
X49398342Y-195324857D02*
X49493580Y-195277238D01*
X49493580Y-195277238D02*
X49541200Y-195229619D01*
X49541200Y-195229619D02*
X49588819Y-195134381D01*
X49588819Y-195134381D02*
X49588819Y-194848667D01*
X49588819Y-194848667D02*
X49541200Y-194753429D01*
X49541200Y-194753429D02*
X49493580Y-194705810D01*
D10*
X83351332Y-128547600D02*
X83208475Y-128595219D01*
X83208475Y-128595219D02*
X82970380Y-128595219D01*
X82970380Y-128595219D02*
X82875142Y-128547600D01*
X82875142Y-128547600D02*
X82827523Y-128499980D01*
X82827523Y-128499980D02*
X82779904Y-128404742D01*
X82779904Y-128404742D02*
X82779904Y-128309504D01*
X82779904Y-128309504D02*
X82827523Y-128214266D01*
X82827523Y-128214266D02*
X82875142Y-128166647D01*
X82875142Y-128166647D02*
X82970380Y-128119028D01*
X82970380Y-128119028D02*
X83160856Y-128071409D01*
X83160856Y-128071409D02*
X83256094Y-128023790D01*
X83256094Y-128023790D02*
X83303713Y-127976171D01*
X83303713Y-127976171D02*
X83351332Y-127880933D01*
X83351332Y-127880933D02*
X83351332Y-127785695D01*
X83351332Y-127785695D02*
X83303713Y-127690457D01*
X83303713Y-127690457D02*
X83256094Y-127642838D01*
X83256094Y-127642838D02*
X83160856Y-127595219D01*
X83160856Y-127595219D02*
X82922761Y-127595219D01*
X82922761Y-127595219D02*
X82779904Y-127642838D01*
X83065618Y-127452361D02*
X83065618Y-128738076D01*
X82351332Y-128595219D02*
X82351332Y-127595219D01*
X82351332Y-127595219D02*
X82113237Y-127595219D01*
X82113237Y-127595219D02*
X81970380Y-127642838D01*
X81970380Y-127642838D02*
X81875142Y-127738076D01*
X81875142Y-127738076D02*
X81827523Y-127833314D01*
X81827523Y-127833314D02*
X81779904Y-128023790D01*
X81779904Y-128023790D02*
X81779904Y-128166647D01*
X81779904Y-128166647D02*
X81827523Y-128357123D01*
X81827523Y-128357123D02*
X81875142Y-128452361D01*
X81875142Y-128452361D02*
X81970380Y-128547600D01*
X81970380Y-128547600D02*
X82113237Y-128595219D01*
X82113237Y-128595219D02*
X82351332Y-128595219D01*
X80779904Y-128499980D02*
X80827523Y-128547600D01*
X80827523Y-128547600D02*
X80970380Y-128595219D01*
X80970380Y-128595219D02*
X81065618Y-128595219D01*
X81065618Y-128595219D02*
X81208475Y-128547600D01*
X81208475Y-128547600D02*
X81303713Y-128452361D01*
X81303713Y-128452361D02*
X81351332Y-128357123D01*
X81351332Y-128357123D02*
X81398951Y-128166647D01*
X81398951Y-128166647D02*
X81398951Y-128023790D01*
X81398951Y-128023790D02*
X81351332Y-127833314D01*
X81351332Y-127833314D02*
X81303713Y-127738076D01*
X81303713Y-127738076D02*
X81208475Y-127642838D01*
X81208475Y-127642838D02*
X81065618Y-127595219D01*
X81065618Y-127595219D02*
X80970380Y-127595219D01*
X80970380Y-127595219D02*
X80827523Y-127642838D01*
X80827523Y-127642838D02*
X80779904Y-127690457D01*
X80351332Y-128214266D02*
X79589428Y-128214266D01*
X79113237Y-128595219D02*
X79113237Y-127595219D01*
X79113237Y-127595219D02*
X78875142Y-127595219D01*
X78875142Y-127595219D02*
X78732285Y-127642838D01*
X78732285Y-127642838D02*
X78637047Y-127738076D01*
X78637047Y-127738076D02*
X78589428Y-127833314D01*
X78589428Y-127833314D02*
X78541809Y-128023790D01*
X78541809Y-128023790D02*
X78541809Y-128166647D01*
X78541809Y-128166647D02*
X78589428Y-128357123D01*
X78589428Y-128357123D02*
X78637047Y-128452361D01*
X78637047Y-128452361D02*
X78732285Y-128547600D01*
X78732285Y-128547600D02*
X78875142Y-128595219D01*
X78875142Y-128595219D02*
X79113237Y-128595219D01*
X77779904Y-128071409D02*
X78113237Y-128071409D01*
X78113237Y-128595219D02*
X78113237Y-127595219D01*
X78113237Y-127595219D02*
X77637047Y-127595219D01*
D11*
X161844428Y-126841819D02*
X161844428Y-125841819D01*
X161844428Y-125841819D02*
X161463476Y-125841819D01*
X161463476Y-125841819D02*
X161368238Y-125889438D01*
X161368238Y-125889438D02*
X161320619Y-125937057D01*
X161320619Y-125937057D02*
X161273000Y-126032295D01*
X161273000Y-126032295D02*
X161273000Y-126175152D01*
X161273000Y-126175152D02*
X161320619Y-126270390D01*
X161320619Y-126270390D02*
X161368238Y-126318009D01*
X161368238Y-126318009D02*
X161463476Y-126365628D01*
X161463476Y-126365628D02*
X161844428Y-126365628D01*
X160987285Y-125841819D02*
X160415857Y-125841819D01*
X160701571Y-126841819D02*
X160701571Y-125841819D01*
X160082523Y-126841819D02*
X160082523Y-125841819D01*
X160082523Y-125841819D02*
X159749190Y-126556104D01*
X159749190Y-126556104D02*
X159415857Y-125841819D01*
X159415857Y-125841819D02*
X159415857Y-126841819D01*
X159177762Y-126937057D02*
X158415857Y-126937057D01*
X157606333Y-126746580D02*
X157653952Y-126794200D01*
X157653952Y-126794200D02*
X157796809Y-126841819D01*
X157796809Y-126841819D02*
X157892047Y-126841819D01*
X157892047Y-126841819D02*
X158034904Y-126794200D01*
X158034904Y-126794200D02*
X158130142Y-126698961D01*
X158130142Y-126698961D02*
X158177761Y-126603723D01*
X158177761Y-126603723D02*
X158225380Y-126413247D01*
X158225380Y-126413247D02*
X158225380Y-126270390D01*
X158225380Y-126270390D02*
X158177761Y-126079914D01*
X158177761Y-126079914D02*
X158130142Y-125984676D01*
X158130142Y-125984676D02*
X158034904Y-125889438D01*
X158034904Y-125889438D02*
X157892047Y-125841819D01*
X157892047Y-125841819D02*
X157796809Y-125841819D01*
X157796809Y-125841819D02*
X157653952Y-125889438D01*
X157653952Y-125889438D02*
X157606333Y-125937057D01*
X157272999Y-125841819D02*
X156653952Y-125841819D01*
X156653952Y-125841819D02*
X156987285Y-126222771D01*
X156987285Y-126222771D02*
X156844428Y-126222771D01*
X156844428Y-126222771D02*
X156749190Y-126270390D01*
X156749190Y-126270390D02*
X156701571Y-126318009D01*
X156701571Y-126318009D02*
X156653952Y-126413247D01*
X156653952Y-126413247D02*
X156653952Y-126651342D01*
X156653952Y-126651342D02*
X156701571Y-126746580D01*
X156701571Y-126746580D02*
X156749190Y-126794200D01*
X156749190Y-126794200D02*
X156844428Y-126841819D01*
X156844428Y-126841819D02*
X157130142Y-126841819D01*
X157130142Y-126841819D02*
X157225380Y-126794200D01*
X157225380Y-126794200D02*
X157272999Y-126746580D01*
X161814428Y-135963819D02*
X161814428Y-134963819D01*
X161814428Y-134963819D02*
X161433476Y-134963819D01*
X161433476Y-134963819D02*
X161338238Y-135011438D01*
X161338238Y-135011438D02*
X161290619Y-135059057D01*
X161290619Y-135059057D02*
X161243000Y-135154295D01*
X161243000Y-135154295D02*
X161243000Y-135297152D01*
X161243000Y-135297152D02*
X161290619Y-135392390D01*
X161290619Y-135392390D02*
X161338238Y-135440009D01*
X161338238Y-135440009D02*
X161433476Y-135487628D01*
X161433476Y-135487628D02*
X161814428Y-135487628D01*
X160957285Y-134963819D02*
X160385857Y-134963819D01*
X160671571Y-135963819D02*
X160671571Y-134963819D01*
X160052523Y-135963819D02*
X160052523Y-134963819D01*
X160052523Y-134963819D02*
X159719190Y-135678104D01*
X159719190Y-135678104D02*
X159385857Y-134963819D01*
X159385857Y-134963819D02*
X159385857Y-135963819D01*
X159147762Y-136059057D02*
X158385857Y-136059057D01*
X157623952Y-135011438D02*
X157719190Y-134963819D01*
X157719190Y-134963819D02*
X157862047Y-134963819D01*
X157862047Y-134963819D02*
X158004904Y-135011438D01*
X158004904Y-135011438D02*
X158100142Y-135106676D01*
X158100142Y-135106676D02*
X158147761Y-135201914D01*
X158147761Y-135201914D02*
X158195380Y-135392390D01*
X158195380Y-135392390D02*
X158195380Y-135535247D01*
X158195380Y-135535247D02*
X158147761Y-135725723D01*
X158147761Y-135725723D02*
X158100142Y-135820961D01*
X158100142Y-135820961D02*
X158004904Y-135916200D01*
X158004904Y-135916200D02*
X157862047Y-135963819D01*
X157862047Y-135963819D02*
X157766809Y-135963819D01*
X157766809Y-135963819D02*
X157623952Y-135916200D01*
X157623952Y-135916200D02*
X157576333Y-135868580D01*
X157576333Y-135868580D02*
X157576333Y-135535247D01*
X157576333Y-135535247D02*
X157766809Y-135535247D01*
X157195380Y-135059057D02*
X157147761Y-135011438D01*
X157147761Y-135011438D02*
X157052523Y-134963819D01*
X157052523Y-134963819D02*
X156814428Y-134963819D01*
X156814428Y-134963819D02*
X156719190Y-135011438D01*
X156719190Y-135011438D02*
X156671571Y-135059057D01*
X156671571Y-135059057D02*
X156623952Y-135154295D01*
X156623952Y-135154295D02*
X156623952Y-135249533D01*
X156623952Y-135249533D02*
X156671571Y-135392390D01*
X156671571Y-135392390D02*
X157242999Y-135963819D01*
X157242999Y-135963819D02*
X156623952Y-135963819D01*
X137557428Y-133274819D02*
X137557428Y-132274819D01*
X137557428Y-132274819D02*
X137176476Y-132274819D01*
X137176476Y-132274819D02*
X137081238Y-132322438D01*
X137081238Y-132322438D02*
X137033619Y-132370057D01*
X137033619Y-132370057D02*
X136986000Y-132465295D01*
X136986000Y-132465295D02*
X136986000Y-132608152D01*
X136986000Y-132608152D02*
X137033619Y-132703390D01*
X137033619Y-132703390D02*
X137081238Y-132751009D01*
X137081238Y-132751009D02*
X137176476Y-132798628D01*
X137176476Y-132798628D02*
X137557428Y-132798628D01*
X136700285Y-132274819D02*
X136128857Y-132274819D01*
X136414571Y-133274819D02*
X136414571Y-132274819D01*
X135795523Y-133274819D02*
X135795523Y-132274819D01*
X135795523Y-132274819D02*
X135462190Y-132989104D01*
X135462190Y-132989104D02*
X135128857Y-132274819D01*
X135128857Y-132274819D02*
X135128857Y-133274819D01*
X134890762Y-133370057D02*
X134128857Y-133370057D01*
X133366952Y-132322438D02*
X133462190Y-132274819D01*
X133462190Y-132274819D02*
X133605047Y-132274819D01*
X133605047Y-132274819D02*
X133747904Y-132322438D01*
X133747904Y-132322438D02*
X133843142Y-132417676D01*
X133843142Y-132417676D02*
X133890761Y-132512914D01*
X133890761Y-132512914D02*
X133938380Y-132703390D01*
X133938380Y-132703390D02*
X133938380Y-132846247D01*
X133938380Y-132846247D02*
X133890761Y-133036723D01*
X133890761Y-133036723D02*
X133843142Y-133131961D01*
X133843142Y-133131961D02*
X133747904Y-133227200D01*
X133747904Y-133227200D02*
X133605047Y-133274819D01*
X133605047Y-133274819D02*
X133509809Y-133274819D01*
X133509809Y-133274819D02*
X133366952Y-133227200D01*
X133366952Y-133227200D02*
X133319333Y-133179580D01*
X133319333Y-133179580D02*
X133319333Y-132846247D01*
X133319333Y-132846247D02*
X133509809Y-132846247D01*
X132366952Y-133274819D02*
X132938380Y-133274819D01*
X132652666Y-133274819D02*
X132652666Y-132274819D01*
X132652666Y-132274819D02*
X132747904Y-132417676D01*
X132747904Y-132417676D02*
X132843142Y-132512914D01*
X132843142Y-132512914D02*
X132938380Y-132560533D01*
D10*
X83398951Y-126007600D02*
X83256094Y-126055219D01*
X83256094Y-126055219D02*
X83017999Y-126055219D01*
X83017999Y-126055219D02*
X82922761Y-126007600D01*
X82922761Y-126007600D02*
X82875142Y-125959980D01*
X82875142Y-125959980D02*
X82827523Y-125864742D01*
X82827523Y-125864742D02*
X82827523Y-125769504D01*
X82827523Y-125769504D02*
X82875142Y-125674266D01*
X82875142Y-125674266D02*
X82922761Y-125626647D01*
X82922761Y-125626647D02*
X83017999Y-125579028D01*
X83017999Y-125579028D02*
X83208475Y-125531409D01*
X83208475Y-125531409D02*
X83303713Y-125483790D01*
X83303713Y-125483790D02*
X83351332Y-125436171D01*
X83351332Y-125436171D02*
X83398951Y-125340933D01*
X83398951Y-125340933D02*
X83398951Y-125245695D01*
X83398951Y-125245695D02*
X83351332Y-125150457D01*
X83351332Y-125150457D02*
X83303713Y-125102838D01*
X83303713Y-125102838D02*
X83208475Y-125055219D01*
X83208475Y-125055219D02*
X82970380Y-125055219D01*
X82970380Y-125055219D02*
X82827523Y-125102838D01*
X83113237Y-124912361D02*
X83113237Y-126198076D01*
X82398951Y-126055219D02*
X82398951Y-125055219D01*
X82398951Y-125055219D02*
X82160856Y-125055219D01*
X82160856Y-125055219D02*
X82017999Y-125102838D01*
X82017999Y-125102838D02*
X81922761Y-125198076D01*
X81922761Y-125198076D02*
X81875142Y-125293314D01*
X81875142Y-125293314D02*
X81827523Y-125483790D01*
X81827523Y-125483790D02*
X81827523Y-125626647D01*
X81827523Y-125626647D02*
X81875142Y-125817123D01*
X81875142Y-125817123D02*
X81922761Y-125912361D01*
X81922761Y-125912361D02*
X82017999Y-126007600D01*
X82017999Y-126007600D02*
X82160856Y-126055219D01*
X82160856Y-126055219D02*
X82398951Y-126055219D01*
X81256094Y-125483790D02*
X81351332Y-125436171D01*
X81351332Y-125436171D02*
X81398951Y-125388552D01*
X81398951Y-125388552D02*
X81446570Y-125293314D01*
X81446570Y-125293314D02*
X81446570Y-125245695D01*
X81446570Y-125245695D02*
X81398951Y-125150457D01*
X81398951Y-125150457D02*
X81351332Y-125102838D01*
X81351332Y-125102838D02*
X81256094Y-125055219D01*
X81256094Y-125055219D02*
X81065618Y-125055219D01*
X81065618Y-125055219D02*
X80970380Y-125102838D01*
X80970380Y-125102838D02*
X80922761Y-125150457D01*
X80922761Y-125150457D02*
X80875142Y-125245695D01*
X80875142Y-125245695D02*
X80875142Y-125293314D01*
X80875142Y-125293314D02*
X80922761Y-125388552D01*
X80922761Y-125388552D02*
X80970380Y-125436171D01*
X80970380Y-125436171D02*
X81065618Y-125483790D01*
X81065618Y-125483790D02*
X81256094Y-125483790D01*
X81256094Y-125483790D02*
X81351332Y-125531409D01*
X81351332Y-125531409D02*
X81398951Y-125579028D01*
X81398951Y-125579028D02*
X81446570Y-125674266D01*
X81446570Y-125674266D02*
X81446570Y-125864742D01*
X81446570Y-125864742D02*
X81398951Y-125959980D01*
X81398951Y-125959980D02*
X81351332Y-126007600D01*
X81351332Y-126007600D02*
X81256094Y-126055219D01*
X81256094Y-126055219D02*
X81065618Y-126055219D01*
X81065618Y-126055219D02*
X80970380Y-126007600D01*
X80970380Y-126007600D02*
X80922761Y-125959980D01*
X80922761Y-125959980D02*
X80875142Y-125864742D01*
X80875142Y-125864742D02*
X80875142Y-125674266D01*
X80875142Y-125674266D02*
X80922761Y-125579028D01*
X80922761Y-125579028D02*
X80970380Y-125531409D01*
X80970380Y-125531409D02*
X81065618Y-125483790D01*
X80446570Y-125674266D02*
X79684666Y-125674266D01*
X79208475Y-126055219D02*
X79208475Y-125055219D01*
X79208475Y-125055219D02*
X78970380Y-125055219D01*
X78970380Y-125055219D02*
X78827523Y-125102838D01*
X78827523Y-125102838D02*
X78732285Y-125198076D01*
X78732285Y-125198076D02*
X78684666Y-125293314D01*
X78684666Y-125293314D02*
X78637047Y-125483790D01*
X78637047Y-125483790D02*
X78637047Y-125626647D01*
X78637047Y-125626647D02*
X78684666Y-125817123D01*
X78684666Y-125817123D02*
X78732285Y-125912361D01*
X78732285Y-125912361D02*
X78827523Y-126007600D01*
X78827523Y-126007600D02*
X78970380Y-126055219D01*
X78970380Y-126055219D02*
X79208475Y-126055219D01*
X77875142Y-125531409D02*
X77732285Y-125579028D01*
X77732285Y-125579028D02*
X77684666Y-125626647D01*
X77684666Y-125626647D02*
X77637047Y-125721885D01*
X77637047Y-125721885D02*
X77637047Y-125864742D01*
X77637047Y-125864742D02*
X77684666Y-125959980D01*
X77684666Y-125959980D02*
X77732285Y-126007600D01*
X77732285Y-126007600D02*
X77827523Y-126055219D01*
X77827523Y-126055219D02*
X78208475Y-126055219D01*
X78208475Y-126055219D02*
X78208475Y-125055219D01*
X78208475Y-125055219D02*
X77875142Y-125055219D01*
X77875142Y-125055219D02*
X77779904Y-125102838D01*
X77779904Y-125102838D02*
X77732285Y-125150457D01*
X77732285Y-125150457D02*
X77684666Y-125245695D01*
X77684666Y-125245695D02*
X77684666Y-125340933D01*
X77684666Y-125340933D02*
X77732285Y-125436171D01*
X77732285Y-125436171D02*
X77779904Y-125483790D01*
X77779904Y-125483790D02*
X77875142Y-125531409D01*
X77875142Y-125531409D02*
X78208475Y-125531409D01*
D11*
X63110952Y-51239009D02*
X62968095Y-51286628D01*
X62968095Y-51286628D02*
X62920476Y-51334247D01*
X62920476Y-51334247D02*
X62872857Y-51429485D01*
X62872857Y-51429485D02*
X62872857Y-51572342D01*
X62872857Y-51572342D02*
X62920476Y-51667580D01*
X62920476Y-51667580D02*
X62968095Y-51715200D01*
X62968095Y-51715200D02*
X63063333Y-51762819D01*
X63063333Y-51762819D02*
X63444285Y-51762819D01*
X63444285Y-51762819D02*
X63444285Y-50762819D01*
X63444285Y-50762819D02*
X63110952Y-50762819D01*
X63110952Y-50762819D02*
X63015714Y-50810438D01*
X63015714Y-50810438D02*
X62968095Y-50858057D01*
X62968095Y-50858057D02*
X62920476Y-50953295D01*
X62920476Y-50953295D02*
X62920476Y-51048533D01*
X62920476Y-51048533D02*
X62968095Y-51143771D01*
X62968095Y-51143771D02*
X63015714Y-51191390D01*
X63015714Y-51191390D02*
X63110952Y-51239009D01*
X63110952Y-51239009D02*
X63444285Y-51239009D01*
X62491904Y-51715200D02*
X62349047Y-51762819D01*
X62349047Y-51762819D02*
X62110952Y-51762819D01*
X62110952Y-51762819D02*
X62015714Y-51715200D01*
X62015714Y-51715200D02*
X61968095Y-51667580D01*
X61968095Y-51667580D02*
X61920476Y-51572342D01*
X61920476Y-51572342D02*
X61920476Y-51477104D01*
X61920476Y-51477104D02*
X61968095Y-51381866D01*
X61968095Y-51381866D02*
X62015714Y-51334247D01*
X62015714Y-51334247D02*
X62110952Y-51286628D01*
X62110952Y-51286628D02*
X62301428Y-51239009D01*
X62301428Y-51239009D02*
X62396666Y-51191390D01*
X62396666Y-51191390D02*
X62444285Y-51143771D01*
X62444285Y-51143771D02*
X62491904Y-51048533D01*
X62491904Y-51048533D02*
X62491904Y-50953295D01*
X62491904Y-50953295D02*
X62444285Y-50858057D01*
X62444285Y-50858057D02*
X62396666Y-50810438D01*
X62396666Y-50810438D02*
X62301428Y-50762819D01*
X62301428Y-50762819D02*
X62063333Y-50762819D01*
X62063333Y-50762819D02*
X61920476Y-50810438D01*
X60968095Y-51762819D02*
X61539523Y-51762819D01*
X61253809Y-51762819D02*
X61253809Y-50762819D01*
X61253809Y-50762819D02*
X61349047Y-50905676D01*
X61349047Y-50905676D02*
X61444285Y-51000914D01*
X61444285Y-51000914D02*
X61539523Y-51048533D01*
D10*
X83375142Y-110767600D02*
X83232285Y-110815219D01*
X83232285Y-110815219D02*
X82994190Y-110815219D01*
X82994190Y-110815219D02*
X82898952Y-110767600D01*
X82898952Y-110767600D02*
X82851333Y-110719980D01*
X82851333Y-110719980D02*
X82803714Y-110624742D01*
X82803714Y-110624742D02*
X82803714Y-110529504D01*
X82803714Y-110529504D02*
X82851333Y-110434266D01*
X82851333Y-110434266D02*
X82898952Y-110386647D01*
X82898952Y-110386647D02*
X82994190Y-110339028D01*
X82994190Y-110339028D02*
X83184666Y-110291409D01*
X83184666Y-110291409D02*
X83279904Y-110243790D01*
X83279904Y-110243790D02*
X83327523Y-110196171D01*
X83327523Y-110196171D02*
X83375142Y-110100933D01*
X83375142Y-110100933D02*
X83375142Y-110005695D01*
X83375142Y-110005695D02*
X83327523Y-109910457D01*
X83327523Y-109910457D02*
X83279904Y-109862838D01*
X83279904Y-109862838D02*
X83184666Y-109815219D01*
X83184666Y-109815219D02*
X82946571Y-109815219D01*
X82946571Y-109815219D02*
X82803714Y-109862838D01*
X83089428Y-109672361D02*
X83089428Y-110958076D01*
X81803714Y-110719980D02*
X81851333Y-110767600D01*
X81851333Y-110767600D02*
X81994190Y-110815219D01*
X81994190Y-110815219D02*
X82089428Y-110815219D01*
X82089428Y-110815219D02*
X82232285Y-110767600D01*
X82232285Y-110767600D02*
X82327523Y-110672361D01*
X82327523Y-110672361D02*
X82375142Y-110577123D01*
X82375142Y-110577123D02*
X82422761Y-110386647D01*
X82422761Y-110386647D02*
X82422761Y-110243790D01*
X82422761Y-110243790D02*
X82375142Y-110053314D01*
X82375142Y-110053314D02*
X82327523Y-109958076D01*
X82327523Y-109958076D02*
X82232285Y-109862838D01*
X82232285Y-109862838D02*
X82089428Y-109815219D01*
X82089428Y-109815219D02*
X81994190Y-109815219D01*
X81994190Y-109815219D02*
X81851333Y-109862838D01*
X81851333Y-109862838D02*
X81803714Y-109910457D01*
X81184666Y-109815219D02*
X81089428Y-109815219D01*
X81089428Y-109815219D02*
X80994190Y-109862838D01*
X80994190Y-109862838D02*
X80946571Y-109910457D01*
X80946571Y-109910457D02*
X80898952Y-110005695D01*
X80898952Y-110005695D02*
X80851333Y-110196171D01*
X80851333Y-110196171D02*
X80851333Y-110434266D01*
X80851333Y-110434266D02*
X80898952Y-110624742D01*
X80898952Y-110624742D02*
X80946571Y-110719980D01*
X80946571Y-110719980D02*
X80994190Y-110767600D01*
X80994190Y-110767600D02*
X81089428Y-110815219D01*
X81089428Y-110815219D02*
X81184666Y-110815219D01*
X81184666Y-110815219D02*
X81279904Y-110767600D01*
X81279904Y-110767600D02*
X81327523Y-110719980D01*
X81327523Y-110719980D02*
X81375142Y-110624742D01*
X81375142Y-110624742D02*
X81422761Y-110434266D01*
X81422761Y-110434266D02*
X81422761Y-110196171D01*
X81422761Y-110196171D02*
X81375142Y-110005695D01*
X81375142Y-110005695D02*
X81327523Y-109910457D01*
X81327523Y-109910457D02*
X81279904Y-109862838D01*
X81279904Y-109862838D02*
X81184666Y-109815219D01*
X80422761Y-110434266D02*
X79660857Y-110434266D01*
X78613238Y-110719980D02*
X78660857Y-110767600D01*
X78660857Y-110767600D02*
X78803714Y-110815219D01*
X78803714Y-110815219D02*
X78898952Y-110815219D01*
X78898952Y-110815219D02*
X79041809Y-110767600D01*
X79041809Y-110767600D02*
X79137047Y-110672361D01*
X79137047Y-110672361D02*
X79184666Y-110577123D01*
X79184666Y-110577123D02*
X79232285Y-110386647D01*
X79232285Y-110386647D02*
X79232285Y-110243790D01*
X79232285Y-110243790D02*
X79184666Y-110053314D01*
X79184666Y-110053314D02*
X79137047Y-109958076D01*
X79137047Y-109958076D02*
X79041809Y-109862838D01*
X79041809Y-109862838D02*
X78898952Y-109815219D01*
X78898952Y-109815219D02*
X78803714Y-109815219D01*
X78803714Y-109815219D02*
X78660857Y-109862838D01*
X78660857Y-109862838D02*
X78613238Y-109910457D01*
X78279904Y-109815219D02*
X77660857Y-109815219D01*
X77660857Y-109815219D02*
X77994190Y-110196171D01*
X77994190Y-110196171D02*
X77851333Y-110196171D01*
X77851333Y-110196171D02*
X77756095Y-110243790D01*
X77756095Y-110243790D02*
X77708476Y-110291409D01*
X77708476Y-110291409D02*
X77660857Y-110386647D01*
X77660857Y-110386647D02*
X77660857Y-110624742D01*
X77660857Y-110624742D02*
X77708476Y-110719980D01*
X77708476Y-110719980D02*
X77756095Y-110767600D01*
X77756095Y-110767600D02*
X77851333Y-110815219D01*
X77851333Y-110815219D02*
X78137047Y-110815219D01*
X78137047Y-110815219D02*
X78232285Y-110767600D01*
X78232285Y-110767600D02*
X78279904Y-110719980D01*
D11*
X137572428Y-138354819D02*
X137572428Y-137354819D01*
X137572428Y-137354819D02*
X137191476Y-137354819D01*
X137191476Y-137354819D02*
X137096238Y-137402438D01*
X137096238Y-137402438D02*
X137048619Y-137450057D01*
X137048619Y-137450057D02*
X137001000Y-137545295D01*
X137001000Y-137545295D02*
X137001000Y-137688152D01*
X137001000Y-137688152D02*
X137048619Y-137783390D01*
X137048619Y-137783390D02*
X137096238Y-137831009D01*
X137096238Y-137831009D02*
X137191476Y-137878628D01*
X137191476Y-137878628D02*
X137572428Y-137878628D01*
X136715285Y-137354819D02*
X136143857Y-137354819D01*
X136429571Y-138354819D02*
X136429571Y-137354819D01*
X135810523Y-138354819D02*
X135810523Y-137354819D01*
X135810523Y-137354819D02*
X135477190Y-138069104D01*
X135477190Y-138069104D02*
X135143857Y-137354819D01*
X135143857Y-137354819D02*
X135143857Y-138354819D01*
X134905762Y-138450057D02*
X134143857Y-138450057D01*
X133334333Y-138259580D02*
X133381952Y-138307200D01*
X133381952Y-138307200D02*
X133524809Y-138354819D01*
X133524809Y-138354819D02*
X133620047Y-138354819D01*
X133620047Y-138354819D02*
X133762904Y-138307200D01*
X133762904Y-138307200D02*
X133858142Y-138211961D01*
X133858142Y-138211961D02*
X133905761Y-138116723D01*
X133905761Y-138116723D02*
X133953380Y-137926247D01*
X133953380Y-137926247D02*
X133953380Y-137783390D01*
X133953380Y-137783390D02*
X133905761Y-137592914D01*
X133905761Y-137592914D02*
X133858142Y-137497676D01*
X133858142Y-137497676D02*
X133762904Y-137402438D01*
X133762904Y-137402438D02*
X133620047Y-137354819D01*
X133620047Y-137354819D02*
X133524809Y-137354819D01*
X133524809Y-137354819D02*
X133381952Y-137402438D01*
X133381952Y-137402438D02*
X133334333Y-137450057D01*
X132381952Y-138354819D02*
X132953380Y-138354819D01*
X132667666Y-138354819D02*
X132667666Y-137354819D01*
X132667666Y-137354819D02*
X132762904Y-137497676D01*
X132762904Y-137497676D02*
X132858142Y-137592914D01*
X132858142Y-137592914D02*
X132953380Y-137640533D01*
X219066904Y-154572819D02*
X218495476Y-154572819D01*
X218781190Y-155572819D02*
X218781190Y-154572819D01*
X218162142Y-155572819D02*
X218162142Y-154572819D01*
X218162142Y-154572819D02*
X217781190Y-154572819D01*
X217781190Y-154572819D02*
X217685952Y-154620438D01*
X217685952Y-154620438D02*
X217638333Y-154668057D01*
X217638333Y-154668057D02*
X217590714Y-154763295D01*
X217590714Y-154763295D02*
X217590714Y-154906152D01*
X217590714Y-154906152D02*
X217638333Y-155001390D01*
X217638333Y-155001390D02*
X217685952Y-155049009D01*
X217685952Y-155049009D02*
X217781190Y-155096628D01*
X217781190Y-155096628D02*
X218162142Y-155096628D01*
X216733571Y-154906152D02*
X216733571Y-155572819D01*
X216971666Y-154525200D02*
X217209761Y-155239485D01*
X217209761Y-155239485D02*
X216590714Y-155239485D01*
X133512523Y-142329819D02*
X133512523Y-143044104D01*
X133512523Y-143044104D02*
X133560142Y-143186961D01*
X133560142Y-143186961D02*
X133655380Y-143282200D01*
X133655380Y-143282200D02*
X133798237Y-143329819D01*
X133798237Y-143329819D02*
X133893475Y-143329819D01*
X133036332Y-143329819D02*
X133036332Y-142329819D01*
X133036332Y-142329819D02*
X132655380Y-142329819D01*
X132655380Y-142329819D02*
X132560142Y-142377438D01*
X132560142Y-142377438D02*
X132512523Y-142425057D01*
X132512523Y-142425057D02*
X132464904Y-142520295D01*
X132464904Y-142520295D02*
X132464904Y-142663152D01*
X132464904Y-142663152D02*
X132512523Y-142758390D01*
X132512523Y-142758390D02*
X132560142Y-142806009D01*
X132560142Y-142806009D02*
X132655380Y-142853628D01*
X132655380Y-142853628D02*
X133036332Y-142853628D01*
X131512523Y-143329819D02*
X132083951Y-143329819D01*
X131798237Y-143329819D02*
X131798237Y-142329819D01*
X131798237Y-142329819D02*
X131893475Y-142472676D01*
X131893475Y-142472676D02*
X131988713Y-142567914D01*
X131988713Y-142567914D02*
X132083951Y-142615533D01*
X130560142Y-143329819D02*
X131131570Y-143329819D01*
X130845856Y-143329819D02*
X130845856Y-142329819D01*
X130845856Y-142329819D02*
X130941094Y-142472676D01*
X130941094Y-142472676D02*
X131036332Y-142567914D01*
X131036332Y-142567914D02*
X131131570Y-142615533D01*
X52524819Y-191062952D02*
X51524819Y-191062952D01*
X51524819Y-191062952D02*
X51524819Y-191301047D01*
X51524819Y-191301047D02*
X51572438Y-191443904D01*
X51572438Y-191443904D02*
X51667676Y-191539142D01*
X51667676Y-191539142D02*
X51762914Y-191586761D01*
X51762914Y-191586761D02*
X51953390Y-191634380D01*
X51953390Y-191634380D02*
X52096247Y-191634380D01*
X52096247Y-191634380D02*
X52286723Y-191586761D01*
X52286723Y-191586761D02*
X52381961Y-191539142D01*
X52381961Y-191539142D02*
X52477200Y-191443904D01*
X52477200Y-191443904D02*
X52524819Y-191301047D01*
X52524819Y-191301047D02*
X52524819Y-191062952D01*
X52429580Y-192634380D02*
X52477200Y-192586761D01*
X52477200Y-192586761D02*
X52524819Y-192443904D01*
X52524819Y-192443904D02*
X52524819Y-192348666D01*
X52524819Y-192348666D02*
X52477200Y-192205809D01*
X52477200Y-192205809D02*
X52381961Y-192110571D01*
X52381961Y-192110571D02*
X52286723Y-192062952D01*
X52286723Y-192062952D02*
X52096247Y-192015333D01*
X52096247Y-192015333D02*
X51953390Y-192015333D01*
X51953390Y-192015333D02*
X51762914Y-192062952D01*
X51762914Y-192062952D02*
X51667676Y-192110571D01*
X51667676Y-192110571D02*
X51572438Y-192205809D01*
X51572438Y-192205809D02*
X51524819Y-192348666D01*
X51524819Y-192348666D02*
X51524819Y-192443904D01*
X51524819Y-192443904D02*
X51572438Y-192586761D01*
X51572438Y-192586761D02*
X51620057Y-192634380D01*
X52524819Y-193062952D02*
X51524819Y-193062952D01*
X51524819Y-193062952D02*
X51524819Y-193301047D01*
X51524819Y-193301047D02*
X51572438Y-193443904D01*
X51572438Y-193443904D02*
X51667676Y-193539142D01*
X51667676Y-193539142D02*
X51762914Y-193586761D01*
X51762914Y-193586761D02*
X51953390Y-193634380D01*
X51953390Y-193634380D02*
X52096247Y-193634380D01*
X52096247Y-193634380D02*
X52286723Y-193586761D01*
X52286723Y-193586761D02*
X52381961Y-193539142D01*
X52381961Y-193539142D02*
X52477200Y-193443904D01*
X52477200Y-193443904D02*
X52524819Y-193301047D01*
X52524819Y-193301047D02*
X52524819Y-193062952D01*
X51247200Y-190924857D02*
X51247200Y-193724857D01*
X52620057Y-193824857D02*
X52620057Y-194586761D01*
X51524819Y-194729619D02*
X51524819Y-195348666D01*
X51524819Y-195348666D02*
X51905771Y-195015333D01*
X51905771Y-195015333D02*
X51905771Y-195158190D01*
X51905771Y-195158190D02*
X51953390Y-195253428D01*
X51953390Y-195253428D02*
X52001009Y-195301047D01*
X52001009Y-195301047D02*
X52096247Y-195348666D01*
X52096247Y-195348666D02*
X52334342Y-195348666D01*
X52334342Y-195348666D02*
X52429580Y-195301047D01*
X52429580Y-195301047D02*
X52477200Y-195253428D01*
X52477200Y-195253428D02*
X52524819Y-195158190D01*
X52524819Y-195158190D02*
X52524819Y-194872476D01*
X52524819Y-194872476D02*
X52477200Y-194777238D01*
X52477200Y-194777238D02*
X52429580Y-194729619D01*
D10*
X83375142Y-113307600D02*
X83232285Y-113355219D01*
X83232285Y-113355219D02*
X82994190Y-113355219D01*
X82994190Y-113355219D02*
X82898952Y-113307600D01*
X82898952Y-113307600D02*
X82851333Y-113259980D01*
X82851333Y-113259980D02*
X82803714Y-113164742D01*
X82803714Y-113164742D02*
X82803714Y-113069504D01*
X82803714Y-113069504D02*
X82851333Y-112974266D01*
X82851333Y-112974266D02*
X82898952Y-112926647D01*
X82898952Y-112926647D02*
X82994190Y-112879028D01*
X82994190Y-112879028D02*
X83184666Y-112831409D01*
X83184666Y-112831409D02*
X83279904Y-112783790D01*
X83279904Y-112783790D02*
X83327523Y-112736171D01*
X83327523Y-112736171D02*
X83375142Y-112640933D01*
X83375142Y-112640933D02*
X83375142Y-112545695D01*
X83375142Y-112545695D02*
X83327523Y-112450457D01*
X83327523Y-112450457D02*
X83279904Y-112402838D01*
X83279904Y-112402838D02*
X83184666Y-112355219D01*
X83184666Y-112355219D02*
X82946571Y-112355219D01*
X82946571Y-112355219D02*
X82803714Y-112402838D01*
X83089428Y-112212361D02*
X83089428Y-113498076D01*
X81803714Y-113259980D02*
X81851333Y-113307600D01*
X81851333Y-113307600D02*
X81994190Y-113355219D01*
X81994190Y-113355219D02*
X82089428Y-113355219D01*
X82089428Y-113355219D02*
X82232285Y-113307600D01*
X82232285Y-113307600D02*
X82327523Y-113212361D01*
X82327523Y-113212361D02*
X82375142Y-113117123D01*
X82375142Y-113117123D02*
X82422761Y-112926647D01*
X82422761Y-112926647D02*
X82422761Y-112783790D01*
X82422761Y-112783790D02*
X82375142Y-112593314D01*
X82375142Y-112593314D02*
X82327523Y-112498076D01*
X82327523Y-112498076D02*
X82232285Y-112402838D01*
X82232285Y-112402838D02*
X82089428Y-112355219D01*
X82089428Y-112355219D02*
X81994190Y-112355219D01*
X81994190Y-112355219D02*
X81851333Y-112402838D01*
X81851333Y-112402838D02*
X81803714Y-112450457D01*
X80946571Y-112688552D02*
X80946571Y-113355219D01*
X81184666Y-112307600D02*
X81422761Y-113021885D01*
X81422761Y-113021885D02*
X80803714Y-113021885D01*
X80422761Y-112974266D02*
X79660857Y-112974266D01*
X78613238Y-113259980D02*
X78660857Y-113307600D01*
X78660857Y-113307600D02*
X78803714Y-113355219D01*
X78803714Y-113355219D02*
X78898952Y-113355219D01*
X78898952Y-113355219D02*
X79041809Y-113307600D01*
X79041809Y-113307600D02*
X79137047Y-113212361D01*
X79137047Y-113212361D02*
X79184666Y-113117123D01*
X79184666Y-113117123D02*
X79232285Y-112926647D01*
X79232285Y-112926647D02*
X79232285Y-112783790D01*
X79232285Y-112783790D02*
X79184666Y-112593314D01*
X79184666Y-112593314D02*
X79137047Y-112498076D01*
X79137047Y-112498076D02*
X79041809Y-112402838D01*
X79041809Y-112402838D02*
X78898952Y-112355219D01*
X78898952Y-112355219D02*
X78803714Y-112355219D01*
X78803714Y-112355219D02*
X78660857Y-112402838D01*
X78660857Y-112402838D02*
X78613238Y-112450457D01*
X78279904Y-112355219D02*
X77613238Y-112355219D01*
X77613238Y-112355219D02*
X78041809Y-113355219D01*
D11*
X161844428Y-128343819D02*
X161844428Y-127343819D01*
X161844428Y-127343819D02*
X161463476Y-127343819D01*
X161463476Y-127343819D02*
X161368238Y-127391438D01*
X161368238Y-127391438D02*
X161320619Y-127439057D01*
X161320619Y-127439057D02*
X161273000Y-127534295D01*
X161273000Y-127534295D02*
X161273000Y-127677152D01*
X161273000Y-127677152D02*
X161320619Y-127772390D01*
X161320619Y-127772390D02*
X161368238Y-127820009D01*
X161368238Y-127820009D02*
X161463476Y-127867628D01*
X161463476Y-127867628D02*
X161844428Y-127867628D01*
X160987285Y-127343819D02*
X160415857Y-127343819D01*
X160701571Y-128343819D02*
X160701571Y-127343819D01*
X160082523Y-128343819D02*
X160082523Y-127343819D01*
X160082523Y-127343819D02*
X159749190Y-128058104D01*
X159749190Y-128058104D02*
X159415857Y-127343819D01*
X159415857Y-127343819D02*
X159415857Y-128343819D01*
X159177762Y-128439057D02*
X158415857Y-128439057D01*
X157653952Y-127391438D02*
X157749190Y-127343819D01*
X157749190Y-127343819D02*
X157892047Y-127343819D01*
X157892047Y-127343819D02*
X158034904Y-127391438D01*
X158034904Y-127391438D02*
X158130142Y-127486676D01*
X158130142Y-127486676D02*
X158177761Y-127581914D01*
X158177761Y-127581914D02*
X158225380Y-127772390D01*
X158225380Y-127772390D02*
X158225380Y-127915247D01*
X158225380Y-127915247D02*
X158177761Y-128105723D01*
X158177761Y-128105723D02*
X158130142Y-128200961D01*
X158130142Y-128200961D02*
X158034904Y-128296200D01*
X158034904Y-128296200D02*
X157892047Y-128343819D01*
X157892047Y-128343819D02*
X157796809Y-128343819D01*
X157796809Y-128343819D02*
X157653952Y-128296200D01*
X157653952Y-128296200D02*
X157606333Y-128248580D01*
X157606333Y-128248580D02*
X157606333Y-127915247D01*
X157606333Y-127915247D02*
X157796809Y-127915247D01*
X157272999Y-127343819D02*
X156653952Y-127343819D01*
X156653952Y-127343819D02*
X156987285Y-127724771D01*
X156987285Y-127724771D02*
X156844428Y-127724771D01*
X156844428Y-127724771D02*
X156749190Y-127772390D01*
X156749190Y-127772390D02*
X156701571Y-127820009D01*
X156701571Y-127820009D02*
X156653952Y-127915247D01*
X156653952Y-127915247D02*
X156653952Y-128153342D01*
X156653952Y-128153342D02*
X156701571Y-128248580D01*
X156701571Y-128248580D02*
X156749190Y-128296200D01*
X156749190Y-128296200D02*
X156844428Y-128343819D01*
X156844428Y-128343819D02*
X157130142Y-128343819D01*
X157130142Y-128343819D02*
X157225380Y-128296200D01*
X157225380Y-128296200D02*
X157272999Y-128248580D01*
X133262523Y-148574819D02*
X133262523Y-149289104D01*
X133262523Y-149289104D02*
X133310142Y-149431961D01*
X133310142Y-149431961D02*
X133405380Y-149527200D01*
X133405380Y-149527200D02*
X133548237Y-149574819D01*
X133548237Y-149574819D02*
X133643475Y-149574819D01*
X132786332Y-149574819D02*
X132786332Y-148574819D01*
X132786332Y-148574819D02*
X132405380Y-148574819D01*
X132405380Y-148574819D02*
X132310142Y-148622438D01*
X132310142Y-148622438D02*
X132262523Y-148670057D01*
X132262523Y-148670057D02*
X132214904Y-148765295D01*
X132214904Y-148765295D02*
X132214904Y-148908152D01*
X132214904Y-148908152D02*
X132262523Y-149003390D01*
X132262523Y-149003390D02*
X132310142Y-149051009D01*
X132310142Y-149051009D02*
X132405380Y-149098628D01*
X132405380Y-149098628D02*
X132786332Y-149098628D01*
X131262523Y-149574819D02*
X131833951Y-149574819D01*
X131548237Y-149574819D02*
X131548237Y-148574819D01*
X131548237Y-148574819D02*
X131643475Y-148717676D01*
X131643475Y-148717676D02*
X131738713Y-148812914D01*
X131738713Y-148812914D02*
X131833951Y-148860533D01*
X130643475Y-148574819D02*
X130548237Y-148574819D01*
X130548237Y-148574819D02*
X130452999Y-148622438D01*
X130452999Y-148622438D02*
X130405380Y-148670057D01*
X130405380Y-148670057D02*
X130357761Y-148765295D01*
X130357761Y-148765295D02*
X130310142Y-148955771D01*
X130310142Y-148955771D02*
X130310142Y-149193866D01*
X130310142Y-149193866D02*
X130357761Y-149384342D01*
X130357761Y-149384342D02*
X130405380Y-149479580D01*
X130405380Y-149479580D02*
X130452999Y-149527200D01*
X130452999Y-149527200D02*
X130548237Y-149574819D01*
X130548237Y-149574819D02*
X130643475Y-149574819D01*
X130643475Y-149574819D02*
X130738713Y-149527200D01*
X130738713Y-149527200D02*
X130786332Y-149479580D01*
X130786332Y-149479580D02*
X130833951Y-149384342D01*
X130833951Y-149384342D02*
X130881570Y-149193866D01*
X130881570Y-149193866D02*
X130881570Y-148955771D01*
X130881570Y-148955771D02*
X130833951Y-148765295D01*
X130833951Y-148765295D02*
X130786332Y-148670057D01*
X130786332Y-148670057D02*
X130738713Y-148622438D01*
X130738713Y-148622438D02*
X130643475Y-148574819D01*
D10*
X83375142Y-123467600D02*
X83232285Y-123515219D01*
X83232285Y-123515219D02*
X82994190Y-123515219D01*
X82994190Y-123515219D02*
X82898952Y-123467600D01*
X82898952Y-123467600D02*
X82851333Y-123419980D01*
X82851333Y-123419980D02*
X82803714Y-123324742D01*
X82803714Y-123324742D02*
X82803714Y-123229504D01*
X82803714Y-123229504D02*
X82851333Y-123134266D01*
X82851333Y-123134266D02*
X82898952Y-123086647D01*
X82898952Y-123086647D02*
X82994190Y-123039028D01*
X82994190Y-123039028D02*
X83184666Y-122991409D01*
X83184666Y-122991409D02*
X83279904Y-122943790D01*
X83279904Y-122943790D02*
X83327523Y-122896171D01*
X83327523Y-122896171D02*
X83375142Y-122800933D01*
X83375142Y-122800933D02*
X83375142Y-122705695D01*
X83375142Y-122705695D02*
X83327523Y-122610457D01*
X83327523Y-122610457D02*
X83279904Y-122562838D01*
X83279904Y-122562838D02*
X83184666Y-122515219D01*
X83184666Y-122515219D02*
X82946571Y-122515219D01*
X82946571Y-122515219D02*
X82803714Y-122562838D01*
X83089428Y-122372361D02*
X83089428Y-123658076D01*
X82375142Y-123515219D02*
X82375142Y-122515219D01*
X82375142Y-122515219D02*
X82137047Y-122515219D01*
X82137047Y-122515219D02*
X81994190Y-122562838D01*
X81994190Y-122562838D02*
X81898952Y-122658076D01*
X81898952Y-122658076D02*
X81851333Y-122753314D01*
X81851333Y-122753314D02*
X81803714Y-122943790D01*
X81803714Y-122943790D02*
X81803714Y-123086647D01*
X81803714Y-123086647D02*
X81851333Y-123277123D01*
X81851333Y-123277123D02*
X81898952Y-123372361D01*
X81898952Y-123372361D02*
X81994190Y-123467600D01*
X81994190Y-123467600D02*
X82137047Y-123515219D01*
X82137047Y-123515219D02*
X82375142Y-123515219D01*
X80946571Y-122848552D02*
X80946571Y-123515219D01*
X81184666Y-122467600D02*
X81422761Y-123181885D01*
X81422761Y-123181885D02*
X80803714Y-123181885D01*
X80422761Y-123134266D02*
X79660857Y-123134266D01*
X79184666Y-123515219D02*
X79184666Y-122515219D01*
X79184666Y-122515219D02*
X78946571Y-122515219D01*
X78946571Y-122515219D02*
X78803714Y-122562838D01*
X78803714Y-122562838D02*
X78708476Y-122658076D01*
X78708476Y-122658076D02*
X78660857Y-122753314D01*
X78660857Y-122753314D02*
X78613238Y-122943790D01*
X78613238Y-122943790D02*
X78613238Y-123086647D01*
X78613238Y-123086647D02*
X78660857Y-123277123D01*
X78660857Y-123277123D02*
X78708476Y-123372361D01*
X78708476Y-123372361D02*
X78803714Y-123467600D01*
X78803714Y-123467600D02*
X78946571Y-123515219D01*
X78946571Y-123515219D02*
X79184666Y-123515219D01*
X78279904Y-122515219D02*
X77613238Y-122515219D01*
X77613238Y-122515219D02*
X78041809Y-123515219D01*
X83351332Y-118387600D02*
X83208475Y-118435219D01*
X83208475Y-118435219D02*
X82970380Y-118435219D01*
X82970380Y-118435219D02*
X82875142Y-118387600D01*
X82875142Y-118387600D02*
X82827523Y-118339980D01*
X82827523Y-118339980D02*
X82779904Y-118244742D01*
X82779904Y-118244742D02*
X82779904Y-118149504D01*
X82779904Y-118149504D02*
X82827523Y-118054266D01*
X82827523Y-118054266D02*
X82875142Y-118006647D01*
X82875142Y-118006647D02*
X82970380Y-117959028D01*
X82970380Y-117959028D02*
X83160856Y-117911409D01*
X83160856Y-117911409D02*
X83256094Y-117863790D01*
X83256094Y-117863790D02*
X83303713Y-117816171D01*
X83303713Y-117816171D02*
X83351332Y-117720933D01*
X83351332Y-117720933D02*
X83351332Y-117625695D01*
X83351332Y-117625695D02*
X83303713Y-117530457D01*
X83303713Y-117530457D02*
X83256094Y-117482838D01*
X83256094Y-117482838D02*
X83160856Y-117435219D01*
X83160856Y-117435219D02*
X82922761Y-117435219D01*
X82922761Y-117435219D02*
X82779904Y-117482838D01*
X83065618Y-117292361D02*
X83065618Y-118578076D01*
X81779904Y-118339980D02*
X81827523Y-118387600D01*
X81827523Y-118387600D02*
X81970380Y-118435219D01*
X81970380Y-118435219D02*
X82065618Y-118435219D01*
X82065618Y-118435219D02*
X82208475Y-118387600D01*
X82208475Y-118387600D02*
X82303713Y-118292361D01*
X82303713Y-118292361D02*
X82351332Y-118197123D01*
X82351332Y-118197123D02*
X82398951Y-118006647D01*
X82398951Y-118006647D02*
X82398951Y-117863790D01*
X82398951Y-117863790D02*
X82351332Y-117673314D01*
X82351332Y-117673314D02*
X82303713Y-117578076D01*
X82303713Y-117578076D02*
X82208475Y-117482838D01*
X82208475Y-117482838D02*
X82065618Y-117435219D01*
X82065618Y-117435219D02*
X81970380Y-117435219D01*
X81970380Y-117435219D02*
X81827523Y-117482838D01*
X81827523Y-117482838D02*
X81779904Y-117530457D01*
X80779904Y-118339980D02*
X80827523Y-118387600D01*
X80827523Y-118387600D02*
X80970380Y-118435219D01*
X80970380Y-118435219D02*
X81065618Y-118435219D01*
X81065618Y-118435219D02*
X81208475Y-118387600D01*
X81208475Y-118387600D02*
X81303713Y-118292361D01*
X81303713Y-118292361D02*
X81351332Y-118197123D01*
X81351332Y-118197123D02*
X81398951Y-118006647D01*
X81398951Y-118006647D02*
X81398951Y-117863790D01*
X81398951Y-117863790D02*
X81351332Y-117673314D01*
X81351332Y-117673314D02*
X81303713Y-117578076D01*
X81303713Y-117578076D02*
X81208475Y-117482838D01*
X81208475Y-117482838D02*
X81065618Y-117435219D01*
X81065618Y-117435219D02*
X80970380Y-117435219D01*
X80970380Y-117435219D02*
X80827523Y-117482838D01*
X80827523Y-117482838D02*
X80779904Y-117530457D01*
X80351332Y-118054266D02*
X79589428Y-118054266D01*
X78541809Y-118339980D02*
X78589428Y-118387600D01*
X78589428Y-118387600D02*
X78732285Y-118435219D01*
X78732285Y-118435219D02*
X78827523Y-118435219D01*
X78827523Y-118435219D02*
X78970380Y-118387600D01*
X78970380Y-118387600D02*
X79065618Y-118292361D01*
X79065618Y-118292361D02*
X79113237Y-118197123D01*
X79113237Y-118197123D02*
X79160856Y-118006647D01*
X79160856Y-118006647D02*
X79160856Y-117863790D01*
X79160856Y-117863790D02*
X79113237Y-117673314D01*
X79113237Y-117673314D02*
X79065618Y-117578076D01*
X79065618Y-117578076D02*
X78970380Y-117482838D01*
X78970380Y-117482838D02*
X78827523Y-117435219D01*
X78827523Y-117435219D02*
X78732285Y-117435219D01*
X78732285Y-117435219D02*
X78589428Y-117482838D01*
X78589428Y-117482838D02*
X78541809Y-117530457D01*
X77779904Y-117911409D02*
X78113237Y-117911409D01*
X78113237Y-118435219D02*
X78113237Y-117435219D01*
X78113237Y-117435219D02*
X77637047Y-117435219D01*
D12*
X74546000Y-120223000D02*
X74546000Y-120823000D01*
X75246000Y-121523000D02*
X76646000Y-121523000D01*
X76646000Y-119523000D02*
X75246000Y-119523000D01*
X77346000Y-120823000D02*
X77346000Y-120223000D01*
X74546000Y-120223000D02*
G75*
G02*
X75246000Y-119523000I699999J1D01*
G01*
X75246000Y-121523000D02*
G75*
G02*
X74546000Y-120823000I-1J699999D01*
G01*
X76646000Y-119523000D02*
G75*
G02*
X77346000Y-120223000I0J-700000D01*
G01*
X77346000Y-120823000D02*
G75*
G02*
X76646000Y-121523000I-700000J0D01*
G01*
X227649000Y-214630000D02*
G75*
G02*
X226249000Y-214630000I-700000J0D01*
G01*
X226249000Y-214630000D02*
G75*
G02*
X227649000Y-214630000I700000J0D01*
G01*
X263717000Y-40640000D02*
G75*
G02*
X262317000Y-40640000I-700000J0D01*
G01*
X262317000Y-40640000D02*
G75*
G02*
X263717000Y-40640000I700000J0D01*
G01*
X74546000Y-115143000D02*
X74546000Y-115743000D01*
X75246000Y-116443000D02*
X76646000Y-116443000D01*
X76646000Y-114443000D02*
X75246000Y-114443000D01*
X77346000Y-115743000D02*
X77346000Y-115143000D01*
X74546000Y-115143000D02*
G75*
G02*
X75246000Y-114443000I699999J1D01*
G01*
X75246000Y-116443000D02*
G75*
G02*
X74546000Y-115743000I-1J699999D01*
G01*
X76646000Y-114443000D02*
G75*
G02*
X77346000Y-115143000I0J-700000D01*
G01*
X77346000Y-115743000D02*
G75*
G02*
X76646000Y-116443000I-700000J0D01*
G01*
X53864000Y-187210000D02*
X53864000Y-190010000D01*
X53864000Y-190010000D02*
X55864000Y-190010000D01*
X55864000Y-187210000D02*
X53864000Y-187210000D01*
X55864000Y-190010000D02*
X55864000Y-187210000D01*
X230316000Y-218313000D02*
G75*
G02*
X228916000Y-218313000I-700000J0D01*
G01*
X228916000Y-218313000D02*
G75*
G02*
X230316000Y-218313000I700000J0D01*
G01*
X66360000Y-57470000D02*
X68260000Y-57470000D01*
X66360000Y-59370000D02*
X66360000Y-57470000D01*
X68260000Y-57470000D02*
X68260000Y-59370000D01*
X68260000Y-59370000D02*
X66360000Y-59370000D01*
X157873000Y-131207000D02*
X157873000Y-133207000D01*
X157873000Y-133207000D02*
X160673000Y-133207000D01*
X160673000Y-131207000D02*
X157873000Y-131207000D01*
X160673000Y-133207000D02*
X160673000Y-131207000D01*
X70169000Y-182118000D02*
G75*
G02*
X68769000Y-182118000I-700000J0D01*
G01*
X68769000Y-182118000D02*
G75*
G02*
X70169000Y-182118000I700000J0D01*
G01*
X61280000Y-60010000D02*
X63180000Y-60010000D01*
X61280000Y-61910000D02*
X61280000Y-60010000D01*
X63180000Y-60010000D02*
X63180000Y-61910000D01*
X63180000Y-61910000D02*
X61280000Y-61910000D01*
X48149000Y-187210000D02*
X48149000Y-190010000D01*
X48149000Y-190010000D02*
X50149000Y-190010000D01*
X50149000Y-187210000D02*
X48149000Y-187210000D01*
X50149000Y-190010000D02*
X50149000Y-187210000D01*
X74546000Y-127843000D02*
X74546000Y-128443000D01*
X75246000Y-129143000D02*
X76646000Y-129143000D01*
X76646000Y-127143000D02*
X75246000Y-127143000D01*
X77346000Y-128443000D02*
X77346000Y-127843000D01*
X74546000Y-127843000D02*
G75*
G02*
X75246000Y-127143000I699999J1D01*
G01*
X75246000Y-129143000D02*
G75*
G02*
X74546000Y-128443000I-1J699999D01*
G01*
X76646000Y-127143000D02*
G75*
G02*
X77346000Y-127843000I0J-700000D01*
G01*
X77346000Y-128443000D02*
G75*
G02*
X76646000Y-129143000I-700000J0D01*
G01*
X157873000Y-123587000D02*
X157873000Y-125587000D01*
X157873000Y-125587000D02*
X160673000Y-125587000D01*
X160673000Y-123587000D02*
X157873000Y-123587000D01*
X160673000Y-125587000D02*
X160673000Y-123587000D01*
X157843000Y-136287000D02*
X157843000Y-138287000D01*
X157843000Y-138287000D02*
X160643000Y-138287000D01*
X160643000Y-136287000D02*
X157843000Y-136287000D01*
X160643000Y-138287000D02*
X160643000Y-136287000D01*
X133586000Y-133620000D02*
X133586000Y-135620000D01*
X133586000Y-135620000D02*
X136386000Y-135620000D01*
X136386000Y-133620000D02*
X133586000Y-133620000D01*
X136386000Y-135620000D02*
X136386000Y-133620000D01*
X74546000Y-125303000D02*
X74546000Y-125903000D01*
X75246000Y-126603000D02*
X76646000Y-126603000D01*
X76646000Y-124603000D02*
X75246000Y-124603000D01*
X77346000Y-125903000D02*
X77346000Y-125303000D01*
X74546000Y-125303000D02*
G75*
G02*
X75246000Y-124603000I699999J1D01*
G01*
X75246000Y-126603000D02*
G75*
G02*
X74546000Y-125903000I-1J699999D01*
G01*
X76646000Y-124603000D02*
G75*
G02*
X77346000Y-125303000I0J-700000D01*
G01*
X77346000Y-125903000D02*
G75*
G02*
X76646000Y-126603000I-700000J0D01*
G01*
X61280000Y-52390000D02*
X63180000Y-52390000D01*
X61280000Y-54290000D02*
X61280000Y-52390000D01*
X63180000Y-52390000D02*
X63180000Y-54290000D01*
X63180000Y-54290000D02*
X61280000Y-54290000D01*
X74546000Y-110063000D02*
X74546000Y-110663000D01*
X75246000Y-111363000D02*
X76646000Y-111363000D01*
X76646000Y-109363000D02*
X75246000Y-109363000D01*
X77346000Y-110663000D02*
X77346000Y-110063000D01*
X74546000Y-110063000D02*
G75*
G02*
X75246000Y-109363000I699999J1D01*
G01*
X75246000Y-111363000D02*
G75*
G02*
X74546000Y-110663000I-1J699999D01*
G01*
X76646000Y-109363000D02*
G75*
G02*
X77346000Y-110063000I0J-700000D01*
G01*
X77346000Y-110663000D02*
G75*
G02*
X76646000Y-111363000I-700000J0D01*
G01*
X133601000Y-138700000D02*
X133601000Y-140700000D01*
X133601000Y-140700000D02*
X136401000Y-140700000D01*
X136401000Y-138700000D02*
X133601000Y-138700000D01*
X136401000Y-140700000D02*
X136401000Y-138700000D01*
X218505000Y-153670000D02*
G75*
G02*
X217105000Y-153670000I-700000J0D01*
G01*
X217105000Y-153670000D02*
G75*
G02*
X218505000Y-153670000I700000J0D01*
G01*
X130553000Y-144480000D02*
X130553000Y-145080000D01*
X131253000Y-145780000D02*
X132653000Y-145780000D01*
X132653000Y-143780000D02*
X131253000Y-143780000D01*
X133353000Y-145080000D02*
X133353000Y-144480000D01*
X130553000Y-144480000D02*
G75*
G02*
X131253000Y-143780000I699999J1D01*
G01*
X131253000Y-145780000D02*
G75*
G02*
X130553000Y-145080000I-1J699999D01*
G01*
X132653000Y-143780000D02*
G75*
G02*
X133353000Y-144480000I0J-700000D01*
G01*
X133353000Y-145080000D02*
G75*
G02*
X132653000Y-145780000I-700000J0D01*
G01*
X67629000Y-48768000D02*
G75*
G02*
X66229000Y-48768000I-700000J0D01*
G01*
X66229000Y-48768000D02*
G75*
G02*
X67629000Y-48768000I700000J0D01*
G01*
X51070000Y-187210000D02*
X51070000Y-190010000D01*
X51070000Y-190010000D02*
X53070000Y-190010000D01*
X53070000Y-187210000D02*
X51070000Y-187210000D01*
X53070000Y-190010000D02*
X53070000Y-187210000D01*
X74546000Y-112603000D02*
X74546000Y-113203000D01*
X75246000Y-113903000D02*
X76646000Y-113903000D01*
X76646000Y-111903000D02*
X75246000Y-111903000D01*
X77346000Y-113203000D02*
X77346000Y-112603000D01*
X74546000Y-112603000D02*
G75*
G02*
X75246000Y-111903000I699999J1D01*
G01*
X75246000Y-113903000D02*
G75*
G02*
X74546000Y-113203000I-1J699999D01*
G01*
X76646000Y-111903000D02*
G75*
G02*
X77346000Y-112603000I0J-700000D01*
G01*
X77346000Y-113203000D02*
G75*
G02*
X76646000Y-113903000I-700000J0D01*
G01*
X157873000Y-128667000D02*
X157873000Y-130667000D01*
X157873000Y-130667000D02*
X160673000Y-130667000D01*
X160673000Y-128667000D02*
X157873000Y-128667000D01*
X160673000Y-130667000D02*
X160673000Y-128667000D01*
X130553000Y-147020000D02*
X130553000Y-147620000D01*
X131253000Y-148320000D02*
X132653000Y-148320000D01*
X132653000Y-146320000D02*
X131253000Y-146320000D01*
X133353000Y-147620000D02*
X133353000Y-147020000D01*
X130553000Y-147020000D02*
G75*
G02*
X131253000Y-146320000I699999J1D01*
G01*
X131253000Y-148320000D02*
G75*
G02*
X130553000Y-147620000I-1J699999D01*
G01*
X132653000Y-146320000D02*
G75*
G02*
X133353000Y-147020000I0J-700000D01*
G01*
X133353000Y-147620000D02*
G75*
G02*
X132653000Y-148320000I-700000J0D01*
G01*
X74546000Y-122763000D02*
X74546000Y-123363000D01*
X75246000Y-124063000D02*
X76646000Y-124063000D01*
X76646000Y-122063000D02*
X75246000Y-122063000D01*
X77346000Y-123363000D02*
X77346000Y-122763000D01*
X74546000Y-122763000D02*
G75*
G02*
X75246000Y-122063000I699999J1D01*
G01*
X75246000Y-124063000D02*
G75*
G02*
X74546000Y-123363000I-1J699999D01*
G01*
X76646000Y-122063000D02*
G75*
G02*
X77346000Y-122763000I0J-700000D01*
G01*
X77346000Y-123363000D02*
G75*
G02*
X76646000Y-124063000I-700000J0D01*
G01*
X74546000Y-117683000D02*
X74546000Y-118283000D01*
X75246000Y-118983000D02*
X76646000Y-118983000D01*
X76646000Y-116983000D02*
X75246000Y-116983000D01*
X77346000Y-118283000D02*
X77346000Y-117683000D01*
X74546000Y-117683000D02*
G75*
G02*
X75246000Y-116983000I699999J1D01*
G01*
X75246000Y-118983000D02*
G75*
G02*
X74546000Y-118283000I-1J699999D01*
G01*
X76646000Y-116983000D02*
G75*
G02*
X77346000Y-117683000I0J-700000D01*
G01*
X77346000Y-118283000D02*
G75*
G02*
X76646000Y-118983000I-700000J0D01*
G01*
%LPC*%
G36*
X75796000Y-121273000D02*
G01*
X76096000Y-121273000D01*
X76096000Y-119773000D01*
X75796000Y-119773000D01*
X75796000Y-121273000D01*
G37*
G36*
X75796000Y-116193000D02*
G01*
X76096000Y-116193000D01*
X76096000Y-114693000D01*
X75796000Y-114693000D01*
X75796000Y-116193000D01*
G37*
G36*
X55614000Y-188760000D02*
G01*
X54114000Y-188760000D01*
X54114000Y-188460000D01*
X55614000Y-188460000D01*
X55614000Y-188760000D01*
G37*
G36*
X159123000Y-132957000D02*
G01*
X159423000Y-132957000D01*
X159423000Y-131457000D01*
X159123000Y-131457000D01*
X159123000Y-132957000D01*
G37*
G36*
X49899000Y-188760000D02*
G01*
X48399000Y-188760000D01*
X48399000Y-188460000D01*
X49899000Y-188460000D01*
X49899000Y-188760000D01*
G37*
G36*
X75796000Y-128893000D02*
G01*
X76096000Y-128893000D01*
X76096000Y-127393000D01*
X75796000Y-127393000D01*
X75796000Y-128893000D01*
G37*
G36*
X159123000Y-125337000D02*
G01*
X159423000Y-125337000D01*
X159423000Y-123837000D01*
X159123000Y-123837000D01*
X159123000Y-125337000D01*
G37*
G36*
X159093000Y-138037000D02*
G01*
X159393000Y-138037000D01*
X159393000Y-136537000D01*
X159093000Y-136537000D01*
X159093000Y-138037000D01*
G37*
G36*
X135136000Y-133870000D02*
G01*
X134836000Y-133870000D01*
X134836000Y-135370000D01*
X135136000Y-135370000D01*
X135136000Y-133870000D01*
G37*
G36*
X75796000Y-126353000D02*
G01*
X76096000Y-126353000D01*
X76096000Y-124853000D01*
X75796000Y-124853000D01*
X75796000Y-126353000D01*
G37*
G36*
X75796000Y-111113000D02*
G01*
X76096000Y-111113000D01*
X76096000Y-109613000D01*
X75796000Y-109613000D01*
X75796000Y-111113000D01*
G37*
G36*
X135151000Y-138950000D02*
G01*
X134851000Y-138950000D01*
X134851000Y-140450000D01*
X135151000Y-140450000D01*
X135151000Y-138950000D01*
G37*
G36*
X131803000Y-145530000D02*
G01*
X132103000Y-145530000D01*
X132103000Y-144030000D01*
X131803000Y-144030000D01*
X131803000Y-145530000D01*
G37*
G36*
X52820000Y-188760000D02*
G01*
X51320000Y-188760000D01*
X51320000Y-188460000D01*
X52820000Y-188460000D01*
X52820000Y-188760000D01*
G37*
G36*
X75796000Y-113653000D02*
G01*
X76096000Y-113653000D01*
X76096000Y-112153000D01*
X75796000Y-112153000D01*
X75796000Y-113653000D01*
G37*
G36*
X159123000Y-130417000D02*
G01*
X159423000Y-130417000D01*
X159423000Y-128917000D01*
X159123000Y-128917000D01*
X159123000Y-130417000D01*
G37*
G36*
X131803000Y-148070000D02*
G01*
X132103000Y-148070000D01*
X132103000Y-146570000D01*
X131803000Y-146570000D01*
X131803000Y-148070000D01*
G37*
G36*
X75796000Y-123813000D02*
G01*
X76096000Y-123813000D01*
X76096000Y-122313000D01*
X75796000Y-122313000D01*
X75796000Y-123813000D01*
G37*
G36*
X75796000Y-118733000D02*
G01*
X76096000Y-118733000D01*
X76096000Y-117233000D01*
X75796000Y-117233000D01*
X75796000Y-118733000D01*
G37*
D13*
X235331000Y-148396000D03*
D14*
X235331000Y-145856000D03*
D15*
X100076000Y-105410000D03*
X100076000Y-115570000D03*
D16*
X226187000Y-109280000D03*
D17*
X226187000Y-111820000D03*
X226187000Y-114360000D03*
X226187000Y-116900000D03*
D15*
X230759000Y-176530000D03*
X230759000Y-166370000D03*
D18*
X252476000Y-87122000D03*
D19*
X252476000Y-54122000D03*
D18*
X134239000Y-87102000D03*
D19*
X134239000Y-54102000D03*
D16*
X91440000Y-158750000D03*
D17*
X91440000Y-161290000D03*
X91440000Y-163830000D03*
X91440000Y-166370000D03*
X91440000Y-168910000D03*
X91440000Y-171450000D03*
X91440000Y-173990000D03*
X91440000Y-176530000D03*
X91440000Y-179070000D03*
X91440000Y-181610000D03*
X91440000Y-184150000D03*
X91440000Y-186690000D03*
D20*
X50800000Y-60960000D03*
X50800000Y-55960000D03*
D15*
X33020000Y-74930000D03*
X43180000Y-74930000D03*
D16*
X254000000Y-175260000D03*
D17*
X254000000Y-172720000D03*
X254000000Y-170180000D03*
X254000000Y-167640000D03*
D15*
X82550000Y-164572000D03*
X82550000Y-162072000D03*
D14*
X230886000Y-145856000D03*
D13*
X230886000Y-148396000D03*
D16*
X115316000Y-97790000D03*
D17*
X115316000Y-100330000D03*
X115316000Y-102870000D03*
X115316000Y-105410000D03*
X115316000Y-107950000D03*
X115316000Y-110490000D03*
X115316000Y-113030000D03*
X115316000Y-115570000D03*
D18*
X175514000Y-87102000D03*
D19*
X175514000Y-54102000D03*
D16*
X254127000Y-142300000D03*
D17*
X254127000Y-139760000D03*
X254127000Y-137220000D03*
X254127000Y-134680000D03*
D21*
X103632000Y-97790000D03*
D22*
X103632000Y-100330000D03*
X103632000Y-102870000D03*
X103632000Y-105410000D03*
X103632000Y-107950000D03*
X103632000Y-110490000D03*
X103632000Y-113030000D03*
X103632000Y-115570000D03*
X111252000Y-115570000D03*
X111252000Y-113030000D03*
X111252000Y-110490000D03*
X111252000Y-107950000D03*
X111252000Y-105410000D03*
X111252000Y-102870000D03*
X111252000Y-100330000D03*
X111252000Y-97790000D03*
D15*
X235204000Y-176530000D03*
X235204000Y-166370000D03*
D16*
X226060000Y-165100000D03*
D17*
X226060000Y-167640000D03*
X226060000Y-170180000D03*
X226060000Y-172720000D03*
D15*
X91948000Y-42164000D03*
X81788000Y-42164000D03*
X54610000Y-38100000D03*
X54610000Y-40600000D03*
D23*
X41910000Y-215900000D03*
D16*
X177800000Y-179070000D03*
D17*
X177800000Y-181610000D03*
X177800000Y-184150000D03*
X177800000Y-186690000D03*
X177800000Y-189230000D03*
X177800000Y-191770000D03*
X177800000Y-194310000D03*
X177800000Y-196850000D03*
X177800000Y-199390000D03*
X177800000Y-201930000D03*
X177800000Y-204470000D03*
X177800000Y-207010000D03*
D16*
X118999000Y-119380000D03*
D17*
X121539000Y-119380000D03*
X118999000Y-121920000D03*
X121539000Y-121920000D03*
X118999000Y-124460000D03*
X121539000Y-124460000D03*
X118999000Y-127000000D03*
X121539000Y-127000000D03*
X118999000Y-129540000D03*
X121539000Y-129540000D03*
X118999000Y-132080000D03*
X121539000Y-132080000D03*
X118999000Y-134620000D03*
X121539000Y-134620000D03*
X118999000Y-137160000D03*
X121539000Y-137160000D03*
X118999000Y-139700000D03*
X121539000Y-139700000D03*
X118999000Y-142240000D03*
X121539000Y-142240000D03*
X118999000Y-144780000D03*
X121539000Y-144780000D03*
X118999000Y-147320000D03*
X121539000Y-147320000D03*
D19*
X191897000Y-158750000D03*
D22*
X191897000Y-161290000D03*
X191897000Y-163830000D03*
X191897000Y-166370000D03*
X191897000Y-168910000D03*
X191897000Y-171450000D03*
X191897000Y-173990000D03*
X191897000Y-176530000D03*
X191897000Y-179070000D03*
X191897000Y-181610000D03*
X191897000Y-184150000D03*
X191897000Y-186690000D03*
X191897000Y-189230000D03*
X191897000Y-191770000D03*
X191897000Y-194310000D03*
X191897000Y-196850000D03*
X191897000Y-199390000D03*
X191897000Y-201930000D03*
X191897000Y-204470000D03*
X191897000Y-207010000D03*
X207137000Y-207010000D03*
X207137000Y-204470000D03*
X207137000Y-201930000D03*
X207137000Y-199390000D03*
X207137000Y-196850000D03*
X207137000Y-194310000D03*
X207137000Y-191770000D03*
X207137000Y-189230000D03*
X207137000Y-186690000D03*
X207137000Y-184150000D03*
X207137000Y-181610000D03*
X207137000Y-179070000D03*
X207137000Y-176530000D03*
X207137000Y-173990000D03*
X207137000Y-171450000D03*
X207137000Y-168910000D03*
X207137000Y-166370000D03*
X207137000Y-163830000D03*
X207137000Y-161290000D03*
X207137000Y-158750000D03*
D14*
X239776000Y-122996000D03*
D13*
X239776000Y-125536000D03*
D18*
X92750000Y-87102000D03*
D19*
X92750000Y-54102000D03*
D14*
X230759000Y-178816000D03*
D13*
X230759000Y-181356000D03*
D16*
X217805000Y-129540000D03*
D17*
X217805000Y-132080000D03*
X217805000Y-134620000D03*
X217805000Y-137160000D03*
X217805000Y-139700000D03*
X217805000Y-142240000D03*
X217805000Y-144780000D03*
X217805000Y-147320000D03*
D24*
X62312500Y-38100000D03*
X67312500Y-38100000D03*
D15*
X62230000Y-162072000D03*
X62230000Y-164572000D03*
D24*
X69850000Y-161798000D03*
X74850000Y-161798000D03*
D21*
X44450000Y-128143000D03*
D22*
X44450000Y-130683000D03*
X44450000Y-133223000D03*
X44450000Y-135763000D03*
X44450000Y-138303000D03*
X44450000Y-140843000D03*
X44450000Y-143383000D03*
X52070000Y-143383000D03*
X52070000Y-140843000D03*
X52070000Y-138303000D03*
X52070000Y-135763000D03*
X52070000Y-133223000D03*
X52070000Y-130683000D03*
X52070000Y-128143000D03*
D15*
X230886000Y-120710000D03*
X230886000Y-110550000D03*
D19*
X257810000Y-87122000D03*
D22*
X257810000Y-84582000D03*
X257810000Y-82042000D03*
X257810000Y-79502000D03*
X257810000Y-76962000D03*
X257810000Y-74422000D03*
X257810000Y-71882000D03*
X257810000Y-69342000D03*
X257810000Y-66802000D03*
X257810000Y-64262000D03*
X257810000Y-61722000D03*
X257810000Y-59182000D03*
X257810000Y-56642000D03*
X257810000Y-54102000D03*
X242570000Y-54102000D03*
X242570000Y-56642000D03*
X242570000Y-59182000D03*
X242570000Y-61722000D03*
X242570000Y-64262000D03*
X242570000Y-66802000D03*
X242570000Y-69342000D03*
X242570000Y-71882000D03*
X242570000Y-74422000D03*
X242570000Y-76962000D03*
X242570000Y-79502000D03*
X242570000Y-82042000D03*
X242570000Y-84582000D03*
X242570000Y-87122000D03*
D20*
X101426000Y-122428000D03*
X106426000Y-122428000D03*
X197057000Y-212090000D03*
X202057000Y-212090000D03*
D25*
X185801000Y-106680000D03*
D19*
X185801000Y-139680000D03*
D21*
X64008000Y-110363000D03*
D22*
X64008000Y-112903000D03*
X64008000Y-115443000D03*
X64008000Y-117983000D03*
X64008000Y-120523000D03*
X64008000Y-123063000D03*
X64008000Y-125603000D03*
X64008000Y-128143000D03*
X71628000Y-128143000D03*
X71628000Y-125603000D03*
X71628000Y-123063000D03*
X71628000Y-120523000D03*
X71628000Y-117983000D03*
X71628000Y-115443000D03*
X71628000Y-112903000D03*
X71628000Y-110363000D03*
D19*
X180848000Y-87122000D03*
D22*
X180848000Y-84582000D03*
X180848000Y-82042000D03*
X180848000Y-79502000D03*
X180848000Y-76962000D03*
X180848000Y-74422000D03*
X180848000Y-71882000D03*
X180848000Y-69342000D03*
X180848000Y-66802000D03*
X180848000Y-64262000D03*
X180848000Y-61722000D03*
X180848000Y-59182000D03*
X180848000Y-56642000D03*
X180848000Y-54102000D03*
X165608000Y-54102000D03*
X165608000Y-56642000D03*
X165608000Y-59182000D03*
X165608000Y-61722000D03*
X165608000Y-64262000D03*
X165608000Y-66802000D03*
X165608000Y-69342000D03*
X165608000Y-71882000D03*
X165608000Y-74422000D03*
X165608000Y-76962000D03*
X165608000Y-79502000D03*
X165608000Y-82042000D03*
X165608000Y-84582000D03*
X165608000Y-87122000D03*
D20*
X113428175Y-212090000D03*
X118428175Y-212090000D03*
X154258000Y-212090000D03*
X159258000Y-212090000D03*
D19*
X207264000Y-137160000D03*
D22*
X207264000Y-134620000D03*
X207264000Y-132080000D03*
X207264000Y-129540000D03*
X207264000Y-127000000D03*
X207264000Y-124460000D03*
X207264000Y-121920000D03*
X207264000Y-119380000D03*
X207264000Y-116840000D03*
X207264000Y-114300000D03*
X207264000Y-111760000D03*
X207264000Y-109220000D03*
X192024000Y-109220000D03*
X192024000Y-111760000D03*
X192024000Y-114300000D03*
X192024000Y-116840000D03*
X192024000Y-119380000D03*
X192024000Y-121920000D03*
X192024000Y-124460000D03*
X192024000Y-127000000D03*
X192024000Y-129540000D03*
X192024000Y-132080000D03*
X192024000Y-134620000D03*
X192024000Y-137160000D03*
D15*
X239776000Y-110550000D03*
X239776000Y-120710000D03*
D14*
X230886000Y-122996000D03*
D13*
X230886000Y-125536000D03*
D15*
X239395000Y-97409000D03*
X239395000Y-87249000D03*
D14*
X239776000Y-145856000D03*
D13*
X239776000Y-148396000D03*
D21*
X88011000Y-110363000D03*
D22*
X88011000Y-112903000D03*
X88011000Y-115443000D03*
X88011000Y-117983000D03*
X88011000Y-120523000D03*
X88011000Y-123063000D03*
X88011000Y-125603000D03*
X88011000Y-128143000D03*
X95631000Y-128143000D03*
X95631000Y-125603000D03*
X95631000Y-123063000D03*
X95631000Y-120523000D03*
X95631000Y-117983000D03*
X95631000Y-115443000D03*
X95631000Y-112903000D03*
X95631000Y-110363000D03*
D25*
X158924000Y-106680000D03*
D19*
X158924000Y-139680000D03*
D16*
X125984000Y-119380000D03*
D17*
X128524000Y-119380000D03*
X125984000Y-121920000D03*
X128524000Y-121920000D03*
X125984000Y-124460000D03*
X128524000Y-124460000D03*
X125984000Y-127000000D03*
X128524000Y-127000000D03*
X125984000Y-129540000D03*
X128524000Y-129540000D03*
X125984000Y-132080000D03*
X128524000Y-132080000D03*
X125984000Y-134620000D03*
X128524000Y-134620000D03*
X125984000Y-137160000D03*
X128524000Y-137160000D03*
X125984000Y-139700000D03*
X128524000Y-139700000D03*
X125984000Y-142240000D03*
X128524000Y-142240000D03*
X125984000Y-144780000D03*
X128524000Y-144780000D03*
X125984000Y-147320000D03*
X128524000Y-147320000D03*
D26*
X114173000Y-147320000D03*
D22*
X114173000Y-144780000D03*
X114173000Y-142240000D03*
X114173000Y-139700000D03*
X114173000Y-137160000D03*
X114173000Y-134620000D03*
X114173000Y-132080000D03*
X114173000Y-129540000D03*
X106553000Y-129540000D03*
X106553000Y-132080000D03*
X106553000Y-134620000D03*
X106553000Y-137160000D03*
X106553000Y-139700000D03*
X106553000Y-142240000D03*
X106553000Y-144780000D03*
X106553000Y-147320000D03*
D21*
X44450000Y-105283000D03*
D22*
X44450000Y-107823000D03*
X44450000Y-110363000D03*
X44450000Y-112903000D03*
X44450000Y-115443000D03*
X44450000Y-117983000D03*
X44450000Y-120523000D03*
X44450000Y-123063000D03*
X52070000Y-123063000D03*
X52070000Y-120523000D03*
X52070000Y-117983000D03*
X52070000Y-115443000D03*
X52070000Y-112903000D03*
X52070000Y-110363000D03*
X52070000Y-107823000D03*
X52070000Y-105283000D03*
D26*
X154559000Y-139700000D03*
D22*
X154559000Y-137160000D03*
X154559000Y-134620000D03*
X154559000Y-132080000D03*
X154559000Y-129540000D03*
X154559000Y-127000000D03*
X154559000Y-124460000D03*
X154559000Y-121920000D03*
X154559000Y-119380000D03*
X154559000Y-116840000D03*
X154559000Y-114300000D03*
X154559000Y-111760000D03*
X154559000Y-109220000D03*
X154559000Y-106680000D03*
X139319000Y-106680000D03*
X139319000Y-109220000D03*
X139319000Y-111760000D03*
X139319000Y-114300000D03*
X139319000Y-116840000D03*
X139319000Y-119380000D03*
X139319000Y-121920000D03*
X139319000Y-124460000D03*
X139319000Y-127000000D03*
X139319000Y-129540000D03*
X139319000Y-132080000D03*
X139319000Y-134620000D03*
X139319000Y-137160000D03*
X139319000Y-139700000D03*
D15*
X247777000Y-118043000D03*
X247777000Y-125543000D03*
X84582000Y-117983000D03*
X84582000Y-128143000D03*
D16*
X92075000Y-103124000D03*
D19*
X118745000Y-87122000D03*
D22*
X118745000Y-84582000D03*
X118745000Y-82042000D03*
X118745000Y-79502000D03*
X118745000Y-76962000D03*
X118745000Y-74422000D03*
X118745000Y-71882000D03*
X118745000Y-69342000D03*
X118745000Y-66802000D03*
X118745000Y-64262000D03*
X118745000Y-61722000D03*
X118745000Y-59182000D03*
X118745000Y-56642000D03*
X118745000Y-54102000D03*
X103505000Y-54102000D03*
X103505000Y-56642000D03*
X103505000Y-59182000D03*
X103505000Y-61722000D03*
X103505000Y-64262000D03*
X103505000Y-66802000D03*
X103505000Y-69342000D03*
X103505000Y-71882000D03*
X103505000Y-74422000D03*
X103505000Y-76962000D03*
X103505000Y-79502000D03*
X103505000Y-82042000D03*
X103505000Y-84582000D03*
X103505000Y-87122000D03*
D27*
X227330000Y-87122000D03*
D28*
X227330000Y-84582000D03*
X227330000Y-82042000D03*
X227330000Y-79502000D03*
X227330000Y-76962000D03*
X227330000Y-74422000D03*
X227330000Y-71882000D03*
X227330000Y-69342000D03*
X227330000Y-66802000D03*
X227330000Y-64262000D03*
X227330000Y-61722000D03*
X227330000Y-59182000D03*
X227330000Y-56642000D03*
X227330000Y-54102000D03*
X212090000Y-54102000D03*
X212090000Y-56642000D03*
X212090000Y-59182000D03*
X212090000Y-61722000D03*
X212090000Y-64262000D03*
X212090000Y-66802000D03*
X212090000Y-69342000D03*
X212090000Y-71882000D03*
X212090000Y-74422000D03*
X212090000Y-76962000D03*
X212090000Y-79502000D03*
X212090000Y-82042000D03*
X212090000Y-84582000D03*
X212090000Y-87122000D03*
D29*
X82296000Y-145923000D03*
D15*
X97536000Y-145923000D03*
X97536000Y-138303000D03*
X82296000Y-138303000D03*
D18*
X155067000Y-87122000D03*
D19*
X155067000Y-54122000D03*
X182245000Y-137160000D03*
D22*
X182245000Y-134620000D03*
X182245000Y-132080000D03*
X182245000Y-129540000D03*
X182245000Y-127000000D03*
X182245000Y-124460000D03*
X182245000Y-121920000D03*
X182245000Y-119380000D03*
X182245000Y-116840000D03*
X182245000Y-114300000D03*
X182245000Y-111760000D03*
X182245000Y-109220000D03*
X167005000Y-109220000D03*
X167005000Y-111760000D03*
X167005000Y-114300000D03*
X167005000Y-116840000D03*
X167005000Y-119380000D03*
X167005000Y-121920000D03*
X167005000Y-124460000D03*
X167005000Y-127000000D03*
X167005000Y-129540000D03*
X167005000Y-132080000D03*
X167005000Y-134620000D03*
X167005000Y-137160000D03*
D19*
X108458000Y-158750000D03*
D22*
X108458000Y-161290000D03*
X108458000Y-163830000D03*
X108458000Y-166370000D03*
X108458000Y-168910000D03*
X108458000Y-171450000D03*
X108458000Y-173990000D03*
X108458000Y-176530000D03*
X108458000Y-179070000D03*
X108458000Y-181610000D03*
X108458000Y-184150000D03*
X108458000Y-186690000D03*
X108458000Y-189230000D03*
X108458000Y-191770000D03*
X108458000Y-194310000D03*
X108458000Y-196850000D03*
X108458000Y-199390000D03*
X108458000Y-201930000D03*
X108458000Y-204470000D03*
X108458000Y-207010000D03*
X123698000Y-207010000D03*
X123698000Y-204470000D03*
X123698000Y-201930000D03*
X123698000Y-199390000D03*
X123698000Y-196850000D03*
X123698000Y-194310000D03*
X123698000Y-191770000D03*
X123698000Y-189230000D03*
X123698000Y-186690000D03*
X123698000Y-184150000D03*
X123698000Y-181610000D03*
X123698000Y-179070000D03*
X123698000Y-176530000D03*
X123698000Y-173990000D03*
X123698000Y-171450000D03*
X123698000Y-168910000D03*
X123698000Y-166370000D03*
X123698000Y-163830000D03*
X123698000Y-161290000D03*
X123698000Y-158750000D03*
D30*
X248920000Y-40640000D03*
D31*
X248920000Y-45720000D03*
D15*
X235331000Y-120710000D03*
X235331000Y-110550000D03*
X239776000Y-133410000D03*
X239776000Y-143570000D03*
D16*
X134874000Y-147320000D03*
D17*
X134874000Y-144780000D03*
D15*
X247777000Y-140903000D03*
X247777000Y-148403000D03*
X33020000Y-57040000D03*
X43180000Y-57040000D03*
D25*
X210820000Y-106700000D03*
D19*
X210820000Y-139700000D03*
D16*
X131064000Y-158750000D03*
D17*
X131064000Y-161290000D03*
X131064000Y-163830000D03*
X131064000Y-166370000D03*
X131064000Y-168910000D03*
X131064000Y-171450000D03*
X131064000Y-173990000D03*
X131064000Y-176530000D03*
X131064000Y-179070000D03*
X131064000Y-181610000D03*
X131064000Y-184150000D03*
X131064000Y-186690000D03*
D15*
X247650000Y-173856000D03*
X247650000Y-181356000D03*
X244602000Y-140903000D03*
X244602000Y-148403000D03*
D19*
X139573000Y-87122000D03*
D22*
X139573000Y-84582000D03*
X139573000Y-82042000D03*
X139573000Y-79502000D03*
X139573000Y-76962000D03*
X139573000Y-74422000D03*
X139573000Y-71882000D03*
X139573000Y-69342000D03*
X139573000Y-66802000D03*
X139573000Y-64262000D03*
X139573000Y-61722000D03*
X139573000Y-59182000D03*
X139573000Y-56642000D03*
X139573000Y-54102000D03*
X124333000Y-54102000D03*
X124333000Y-56642000D03*
X124333000Y-59182000D03*
X124333000Y-61722000D03*
X124333000Y-64262000D03*
X124333000Y-66802000D03*
X124333000Y-69342000D03*
X124333000Y-71882000D03*
X124333000Y-74422000D03*
X124333000Y-76962000D03*
X124333000Y-79502000D03*
X124333000Y-82042000D03*
X124333000Y-84582000D03*
X124333000Y-87122000D03*
D20*
X58420000Y-130603000D03*
X58420000Y-125603000D03*
D19*
X160274000Y-87122000D03*
D22*
X160274000Y-84582000D03*
X160274000Y-82042000D03*
X160274000Y-79502000D03*
X160274000Y-76962000D03*
X160274000Y-74422000D03*
X160274000Y-71882000D03*
X160274000Y-69342000D03*
X160274000Y-66802000D03*
X160274000Y-64262000D03*
X160274000Y-61722000D03*
X160274000Y-59182000D03*
X160274000Y-56642000D03*
X160274000Y-54102000D03*
X145034000Y-54102000D03*
X145034000Y-56642000D03*
X145034000Y-59182000D03*
X145034000Y-61722000D03*
X145034000Y-64262000D03*
X145034000Y-66802000D03*
X145034000Y-69342000D03*
X145034000Y-71882000D03*
X145034000Y-74422000D03*
X145034000Y-76962000D03*
X145034000Y-79502000D03*
X145034000Y-82042000D03*
X145034000Y-84582000D03*
X145034000Y-87122000D03*
D19*
X97663000Y-87122000D03*
D22*
X97663000Y-84582000D03*
X97663000Y-82042000D03*
X97663000Y-79502000D03*
X97663000Y-76962000D03*
X97663000Y-74422000D03*
X97663000Y-71882000D03*
X97663000Y-69342000D03*
X97663000Y-66802000D03*
X97663000Y-64262000D03*
X97663000Y-61722000D03*
X97663000Y-59182000D03*
X97663000Y-56642000D03*
X97663000Y-54102000D03*
X82423000Y-54102000D03*
X82423000Y-56642000D03*
X82423000Y-59182000D03*
X82423000Y-61722000D03*
X82423000Y-64262000D03*
X82423000Y-66802000D03*
X82423000Y-69342000D03*
X82423000Y-71882000D03*
X82423000Y-74422000D03*
X82423000Y-76962000D03*
X82423000Y-79502000D03*
X82423000Y-82042000D03*
X82423000Y-84582000D03*
X82423000Y-87122000D03*
D18*
X233299000Y-87102000D03*
D19*
X233299000Y-54102000D03*
D16*
X171323000Y-158750000D03*
D17*
X171323000Y-161290000D03*
X171323000Y-163830000D03*
X171323000Y-166370000D03*
X171323000Y-168910000D03*
X171323000Y-171450000D03*
X171323000Y-173990000D03*
X171323000Y-176530000D03*
X171323000Y-179070000D03*
X171323000Y-181610000D03*
X171323000Y-184150000D03*
X171323000Y-186690000D03*
D18*
X113538000Y-87102000D03*
D19*
X113538000Y-54102000D03*
D14*
X235331000Y-122996000D03*
D13*
X235331000Y-125536000D03*
D16*
X217805000Y-166370000D03*
D17*
X217805000Y-168910000D03*
X217805000Y-171450000D03*
X217805000Y-173990000D03*
X217805000Y-176530000D03*
X217805000Y-179070000D03*
X217805000Y-181610000D03*
X217805000Y-184150000D03*
X217805000Y-186690000D03*
X217805000Y-189230000D03*
X217805000Y-191770000D03*
X217805000Y-194310000D03*
X217805000Y-196850000D03*
X217805000Y-199390000D03*
X217805000Y-201930000D03*
X217805000Y-204470000D03*
X217805000Y-207010000D03*
D32*
X64643000Y-168910000D03*
D15*
X64643000Y-171450000D03*
X64643000Y-173990000D03*
X64643000Y-176530000D03*
X64643000Y-179070000D03*
X64643000Y-181610000D03*
X64643000Y-184150000D03*
X64643000Y-186690000D03*
X64643000Y-189230000D03*
X64643000Y-191770000D03*
X64643000Y-194310000D03*
X64643000Y-196850000D03*
X64643000Y-199390000D03*
X64643000Y-201930000D03*
X79883000Y-201930000D03*
X79883000Y-199390000D03*
X79883000Y-196850000D03*
X79883000Y-194310000D03*
X79883000Y-191770000D03*
X79883000Y-189230000D03*
X79883000Y-186690000D03*
X79883000Y-184150000D03*
X79883000Y-181610000D03*
X79883000Y-179070000D03*
X79883000Y-176530000D03*
X79883000Y-173990000D03*
X79883000Y-171450000D03*
X79883000Y-168910000D03*
D19*
X202565000Y-87122000D03*
D22*
X202565000Y-84582000D03*
X202565000Y-82042000D03*
X202565000Y-79502000D03*
X202565000Y-76962000D03*
X202565000Y-74422000D03*
X202565000Y-71882000D03*
X202565000Y-69342000D03*
X202565000Y-66802000D03*
X202565000Y-64262000D03*
X202565000Y-61722000D03*
X202565000Y-59182000D03*
X202565000Y-56642000D03*
X202565000Y-54102000D03*
X187325000Y-54102000D03*
X187325000Y-56642000D03*
X187325000Y-59182000D03*
X187325000Y-61722000D03*
X187325000Y-64262000D03*
X187325000Y-66802000D03*
X187325000Y-69342000D03*
X187325000Y-71882000D03*
X187325000Y-74422000D03*
X187325000Y-76962000D03*
X187325000Y-79502000D03*
X187325000Y-82042000D03*
X187325000Y-84582000D03*
X187325000Y-87122000D03*
D23*
X30734000Y-219710000D03*
D16*
X226187000Y-132140000D03*
D17*
X226187000Y-134680000D03*
X226187000Y-137220000D03*
X226187000Y-139760000D03*
D15*
X33020000Y-69850000D03*
X43180000Y-69850000D03*
D29*
X58420000Y-146050000D03*
D15*
X73660000Y-146050000D03*
X73660000Y-138430000D03*
X58420000Y-138430000D03*
D33*
X43180000Y-50800000D03*
D23*
X43180000Y-32800000D03*
D15*
X244602000Y-118043000D03*
X244602000Y-125543000D03*
D16*
X217805000Y-106680000D03*
D17*
X217805000Y-109220000D03*
X217805000Y-111760000D03*
X217805000Y-114300000D03*
X217805000Y-116840000D03*
X217805000Y-119380000D03*
X217805000Y-121920000D03*
X217805000Y-124460000D03*
D14*
X235204000Y-178816000D03*
D13*
X235204000Y-181356000D03*
D15*
X33020000Y-64660000D03*
X43180000Y-64660000D03*
D16*
X254127000Y-119440000D03*
D17*
X254127000Y-116900000D03*
X254127000Y-114360000D03*
X254127000Y-111820000D03*
D15*
X239649000Y-166370000D03*
X239649000Y-176530000D03*
D14*
X239649000Y-178816000D03*
D13*
X239649000Y-181356000D03*
D16*
X97536000Y-179070000D03*
D17*
X97536000Y-181610000D03*
X97536000Y-184150000D03*
X97536000Y-186690000D03*
X97536000Y-189230000D03*
X97536000Y-191770000D03*
X97536000Y-194310000D03*
X97536000Y-196850000D03*
X97536000Y-199390000D03*
X97536000Y-201930000D03*
X97536000Y-204470000D03*
X97536000Y-207010000D03*
D15*
X74930000Y-40600000D03*
X74930000Y-38100000D03*
D34*
X35565000Y-32905000D03*
D35*
X35565000Y-39405000D03*
D19*
X149098000Y-158750000D03*
D22*
X149098000Y-161290000D03*
X149098000Y-163830000D03*
X149098000Y-166370000D03*
X149098000Y-168910000D03*
X149098000Y-171450000D03*
X149098000Y-173990000D03*
X149098000Y-176530000D03*
X149098000Y-179070000D03*
X149098000Y-181610000D03*
X149098000Y-184150000D03*
X149098000Y-186690000D03*
X149098000Y-189230000D03*
X149098000Y-191770000D03*
X149098000Y-194310000D03*
X149098000Y-196850000D03*
X149098000Y-199390000D03*
X149098000Y-201930000D03*
X149098000Y-204470000D03*
X149098000Y-207010000D03*
X164338000Y-207010000D03*
X164338000Y-204470000D03*
X164338000Y-201930000D03*
X164338000Y-199390000D03*
X164338000Y-196850000D03*
X164338000Y-194310000D03*
X164338000Y-191770000D03*
X164338000Y-189230000D03*
X164338000Y-186690000D03*
X164338000Y-184150000D03*
X164338000Y-181610000D03*
X164338000Y-179070000D03*
X164338000Y-176530000D03*
X164338000Y-173990000D03*
X164338000Y-171450000D03*
X164338000Y-168910000D03*
X164338000Y-166370000D03*
X164338000Y-163830000D03*
X164338000Y-161290000D03*
X164338000Y-158750000D03*
D16*
X137414000Y-179070000D03*
D17*
X137414000Y-181610000D03*
X137414000Y-184150000D03*
X137414000Y-186690000D03*
X137414000Y-189230000D03*
X137414000Y-191770000D03*
X137414000Y-194310000D03*
X137414000Y-196850000D03*
X137414000Y-199390000D03*
X137414000Y-201930000D03*
X137414000Y-204470000D03*
X137414000Y-207010000D03*
D16*
X58420000Y-184150000D03*
D17*
X58420000Y-186690000D03*
X58420000Y-189230000D03*
X58420000Y-191770000D03*
X58420000Y-194310000D03*
X58420000Y-196850000D03*
X58420000Y-199390000D03*
X58420000Y-201930000D03*
X58420000Y-204470000D03*
X58420000Y-207010000D03*
D18*
X197144000Y-87112000D03*
D19*
X197144000Y-54112000D03*
D15*
X235331000Y-143570000D03*
X235331000Y-133410000D03*
X230886000Y-143570000D03*
X230886000Y-133410000D03*
D20*
X74890000Y-209550000D03*
X69890000Y-209550000D03*
D21*
X57155000Y-45720000D03*
D22*
X57155000Y-48260000D03*
X57155000Y-50800000D03*
X57155000Y-53340000D03*
X57155000Y-55880000D03*
X57155000Y-58420000D03*
X57155000Y-60960000D03*
X57155000Y-63500000D03*
X57155000Y-66040000D03*
X57155000Y-68580000D03*
X57155000Y-71120000D03*
X57155000Y-73660000D03*
X57155000Y-76200000D03*
X57155000Y-78740000D03*
X57155000Y-81280000D03*
X57155000Y-83820000D03*
X57155000Y-86360000D03*
X57155000Y-88900000D03*
X57155000Y-91440000D03*
X57155000Y-93980000D03*
X72395000Y-93980000D03*
X72395000Y-91440000D03*
X72395000Y-88900000D03*
X72395000Y-86360000D03*
X72395000Y-83820000D03*
X72395000Y-81280000D03*
X72395000Y-78740000D03*
X72395000Y-76200000D03*
X72395000Y-73660000D03*
X72395000Y-71120000D03*
X72395000Y-68580000D03*
X72395000Y-66040000D03*
X72395000Y-63500000D03*
X72395000Y-60960000D03*
X72395000Y-58420000D03*
X72395000Y-55880000D03*
X72395000Y-53340000D03*
X72395000Y-50800000D03*
X72395000Y-48260000D03*
X72395000Y-45720000D03*
D15*
X244475000Y-173856000D03*
X244475000Y-181356000D03*
D16*
X134874000Y-129413000D03*
D17*
X132334000Y-129413000D03*
X134874000Y-126873000D03*
X132334000Y-126873000D03*
X134874000Y-124333000D03*
X132334000Y-124333000D03*
D15*
X236347000Y-97392000D03*
D36*
X236347000Y-87232000D03*
D37*
X75296000Y-120523000D03*
D38*
X76596000Y-120523000D03*
D39*
X226949000Y-214630000D03*
X263017000Y-40640000D03*
D37*
X75296000Y-115443000D03*
D38*
X76596000Y-115443000D03*
D40*
X54864000Y-189260000D03*
X54864000Y-187960000D03*
D39*
X229616000Y-218313000D03*
D41*
X67310000Y-58420000D03*
D42*
X158623000Y-132207000D03*
X159923000Y-132207000D03*
D39*
X69469000Y-182118000D03*
D41*
X62230000Y-60960000D03*
D40*
X49149000Y-189260000D03*
X49149000Y-187960000D03*
D37*
X75296000Y-128143000D03*
D38*
X76596000Y-128143000D03*
D42*
X158623000Y-124587000D03*
X159923000Y-124587000D03*
X158593000Y-137287000D03*
X159893000Y-137287000D03*
X135636000Y-134620000D03*
X134336000Y-134620000D03*
D37*
X75296000Y-125603000D03*
D38*
X76596000Y-125603000D03*
D41*
X62230000Y-53340000D03*
D37*
X75296000Y-110363000D03*
D38*
X76596000Y-110363000D03*
D42*
X135651000Y-139700000D03*
X134351000Y-139700000D03*
D39*
X217805000Y-153670000D03*
D37*
X131303000Y-144780000D03*
D38*
X132603000Y-144780000D03*
D39*
X66929000Y-48768000D03*
D40*
X52070000Y-189260000D03*
X52070000Y-187960000D03*
D37*
X75296000Y-112903000D03*
D38*
X76596000Y-112903000D03*
D42*
X158623000Y-129667000D03*
X159923000Y-129667000D03*
D37*
X131303000Y-147320000D03*
D38*
X132603000Y-147320000D03*
D37*
X75296000Y-123063000D03*
D38*
X76596000Y-123063000D03*
D37*
X75296000Y-117983000D03*
D38*
X76596000Y-117983000D03*
%LPD*%
M02*
