<svg version="1.1" xmlns="http://www.w3.org/2000/svg" xmlns:xlink="http://www.w3.org/1999/xlink" stroke-linecap="round" stroke-linejoin="round" stroke-width="0" fill-rule="evenodd" width="250.08679999999998mm" height="204.9623mm" viewBox="25350 -230312.3 250086.8 204962.3" id="puJAmYN1Hf7NXIQ22HgW"><g transform="translate(0,-255662.3) scale(1,-1)" fill="currentColor" stroke="currentColor"><path d="M 25400 -25400 275386.8 -25400 275386.8 -226380.8 25400 -226380.8 25400 -25400" fill="none" stroke-width="100"/><path d="M 27957.77 -229545.64 27957.77 -227545.64 28433.96 -227545.64 28719.67 -227640.88 28910.15 -227831.35 29005.39 -228021.83 29100.62 -228402.78 29100.62 -228688.49 29005.39 -229069.45 28910.15 -229259.92 28719.67 -229450.4 28433.96 -229545.64 27957.77 -229545.64 M 29957.77 -229545.64 29957.77 -228212.3 M 29957.77 -228593.26 30053.01 -228402.78 30148.24 -228307.54 30338.72 -228212.3 30529.2 -228212.3 M 31195.86 -229545.64 31195.86 -228212.3 M 31195.86 -227545.64 31100.62 -227640.88 31195.86 -227736.11 31291.1 -227640.88 31195.86 -227545.64 31195.86 -227736.11 M 32433.96 -229545.64 32243.48 -229450.4 32148.24 -229259.92 32148.24 -227545.64 M 33481.58 -229545.64 33291.1 -229450.4 33195.86 -229259.92 33195.86 -227545.64 M 35767.29 -229545.64 35767.29 -227545.64 36433.96 -228974.21 37100.62 -227545.64 37100.62 -229545.64 M 38910.15 -229545.64 38910.15 -228498.02 38814.91 -228307.54 38624.43 -228212.3 38243.48 -228212.3 38053.01 -228307.54 M 38910.15 -229450.4 38719.67 -229545.64 38243.48 -229545.64 38053.01 -229450.4 37957.77 -229259.92 37957.77 -229069.45 38053.01 -228878.97 38243.48 -228783.73 38719.67 -228783.73 38910.15 -228688.49 M 39862.53 -228212.3 39862.53 -230212.3 M 39862.53 -228307.54 40053.01 -228212.3 40433.96 -228212.3 40624.43 -228307.54 40719.67 -228402.78 40814.91 -228593.26 40814.91 -229164.68 40719.67 -229355.16 40624.43 -229450.4 40433.96 -229545.64 40053.01 -229545.64 39862.53 -229450.4 M 41672.05 -229355.16 41767.29 -229450.4 41672.05 -229545.64 41576.82 -229450.4 41672.05 -229355.16 41672.05 -229545.64 M 41672.05 -228307.54 41767.29 -228402.78 41672.05 -228498.02 41576.82 -228402.78 41672.05 -228307.54 41672.05 -228498.02" fill="none" stroke-width="200"/></g></svg>