<svg version="1.1" xmlns="http://www.w3.org/2000/svg" xmlns:xlink="http://www.w3.org/1999/xlink" stroke-linecap="round" stroke-linejoin="round" stroke-width="0" fill-rule="evenodd" width="5.977mm" height="58.17mm" viewBox="243662.5 -170863 5977 58170" id="_87npnN9F0muk5VSpnif"><defs><g id="_87npnN9F0muk5VSpnif_pad-10"><polygon points="725,87.5 -725,87.5 -725,-87.5 725,-87.5"/><circle cx="725" cy="87.5" r="87.5"/><circle cx="-725" cy="87.5" r="87.5"/><circle cx="-725" cy="-87.5" r="87.5"/><circle cx="725" cy="-87.5" r="87.5"/><polygon points="725,0 -725,0 -725,175 725,175"/><polygon points="-637.5,87.5 -637.5,-87.5 -812.5,-87.5 -812.5,87.5"/><polygon points="-725,-175 725,-175 725,0 -725,0"/><polygon points="812.5,-87.5 812.5,87.5 637.5,87.5 637.5,-87.5"/></g></defs><g transform="translate(0,-283556) scale(1,-1)" fill="currentColor" stroke="currentColor"><use xlink:href="#_87npnN9F0muk5VSpnif_pad-10" x="248827" y="-114868"/><use xlink:href="#_87npnN9F0muk5VSpnif_pad-10" x="248827" y="-114368"/><use xlink:href="#_87npnN9F0muk5VSpnif_pad-10" x="248827" y="-113868"/><use xlink:href="#_87npnN9F0muk5VSpnif_pad-10" x="248827" y="-113368"/><use xlink:href="#_87npnN9F0muk5VSpnif_pad-10" x="248827" y="-112868"/><use xlink:href="#_87npnN9F0muk5VSpnif_pad-10" x="244602" y="-112868"/><use xlink:href="#_87npnN9F0muk5VSpnif_pad-10" x="244602" y="-113368"/><use xlink:href="#_87npnN9F0muk5VSpnif_pad-10" x="244602" y="-113868"/><use xlink:href="#_87npnN9F0muk5VSpnif_pad-10" x="244602" y="-114368"/><use xlink:href="#_87npnN9F0muk5VSpnif_pad-10" x="244602" y="-114868"/><use xlink:href="#_87npnN9F0muk5VSpnif_pad-10" x="248700" y="-170688"/><use xlink:href="#_87npnN9F0muk5VSpnif_pad-10" x="248700" y="-170188"/><use xlink:href="#_87npnN9F0muk5VSpnif_pad-10" x="248700" y="-169688"/><use xlink:href="#_87npnN9F0muk5VSpnif_pad-10" x="248700" y="-169188"/><use xlink:href="#_87npnN9F0muk5VSpnif_pad-10" x="248700" y="-168688"/><use xlink:href="#_87npnN9F0muk5VSpnif_pad-10" x="244475" y="-168688"/><use xlink:href="#_87npnN9F0muk5VSpnif_pad-10" x="244475" y="-169188"/><use xlink:href="#_87npnN9F0muk5VSpnif_pad-10" x="244475" y="-169688"/><use xlink:href="#_87npnN9F0muk5VSpnif_pad-10" x="244475" y="-170188"/><use xlink:href="#_87npnN9F0muk5VSpnif_pad-10" x="244475" y="-170688"/><use xlink:href="#_87npnN9F0muk5VSpnif_pad-10" x="248827" y="-137696"/><use xlink:href="#_87npnN9F0muk5VSpnif_pad-10" x="248827" y="-137196"/><use xlink:href="#_87npnN9F0muk5VSpnif_pad-10" x="248827" y="-136696"/><use xlink:href="#_87npnN9F0muk5VSpnif_pad-10" x="248827" y="-136196"/><use xlink:href="#_87npnN9F0muk5VSpnif_pad-10" x="248827" y="-135696"/><use xlink:href="#_87npnN9F0muk5VSpnif_pad-10" x="244602" y="-135696"/><use xlink:href="#_87npnN9F0muk5VSpnif_pad-10" x="244602" y="-136196"/><use xlink:href="#_87npnN9F0muk5VSpnif_pad-10" x="244602" y="-136696"/><use xlink:href="#_87npnN9F0muk5VSpnif_pad-10" x="244602" y="-137196"/><use xlink:href="#_87npnN9F0muk5VSpnif_pad-10" x="244602" y="-137696"/></g></svg>